<?xml version="1.0" encoding="utf-8"?>
<!-- Generator: Adobe Illustrator 24.0.1, SVG Export Plug-In . SVG Version: 6.00 Build 0)  -->
<svg version="1.1" id="Layer_1" xmlns="http://www.w3.org/2000/svg" xmlns:xlink="http://www.w3.org/1999/xlink" x="0px" y="0px"
	 viewBox="0 0 500 500" style="enable-background:new 0 0 500 500;" xml:space="preserve">
<style type="text/css">
	.st0{fill:#FCB919;}
	.st1{fill:#0293CE;}
	.st2{fill:#97D9F0;}
	.st3{fill:#77A140;}
	.st4{fill:#C8DF8E;}
	.st5{fill:#F48326;}
	.st6{fill:#F28093;}
	.st7{fill:#ED3026;}
</style>
<g>
	<path class="st0" d="M236.4,359.9c57.1-0.8,159.9-89.3,98.2-154.7c-11.6-29.3-49.1-34.8-76.8-35.9c-30.6,11.3-54.9,25.3-66.2,53.6
		c-26.6,81.7,91.3,123.8,111.7,46.5c0-11.9-1.9-24-6.4-34.6c-12.9-7.9-30.4-19.8-47.2-19.8c-6.6,4.2-15.3,6.1-18.5,13.2l1.8,30.6
		c3.5,5.3,7.7,7.4,12.7,6.3l0.5-26.4c10.8-5.6,29.8,12.4,34.3,20.1c-4.2,8.2-10.8,18.5-22.7,19.5c-17.4,4-31.6-0.8-42.5-12.9
		c-7.6-16.3-10.3-39.1-1.1-53.1c17.4-13.2,34.6-23.8,58.1-23.8c24.3,5,41.7,22.7,50.9,40.9c7,41.8-7.7,73.2-44.3,94
		c-62.4,6.2-101.3-21.7-116.9-83.7c13.6-21.4,22.9-42.8,33.2-63.9c5.7-1.1,66.1-13.4,67.9-18.8c0-0.2-0.5-1.3-1.1-2.4
		c-68.9-66.8-152.7,100.6-97.2,161C188.3,338.5,206.8,353.3,236.4,359.9"/>
	<g>
		<path class="st1" d="M261.3,117.5c-1.2-19.2,2.8-45-10.1-59.7L239,62.4l4.1,61.7l15.6-0.4l2.7-5.2L261.3,117.5z"/>
		<path class="st1" d="M261.3,433.5c-1.2-19.2,2.8-45-10.1-59.7l-12.3,4.7l4.1,61.7l15.6-0.4l2.7-5.2L261.3,433.5z"/>
	</g>
	<g>
		<path class="st2" d="M313.6,133.2c6.7-18,20.7-40.1,14.9-58.7l-13.1-0.6L294.3,132l14.4,5.9l4.6-3.6L313.6,133.2z"/>
		<path class="st2" d="M186.1,422.4c6.7-18,20.7-40.1,14.9-58.7l-13.1-0.7l-21.1,58.1l14.4,5.9l4.6-3.6L186.1,422.4z"/>
	</g>
	<g>
		<path class="st3" d="M355.1,168.7c13.4-13.8,35.1-28.3,37.3-47.7l-11.7-5.9l-42.7,44.7l10.8,11.2l5.6-1.5L355.1,168.7z"/>
		<path class="st3" d="M121.8,381.9c13.4-13.8,35.1-28.3,37.3-47.7l-11.7-5.9L104.6,373l10.8,11.2l5.6-1.5L121.8,381.9z"/>
	</g>
	<g>
		<path class="st4" d="M378.7,217.9c17.8-7.2,43.5-11.7,53.3-28.6l-8.4-10.1l-57.1,23.6l5.4,14.6l5.8,0.9L378.7,217.9z"/>
		<path class="st4" d="M79.3,318.9c17.8-7.2,43.5-11.7,53.3-28.6l-8.4-10.1l-57.1,23.6l5.4,14.6l5.8,0.9L79.3,318.9z"/>
	</g>
	<g>
		<path class="st5" d="M380.5,272.5c19.2,0.6,44.6,6.8,60.4-4.7l-3.6-12.6l-61.8-1.4l-1,15.5l4.9,3.2L380.5,272.5z"/>
		<path class="st5" d="M65.7,244.1c19.2,0.6,44.6,6.8,60.4-4.7l-3.6-12.6l-61.8-1.4l-1,15.5l4.9,3.2L65.7,244.1z"/>
	</g>
	<g>
		<path class="st6" d="M360.1,323.1c17.4,8.3,38,24.2,57.1,20.1l1.8-13l-56-26.2l-7.2,13.8l3.2,4.9L360.1,323.1z"/>
		<path class="st6" d="M83.5,170.2c17.4,8.3,38,24.2,57.1,20.1l1.8-13l-56-26.2l-7.2,13.8l3.2,4.9L83.5,170.2z"/>
	</g>
	<g>
		<path class="st7" d="M321,361.3c12.5,14.6,25,37.5,44.1,41.4l6.9-11.2L331.5,345l-12.1,9.7l1,5.8L321,361.3z"/>
		<path class="st7" d="M129.6,109.8c12.5,14.6,25,37.5,44.2,41.4l6.9-11.2l-40.6-46.6l-12.1,9.7l1,5.7L129.6,109.8z"/>
	</g>
</g>
</svg>
