<?xml version="1.0" encoding="utf-8"?>
<!-- Generator: Adobe Illustrator 24.0.1, SVG Export Plug-In . SVG Version: 6.00 Build 0)  -->
<svg version="1.1" id="Layer_1" xmlns="http://www.w3.org/2000/svg" xmlns:xlink="http://www.w3.org/1999/xlink" x="0px" y="0px"
	 viewBox="0 0 500 500" style="enable-background:new 0 0 500 500;" xml:space="preserve">
<style type="text/css">
	.st0{fill-rule:evenodd;clip-rule:evenodd;fill:#D8D8D8;}
	.st1{fill-rule:evenodd;clip-rule:evenodd;fill:url(#SVGID_1_);}
	.st2{fill-rule:evenodd;clip-rule:evenodd;fill:url(#SVGID_2_);}
	.st3{fill-rule:evenodd;clip-rule:evenodd;fill:url(#SVGID_3_);}
	.st4{fill-rule:evenodd;clip-rule:evenodd;fill:url(#SVGID_4_);}
</style>
<g>
	<g>
		<path class="st0" d="M328.2,271.1c26.4-3.8,38.9-21.1,41.9-38.8c4.1-24-10.7-50.7-39.6-62.1c24.7,7.1,52.1,23.7,55.8,65.2
			c3.7,41.5-26.7,75.3-66.7,78.7C295.8,316,321.2,271.1,328.2,271.1z"/>
		<path class="st0" d="M250.2,121.1c-16.3-21-37.7-23.1-54.4-16.9c-22.9,8.6-38.7,34.6-33.9,65.3c-6.3-24.8-5.6-57,28.6-80.8
			c34.1-24,78.3-14.5,101.4,18.4C305.4,126.8,254,128,250.2,121.1z"/>
		<path class="st0" d="M159.1,265.1c-10.2,24.7-1.6,44.3,12,55.8c18.7,15.8,49.1,16.6,73.5-2.5c-18.6,17.6-46.9,32.8-84.5,14.8
			c-37.6-17.9-51.2-61.3-33.7-97.4c10.4-21.6,64.5,17.2,44,7.4C166.1,241,164,255.9,159.1,265.1z"/>
	</g>
	<g>
		<radialGradient id="SVGID_1_" cx="239.1361" cy="195.2113" r="135.1541" gradientUnits="userSpaceOnUse">
			<stop  offset="0" style="stop-color:#A1DD0E"/>
			<stop  offset="1" style="stop-color:#5AC42E"/>
		</radialGradient>
		<path class="st1" d="M320.4,294.8c31.7,2.5,50.8-14.3,58.8-34.1c11-26.9,0.8-61.8-29.8-82.6c26.9,14.7,54.4,41.2,47.8,90.5
			c-6.6,49.3-50.8,80.6-98.3,74c-28-4-51.3-21.1-64.1-44.5c-5.9-9.4-8.7-20.8-7.1-32.6c3.8-26.9,28.7-45.8,55.6-42.2
			c26.9,3.8,45.8,28.9,42,55.7C324.5,284.6,322.8,289.8,320.4,294.8z"/>
		<radialGradient id="SVGID_2_" cx="208.8547" cy="75.9859" r="191.3581" gradientUnits="userSpaceOnUse">
			<stop  offset="5.494510e-03" style="stop-color:#FFB583"/>
			<stop  offset="0.489" style="stop-color:#FF6600"/>
			<stop  offset="0.9341" style="stop-color:#D33409"/>
		</radialGradient>
		<path class="st2" d="M274.7,115.1c-13.5-28.7-37.8-36.8-58.9-34c-28.8,4-54.1,30.2-56.5,67.1c-0.8-30.5,8.4-67.8,54.4-86.6
			c46-19,95,3.6,113.1,48c10.7,26.5,7.4,55.2-6.4,78c-5.1,9.9-13.7,18-24.9,22.4c-24.9,10.2-53.7-2-64-27c-10.2-25.2,2-54.1,27-64.3
			C263.8,116.6,269.3,115.4,274.7,115.1z"/>
		<radialGradient id="SVGID_3_" cx="118.0175" cy="178.1764" r="175.3019" gradientUnits="userSpaceOnUse">
			<stop  offset="0" style="stop-color:#33B3E8"/>
			<stop  offset="0.989" style="stop-color:#336699"/>
		</radialGradient>
		<path class="st3" d="M138.9,246.6c-18.3,26-13.5,51.1-0.7,68.1c17.6,23.2,52.8,32.1,86.2,16.3c-26.2,15.7-63.1,25.9-102.2-4.9
			c-39.1-30.7-43.5-84.7-13.7-122.2c17.8-22.4,44.5-33.6,71-32.8c11-0.3,22.4,3.3,31.8,10.7c21.1,16.8,24.7,48,7.9,69.2
			c-17,21.3-48.1,24.7-69.4,7.9C145.5,255.4,141.8,251.3,138.9,246.6z"/>
	</g>
</g>
<radialGradient id="SVGID_4_" cx="249.8935" cy="2404.666" r="232.6254" gradientTransform="matrix(1 0 0 0.1637 0 11.9456)" gradientUnits="userSpaceOnUse">
	<stop  offset="0" style="stop-color:#CDCDCD"/>
	<stop  offset="0.7418" style="stop-color:#F4F4F4"/>
	<stop  offset="0.956" style="stop-color:#FFFFFF"/>
</radialGradient>
<ellipse class="st4" cx="249.9" cy="405.6" rx="232.6" ry="38.1"/>
</svg>
