<?xml version="1.0" encoding="utf-8"?>
<!-- Generator: Adobe Illustrator 24.0.1, SVG Export Plug-In . SVG Version: 6.00 Build 0)  -->
<svg version="1.1" id="Layer_1" xmlns="http://www.w3.org/2000/svg" xmlns:xlink="http://www.w3.org/1999/xlink" x="0px" y="0px"
	 viewBox="0 0 500 500" style="enable-background:new 0 0 500 500;" xml:space="preserve">
<style type="text/css">
	.st0{fill-rule:evenodd;clip-rule:evenodd;fill:#0071BC;}
</style>
<path class="st0" d="M201.1,226.8c-43.4-53.7-22.2-112.3,23.9-130.4c-67.4,18.9-98.1,86.7-51.1,144.7
	c-35.3-12.9-49.4-43.1-45.5-83.9c-15,40.1-22.5,78.8,22.4,107.7c-23.3,4.7-44.7-0.9-64.3-16.8c16.3,36,45.7,47.4,76.9,55.2
	c-17,6.4-36.6,6.4-57.3,3.5c36.7,29.1,68.5,26.1,99.6,18.1c5-1.3,9.3-1.7,12.8-1.5l-15,15.7l-4.4,4.6c-7.7-6.5-19.3-6.4-27,0.6
	c-4.3,3.9-6.5,9.2-6.7,14.5c0.8-2.8,2.4-5.4,4.8-7.6c6.3-5.7,15.8-5.7,22.1-0.3l-20,21l22.8-18c4.8,6.8,3.9,16.2-2.4,21.9
	c-2.3,2.1-5.1,3.5-8,4c5.3,0.3,10.8-1.4,15.1-5.3c7.7-7,8.8-18.5,3.1-26.8l5-3.9l21-16.6c13.7,12.5-5.8,51.3-34.3,59.9
	c12.3,11.2,33.9,15.9,55.7,15.4c21.8,0.5,43.4-4.2,55.7-15.4c-28.5-8.6-47.9-47.4-34.3-59.9l21,16.6l5,3.9
	c-5.8,8.3-4.6,19.8,3.1,26.8c4.3,3.9,9.7,5.6,15.1,5.3c-2.9-0.6-5.6-1.9-8-4c-6.3-5.7-7.2-15.2-2.4-21.9l22.8,18l-20-21
	c6.3-5.4,15.8-5.4,22.1,0.3c2.3,2.1,3.9,4.7,4.7,7.6c-0.2-5.4-2.4-10.6-6.7-14.5c-7.7-7-19.2-7.1-27-0.6l-4.4-4.6l-15-15.7
	c3.6-0.2,7.8,0.2,12.8,1.5c31,8,62.8,11,99.6-18.1c-20.7,2.9-40.3,2.9-57.3-3.5c31.3-7.9,60.6-19.3,76.9-55.2
	c-19.6,15.9-41,21.4-64.3,16.8c44.9-28.9,37.4-67.6,22.4-107.7c3.9,40.9-10.2,71-45.5,83.9c47.1-57.9,16.3-125.8-51.1-144.7
	c46.1,18.1,67.2,76.7,23.9,130.4c-9.9,12.2-27.2,15.8-31.7,0.6c-1.7-5.7-2.5-12.2,0.5-17.9c3.9-7.3,16.5-6.8,20.3,0
	c-2.2-24.1-34.5-25.3-47.6-8.7c-6.1,7.7-5.6,17.6-8.2,26.5C228.3,242.6,211,239.1,201.1,226.8z"/>
</svg>
