<?xml version="1.0" encoding="utf-8"?>
<!-- Generator: Adobe Illustrator 24.0.1, SVG Export Plug-In . SVG Version: 6.00 Build 0)  -->
<svg version="1.1" id="Layer_1" xmlns="http://www.w3.org/2000/svg" xmlns:xlink="http://www.w3.org/1999/xlink" x="0px" y="0px"
	 viewBox="0 0 500 500" style="enable-background:new 0 0 500 500;" xml:space="preserve">
<style type="text/css">
	.st0{fill:#FFFFFF;}
	.st1{fill:#F2F2F2;}
	.st2{fill:#E5E5E6;}
	.st3{fill:#D8D9D9;}
	.st4{fill:#CBCCCD;}
	.st5{fill:#BEBFC0;}
	.st6{fill:#B2B2B4;}
	.st7{fill:#A5A6A7;}
	.st8{fill:#98999B;}
	.st9{fill:#8B8C8E;}
	.st10{fill:#7E7F82;}
	.st11{fill:#525252;}
	.st12{fill:#F5F5F5;}
	.st13{fill:#EAEBEB;}
	.st14{fill:#E0E0E1;}
	.st15{fill:#D5D6D7;}
	.st16{fill:#C0C2C3;}
	.st17{fill:#B6B8BA;}
	.st18{fill:#ABADB0;}
	.st19{fill:#919191;}
	.st20{fill:#959595;}
	.st21{fill:#999999;}
	.st22{fill:#9D9D9D;}
	.st23{fill:#A1A1A1;}
	.st24{fill:#A5A5A5;}
	.st25{fill:#A9A9A9;}
	.st26{fill:#ADADAD;}
	.st27{fill:#B1B1B1;}
	.st28{fill:#B5B5B5;}
	.st29{fill:url(#SVGID_1_);}
	.st30{fill:url(#SVGID_2_);}
	.st31{fill:url(#SVGID_3_);}
	.st32{fill:url(#SVGID_4_);}
	.st33{fill:#AA702B;}
	.st34{fill:#7F670F;}
	.st35{fill:#B7950F;}
	.st36{fill:url(#SVGID_5_);}
	.st37{fill:url(#SVGID_6_);}
	.st38{fill:url(#SVGID_7_);}
	.st39{fill:#454545;}
	.st40{fill:url(#SVGID_8_);}
	.st41{fill:url(#SVGID_9_);}
	.st42{fill:url(#SVGID_10_);}
	.st43{fill:url(#SVGID_11_);}
	.st44{fill:url(#SVGID_12_);}
	.st45{fill:url(#SVGID_13_);}
	.st46{fill:url(#SVGID_14_);}
	.st47{fill:url(#SVGID_15_);}
	.st48{fill:url(#SVGID_16_);}
</style>
<g>
	<g>
		<path class="st0" d="M181.5,333.6c-4-29.7-132.6-16.5-126,14.5c0.5,2.4,0.8,4.9,1.6,7.2l0-0.1c2.7,8.3,17.9,12.8,30,14
			c28.6,3.6,86.4-2.3,95.4-24.7c0.5-1.3,0.7-2.6,0.5-3.9C182.7,338.4,182,336,181.5,333.6z"/>
		<path class="st1" d="M179.5,332.5c-3.9-27.4-126-15.5-120.8,14c0.4,2.3,0.7,4.7,1.5,7l0-0.1c2.6,8.1,17.2,12.3,28.8,13.6
			c27.4,3.2,83.1-2,91.4-23.9c0.5-1.2,0.6-2.5,0.5-3.8C180.6,337.1,180,334.8,179.5,332.5z"/>
		<path class="st2" d="M177.4,331.4c-3.8-25.2-119.7-14.4-115.5,13.5c0.3,2.2,0.7,4.6,1.4,6.8l0-0.1c2.5,7.8,16.4,11.9,27.5,13.2
			c26.3,3.1,79.5-1.9,87.4-23.1c0.4-1.2,0.6-2.4,0.5-3.6C178.5,335.8,177.9,333.6,177.4,331.4z"/>
		<path class="st3" d="M175.3,330.2c-3.6-22.9-113.4-13.4-110.2,13c0.3,2.2,0.7,4.4,1.4,6.6l0,0c2.4,7.6,15.7,11.6,26.3,12.9
			c25.1,3.1,75.8-1.8,83.3-22.3c0.4-1.2,0.6-2.4,0.5-3.5C176.4,334.6,175.8,332.4,175.3,330.2z"/>
		<path class="st4" d="M173.3,329.1c-3.5-20.7-107.1-12.3-104.9,12.5c0.2,2.1,0.7,4.3,1.3,6.4l0,0c2.3,7.4,15,11.2,25.1,12.5
			c23.9,3,72.2-1.7,79.3-21.6c0.4-1.1,0.5-2.3,0.4-3.4C174.3,333.3,173.7,331.2,173.3,329.1z"/>
		<path class="st5" d="M171.2,327.9c-3.4-18.4-100.8-11.3-99.7,12c0.1,2,0.6,4.2,1.3,6.2l0,0c2.2,7.1,14.2,10.8,23.8,12.1
			c22.7,2.9,68.6-1.6,75.3-20.8c0.4-1.1,0.5-2.2,0.4-3.3C172.2,332,171.6,330,171.2,327.9z"/>
		<path class="st6" d="M169.2,326.8c-3.3-16.2-94.6-10.2-94.4,11.5c0,2,0.6,4,1.2,5.9l0,0c2.1,6.9,13.5,10.5,22.6,11.7
			c21.5,2.8,65-1.4,71.3-20c0.4-1,0.5-2.1,0.4-3.2C170.1,330.7,169.6,328.8,169.2,326.8z"/>
		<path class="st7" d="M167.1,325.7c-3.2-13.9-88.4-9.1-89.1,11c-0.1,1.9,0.6,3.9,1.1,5.7l0,0c2,6.6,12.7,10.1,21.3,11.3
			c20.3,2.8,61.3-1.3,67.3-19.2c0.3-1,0.5-2,0.4-3.1C168,329.5,167.5,327.6,167.1,325.7z"/>
		<path class="st8" d="M165,324.5c-3.1-11.7-82.3-8-83.8,10.5c-0.2,1.8,0.5,3.7,1.1,5.5l0,0c1.9,6.4,12,9.8,20.1,10.9
			c19.1,2.7,57.7-1.2,63.3-18.4c0.3-1,0.4-2,0.3-3C165.9,328.2,165.4,326.3,165,324.5z"/>
		<path class="st9" d="M163,323.4c-3-9.4-76.1-7-78.6,9.9c-0.2,1.7,0.5,3.6,1,5.3l0,0c1.8,6.1,11.3,9.4,18.8,10.5
			c17.9,2.6,54.1-1.1,59.3-17.6c0.3-0.9,0.4-1.9,0.3-2.8C163.8,326.9,163.3,325.1,163,323.4z"/>
		<path class="st10" d="M160.9,322.3c-2.9-7.2-70.1-5.9-73.3,9.4c-0.3,1.7,0.5,3.4,1,5.1l0,0c1.7,5.9,10.5,9,17.6,10.1
			c16.7,2.5,50.5-1,55.3-16.8c0.3-0.9,0.4-1.8,0.3-2.7C161.7,325.6,161.3,323.9,160.9,322.3z"/>
		<path class="st11" d="M158.9,321.1c-2.8-4.9-64-4.9-68,8.9c-0.5,1.6,0.5,3.3,0.9,4.9l0,0c1.5,5.7,9.8,8.8,16.3,9.7
			c15.5,2.7,46.7-0.9,51.3-16c0.2-0.9,0.3-1.7,0.3-2.6C159.5,324.4,159.2,322.7,158.9,321.1z"/>
	</g>
	<g>
		<path class="st0" d="M437.4,364.2c0,14.8-70.3,27.5-158.3,27.5c-87.4,0-158.3-12.3-158.3-27.5c0-15.2,70.9-27.5,158.3-27.5
			C366.5,336.7,437.4,349,437.4,364.2z"/>
		<path class="st12" d="M430.3,363.6c0,14-70.2,27.4-155.5,26.5c-85.8-1-149.9-12.5-152-25.9c-2.2-13.3,68.8-26.1,153.8-26.2
			C361.4,337.8,430.3,349.2,430.3,363.6z"/>
		<path class="st13" d="M423.3,362.9c0,13.2-70,27.3-152.8,25.5c-84.1-2-138.8-13.2-145.8-24.2c-1.6-11.6,66.8-24.6,149.2-25
			C356.4,338.9,423.3,349.5,423.3,362.9z"/>
		<path class="st14" d="M416.3,362.3c0.1,12.4-69.9,27.2-150,24.5c-82.5-3-129-13.7-139.5-22.6c-2.5-9.8,64.7-23.2,144.7-23.8
			C351.3,339.9,416.2,349.7,416.3,362.3z"/>
		<path class="st15" d="M409.2,361.7c0.1,11.5-69.7,27.1-147.3,23.5c-80.8-4-119.2-14.1-133.2-21c-3.3-8.1,62.7-21.8,140.1-22.5
			C346.3,341,409.1,350,409.2,361.7z"/>
		<path class="st4" d="M402.2,361.1c0.1,10.7-69.6,27-144.5,22.5c-79.2-5-109.4-14.6-127-19.3c-4.1-6.3,60.6-20.4,135.6-21.3
			C341.2,342.1,402.1,350.2,402.2,361.1z"/>
		<path class="st16" d="M395.1,360.4c0.1,9.9-69.4,26.9-141.8,21.6c-77.5-6-99.7-15-120.7-17.7c-4.9-4.5,58.5-19,131-20
			C336.2,343.2,395,350.4,395.1,360.4z"/>
		<path class="st17" d="M388.1,359.8c0.1,9.1-69.3,26.8-139,20.6c-75.9-7-89.9-15.5-114.4-16.1c-5.7-2.7,56.5-17.5,126.5-18.8
			C331.1,344.3,388,350.7,388.1,359.8z"/>
		<path class="st18" d="M381.1,359.2c0.2,8.2-69.1,26.7-136.2,19.6c-74.2-8.1-80.1-13.1-108.2-14.5c-6.6-0.3,54.4-16.1,121.9-17.5
			C326,345.4,380.9,350.9,381.1,359.2z"/>
		<path class="st19" d="M374,358.6c0.2,7.4-69,26.6-133.5,18.6c-72.5-9.1-70.3-16.3-101.9-12.8c-7.4,0.8,52.4-14.7,117.4-16.3
			C321,346.4,373.8,351.2,374,358.6z"/>
		<path class="st20" d="M370.1,359.2c0.2,6.8-65.3,24-127.6,16.9c-69-8.8-71.4-14.8-99.5-12.2c-6.5,0.6,50.5-13.3,113.2-14.7
			C319,347.7,369.9,352.4,370.1,359.2z"/>
		<path class="st21" d="M366.2,359.9c0.1,6.2-61.7,21.5-121.7,15.2c-65.5-8.6-72.4-13.3-97.1-11.7c-5.7,0.4,48.7-11.9,109.1-13.2
			C317,349,366.1,353.7,366.2,359.9z"/>
		<path class="st22" d="M362.3,360.5c0.1,5.6-58,18.9-115.8,13.5c-62-8.3-73.5-11.8-94.6-11.1c-4.9,0.2,46.9-10.6,105-11.6
			C315,350.2,362.2,354.9,362.3,360.5z"/>
		<path class="st23" d="M358.4,361.1c0.1,4.9-54.3,16.3-109.9,11.8c-58.5-8-74.7-10.3-92.2-10.5c-4.1,0,45-9.2,100.9-10.1
			C312.9,351.5,358.3,356.2,358.4,361.1z"/>
		<path class="st24" d="M354.5,361.8c0.1,4.3-50.7,13.7-104,10.1c-55-7.8-75.8-8.8-89.8-9.9c-3.3-0.3,43.2-7.8,96.8-8.5
			C310.9,352.8,354.4,357.5,354.5,361.8z"/>
		<path class="st25" d="M350.5,362.4c0.1,3.7-47,11.1-98.1,8.4c-51.5-7.5-76.9-9.3-87.4-9.3c-2.5-1,41.3-6.4,92.6-6.9
			C308.9,354.1,350.5,358.7,350.5,362.4z"/>
		<path class="st26" d="M346.6,363.1c0,3.1-43.4,8.5-92.3,6.7c-48-7.3-78-8.1-85-8.8c-1.6-1.3,39.5-5,88.5-5.4
			C306.9,355.3,346.6,360,346.6,363.1z"/>
		<path class="st27" d="M342.7,363.7c0,2.5-39.7,5.9-86.4,5c-44.5-7-79.1-6.9-82.6-8.2c-0.8-1.5,37.7-3.6,84.4-3.8
			C304.9,356.6,342.7,361.3,342.7,363.7z"/>
		<path class="st28" d="M338.8,364.4c0,1.9-36,3.3-80.5,3.3c-41-6.8-80.2-5.7-80.2-7.6c0-1.8,35.8-2.2,80.3-2.2
			C302.9,357.9,338.8,362.5,338.8,364.4z"/>
	</g>
	<g>
		<g>
			
				<radialGradient id="SVGID_1_" cx="176.7091" cy="290.5598" r="127.7142" gradientTransform="matrix(0.9968 -8.030000e-02 8.030000e-02 0.9968 -9.0096 15.5765)" gradientUnits="userSpaceOnUse">
				<stop  offset="0" style="stop-color:#FFFFFF"/>
				<stop  offset="0.7198" style="stop-color:#EAB208"/>
				<stop  offset="1" style="stop-color:#785714"/>
			</radialGradient>
			<path class="st29" d="M203.6,319.3l-1.1-10.9c0,0,0,0.1,0,0.1c0.1,1,0.1,2.1,0.1,3.1c0,0.2,0,0.3,0,0.5c-0.1,1.2-0.3,2.4-0.6,3.6
				c-0.3,1.2-0.7,2.4-1.1,3.6c-0.5,1.3-1.1,2.5-1.8,3.8c-0.8,1.4-1.7,2.8-2.8,4.1c-1.3,1.7-2.8,3.3-4.5,4.9
				c-7.4,7-18.2,12.9-31,16.8c-2.8,0.9-5.8,1.6-8.8,2.3c-2.4,0.5-4.9,1-7.4,1.4c-2.2,0.3-4.5,0.6-6.8,0.9c-1.9,0.2-3.9,0.3-5.8,0.4
				c-0.2,0-0.4,0-0.6,0c-2.1,0.1-4.3,0.1-6.3,0.1c-2.1,0-4.2-0.1-6.3-0.2c-2.2-0.1-4.4-0.3-6.5-0.6c-2.4-0.3-4.7-0.6-6.9-1.1
				c-2.8-0.5-5.6-1.2-8.2-2c-18.3-5.3-30.6-15.7-31.9-28.4l1.1,10.9c1.2,12.7,13.6,23.1,31.9,28.4c2.6,0.8,5.3,1.4,8.2,2
				c2.2,0.4,4.5,0.8,6.9,1.1c2.1,0.3,4.3,0.4,6.5,0.6c2.1,0.1,4.2,0.2,6.3,0.2c2.1,0,4.2,0,6.3-0.1c0.2,0,0.4,0,0.6,0
				c2-0.1,3.9-0.2,5.8-0.4c2.3-0.2,4.5-0.5,6.8-0.9c2.5-0.4,5-0.8,7.4-1.4c3-0.7,6-1.4,8.8-2.3c12.7-3.9,23.5-9.8,31-16.8
				c1.7-1.6,3.2-3.2,4.5-4.9c1-1.3,2-2.7,2.8-4.1c0.7-1.2,1.3-2.5,1.8-3.8c0.5-1.2,0.9-2.4,1.1-3.6c0.3-1.2,0.5-2.4,0.6-3.6
				c0-0.2,0-0.3,0-0.5C203.8,321.5,203.8,320.4,203.6,319.3C203.7,319.4,203.7,319.3,203.6,319.3z"/>
			
				<radialGradient id="SVGID_2_" cx="163.5235" cy="262.6858" r="124.5576" gradientTransform="matrix(0.9968 -8.030000e-02 8.030000e-02 0.9968 -9.0096 15.5765)" gradientUnits="userSpaceOnUse">
				<stop  offset="0" style="stop-color:#FFFFFF"/>
				<stop  offset="0.7198" style="stop-color:#CB7D0A"/>
				<stop  offset="1" style="stop-color:#593310"/>
			</radialGradient>
			<path class="st30" d="M88.4,347.1l1.1,10.9c2.8,1.2,5.7,2.3,8.9,3.2l-1.1-10.9C94.2,349.3,91.2,348.3,88.4,347.1z M105.7,352.2
				l1.1,10.9c3.4,0.6,7,1.1,10.7,1.4l-1.1-10.9C112.7,353.4,109.1,352.9,105.7,352.2z M67.3,328.9l1.1,10.9c0.9,2,2.1,3.9,3.6,5.8
				l-1.1-10.9C69.4,332.8,68.2,330.9,67.3,328.9z M65.4,321.8c0.4,3.6,0.7,7.3,1.1,10.9c0.1,0.6,0.1,1.1,0.2,1.6l-1.1-10.9
				C65.5,322.9,65.4,322.4,65.4,321.8z M75.3,339.1l1.1,10.9c1.9,1.7,4.1,3.2,6.5,4.6l-1.1-10.9C79.4,342.3,77.2,340.8,75.3,339.1z
				 M147.8,352.1l1.1,10.9c3.7-0.7,7.4-1.5,10.9-2.5l-1.1-10.9C155.2,350.5,151.6,351.4,147.8,352.1z M202.7,309.9
				c0,0.6,0,1.2,0,1.8c-0.1,1.7-0.3,3.3-0.8,4.9l1.1,10.9c0.4-1.6,0.7-3.3,0.8-4.9c0-0.6,0-1.2,0-1.8L202.7,309.9z M195.5,328.3
				l1.1,10.9c1.7-2,3.1-4.1,4.2-6.2l-1.1-10.9C198.6,324.2,197.2,326.3,195.5,328.3z M183.6,338.5l1.1,10.9c2.6-1.7,4.9-3.4,7-5.3
				l-1.1-10.9C188.5,335.1,186.2,336.9,183.6,338.5z M132.1,353.9c-2,0.1-4,0.2-5.9,0.2l1.1,10.9c1.9,0,3.9-0.1,5.9-0.2
				c2-0.1,4-0.2,5.9-0.4l-1.1-10.9C136,353.6,134.1,353.8,132.1,353.9z M167.4,346.7l1.1,10.9c3.2-1.2,6.3-2.6,9.2-4.1l-1.1-10.9
				C173.7,344.1,170.6,345.4,167.4,346.7z"/>
			
				<linearGradient id="SVGID_3_" gradientUnits="userSpaceOnUse" x1="139.5576" y1="263.4201" x2="107.1932" y2="335.0411" gradientTransform="matrix(0.9968 -8.030000e-02 8.030000e-02 0.9968 -9.0096 15.5765)">
				<stop  offset="0" style="stop-color:#F6DF45"/>
				<stop  offset="0.1429" style="stop-color:#FFFFFF"/>
				<stop  offset="0.3956" style="stop-color:#F1CB42"/>
				<stop  offset="0.5714" style="stop-color:#FFFFFF"/>
				<stop  offset="0.6145" style="stop-color:#FBEFC7"/>
				<stop  offset="0.7221" style="stop-color:#F0C83F"/>
				<stop  offset="0.7692" style="stop-color:#ECB908"/>
				<stop  offset="0.8428" style="stop-color:#F2D05B"/>
				<stop  offset="0.9517" style="stop-color:#FBF2D0"/>
				<stop  offset="1" style="stop-color:#FFFFFF"/>
			</linearGradient>
			<path class="st31" d="M135.9,276.4c37.9-1.9,67.8,13.8,66.8,35.3c-1.1,21.4-32.7,40.3-70.6,42.3c-37.9,1.9-67.8-13.9-66.8-35.3
				C66.4,297.2,98,278.3,135.9,276.4z"/>
			
				<radialGradient id="SVGID_4_" cx="159.4825" cy="250.9612" r="125.5478" fx="158.6669" fy="267.273" gradientTransform="matrix(0.9968 -8.030000e-02 8.030000e-02 0.9968 -9.0096 15.5765)" gradientUnits="userSpaceOnUse">
				<stop  offset="0" style="stop-color:#F1D057"/>
				<stop  offset="1.785169e-02" style="stop-color:#F2D566"/>
				<stop  offset="7.171761e-02" style="stop-color:#F5E38E"/>
				<stop  offset="0.1248" style="stop-color:#F8EDAD"/>
				<stop  offset="0.1762" style="stop-color:#FAF5C3"/>
				<stop  offset="0.2252" style="stop-color:#FBF9D0"/>
				<stop  offset="0.2692" style="stop-color:#FBFBD5"/>
				<stop  offset="0.5275" style="stop-color:#ECD363"/>
				<stop  offset="0.5922" style="stop-color:#EDD76C"/>
				<stop  offset="0.6984" style="stop-color:#F1E185"/>
				<stop  offset="0.7912" style="stop-color:#F5ECA0"/>
				<stop  offset="1" style="stop-color:#F2C41C"/>
			</radialGradient>
			<path class="st32" d="M137.2,279c34.4-1.8,61.5,12.6,60.6,32c-1,19.4-29.6,36.6-64,38.3c-34.4,1.8-61.5-12.6-60.6-32
				C74.1,297.9,102.7,280.7,137.2,279z"/>
			<path class="st33" d="M137.2,279c-29.7,1.5-55,14.5-62.1,30.5c8.3-15,32.7-26.9,61.1-28.4c34.4-1.8,61.5,12.6,60.6,32
				c-0.1,2.7-0.8,5.3-1.9,7.9c1.8-3.2,2.8-6.5,3-10C198.7,291.5,171.6,277.2,137.2,279z"/>
			<path class="st0" d="M137.8,329.2l0.5-10.4c-0.3,0-0.6-0.1-0.9-0.1l-0.6,11.6c2.9-0.4,5.2-1.2,7.1-2.4c1-0.7,1.8-1.4,2.2-2.1
				c-0.4,0.4-0.8,0.7-1.3,1C143.1,327.9,140.7,328.7,137.8,329.2z M123.4,303.5c0-0.5,0.2-1.1,0.5-1.6c-0.9,0.8-1.4,1.7-1.4,2.6
				c-0.1,1.1,0.5,2,1.7,2.8c1.2,0.8,3,1.5,5.5,1.9l0.1-1.3c-2-0.4-3.6-1-4.6-1.7C123.9,305.5,123.3,304.5,123.4,303.5z M138.8,292.1
				c6.1,0.1,10.8,0.9,14.4,2.5c3.1,1.4,5.2,3.4,6.2,5.8l1.2-0.1c-0.8-2.9-3-5.2-6.5-6.8c-3.5-1.6-8.3-2.4-14.4-2.5l0.1-2.9l-8.3,0.4
				l-0.1,1l7.5-0.4L138.8,292.1z M136.3,341.3l0.9,0l0.2-4.6c-0.3,0-0.6,0.1-0.9,0.1L136.3,341.3z M157.3,313.3
				c-3.2-1.9-9.4-3.2-18.5-4.1l0.5-10.4c-0.3-0.1-0.6-0.1-0.9-0.2l-0.6,11.6c9.1,0.8,15.3,2.2,18.5,4.1c3.2,1.9,4.8,4.4,4.6,7.6
				c-0.1,1.9-0.8,3.7-2,5.3c1.8-1.9,2.8-4.1,2.9-6.4C162.1,317.7,160.5,315.2,157.3,313.3z M120.8,323l-15,1.6
				c0.1,0.3,0.2,0.6,0.3,1l13.8-1.5c0.5,1.6,1.6,2.9,3.2,3.9c1.6,1.1,3.5,1.8,5.5,2.2l0.1-1.3c-1.7-0.4-3.3-1.1-4.7-2
				C122.4,325.9,121.3,324.6,120.8,323z M110.7,300c1-1,2.2-2,3.7-2.9c4.1-2.4,9.4-4,16-4.6l0-1c-6.2,0.7-11.3,2.2-15.2,4.5
				C113.3,297.3,111.8,298.6,110.7,300z"/>
			<path class="st34" d="M131.5,289.5l-0.9,0l-0.1,2c0.3,0,0.6-0.1,0.9-0.1L131.5,289.5z M146.9,323.8c0,0.7-0.3,1.3-0.7,1.9
				c1-0.9,1.5-1.9,1.6-3c0.1-1.3-0.6-2.4-2.1-3.3c-1.5-0.9-3.9-1.5-7.3-1.8l-0.1,1.2c3,0.4,5.1,0.9,6.5,1.7
				C146.3,321.4,147,322.5,146.9,323.8z M145.1,303.1l14.6-1.7c-0.1-0.3-0.2-0.6-0.3-0.9L146,302c-0.8-2.3-3-3.8-6.6-4.4l-0.1,1.3
				C142.5,299.6,144.4,301,145.1,303.1z M112.9,313.6c3.4,2.1,8.8,3.5,16.3,4.2l-0.6,11.2c0.3,0.1,0.6,0.1,0.9,0.2l0.6-12.5
				c-7.5-0.7-12.9-2.1-16.3-4.2c-3.4-2.1-5-4.7-4.8-7.9c0.1-1.6,0.6-3.1,1.7-4.5c-1.6,1.7-2.5,3.6-2.6,5.6
				C107.9,308.9,109.6,311.5,112.9,313.6z M130.1,299l-0.4,9c0.3,0.1,0.5,0.1,0.8,0.2l0.5-10.3c-2.3,0.5-4.1,1.3-5.5,2.3
				c-0.7,0.5-1.3,1.1-1.6,1.7c0.2-0.2,0.5-0.4,0.7-0.6C126,300.3,127.8,299.5,130.1,299z M137.5,335.7l0,1c7.1-1,12.7-2.7,16.8-5.3
				c2-1.3,3.6-2.6,4.7-4.1c-1,1.1-2.3,2.1-3.8,3C150.9,333,145,334.8,137.5,335.7z M129.2,336.3c-6.6-0.1-11.9-1.1-15.9-3
				c-3.7-1.8-6.1-4.3-7.2-7.7l-1.2,0.1c1,3.9,3.5,6.7,7.5,8.7c4,1.9,9.3,2.9,15.9,3l-0.3,5.4l8.3-0.4l0.1-1l-7.5,0.4L129.2,336.3z"
				/>
		</g>
		<path class="st0" d="M75.4,322.4c2.5-2.3,6-4.9,10.7-8.3c-6,4-10.2,6.7-13.5,8c-3.9-1.2-7.4-5.9-13.8-14.7
			c4.8,7.3,7.8,11.9,8.6,15.6c-4.4-0.6-7.9-5.4-14.8-15c12.8,19.4,12.7,19.9-6.1,33.5c8.2-5.4,13-8.5,16.9-8.9
			c-2.5,2.3-6,4.9-10.7,8.3c6-4,10.2-6.7,13.5-8c3.9,1.2,7.4,5.9,13.8,14.7c-4.8-7.3-7.8-11.9-8.6-15.6c4.4,0.6,7.9,5.4,14.8,15
			c-12.8-19.4-12.7-19.9,6.1-33.5C84.1,319,79.3,322.1,75.4,322.4z"/>
		<path class="st0" d="M147.4,274.6c2.1-2,5.2-4.2,9.3-7.1c-5.2,3.4-8.8,5.8-11.7,6.9c-3.4-1-6.4-5.1-11.9-12.7
			c4.2,6.3,6.7,10.3,7.5,13.4c-3.8-0.6-6.8-4.6-12.8-12.9c11,16.7,11,17.2-5.3,28.9c7.1-4.7,11.3-7.4,14.6-7.7
			c-2.1,2-5.2,4.2-9.3,7.1c5.2-3.4,8.8-5.8,11.7-6.9c3.4,1,6.4,5.1,11.9,12.7c-4.2-6.3-6.7-10.3-7.5-13.4c3.8,0.6,6.8,4.6,12.8,12.9
			c-11-16.7-11-17.2,5.3-28.9C154.9,271.7,150.8,274.3,147.4,274.6z"/>
		<path class="st0" d="M160.3,317.4c1.8-1.7,4.4-3.6,7.9-6.1c-4.4,2.9-7.5,4.9-10,5.9c-2.9-0.9-5.5-4.3-10.2-10.8
			c3.5,5.4,5.7,8.8,6.4,11.5c-3.2-0.5-5.8-3.9-10.9-11c9.4,14.3,9.3,14.7-4.5,24.7c6-4,9.6-6.3,12.4-6.5c-1.8,1.7-4.4,3.6-7.9,6.1
			c4.4-2.9,7.5-4.9,10-5.9c2.9,0.9,5.5,4.3,10.2,10.8c-3.5-5.4-5.7-8.8-6.4-11.5c3.2,0.5,5.8,3.9,10.9,11
			c-9.4-14.3-9.3-14.7,4.5-24.7C166.7,314.9,163.2,317.1,160.3,317.4z"/>
		<path class="st0" d="M134.3,348.1c1.8-1.7,4.4-3.6,7.9-6.1c-4.4,2.9-7.5,4.9-10,5.9c-2.9-0.9-5.5-4.3-10.2-10.8
			c3.5,5.4,5.7,8.8,6.4,11.5c-3.2-0.5-5.8-3.9-10.9-11c9.4,14.3,9.3,14.7-4.5,24.7c6-4,9.6-6.3,12.4-6.5c-1.8,1.7-4.4,3.6-7.9,6.1
			c4.4-2.9,7.5-4.9,10-5.9c2.9,0.9,5.5,4.3,10.2,10.8c-3.5-5.4-5.7-8.8-6.4-11.5c3.2,0.5,5.8,3.9,10.9,11
			c-9.4-14.3-9.3-14.7,4.5-24.7C140.7,345.5,137.2,347.8,134.3,348.1z"/>
	</g>
	<path class="st35" d="M170.9,356.6c0.7-0.3,1.4-0.6,2.1-0.9c0,0,0.1,0,0.1-0.1c0.8-0.3,1.5-0.7,2.2-1c0.1,0,0.2-0.1,0.3-0.2
		c0.6-0.3,1.2-0.6,1.8-0.9c0,0,0.1,0,0.1,0v0c2.5-1.3,4.8-2.6,7-4.1l0,0c0.1,0,0.1-0.1,0.2-0.1c0.4-0.2,0.7-0.5,1.1-0.7
		c0.2-0.2,0.5-0.3,0.7-0.5c1.2-0.8,2.3-1.7,3.4-2.6c0.1-0.1,0.2-0.2,0.3-0.2c0.4-0.4,0.9-0.7,1.3-1.1c0,0,0,0,0.1-0.1v0
		c0.4-0.4,0.8-0.7,1.2-1.1c1.3-1.3,2.6-2.5,3.7-3.9v0c0.1-0.1,0.2-0.2,0.3-0.3c0.2-0.2,0.4-0.5,0.6-0.7c0-0.1,0.1-0.1,0.1-0.2
		c0.5-0.6,0.9-1.2,1.3-1.8c0-0.1,0.1-0.1,0.1-0.2c0.4-0.5,0.7-1.1,1-1.7c0-0.1,0.1-0.2,0.2-0.3c0.1-0.2,0.2-0.3,0.2-0.5
		c0.1-0.2,0.2-0.4,0.3-0.6l0,0c0.5-0.9,0.9-1.8,1.3-2.7c0.4-1,0.7-1.9,0.9-2.9l0,0c0-0.2,0.1-0.4,0.1-0.6c0-0.1,0-0.2,0.1-0.2
		c0-0.1,0-0.1,0-0.2c0.1-0.5,0.2-1,0.3-1.6c0-0.1,0-0.2,0-0.3c0.1-0.5,0.1-0.9,0.2-1.4c0-0.1,0-0.2,0-0.2c0-0.2,0-0.3,0-0.5
		c0-0.6,0-1.1,0-1.7c0,0,0-0.1,0-0.1l0-0.1c0-0.4,0-0.8-0.1-1.2c0,0,0-0.1,0-0.1l-1.1-10.9c0,0,0,0.1,0,0.1c0,0.2,0,0.5,0,0.7
		c-0.9-15-17.2-26.9-40.5-31.2c-0.2,0-0.9,1.7-1.1,2.5c0.3,0.7,0.5,2.2,0.5,2.3c-0.9,6-1.3,11.4-1.4,16.2c0,0.7-0.7,1-0.7,1.7
		c0,0.5,0.8,1,0.8,1.5c0.2,18.9,4.2,28.7-5.4,34c-6.4,3.5-10.7,7.8-14.5,10.6c-0.7,0.5-2.2-0.1-2.8,0.4c-2.5,2.2-4.3,4.2-5.2,6.3
		c0.3,3,1.3,8.4,3.3,10.6c3.8,2.9,10.9-4.3,23.8-3.7c0.1,0,0.3-0.1,0.4-0.1l0,0c0.7-0.2,1.5-0.4,2.2-0.6c2.2-0.7,4.4-1.4,6.5-2.2v0
		c0.1,0,0.2-0.1,0.2-0.1c0.5-0.2,1-0.4,1.5-0.6C170.4,356.8,170.7,356.7,170.9,356.6z"/>
	<g>
		<g>
			<radialGradient id="SVGID_5_" cx="212.001" cy="178.3844" r="250.8718" gradientUnits="userSpaceOnUse">
				<stop  offset="0" style="stop-color:#DBD7C4"/>
				<stop  offset="0.7857" style="stop-color:#CAC3A6"/>
				<stop  offset="1" style="stop-color:#816E4A"/>
			</radialGradient>
			<path class="st36" d="M372.7,367.8c-50,5.7-134.1,15-201.2-3.5c-17.3-4.8-31.6,3.4-36.3-0.2c-4-8.8,3.2-15.1,22.3-25.6
				c17.8-9.8-13.5-34.4,24.5-105.5c24.4-45.8,57.8-60.3,65.8-73.2c10.8-12.7-14.5-3.1-25.8-3.2c-7.3-0.1,6.1-8.2,3.4-13.6
				c-1.2-6.9,16.7-7.2,17.3-14c0.6-6.7,18-14.5,23.3-14c5.4,0.5,21-13.6,21.4-4.1c-12.3,3.8-15.3,23.1-11.3,39.4
				c0.6,2.4,9.4,10.3,23.1,22.4c15.4,13.6,42.7,45.4,60.3,86.1c15.6,36,14.8,74.1,16.1,81.3c1.8,10.1,11,9.2,17.8,13.9
				c8.8,6.1,3.9,10.4,1.2,11.5C389.6,367.2,378.2,367.1,372.7,367.8z"/>
			<radialGradient id="SVGID_6_" cx="223.6134" cy="198.2946" r="202.4684" gradientUnits="userSpaceOnUse">
				<stop  offset="0" style="stop-color:#FFFFFF"/>
				<stop  offset="1" style="stop-color:#DDD0AC"/>
			</radialGradient>
			<path class="st37" d="M266.5,372.5c-36.4,0-68.1-3.7-94.2-10.9c-4-1.1-8-1.6-12.5-1.6c-4.5,0-8.7,0.6-12.5,1.2l-1.7,0.3
				c-2.7,0.5-5,0.8-6.8,0.8c-0.7,0-1.2-0.1-1.5-0.2c-2-5.4,1.3-10.2,21.5-21.3c16.6-8.5,60.5-0.4,73.1,6.2
				c-23.9-19.2-60.6-19-66-16.3c0.6-3.7,0.2-7.9-0.3-12.9c-0.1-1.1,7.5-7.2,20.8-5c-9.5-5.3-21.2,0.3-21.3-0.4
				c-1-11.1-1.4-23.2,6.9-40.8c4.5-9.5,62.5-59.9,140.1,9.3c-53.2-69.8-130.5-42.7-140.7-21c28.5-62,48.6-72,63-83.8
				c4.4-3.6,8.3-6.8,11.3-9.8c1.7-1.8,14.7-6.6,29.3,5.6c-8.8-13.9-24.1-11.9-23.7-12.5c1.4-2,2.3-4.2,1.4-6.3
				c-1.3-2.8-4.9-2.8-6.1-2.8c-3.1,0-7.4,0.8-11.9,1.6l-0.5,0.1c-3.5,0.6-7.4,1.4-10.5,1.6c0.1-0.2,0.3-0.4,0.4-0.5
				c1.6-2.1,3.6-4.6,4.1-7.4c4.8,0.3,19-4,28.4,9.2c-5.1-14.1-28.5-12.4-28.7-12.9c0.1-1.4,4-2.9,6.8-4c4.2-1.7,8.8-3.6,10.2-7.3
				c0.2-0.5,14.9,9.8,19.2,24.2c-3.7-20.3-17.1-28.3-16.8-28.8c2.6-4.2,13-8.7,18.1-8.7l0.3,0c0.2,0,0.3,0,0.5,0c1,0,2-0.2,3.1-0.6
				c0.4-0.1-4.6,14.2-1.2,28.6c0.5-21.9,5.9-30.7,7.9-31.8l0.4-0.2c1.2-0.7,2.8-1.5,4.2-2.2c-8.9,7.6-10.9,24.6-7.2,39.4
				c0.2,0.9,0.9,2,2.1,3.5c-0.9,1.6-7,6.1-13.6,4.3c5.9,2.5,12.2,0.9,15.6-2.1c3.5,3.6,9.6,9.1,19.7,18.1
				c13.7,12.1,41.6,43.6,59.6,85.1c12.3,28.4,14.3,58.4,15.2,72.8c0.2,3.7,0.3,2.7,0.6,4.2c-0.1,3.9-17.5,3-38.8-6.2
				c8.7,10.2,34.6,13.9,38.9,11.5c1.2,2,2.9,5.5,4.6,6.7c0.5,0.3-16.4-7.9-30.6,9.1c16.8-12.8,42.9-3.1,44.8-1.8
				c1.4,1,3.1,2.4,3.1,3.9c0,1.1-0.7,2.4-1.4,2.7c-4.8,2.3-21.2,2.4-21.2,2.4C346.3,368,306.9,372.5,266.5,372.5L266.5,372.5z"/>
		</g>
		<g>
			<radialGradient id="SVGID_7_" cx="215.3184" cy="225.6696" r="182.4808" gradientUnits="userSpaceOnUse">
				<stop  offset="0" style="stop-color:#A59E86"/>
				<stop  offset="1" style="stop-color:#988066"/>
			</radialGradient>
			<path class="st38" d="M303.3,281.4c0,11.3-3.3,22.9-9.9,30.8c-6.6,8-15.5,11.2-26.7,11.3c0,5.6,0,11.2,0,16.8
				c-0.3,0.3-0.6,0.6-1,0.9c-2.2,0-4.4,0-6.6,0c-0.3-0.3-0.6-0.7-0.9-1c0-5.8,0-11.6,0-17.3c-11.3-1.2-22.5-5.3-33.5-6.9
				c-0.2-0.3-0.3-0.7-0.5-1c1.1-7.2,1.7-16.7,1.8-27.9c0.3-0.4,0.6-0.9,1-1.3c1.7-0.7,3.5-1.3,5.2-1.7c0.4,0.2,0.7,0.5,1,0.8
				c0,2.2,0.1,4.5,0.1,6.7c0.1,3,0.5,5.6,1.2,8c5.2,6.5,13.1,11,23.7,13.5c0-14.8,0-29.5,0-44c-11.7-5.9-20.1-9.2-25.1-12.3
				c-6.6-4.1-9.9-9.2-9.9-19.2c0-14.2,5.6-27.4,16.8-33.5c5.1-2.9,11.1-4.3,18.2-4.7c0-2.8,0-5.6,0-8.4c0.3-0.3,0.6-0.6,0.9-0.9
				c2.2,0,4.4,0,6.6,0c0.4,0.3,0.7,0.6,1,0.9c0,2.9,0,5.8,0,8.7c11.5,1.2,21.2,4.2,29.1,7.4c0.2,0.4,0.4,0.9,0.6,1.3
				c-0.8,3.6-1.4,9.7-1.8,18.2c-0.1,2.6-0.3,5.3-0.4,7.9c-0.3,0.4-0.6,0.7-1,1.1c-1.8,0.3-3.5,0.5-5.3,0.5c-0.3-0.3-0.6-0.6-1-0.9
				c-0.2-3.1-0.3-5.3-0.3-6.8c0-3.7-0.3-6.2-0.9-7.7c-3.7-5.9-10.1-9.5-19-11.2c0,13.3,0,26.5,0,39.7c11.8,5.3,20.5,9,26.1,12
				C299.8,265.2,303.3,270.4,303.3,281.4z M258.3,245.4c0-12.3,0-24.5,0-36.5c-10.7,1.2-16,7-16,16.9
				C242.3,234.8,247.6,240.3,258.3,245.4z M284.1,295.2c0-10.3-5.8-16.5-17.4-22.1c0,13.7,0,27.3,0,40.8c5.3-0.4,9.5-2.3,12.7-5.7
				C282.5,304.9,284.1,300.4,284.1,295.2z"/>
		</g>
		<g>
			<path class="st39" d="M263,160.1c-7.5,0-14.1-2.7-14.2-2.7l0,0h0c-1.3-0.5-2-2.1-1.5-3.4l0,0c0.5-1.3,2.1-2,3.4-1.5l0,0
				c0,0,1.4,0.6,3.7,1.2l0,0c2.3,0.6,5.4,1.2,8.6,1.2l0,0c8.6,0,12.8-6,13-6.3c2.8-2.7,4.8,1.9,2.5,4.9c-4,5.1-10.1,6.6-15.4,6.6
				l0,0C263.1,160.1,263.1,160.1,263,160.1L263,160.1z"/>
		</g>
		<g>
			<path class="st39" d="M263.4,165.8c-9.2,0-17.3-3.3-17.5-3.4l0,0c-1.3-0.5-2-2.1-1.5-3.4l0,0c0.5-1.4,2.1-2,3.4-1.5l0,0
				c0,0,1.8,0.7,4.7,1.5l0,0c2.9,0.8,6.8,1.5,10.8,1.5l0,0c6.1,0,12-1.7,15.5-7.1l0,0c2.7-4.4,5.6,2.5,3.5,4.1
				c-4.9,6.4-12.3,8.2-18.8,8.2l0,0C263.5,165.8,263.4,165.8,263.4,165.8L263.4,165.8z"/>
		</g>
	</g>
	<linearGradient id="SVGID_8_" gradientUnits="userSpaceOnUse" x1="344.8862" y1="406.5737" x2="339.6328" y2="305.3682">
		<stop  offset="0" style="stop-color:#908475"/>
		<stop  offset="0.1868" style="stop-color:#82776A"/>
		<stop  offset="0.5389" style="stop-color:#5E564C"/>
		<stop  offset="1" style="stop-color:#25221E"/>
	</linearGradient>
	<path class="st40" d="M404.4,265.1c-30-18.5-63.2-19.2-74-1.7c-0.5,0.8-0.9,1.7-1.4,2.6h-4.6c-0.5,0.2-1,0.2-1.5,0.1c0,0,0,0,0-0.1
		h-9.3c-1.1,0.1-2.2,0.1-3.5,0h-7.9V266c-1.5,0.5-3,0.5-4.5,0.1c0.2,0.1,0.5,0.2,0.7,0.2c-45.7,12.6-74.6,86-36.9,111.4
		c4.2,2.8,2.8,4.7,7.3,7l2.1,2.1c4.5,2.3,14.3,5.4,32.6,3.5c21.7-2.2,42.3-18.5,42.3-18.5c1.7-1.5,3.6-8.3,5.5-15.6
		c6.1,4.7,15.4,10.1,19.8,11.8c33.3,5.2,54.8,3.9,63.6-10.3C445.4,340.3,434.4,283.6,404.4,265.1z"/>
	<g>
		<g>
			<radialGradient id="SVGID_9_" cx="354.0256" cy="222.7252" r="138.1274" gradientUnits="userSpaceOnUse">
				<stop  offset="0" style="stop-color:#FFFFFF"/>
				<stop  offset="0.7198" style="stop-color:#CB7D0A"/>
				<stop  offset="1" style="stop-color:#593310"/>
			</radialGradient>
			<path class="st41" d="M422.9,362.5c-1.6,0.1-3.2,0.2-4.9,0.2c-5.1-0.1-10.4-0.9-15.7-2.4c-23-6.4-46.4-25.4-59.3-48.6
				c-1.7-3-3.2-6.1-4.5-9.2c-1.8-4.2-3.1-8.4-4-12.4c-3.4-15.5-0.4-28.7,7.8-37.1l-7.4,7.5c-8.2,8.4-11.2,21.6-7.8,37.1
				c0.9,4,2.2,8.1,4,12.4c1.3,3.1,2.8,6.2,4.5,9.3c13,23.2,36.3,42.2,59.3,48.6c5.3,1.5,10.6,2.3,15.7,2.4c1.7,0,3.3,0,4.9-0.2
				c8.9-0.8,16-4.1,21.2-9.4l7.4-7.5C439,358.4,431.8,361.7,422.9,362.5z"/>
			<radialGradient id="SVGID_10_" cx="387.9346" cy="228.9322" r="149.3622" gradientUnits="userSpaceOnUse">
				<stop  offset="0" style="stop-color:#FFFFFF"/>
				<stop  offset="0.7198" style="stop-color:#EAB208"/>
				<stop  offset="1" style="stop-color:#785714"/>
			</radialGradient>
			<path class="st42" d="M341.6,254l-7.4,7.5c-1.6,1.8-3.1,3.9-4.2,6.1l7.4-7.5C338.5,257.9,339.9,255.8,341.6,254z M334.9,266.2
				l-7.4,7.5c-0.7,2.5-1.2,5.2-1.5,8l7.4-7.5C333.6,271.4,334.1,268.7,334.9,266.2z M333.4,281.7l-7.4,7.5c0.2,3,0.7,6.2,1.5,9.5
				l7.4-7.5C334.1,288,333.6,284.8,333.4,281.7z M338.6,302.5c-0.4-0.9-0.7-1.8-1.1-2.7l-7.4,7.5c0.3,0.9,0.7,1.8,1.1,2.7
				c1.1,2.6,2.3,5.1,3.6,7.5l7.4-7.5C340.8,307.6,339.6,305.1,338.6,302.5z M347.2,318.5l-7.4,7.5c2.1,3.2,4.4,6.3,6.9,9.2l7.4-7.5
				C351.6,324.7,349.3,321.7,347.2,318.5z M353.4,342.5c2.7,2.7,5.6,5.3,8.5,7.7l7.4-7.5c-3-2.4-5.8-5-8.5-7.7L353.4,342.5z
				 M369.8,355.9c3.1,2.1,6.3,4,9.5,5.6l7.4-7.5c-3.2-1.7-6.4-3.6-9.5-5.6L369.8,355.9z M387.7,365.4c3.3,1.3,6.6,2.3,9.8,3.1
				l7.4-7.5c-3.3-0.8-6.6-1.8-9.8-3.1L387.7,365.4z M418,362.7c-1.6,0-3.2-0.1-4.8-0.3l-7.4,7.5c1.6,0.2,3.2,0.3,4.8,0.3
				c1.6,0,3.1,0,4.6-0.2l7.4-7.5C421.2,362.7,419.6,362.7,418,362.7z M429.9,361.3l-7.4,7.5c2.6-0.7,5.1-1.7,7.3-2.9l7.4-7.5
				C435,359.6,432.6,360.6,429.9,361.3z M442.5,354.7l-7.4,7.5c0.6-0.5,1.1-1,1.6-1.5c2.5-2.5,4.9-5,7.4-7.5
				C443.6,353.7,443.1,354.2,442.5,354.7z"/>
			<linearGradient id="SVGID_11_" gradientUnits="userSpaceOnUse" x1="386.899" y1="251.359" x2="400.1319" y2="358.8737">
				<stop  offset="0" style="stop-color:#F6DF45"/>
				<stop  offset="0.1429" style="stop-color:#FFFFFF"/>
				<stop  offset="0.3956" style="stop-color:#F1CB42"/>
				<stop  offset="0.5714" style="stop-color:#FFFFFF"/>
				<stop  offset="0.6145" style="stop-color:#FBEFC7"/>
				<stop  offset="0.7221" style="stop-color:#F0C83F"/>
				<stop  offset="0.7692" style="stop-color:#ECB908"/>
				<stop  offset="0.8428" style="stop-color:#F2D05B"/>
				<stop  offset="0.9517" style="stop-color:#FBF2D0"/>
				<stop  offset="1" style="stop-color:#FFFFFF"/>
			</linearGradient>
			<path class="st43" d="M368.5,243.5c30.2,0.3,65.8,27.3,79.5,60.2c13.7,32.9,0.3,59.3-29.9,59c-30.2-0.3-65.8-27.3-79.5-60.2
				C324.9,269.6,338.3,243.2,368.5,243.5z"/>
			<radialGradient id="SVGID_12_" cx="434.8682" cy="249.19" r="118.6232" gradientUnits="userSpaceOnUse">
				<stop  offset="0" style="stop-color:#F1D057"/>
				<stop  offset="1.785169e-02" style="stop-color:#F2D566"/>
				<stop  offset="7.171761e-02" style="stop-color:#F5E38E"/>
				<stop  offset="0.1248" style="stop-color:#F8EDAD"/>
				<stop  offset="0.1762" style="stop-color:#FAF5C3"/>
				<stop  offset="0.2252" style="stop-color:#FBF9D0"/>
				<stop  offset="0.2692" style="stop-color:#FBFBD5"/>
				<stop  offset="0.5275" style="stop-color:#ECD363"/>
				<stop  offset="0.5922" style="stop-color:#EDD76C"/>
				<stop  offset="0.6984" style="stop-color:#F1E185"/>
				<stop  offset="0.7912" style="stop-color:#F5ECA0"/>
				<stop  offset="1" style="stop-color:#F2C41C"/>
			</radialGradient>
			<path class="st44" d="M371.3,247.5c27.6,0.3,60,24.9,72.5,54.9c12.5,30,0.3,54.1-27.3,53.8c-27.6-0.3-60-24.9-72.5-54.9
				C331.5,271.3,343.7,247.2,371.3,247.5z"/>
			<path class="st33" d="M370.7,250.3c27.6,0.3,60,24.9,72.5,54.9c4.6,11,5.8,21.1,4.2,29.6c2.4-9,1.4-20.2-3.6-32.4
				c-12.5-30-44.9-54.6-72.5-54.9c-17.5-0.2-28.8,9.5-31.5,24.2C343.3,258.6,354.3,250.1,370.7,250.3z"/>
			<path class="st33" d="M384.1,291.5c0.5,0.2,1.1,0.5,1.6,0.7l-6.6-15.8c-1.3,0.5-2.2,1.3-2.7,2.4c0.5-0.5,1.1-0.9,1.9-1.2
				L384.1,291.5z M393.5,285.2l11-1.4c-0.2-0.4-0.4-0.7-0.7-1.1l-9.5,1.2c-2.2-3.6-5-6.1-8.5-7.4l0.8,2
				C389.4,280,391.7,282.2,393.5,285.2z M399.3,309c2.4,0.8,4.3,1.8,5.8,3c1.8,1.5,3.2,3.3,4,5.3c1,2.3,1.1,4.3,0.3,6c0,0,0,0,0,0.1
				c0.3-0.4,0.6-0.8,0.9-1.3c0.7-1.7,0.6-3.7-0.3-6c-0.8-2-2.2-3.8-4-5.3c-1.8-1.5-4.3-2.7-7.3-3.5L399.3,309z M407.1,343.7
				l-3.5-8.3c-5.6-0.7-10.7-2.7-15.3-6c-4.4-3.1-8.2-7.4-11.5-12.9l-1.5,0.1c3.4,6,7.5,10.7,12.1,14c4.6,3.3,9.8,5.3,15.3,6l3.5,8.3
				l6.6,0.1l-0.5-1.3L407.1,343.7z M375,266.4l-1.4-3.3l-1.4,0l1.4,3.5C374.1,266.5,374.5,266.4,375,266.4z M410.2,335.2l0.4,1
				c4.5-0.9,7.7-2.8,9.4-5.9C418,332.9,414.7,334.6,410.2,335.2z M397.4,323.6c0.6,0.3,1.1,0.6,1.7,0.8l-8-19.2
				c-6.7-1.8-12.1-4.4-16.4-7.9c-4.2-3.5-7.4-7.7-9.4-12.7c-2.1-5-2.2-9.2-0.5-12.5c0-0.1,0.1-0.2,0.2-0.3c-0.4,0.5-0.7,1-1,1.5
				c-1.7,3.4-1.6,7.5,0.5,12.5c2.1,4.9,5.2,9.2,9.4,12.7c4.2,3.5,9.7,6.1,16.4,7.9L397.4,323.6z"/>
			<path class="st0" d="M379,290c1.6,1.4,3.5,2.5,5.8,3.4l-0.8-1.9c-1.6-0.8-3-1.7-4.2-2.7c-1.5-1.4-2.7-2.9-3.3-4.5
				c-0.7-1.8-0.9-3.4-0.4-4.8c0.1-0.2,0.2-0.4,0.3-0.6c-0.5,0.5-0.9,1.1-1.1,1.8c-0.5,1.5-0.3,3.1,0.4,4.8
				C376.4,287.1,377.5,288.6,379,290z M406,325.1l-6.7-16.1c-0.5-0.2-1-0.3-1.5-0.5l7.4,17.8c2.1-0.4,3.5-1.4,4.2-3
				C408.6,324.2,407.5,324.8,406,325.1z M378.9,263.2l1.9,4.5c5.1,0.6,9.6,2.3,13.6,5.1c3.7,2.5,6.8,5.9,9.4,10l1.5-0.2
				c-2.7-4.6-6-8.3-10-11c-4-2.7-8.5-4.5-13.6-5.1l-1.9-4.5l-6.6-0.1l0.5,1.3L378.9,263.2z M393,320.5c-2.1-1.8-3.9-3.9-5.4-6.3
				l-11.4,1.1c0.2,0.4,0.4,0.7,0.7,1.1l9.9-1c1.5,2.4,3.3,4.6,5.4,6.3c2.1,1.8,4.1,3.1,6.1,3.9l-0.8-2
				C396,322.8,394.5,321.8,393,320.5z M420.4,314.5c-2.1-4.9-5.1-9-9-12.2c-4-3.2-10-5.8-18.2-7.9l-6.6-15.9
				c-0.5-0.3-1.1-0.5-1.7-0.7l7.4,17.9c8.1,2.1,14.2,4.7,18.2,7.9c4,3.2,7,7.2,9,12.2c2.3,5.5,2.6,10.1,0.8,13.9
				c-0.1,0.2-0.3,0.5-0.4,0.7c0.5-0.6,0.9-1.2,1.2-1.9C423,324.7,422.7,320,420.4,314.5z M409.4,336.5l3,7.3l1.4,0l-3.1-7.5
				C410.2,336.3,409.8,336.4,409.4,336.5z M365,271.9c1.9-2.4,5-3.9,9.2-4.3l-0.4-1.1C369.5,267.2,366.6,269,365,271.9z"/>
		</g>
		<path class="st0" d="M341.7,270.1c2.4-1.9,5.8-4,10.3-6.7c-5.7,3.2-9.7,5.3-12.8,6.3c-3.5-1.4-6.3-5.9-11.4-14.4
			c3.8,7,6.2,11.4,6.7,14.7c-3.9-0.9-6.8-5.4-12.4-14.6c10.2,18.5,10,19-8,29.9c7.8-4.3,12.4-6.8,16-6.8c-2.4,1.9-5.8,4-10.3,6.7
			c5.7-3.2,9.7-5.3,12.8-6.3c3.5,1.4,6.3,5.9,11.4,14.4c-3.8-7-6.2-11.4-6.7-14.7c3.9,0.9,6.8,5.4,12.4,14.6
			c-10.2-18.5-10-19,8-29.9C349.9,267.6,345.3,270.1,341.7,270.1z"/>
		<path class="st0" d="M421.6,262.9c2.4-1.9,5.8-4,10.3-6.7c-5.7,3.2-9.7,5.3-12.8,6.3c-3.5-1.4-6.3-5.9-11.4-14.4
			c3.8,7,6.2,11.4,6.7,14.7c-3.9-0.9-6.8-5.4-12.4-14.6c10.2,18.5,10,19-8,29.9c7.8-4.3,12.4-6.8,16-6.8c-2.4,1.9-5.8,4-10.3,6.7
			c5.7-3.2,9.7-5.3,12.8-6.3c3.5,1.4,6.3,5.9,11.4,14.4c-3.8-7-6.2-11.4-6.7-14.7c3.9,0.9,6.8,5.4,12.4,14.6
			c-10.2-18.5-10-19,8-29.9C429.7,260.4,425.1,262.8,421.6,262.9z"/>
		<path class="st0" d="M429.8,352.6c3.2-2.5,7.8-5.3,13.8-9c-7.7,4.2-13,7.1-17.2,8.4c-4.6-1.8-8.4-7.9-15.3-19.3
			c5.1,9.3,8.3,15.2,9,19.8c-5.2-1.2-9.1-7.3-16.6-19.6c13.7,24.8,13.5,25.5-10.7,40.1c10.5-5.8,16.7-9.1,21.4-9.1
			c-3.2,2.5-7.8,5.3-13.8,9c7.7-4.2,13-7.1,17.2-8.4c4.7,1.8,8.5,7.9,15.3,19.3c-5.1-9.3-8.3-15.2-9-19.8c5.3,1.2,9.1,7.3,16.6,19.6
			c-13.7-24.8-13.5-25.5,10.7-40.1C440.7,349.3,434.5,352.6,429.8,352.6z"/>
		<path class="st0" d="M409.5,298.7c1.3-1,3-2.1,5.4-3.5c-3,1.7-5.1,2.8-6.8,3.3c-1.8-0.7-3.3-3.1-6-7.6c2,3.7,3.3,6,3.5,7.8
			c-2.1-0.5-3.6-2.9-6.5-7.7c5.4,9.7,5.3,10-4.2,15.8c4.1-2.3,6.5-3.6,8.4-3.6c-1.3,1-3,2.1-5.4,3.5c3-1.7,5.1-2.8,6.8-3.3
			c1.8,0.7,3.3,3.1,6,7.6c-2-3.7-3.3-6-3.5-7.8c2.1,0.5,3.6,2.9,6.5,7.7c-5.4-9.7-5.3-10,4.2-15.8
			C413.8,297.4,411.4,298.7,409.5,298.7z"/>
	</g>
	<g>
		<g>
			
				<radialGradient id="SVGID_13_" cx="591.786" cy="271.1306" r="136.3412" gradientTransform="matrix(-0.9767 0.2144 0.2144 0.9767 771.896 -102.0296)" gradientUnits="userSpaceOnUse">
				<stop  offset="0" style="stop-color:#FFFFFF"/>
				<stop  offset="0.7198" style="stop-color:#CB7D0A"/>
				<stop  offset="1" style="stop-color:#593310"/>
			</radialGradient>
			<path class="st45" d="M317.9,367.3c3.1-2.7,6.1-5.7,8.8-9.1c2-2.4,3.9-4.9,5.6-7.5c19.7-29.5,18-65.4-3.9-80.1l9.4,6.2
				c21.9,14.7,23.6,50.6,3.9,80.1c-1.8,2.7-3.7,5.2-5.6,7.5c-2.8,3.3-5.7,6.4-8.8,9.1c-19.2,16.9-43.6,21.8-60.8,10.3l-9.4-6.2
				C274.2,389.1,298.6,384.2,317.9,367.3z"/>
			
				<radialGradient id="SVGID_14_" cx="605.206" cy="268.8952" r="160.1194" gradientTransform="matrix(-0.9767 0.2144 0.2144 0.9767 771.896 -102.0296)" gradientUnits="userSpaceOnUse">
				<stop  offset="0" style="stop-color:#FFFFFF"/>
				<stop  offset="0.7198" style="stop-color:#EAB208"/>
				<stop  offset="1" style="stop-color:#785714"/>
			</radialGradient>
			<path class="st46" d="M342.6,288.6l9.4,6.2c-1-2.6-2.3-5.1-3.8-7.4l-9.4-6.2C340.3,283.5,341.6,286,342.6,288.6z M346,304.4
				l9.4,6.2c-0.2-3-0.6-6-1.2-8.8l-9.4-6.2C345.4,298.5,345.8,301.4,346,304.4z M344.6,322l9.4,6.2c0.7-3.2,1.1-6.4,1.3-9.6
				l-9.4-6.2C345.7,315.6,345.3,318.8,344.6,322z M338.4,340.1l9.4,6.2c1.5-3.2,2.8-6.5,3.9-9.7l-9.4-6.2
				C341.3,333.6,340,336.9,338.4,340.1z M327.5,357.3l9.4,6.2c1.7-2.1,3.3-4.3,4.8-6.5c0.5-0.8,1.1-1.6,1.6-2.5l-9.4-6.2
				c-0.5,0.8-1,1.6-1.6,2.5C330.8,353,329.2,355.2,327.5,357.3z M321.4,364c-2.5,2.5-5.1,4.7-7.7,6.7l9.4,6.2c2.7-2,5.3-4.3,7.7-6.7
				L321.4,364z M298.2,379.7l9.4,6.2c2.8-1.2,5.7-2.6,8.5-4.2l-9.4-6.2C303.9,377.1,301,378.5,298.2,379.7z M282.3,383.7l9.4,6.2
				c2.8-0.2,5.7-0.7,8.5-1.5l-9.4-6.2C288,382.9,285.1,383.4,282.3,383.7z M267.1,382.3l9.4,6.2c2.6,0.8,5.3,1.2,8,1.5l-9.4-6.2
				C272.4,383.5,269.7,383,267.1,382.3z M257.1,377.6l9.4,6.2c1.1,0.8,2.3,1.5,3.5,2.1l-9.4-6.2C259.4,379,258.2,378.4,257.1,377.6z
				 M334.6,275.8l9.4,6.2c-1.8-1.9-3.8-3.7-6.1-5.2l-9.4-6.2C330.7,272.1,332.7,273.8,334.6,275.8z"/>
			
				<linearGradient id="SVGID_15_" gradientUnits="userSpaceOnUse" x1="570.9479" y1="260.9757" x2="541.033" y2="396.5721" gradientTransform="matrix(-0.9767 0.2144 0.2144 0.9767 771.896 -102.0296)">
				<stop  offset="0" style="stop-color:#F6DF45"/>
				<stop  offset="0.1429" style="stop-color:#FFFFFF"/>
				<stop  offset="0.3956" style="stop-color:#F1CB42"/>
				<stop  offset="0.5714" style="stop-color:#FFFFFF"/>
				<stop  offset="0.6145" style="stop-color:#FBEFC7"/>
				<stop  offset="0.7221" style="stop-color:#F0C83F"/>
				<stop  offset="0.7692" style="stop-color:#ECB908"/>
				<stop  offset="0.8428" style="stop-color:#F2D05B"/>
				<stop  offset="0.9517" style="stop-color:#FBF2D0"/>
				<stop  offset="1" style="stop-color:#FFFFFF"/>
			</linearGradient>
			<path class="st47" d="M328.5,270.6c-21.9-14.7-55.6-2.7-75.3,26.9c-19.7,29.5-18,65.4,3.9,80.1c21.9,14.7,55.6,2.7,75.3-26.9
				C352.1,321.2,350.3,285.3,328.5,270.6z"/>
			
				<radialGradient id="SVGID_16_" cx="588.1474" cy="262.1834" r="111.2074" gradientTransform="matrix(-0.9767 0.2144 0.2144 0.9767 771.896 -102.0296)" gradientUnits="userSpaceOnUse">
				<stop  offset="0" style="stop-color:#F1D057"/>
				<stop  offset="1.785169e-02" style="stop-color:#F2D566"/>
				<stop  offset="7.171761e-02" style="stop-color:#F5E38E"/>
				<stop  offset="0.1248" style="stop-color:#F8EDAD"/>
				<stop  offset="0.1762" style="stop-color:#FAF5C3"/>
				<stop  offset="0.2252" style="stop-color:#FBF9D0"/>
				<stop  offset="0.2692" style="stop-color:#FBFBD5"/>
				<stop  offset="0.5275" style="stop-color:#ECD363"/>
				<stop  offset="0.5922" style="stop-color:#EDD76C"/>
				<stop  offset="0.6984" style="stop-color:#F1E185"/>
				<stop  offset="0.7912" style="stop-color:#F5ECA0"/>
				<stop  offset="1" style="stop-color:#F2C41C"/>
			</radialGradient>
			<path class="st48" d="M323.7,274.1c-19.7-13.2-50.1-2.4-67.9,24.2c-17.8,26.6-16.2,59,3.5,72.2c19.7,13.3,50.1,2.4,67.9-24.2
				C345,319.7,343.4,287.4,323.7,274.1z"/>
			<path class="st33" d="M255.9,298.4c17.8-26.6,48.2-37.5,67.9-24.2c0.1,0.1,0.2,0.1,0.3,0.2c-19.7-11.8-49.1-0.9-66.5,25.1
				c-17.7,26.5-16.2,58.7,3.2,72c-0.5-0.3-0.9-0.6-1.4-0.9C239.7,357.3,238.1,325,255.9,298.4z"/>
			<path class="st33" d="M296.1,331.3l-15.5-10.4l0,0L296.1,331.3C296.1,331.3,296.1,331.3,296.1,331.3z M304.3,317.6l-16.9-11.4
				l0,0L304.3,317.6C304.3,317.6,304.3,317.6,304.3,317.6z M271.5,344.2c-4-2.9-6-6.9-6.2-12l-1.4,2.1c0.8,3.8,3,6.9,6.4,9.2
				C270.7,343.7,271.1,344,271.5,344.2z M309.8,340.6l-3.7,7.8l1.8,1.2l3.7-7.9l-3.3-2.2c0.5-0.7,1.1-1.5,1.6-2.3
				c0.9-1.4,1.7-2.6,2.4-3.7l-1.8-1.2c-0.7,1.1-1.5,2.4-2.4,3.8c-0.6,0.8-1.1,1.6-1.6,2.3L309.8,340.6z M301.6,297
				c-0.1-0.1-0.3-0.2-0.4-0.3c-2.8-1.9-5.6-2.7-8.4-2.4l-0.8,1.8C295.1,295,298.4,295.3,301.6,297z M263.9,356
				c0.1,0.1,0.2,0.2,0.4,0.3c6.6,4.5,14.1,5,22.5,1.8c5.7-2.2,11.1-6.1,16.1-11.7l-1.8-1.2c-5.1,5.6-10.5,9.5-16.2,11.8
				C277.1,359.9,270.1,359.6,263.9,356z M318.7,327.3l-3.7,7.8l1.8,1.2l3.7-7.9l-4-2.7c3.1-6.8,4.6-13.2,4.6-19.2
				c-0.2-9.1-3.7-16-10.7-20.7c-0.5-0.3-1-0.7-1.5-0.9c6.8,4.7,10.2,11.5,10.4,20.5c0.1,6-1.4,12.4-4.6,19.2L318.7,327.3z"/>
			<path class="st0" d="M298.4,328c-0.7,1.1-1.5,2.2-2.3,3.3l1.8,1.2c0.8-1.1,1.6-2.2,2.3-3.3c0.7-1.1,1.3-2,1.8-2.7l-18.3-12.3
				l3.7-7.8l-1.8-1.2l-3.7,7.9l18.3,12.3C299.7,326,299.1,326.9,298.4,328z M271.5,344.2c0.2,0.2,0.4,0.3,0.6,0.5
				c3.6,2.4,7.8,2.6,12.5,0.5c2.4-1.1,5-3.1,7.8-6l-15.5-10.4l3.7-7.8l-1.8-1.2l-3.7,7.9l15.5,10.4c-2.8,2.9-5.4,4.9-7.8,6
				C278.6,345.8,274.8,345.9,271.5,344.2z M306.6,308.2c-0.1,2.9-0.8,6-2.3,9.4l1.8,1.2c1.5-3.4,2.3-6.6,2.3-9.5
				c0.1-5.2-1.7-9-5.4-11.4c-0.5-0.3-1-0.6-1.4-0.9C305,299.5,306.7,303.2,306.6,308.2z M302.9,346.2
				C302.9,346.2,302.9,346.3,302.9,346.2l3.2,2.2l0,0L302.9,346.2z M298.5,282c3.5,0,7,1,10.3,2.9c-0.1-0.1-0.2-0.2-0.3-0.2
				c-3.8-2.6-7.8-3.9-11.8-3.9l-6.5,14.1c0.9-0.3,1.8-0.5,2.7-0.6L298.5,282z M254.1,345.1c1.6,4,4.4,7.3,8.3,9.9
				c0.5,0.3,1,0.6,1.5,0.9c-3.7-2.6-6.4-5.8-7.9-9.7l8-12c-0.2-1-0.4-2.1-0.4-3.3L254.1,345.1z M312.3,333.4
				C312.3,333.4,312.3,333.4,312.3,333.4l2.6,1.8l0,0L312.3,333.4z"/>
		</g>
		<path class="st0" d="M335.3,326.7c-2.3-1.1-5.4-2.2-9.6-3.6c5.2,1.5,8.9,2.6,11.6,2.8c2.6-1.7,4.1-5.9,6.8-13.8
			c-1.9,6.4-3,10.4-2.8,13.2c3-1.4,4.6-5.7,7.5-14.2c-5,16.9-4.8,17.3,11.9,23c-7.2-2.1-11.4-3.3-14.2-2.7c2.3,1.1,5.4,2.2,9.6,3.6
			c-5.2-1.5-8.9-2.6-11.6-2.8c-2.6,1.7-4.1,5.9-6.8,13.8c1.9-6.4,3-10.4,2.8-13.2c-3,1.4-4.6,5.6-7.5,14.2c5-16.9,4.8-17.3-11.9-23
			C328.2,326.1,332.4,327.3,335.3,326.7z"/>
		<path class="st0" d="M310.8,269.1c-3-1.4-7.1-2.9-12.6-4.7c6.9,2,11.6,3.4,15.2,3.7c3.4-2.3,5.3-7.8,8.8-18
			c-2.4,8.3-3.9,13.6-3.7,17.3c4-1.9,6-7.4,9.8-18.5c-6.5,22.1-6.3,22.6,15.6,30.1c-9.4-2.8-14.9-4.3-18.6-3.5
			c3,1.4,7.1,2.9,12.6,4.7c-6.9-2-11.6-3.4-15.2-3.7c-3.4,2.3-5.3,7.8-8.8,18c2.5-8.3,3.9-13.6,3.7-17.3c-4,1.9-6,7.4-9.8,18.5
			c6.5-22.1,6.3-22.6-15.6-30.1C301.6,268.3,307,269.9,310.8,269.1z"/>
		<path class="st0" d="M254.5,336.8c-2-1-4.8-1.9-8.5-3.2c4.6,1.4,7.9,2.3,10.3,2.5c2.3-1.5,3.6-5.3,6-12.2
			c-1.7,5.6-2.7,9.2-2.5,11.7c2.7-1.3,4-5,6.6-12.5c-4.4,15-4.3,15.3,10.5,20.3c-6.3-1.9-10.1-2.9-12.6-2.4c2,1,4.8,1.9,8.5,3.2
			c-4.6-1.4-7.9-2.3-10.3-2.5c-2.3,1.5-3.6,5.3-6,12.2c1.7-5.6,2.7-9.2,2.5-11.7c-2.7,1.3-4,5-6.6,12.5c4.4-15,4.2-15.3-10.5-20.3
			C248.3,336.3,252,337.3,254.5,336.8z"/>
	</g>
</g>
</svg>
