<?xml version="1.0" encoding="utf-8"?>
<!-- Generator: Adobe Illustrator 24.0.1, SVG Export Plug-In . SVG Version: 6.00 Build 0)  -->
<svg version="1.1" id="Layer_1" xmlns="http://www.w3.org/2000/svg" xmlns:xlink="http://www.w3.org/1999/xlink" x="0px" y="0px"
	 viewBox="0 0 500 500" style="enable-background:new 0 0 500 500;" xml:space="preserve">
<style type="text/css">
	.st0{fill-rule:evenodd;clip-rule:evenodd;fill:#070B52;}
	.st1{fill-rule:evenodd;clip-rule:evenodd;fill:#284200;}
	.st2{fill-rule:evenodd;clip-rule:evenodd;fill:#B30000;}
	.st3{fill-rule:evenodd;clip-rule:evenodd;fill:#C79C1A;}
	.st4{fill-rule:evenodd;clip-rule:evenodd;fill:#1B6891;}
	.st5{fill-rule:evenodd;clip-rule:evenodd;fill:#7D0073;}
	.st6{fill-rule:evenodd;clip-rule:evenodd;fill:url(#SVGID_1_);}
	.st7{fill-rule:evenodd;clip-rule:evenodd;fill:url(#SVGID_2_);}
	.st8{fill-rule:evenodd;clip-rule:evenodd;fill:url(#SVGID_3_);}
	.st9{fill-rule:evenodd;clip-rule:evenodd;fill:url(#SVGID_4_);}
	.st10{fill-rule:evenodd;clip-rule:evenodd;fill:url(#SVGID_5_);}
	.st11{fill-rule:evenodd;clip-rule:evenodd;fill:url(#SVGID_6_);}
	.st12{fill-rule:evenodd;clip-rule:evenodd;fill:url(#SVGID_7_);}
	.st13{fill-rule:evenodd;clip-rule:evenodd;fill:url(#SVGID_8_);}
	.st14{fill-rule:evenodd;clip-rule:evenodd;fill:url(#SVGID_9_);}
	.st15{fill-rule:evenodd;clip-rule:evenodd;fill:url(#SVGID_10_);}
	.st16{fill-rule:evenodd;clip-rule:evenodd;fill:url(#SVGID_11_);}
	.st17{fill-rule:evenodd;clip-rule:evenodd;fill:url(#SVGID_12_);}
</style>
<path class="st0" d="M272,203.4c8.4,8.6,20,12,35.3,15.4c14.8,3.3,26.4,6,39.1-0.9c12.7-6.8,15.4-23.2-5.5-42.8
	c-20.9-19.6-38.6-24.7-58.1-18.7C263.4,162.4,263.6,194.8,272,203.4L272,203.4z"/>
<path class="st1" d="M284.9,230c-1.5,10,38.6,57.5,80.4,82.3c41.7,24.7,64.2,26.9,60.1,1.2c-3.6-23.2-26.3-45.5-62.3-67.1
	c-18.1-10.8-36.8-17.2-51.4-19.8C296.7,223.9,285.7,225.2,284.9,230L284.9,230z"/>
<path class="st2" d="M267.9,240.6c-14.6-2.9-31.9,32.3-17.2,77.9c16.6,52.8,44.9,88.7,82.3,90.7c35,1.9,35.8-29.3,14.1-78.1
	C327.7,288.2,282.2,243.4,267.9,240.6L267.9,240.6z"/>
<path class="st3" d="M232.7,221.8c-5.8-6.4-22.1-13.3-41-17.3c-19.6-4.2-42.8-5.5-61.2-0.1c-40.9,12.2-56.4,34.9-29.8,69.6
	c28.3,37.3,66.9,41.3,105.5,21.1C239.6,277.8,244.7,234.9,232.7,221.8L232.7,221.8z"/>
<path class="st4" d="M220.5,193.9c3.2-8.7-29.4-47.7-66.9-69.7c-37.7-22.1-65.6-29.4-79.4-15.7c-15.4,15.3,3.1,37.5,47,62.8
	c21.9,12.7,46.5,20.7,65.7,24.3C205.5,199.2,218.8,198.4,220.5,193.9L220.5,193.9z"/>
<path class="st5" d="M241.6,185.7c13.4,2.9,23.6-22.2,11.1-46.9c-12.5-24.7-28.4-39.3-52.9-46.4c-24.5-7.1-31.8,1.5-22.1,26.9
	C187.5,144.8,228.2,182.8,241.6,185.7L241.6,185.7z"/>
<radialGradient id="SVGID_1_" cx="190.8296" cy="465.6548" r="111.6744" gradientTransform="matrix(0.4096 0 0 0.4096 237.012 -4.4611)" gradientUnits="userSpaceOnUse">
	<stop  offset="0" style="stop-color:#0085EB"/>
	<stop  offset="1" style="stop-color:#171D8F"/>
</radialGradient>
<path class="st6" d="M276.7,200.9c8.4,8.6,20,12,35.3,15.4c14.8,3.3,26.4,6,39.1-0.9c12.7-6.8,15.4-23.2-5.5-42.8
	c-20.9-19.6-38.6-24.7-58.1-18.7C268,159.8,268.2,192.3,276.7,200.9L276.7,200.9z"/>
<radialGradient id="SVGID_2_" cx="265.1963" cy="585.6138" r="126.851" gradientTransform="matrix(0.4096 0 0 0.4096 212.2015 -56.6516)" gradientUnits="userSpaceOnUse">
	<stop  offset="0" style="stop-color:#B5DFFF"/>
	<stop  offset="0.41" style="stop-color:#0183E9"/>
	<stop  offset="1" style="stop-color:#171D8F"/>
</radialGradient>
<path class="st7" d="M288,208.9c6.7,3.3,14.7,5.3,24,7.4c14.8,3.3,26.4,6,39.1-0.9c6-3.3,9.8-8.7,9.9-15.6
	c-20.3-18.5-37.6-23.2-56.7-17.4C293.2,185.8,288.5,197.6,288,208.9L288,208.9z"/>
<radialGradient id="SVGID_3_" cx="296.9873" cy="676.9532" r="175.6685" gradientTransform="matrix(0.4096 0 0 0.4096 237.012 -4.4611)" gradientUnits="userSpaceOnUse">
	<stop  offset="0" style="stop-color:#BCF000"/>
	<stop  offset="1" style="stop-color:#467500"/>
</radialGradient>
<path class="st8" d="M289.6,227.5c-1.5,10,38.6,57.5,80.4,82.3c41.7,24.7,64.2,26.9,60.1,1.2c-3.6-23.2-26.3-45.5-62.3-67.1
	c-18.1-10.8-36.8-17.2-51.4-19.8C301.3,221.4,290.3,222.7,289.6,227.5L289.6,227.5z"/>
<radialGradient id="SVGID_4_" cx="384.6796" cy="797.8623" r="176.2301" gradientTransform="matrix(0.4096 0 0 0.4096 214.8919 -51.0959)" gradientUnits="userSpaceOnUse">
	<stop  offset="0" style="stop-color:#E9FF99"/>
	<stop  offset="0.41" style="stop-color:#BAED00"/>
	<stop  offset="1" style="stop-color:#467500"/>
</radialGradient>
<path class="st9" d="M310.5,259.8c15.3,17,37.2,36.8,59.6,50c33.9,20.1,55.1,25.3,59.7,12.7c-10.7-14.2-28-28-50.7-41.6
	c-18.1-10.8-36.8-17.2-51.4-19.8C320.9,259.9,315,259.5,310.5,259.8L310.5,259.8z"/>
<radialGradient id="SVGID_5_" cx="190.5013" cy="773.0564" r="230.8675" gradientTransform="matrix(0.4096 0 0 0.4096 237.012 -4.4611)" gradientUnits="userSpaceOnUse">
	<stop  offset="0" style="stop-color:#FF859B"/>
	<stop  offset="1" style="stop-color:#DE0000"/>
</radialGradient>
<path class="st10" d="M272.5,238.1c-14.6-2.9-31.9,32.3-17.1,77.9c16.6,52.8,44.9,88.7,82.3,90.7c35,1.9,35.8-29.3,14.1-78.1
	C332.4,285.7,286.8,240.9,272.5,238.1L272.5,238.1z"/>
<radialGradient id="SVGID_6_" cx="234.1294" cy="908.3941" r="222.5674" gradientTransform="matrix(0.4096 0 0 0.4096 211.3397 -48.9025)" gradientUnits="userSpaceOnUse">
	<stop  offset="0" style="stop-color:#FFDEE4"/>
	<stop  offset="1" style="stop-color:#DE0000"/>
</radialGradient>
<path class="st11" d="M250.1,274.1c-1,12,0.3,26.3,5.3,41.8c16.6,52.8,44.9,88.7,82.3,90.7c1.2,0.1,2.3,0.1,3.3,0.1
	c-1.8-11.9-6.5-26.3-13.8-42.8C308.7,323,266.3,280.4,250.1,274.1L250.1,274.1z"/>
<radialGradient id="SVGID_7_" cx="-231.9126" cy="650.7078" r="247.0618" gradientTransform="matrix(0.4096 0 0 0.4096 237.012 -4.4611)" gradientUnits="userSpaceOnUse">
	<stop  offset="0" style="stop-color:#FAFFB2"/>
	<stop  offset="1" style="stop-color:#FFD500"/>
</radialGradient>
<path class="st12" d="M237.3,219.3c-5.9-6.4-22.1-13.3-41-17.4c-19.6-4.2-42.8-5.5-61.2-0.1c-40.9,12.2-56.4,34.9-29.8,69.6
	c28.3,37.3,66.9,41.3,105.5,21.1C244.2,275.3,249.3,232.3,237.3,219.3L237.3,219.3z"/>
<radialGradient id="SVGID_8_" cx="-149.7513" cy="726.441" r="244.9133" gradientTransform="matrix(0.4096 0 0 0.4096 204.0106 -52.8166)" gradientUnits="userSpaceOnUse">
	<stop  offset="0" style="stop-color:#FFFFFF"/>
	<stop  offset="1" style="stop-color:#FFD500"/>
</radialGradient>
<path class="st13" d="M101.7,266.4c1.1,1.7,2.3,3.3,3.6,5.1c28.3,37.3,66.9,41.3,105.5,21.1c20.8-10.8,30.6-31.5,32.1-48.8
	c-8.1-3.6-18.2-6.8-29.2-9.1c-21.4-4.6-46.8-6-66.9-0.1C122.8,241.8,106.8,252.3,101.7,266.4L101.7,266.4z"/>
<radialGradient id="SVGID_9_" cx="-265.7939" cy="356.199" r="237.2842" gradientTransform="matrix(0.4096 0 0 0.4096 237.012 -4.4611)" gradientUnits="userSpaceOnUse">
	<stop  offset="0" style="stop-color:#7AFFFF"/>
	<stop  offset="1" style="stop-color:#2C8CBF"/>
</radialGradient>
<path class="st14" d="M225.1,191.4c3.2-8.7-29.4-47.7-66.9-69.7C120.5,99.6,92.7,92.3,78.8,106c-15.4,15.3,3.1,37.5,47,62.9
	c21.9,12.7,46.5,20.7,65.8,24.3C210.2,196.7,223.4,195.9,225.1,191.4L225.1,191.4z"/>
<radialGradient id="SVGID_10_" cx="-159.6644" cy="497.9277" r="234.3758" gradientTransform="matrix(0.4096 0 0 0.4096 201.4642 -58.6223)" gradientUnits="userSpaceOnUse">
	<stop  offset="0" style="stop-color:#FFFFFF"/>
	<stop  offset="0.5" style="stop-color:#78FDFD"/>
	<stop  offset="1" style="stop-color:#2C8CBF"/>
</radialGradient>
<path class="st15" d="M225.1,191.4c0.3-0.9,0.3-2-0.1-3.4c-11.8-11.8-26.7-24.1-42.5-33.4c-37.7-22.1-65.6-29.4-79.4-15.7
	c-3.5,3.5-5.3,7.4-5.3,11.6c7.7,5.9,17.1,12,28.1,18.3c21.9,12.7,46.5,20.7,65.8,24.3C210.2,196.7,223.4,195.9,225.1,191.4
	L225.1,191.4z"/>
<radialGradient id="SVGID_11_" cx="-50.4875" cy="318.2185" r="140.509" gradientTransform="matrix(0.4096 0 0 0.4096 237.012 -4.4611)" gradientUnits="userSpaceOnUse">
	<stop  offset="0" style="stop-color:#FFA8F8"/>
	<stop  offset="1" style="stop-color:#C900B8"/>
</radialGradient>
<path class="st16" d="M246.2,183.2c13.4,2.9,23.6-22.2,11.1-46.9c-12.5-24.7-28.4-39.3-52.9-46.4c-24.5-7.1-31.8,1.5-22.1,26.9
	C192.1,142.3,232.8,180.3,246.2,183.2L246.2,183.2z"/>
<radialGradient id="SVGID_12_" cx="36.0976" cy="461.0682" r="148.7458" gradientTransform="matrix(0.4096 0 0 0.4096 205.8567 -60.3293)" gradientUnits="userSpaceOnUse">
	<stop  offset="0" style="stop-color:#FFE5FD"/>
	<stop  offset="1" style="stop-color:#C900B8"/>
</radialGradient>
<path class="st17" d="M246.2,183.2c7.4,1.6,13.9-5.4,16-16.1c-12.5-24.4-28.3-38.9-52.6-45.9c-12.8-3.7-20.9-3.1-24.4,1.9
	C198.4,148.1,233.9,180.5,246.2,183.2L246.2,183.2z"/>
</svg>
