<?xml version="1.0" encoding="utf-8"?>
<!-- Generator: Adobe Illustrator 24.0.1, SVG Export Plug-In . SVG Version: 6.00 Build 0)  -->
<svg version="1.1" id="Layer_1" xmlns="http://www.w3.org/2000/svg" xmlns:xlink="http://www.w3.org/1999/xlink" x="0px" y="0px"
	 viewBox="0 0 500 500" style="enable-background:new 0 0 500 500;" xml:space="preserve">
<style type="text/css">
	.st0{fill-rule:evenodd;clip-rule:evenodd;fill:#4A4504;}
	.st1{fill-rule:evenodd;clip-rule:evenodd;fill:#4A3304;}
	.st2{fill-rule:evenodd;clip-rule:evenodd;fill:#C30017;}
	.st3{fill-rule:evenodd;clip-rule:evenodd;fill:#6E000D;}
	.st4{fill-rule:evenodd;clip-rule:evenodd;fill:#FFFFFF;}
	.st5{fill-rule:evenodd;clip-rule:evenodd;fill:#CF3345;}
	.st6{fill-rule:evenodd;clip-rule:evenodd;fill:#DB6674;}
	.st7{fill-rule:evenodd;clip-rule:evenodd;fill:#E799A2;}
	.st8{fill-rule:evenodd;clip-rule:evenodd;fill:#F3CCD1;}
	.st9{fill-rule:evenodd;clip-rule:evenodd;fill:url(#SVGID_1_);}
	.st10{fill-rule:evenodd;clip-rule:evenodd;fill:url(#SVGID_2_);}
	.st11{fill-rule:evenodd;clip-rule:evenodd;fill:url(#SVGID_3_);}
	.st12{fill-rule:evenodd;clip-rule:evenodd;fill:url(#SVGID_4_);}
	.st13{fill-rule:evenodd;clip-rule:evenodd;fill:#315200;}
	.st14{fill-rule:evenodd;clip-rule:evenodd;fill:url(#SVGID_5_);}
</style>
<g>
	<path class="st0" d="M308.5,101.2l10.8-1.8c0,0,43.1,45.3,60.6,87.9c19.6,47.7-3.2,78.1-11.7,129.3c-0.9,5.2-8.5,6.4-7-2.7
		c8.7-52.2,30.1-78.9,7.5-126.7C348.1,143.6,308.5,101.2,308.5,101.2L308.5,101.2z"/>
	<path class="st1" d="M308.5,101.7l-6.4-6.5c0,0-5.6-3.4-6.8-17.7c-1.2-14.3,2.8-19.8,2.8-19.8c8.5,5.6,16.8,7.3,25,4.1
		C323.1,61.7,335.8,111.7,308.5,101.7L308.5,101.7z"/>
	<g>
		<path class="st1" d="M270.1,88.3l8.7,2.6c0,0,5.6,3.4,18.8-2.2c13.2-5.6,16.3-11.7,16.3-11.7c-8.9-4.9-14.3-11.5-15.2-20.2
			C298.7,56.8,248.5,68.9,270.1,88.3L270.1,88.3z"/>
		<path class="st0" d="M278.8,91l-8.7-2.6c0,0-28.8,20.3-32.5,60.2c-3.7,39.8-0.1,83.1,0.8,111.9c0.8,28.7-0.6,42.9-1.6,49.9
			c-0.7,5.2,6.2,8.7,7.5-0.5c1-7.1,2.7-21.1,1.9-49.8c-0.8-28.7-4.5-71.7-0.8-111.5C249.1,108.6,278.8,91,278.8,91L278.8,91z"/>
		<path class="st2" d="M225.9,299.5c-18.1-6.8-40.6-0.6-54.2,8.3c-21.6,14.1-29.4,39.5-27.5,66c3.2,43.5,56.2,72.5,96.2,66.5
			c21.3-3.2,40.4-15.8,50.7-40.2c13.6-32.2-3.4-73.1-33.7-87c-5-2.3-10.6,1-17.4-1.9C235.6,309.3,231.5,301.6,225.9,299.5
			L225.9,299.5z"/>
		<path class="st3" d="M218.2,321.8c-0.1-2.8-27.8-5.3-38.5,20.5c-10.7,25.8-2,52.5-2,52.5s-1.7-36.6,7.5-51.7
			c3.1-5,7.9-11.3,15.6-14.5C210.6,324.6,218.4,325.7,218.2,321.8L218.2,321.8z"/>
		<path class="st2" d="M229.6,312.3c0,0,2.9,8.2,8.6,9.1c5.7,1,12.3-5,14.3,0.5c2.1,5.5-6.9,14.1-18.2,11.4
			c-11.2-2.6-19.5-14.5-18.6-25.7C216.7,296.6,228.1,302.4,229.6,312.3L229.6,312.3z"/>
		<path class="st4" d="M219.2,338c3.9,1,6,5.8,4.8,10.7c-1.3,4.9-5.4,8.1-9.3,7.1c-3.9-1-6-5.8-4.8-10.7
			C211.2,340.2,215.3,337,219.2,338L219.2,338z"/>
		<g>
			<path class="st5" d="M229.8,312.6c0,0,3,7.9,8.2,8.7c5.3,0.9,11.4-4.3,13.3,0.7c1.9,5.1-6.9,12.2-16.8,9.8
				c-9.9-2.3-17.8-13-17-23.3C218.3,298.4,228.3,303.4,229.8,312.6L229.8,312.6z"/>
			<path class="st6" d="M229.9,312.9c0,0,3.1,7.5,7.9,8.3c4.8,0.8,10.6-3.7,12.3,0.9c1.7,4.6-6.8,10.3-15.5,8.3
				c-8.7-2-16.2-11.5-15.4-20.9C219.9,300.1,228.6,304.5,229.9,312.9L229.9,312.9z"/>
			<path class="st7" d="M230,313.1c0,0,3.2,7.2,7.6,7.9c4.3,0.7,9.7-3,11.3,1.1c1.6,4.2-6.8,8.4-14.2,6.7
				c-7.4-1.7-14.5-10.1-13.9-18.6C221.5,301.8,228.8,305.6,230,313.1L230,313.1z"/>
			<path class="st8" d="M230.1,313.4c0,0,3.3,6.9,7.2,7.5c3.9,0.7,8.9-2.4,10.3,1.3c1.4,3.7-6.5,5.7-12.6,4.4
				c-6.1-1.4-12.6-7.2-12-14.9C223.7,304.2,229.1,306.6,230.1,313.4L230.1,313.4z"/>
		</g>
		<path class="st4" d="M230.3,313.7c0,0,3.4,6.6,6.9,7.2c3.4,0.6,8.2-1.5,9,1c0.8,2.6-6.2,3.8-11,2.7c-4.8-1.1-10.5-6.7-9.8-12.5
			C226,306.2,229.3,307.7,230.3,313.7L230.3,313.7z"/>
		<path class="st4" d="M207.5,353.5c1.6,0.4,2.5,2.4,2,4.4c-0.5,2-2.2,3.3-3.9,2.9c-1.6-0.4-2.5-2.4-2-4.4
			C204.1,354.4,205.9,353,207.5,353.5L207.5,353.5z"/>
		<path class="st4" d="M183.3,323.2c8.7-4.9,16.6-3.3,15.5-6.8c-1.1-3.5-8.5-1.4-12.8,0.4c-4.3,1.8-8.3,5.2-10.3,9
			c-1.5,2.7-3.2,6.8-2.4,7C175,333.1,174.5,328.1,183.3,323.2L183.3,323.2z"/>
		
			<linearGradient id="SVGID_1_" gradientUnits="userSpaceOnUse" x1="-174.8136" y1="709.9323" x2="-383.3711" y2="728.1788" gradientTransform="matrix(0.5958 5.400000e-02 -5.400000e-02 0.5958 421.1618 -27.6508)">
			<stop  offset="0" style="stop-color:#A10013"/>
			<stop  offset="1" style="stop-color:#FFBDBD"/>
		</linearGradient>
		<path class="st9" d="M151.9,385.4c11.5,27.6,45.6,46.6,74.2,44.9c18.7-1.1,36.3-10.5,47.2-30.9c10-18.6,10.8-40.9-0.1-58.3
			c6.8,16,3.9,33.9-4.5,49.5c-10.9,20.3-28.4,29.8-47.2,30.9C196.1,423.1,166.2,408.1,151.9,385.4L151.9,385.4z"/>
		
			<linearGradient id="SVGID_2_" gradientUnits="userSpaceOnUse" x1="-396.9468" y1="689.3522" x2="-185.8369" y2="689.3522" gradientTransform="matrix(0.5983 0 0 0.5983 395.8859 -26.439)">
			<stop  offset="0" style="stop-color:#C30017"/>
			<stop  offset="1" style="stop-color:#F25E5E"/>
		</linearGradient>
		<path class="st10" d="M158.4,394.6c13.9,26.4,49.7,42.3,78,38.1c18.5-2.8,35.2-13.8,44.2-35c8.2-19.5,3.6-42.6-8.9-59
			c8.3,15.3,10.4,34.3,3.5,50.7c-9,21.2-25.6,32.2-44.2,35C205.8,428.1,174.7,415.9,158.4,394.6L158.4,394.6z"/>
		<path class="st4" d="M273.8,343.4c3.1,4.3,2.7,8.5,4.4,7.7c1.8-0.8,0.3-4.5-0.9-6.7c-1.2-2.2-3.2-4-5.3-4.9
			c-1.5-0.6-3.7-1.3-3.8-0.8C268.1,339.6,270.7,339.1,273.8,343.4L273.8,343.4z"/>
	</g>
	<g>
		<path class="st2" d="M355,280.6c-18.1-6.9-40.6-0.6-54.2,8.3c-21.6,14.1-29.4,39.5-27.5,66c3.2,43.5,56.2,72.5,96.2,66.5
			c21.3-3.2,40.4-15.8,50.7-40.2c13.6-32.2-3.4-73.1-33.7-87c-5-2.3-10.6,1.1-17.4-1.9C364.7,290.3,360.6,282.7,355,280.6L355,280.6
			z"/>
		<path class="st3" d="M347.3,302.8c-0.1-2.8-27.8-5.3-38.5,20.5c-10.7,25.8-2,52.5-2,52.5s-1.7-36.6,7.5-51.7
			c3-5,7.9-11.3,15.6-14.5C339.8,305.6,347.5,306.7,347.3,302.8L347.3,302.8z"/>
		<path class="st2" d="M358.7,293.4c0,0,2.9,8.2,8.6,9.1c5.7,1,12.3-5,14.3,0.5c2.1,5.5-7,14.1-18.2,11.4
			c-11.2-2.6-19.4-14.5-18.6-25.7C345.8,277.6,357.2,283.4,358.7,293.4L358.7,293.4z"/>
		<path class="st4" d="M348.7,313.9c2.4,3.2,1,8.3-3.1,11.3c-4.1,3-9.4,2.8-11.7-0.4c-2.4-3.2-1-8.3,3.1-11.3
			C341.1,310.5,346.3,310.7,348.7,313.9L348.7,313.9z"/>
		<g>
			<path class="st5" d="M358.9,293.6c0,0,3,7.9,8.2,8.7c5.3,0.9,11.4-4.3,13.3,0.7c1.9,5.1-6.9,12.2-16.8,9.9
				c-9.9-2.3-17.8-13-17-23.3C347.4,279.4,357.4,284.5,358.9,293.6L358.9,293.6z"/>
			<path class="st6" d="M359,293.9c0,0,3.1,7.5,7.9,8.3c4.8,0.8,10.6-3.7,12.3,0.9c1.7,4.6-6.9,10.3-15.5,8.3
				c-8.7-2-16.2-11.5-15.4-20.9C349,281.1,357.7,285.5,359,293.9L359,293.9z"/>
			<path class="st7" d="M359.1,294.2c0,0,3.2,7.2,7.5,7.9c4.3,0.7,9.7-3,11.3,1.1c1.6,4.2-6.8,8.4-14.2,6.7
				c-7.4-1.7-14.5-10.1-13.9-18.6C350.6,282.8,358,286.6,359.1,294.2L359.1,294.2z"/>
			<path class="st8" d="M359.3,294.4c0,0,3.3,6.9,7.2,7.6c3.9,0.7,8.9-2.4,10.3,1.3c1.4,3.7-6.5,5.7-12.6,4.4
				c-6.1-1.4-12.6-7.2-12-14.9S358.2,287.7,359.3,294.4L359.3,294.4z"/>
		</g>
		<path class="st4" d="M359.4,294.7c0,0,3.4,6.6,6.9,7.2c3.4,0.6,8.2-1.5,9,1c0.8,2.6-6.2,3.8-11,2.7c-4.8-1.1-10.5-6.7-9.8-12.5
			C355.1,287.2,358.4,288.7,359.4,294.7L359.4,294.7z"/>
		<path class="st4" d="M331.8,326.9c1.6,0.4,2.5,2.4,2,4.4c-0.5,2-2.3,3.3-3.9,2.9c-1.6-0.4-2.5-2.4-2-4.4
			C328.5,327.8,330.2,326.5,331.8,326.9L331.8,326.9z"/>
		
			<linearGradient id="SVGID_3_" gradientUnits="userSpaceOnUse" x1="-211.6646" y1="660.1252" x2="-0.5544" y2="660.1252" gradientTransform="matrix(0.5983 0 0 0.5983 421.7138 -30.5135)">
			<stop  offset="0" style="stop-color:#C30017"/>
			<stop  offset="1" style="stop-color:#FFFFFF"/>
		</linearGradient>
		<path class="st11" d="M295.1,373c13.9,26.4,49.7,42.3,78,38.1c18.5-2.8,35.2-13.8,44.2-35c8.2-19.5,3.6-42.6-8.9-59
			c8.3,15.3,10.4,34.3,3.5,50.7c-9,21.2-25.6,32.2-44.2,35C342.5,406.6,311.4,394.4,295.1,373L295.1,373z"/>
		<path class="st4" d="M329.2,336.5c1.2,0.3,1.8,1.8,1.4,3.2c-0.4,1.5-1.6,2.4-2.8,2.2c-1.2-0.3-1.8-1.7-1.4-3.2
			C326.7,337.1,328,336.2,329.2,336.5L329.2,336.5z"/>
	</g>
	
		<linearGradient id="SVGID_4_" gradientUnits="userSpaceOnUse" x1="748.0514" y1="21.0437" x2="1070.1946" y2="21.0437" gradientTransform="matrix(0.6378 0 0 0.6378 -402.1567 155.4644)">
		<stop  offset="0" style="stop-color:#467500"/>
		<stop  offset="1" style="stop-color:#BCF000"/>
	</linearGradient>
	<path class="st12" d="M280.4,89.8C189.2,63.9,80.9,136,75,253.2C206.3,240,280.4,241.9,280.4,89.8L280.4,89.8z"/>
	<path class="st13" d="M87.1,236.3c12.4-30.2,35.4-66.2,75.9-95.2c41.5-29.7,74.9-38.3,108.3-47.8c-33.2,11.4-63,22.8-104.5,52.6
		C126.2,174.9,101.1,208.3,87.1,236.3L87.1,236.3z"/>
	
		<radialGradient id="SVGID_5_" cx="-279.5881" cy="432.8565" r="238.3887" gradientTransform="matrix(0.6378 0 0 0.6378 405.3098 -87.0508)" gradientUnits="userSpaceOnUse">
		<stop  offset="9.000000e-02" style="stop-color:#BCF000"/>
		<stop  offset="0.91" style="stop-color:#467500"/>
	</radialGradient>
	<path class="st14" d="M280.4,89.8c-1.5-0.4-3-0.8-4.5-1.2C252.4,205.3,184.6,237.8,75,253.2l0,0C206.3,240,280.4,241.9,280.4,89.8
		L280.4,89.8z"/>
</g>
</svg>
