<?xml version="1.0" encoding="utf-8"?>
<!-- Generator: Adobe Illustrator 24.0.1, SVG Export Plug-In . SVG Version: 6.00 Build 0)  -->
<svg version="1.1" id="Layer_1" xmlns="http://www.w3.org/2000/svg" xmlns:xlink="http://www.w3.org/1999/xlink" x="0px" y="0px"
	 viewBox="0 0 500 500" style="enable-background:new 0 0 500 500;" xml:space="preserve">
<style type="text/css">
	.st0{fill:#666666;}
	
		.st1{fill-rule:evenodd;clip-rule:evenodd;fill:#999999;stroke:#999999;stroke-width:1.4173;stroke-linecap:round;stroke-linejoin:round;stroke-miterlimit:2.4142;}
	.st2{fill-rule:evenodd;clip-rule:evenodd;fill:#FFFFFF;}
	.st3{fill-rule:evenodd;clip-rule:evenodd;fill:#333333;}
	.st4{fill-rule:evenodd;clip-rule:evenodd;fill:url(#SVGID_1_);}
	.st5{fill-rule:evenodd;clip-rule:evenodd;fill:url(#SVGID_2_);}
	.st6{fill-rule:evenodd;clip-rule:evenodd;fill:url(#SVGID_3_);}
	.st7{fill-rule:evenodd;clip-rule:evenodd;fill:url(#SVGID_4_);}
	.st8{fill-rule:evenodd;clip-rule:evenodd;fill:url(#SVGID_5_);}
	.st9{fill-rule:evenodd;clip-rule:evenodd;fill:url(#SVGID_6_);}
	.st10{fill-rule:evenodd;clip-rule:evenodd;fill:url(#SVGID_7_);}
</style>
<g>
	<path class="st0" d="M173,178.3l0-13.7c0-1.5,0.8-2,2.5-2.9c0.3-0.1,0.6-0.3,0.9-0.4l73.2-36.5l0-23.5v-1.5h2.4h2.8h2.4v1.5v23.2
		c0,0.2,0,0.5,0,0.7c0,0.7-0.1,1.1-0.4,1.6c-0.4,0.6-0.9,0.9-1.8,1.3l-0.6,0.3l-0.9,0.5l-72.9,36.2l0,11.6h7.7h2.4l0,1.5l0,1.7
		l0,1.6h-2.5h-10.1c-1.7,0-3-0.3-3.9-0.9C173.5,180,173,179.3,173,178.3L173,178.3z"/>
	<path class="st1" d="M178.8,178.4H189l-0.2,0.4h-10.3c-0.7,0-1.1-0.3-1.1-0.7v-13.2c0-0.4,0.5-0.7,1-0.9l74.2-37
		c0.7-0.3,1.4-0.6,1.4-1.5v-14.8h0.6v15c0,0.7-0.6,1-1.4,1.5l-74.4,37.1c-0.3,0.2-0.7,0.3-0.7,0.7v13.1
		C178,178.2,178.4,178.5,178.8,178.4L178.8,178.4z"/>
	<path class="st2" d="M188.4,179.9l-10.5,0c-1.1,0-2.2-0.5-2.2-1.4v-14c0-0.8,1-1.2,1.8-1.6l74-36.9h0h0c0.4-0.2,0.8-0.5,0.8-1
		v-14.5h1.1v14.7c0,0.7-0.7,1-1.1,1.2l0,0l0,0l-74.1,37c-0.7,0.3-1.3,0.6-1.3,1.2v13.6c0,0.4,0.7,0.9,1.4,0.9h10.5L188.4,179.9
		L188.4,179.9z"/>
	<path class="st3" d="M188.7,178.8h-10.2c-0.6,0-1.1-0.3-1.1-0.7v-13.3c0-0.5,0.6-0.7,1.1-1l74.3-37v0l0,0c0.7-0.3,1.2-0.6,1.2-1.3
		v-14.8h-0.6c0,4.9,0.3,9.8,0,14.7c0,0.7-0.4,0.9-1.1,1.2l-74.2,37c-0.6,0.3-1.3,0.6-1.3,1.2v13.6c0,0.4,0.5,0.9,1.4,0.9h10.4
		L188.7,178.8L188.7,178.8z"/>
	
		<linearGradient id="SVGID_1_" gradientUnits="userSpaceOnUse" x1="-761.7631" y1="306.5832" x2="-753.3484" y2="319.0583" gradientTransform="matrix(-1.2159 -0.7919 1.2159 -0.7919 -1050.7532 -269.4149)">
		<stop  offset="0" style="stop-color:#081112"/>
		<stop  offset="1" style="stop-color:#344043"/>
	</linearGradient>
	<path class="st4" d="M253.4,112.6c-8.9,0-16-33.6-16-42.2c0-8.6,7.2-15.6,16.1-15.6c8.9,0,16.2,7,16.2,15.6
		C269.7,79,262.3,112.6,253.4,112.6L253.4,112.6z"/>
	
		<linearGradient id="SVGID_2_" gradientUnits="userSpaceOnUse" x1="-4522.0269" y1="-421.5467" x2="-4294.8721" y2="-194.3922" gradientTransform="matrix(-0.1957 -0.1275 0.1957 -0.1275 -557.0272 -517.5898)">
		<stop  offset="0" style="stop-color:#000000"/>
		<stop  offset="0.79" style="stop-color:#ACBAC0"/>
		<stop  offset="1" style="stop-color:#000000"/>
	</linearGradient>
	<path class="st5" d="M253.4,112.6L253.4,112.6c-8.9,0-16-33.6-16-42.2c0-8.6,7.2-15.6,16.1-15.6c-8.7,0.3-14.3,6.5-14.3,15.2
		C239.2,78.6,245.3,111.9,253.4,112.6L253.4,112.6L253.4,112.6z"/>
	
		<linearGradient id="SVGID_3_" gradientUnits="userSpaceOnUse" x1="-2761.9944" y1="-42.1623" x2="-2619.7869" y2="100.0453" gradientTransform="matrix(-0.3217 -0.2095 0.3217 -0.2095 -613.4627 -475.5632)">
		<stop  offset="0" style="stop-color:#000000"/>
		<stop  offset="0.79" style="stop-color:#ACBAC0"/>
		<stop  offset="1" style="stop-color:#000000"/>
	</linearGradient>
	<path class="st6" d="M253.5,54.8c8.9,0,16.1,7,16.1,15.6c0,8.6-7.4,42.2-16.3,42.2c9.6-1.9,12.9-38,12.9-43.3
		C266.3,60.7,261,55.4,253.5,54.8L253.5,54.8z"/>
	
		<linearGradient id="SVGID_4_" gradientUnits="userSpaceOnUse" x1="-775.0562" y1="292.8174" x2="-736.6588" y2="331.2148" gradientTransform="matrix(-1.2159 -0.7919 1.2159 -0.7919 -1050.7532 -269.4149)">
		<stop  offset="0" style="stop-color:#000000"/>
		<stop  offset="0.79" style="stop-color:#ACBAC0"/>
		<stop  offset="1" style="stop-color:#000000"/>
	</linearGradient>
	<path class="st7" d="M253.4,112.6c-6.8-0.9-11.5-33.8-11.5-42.4c0-8.6,5.5-14.3,11.7-15.4c-5.5,3.1-5.8,6.6-5.8,15.2
		C247.7,78.6,248.7,110,253.4,112.6L253.4,112.6z"/>
	
		<linearGradient id="SVGID_5_" gradientUnits="userSpaceOnUse" x1="-3745.7368" y1="-5608.437" x2="-3745.7368" y2="-5727.8228" gradientTransform="matrix(-0.1868 0 0 -0.1187 -445.3425 -493.6626)">
		<stop  offset="0" style="stop-color:#000000"/>
		<stop  offset="1" style="stop-color:#898989"/>
	</linearGradient>
	<path class="st8" d="M324.8,186.2c-46.9,0-93.9,0-140.8,0c-0.4,0-0.7-0.1-0.8-0.3c-1-4.6-1-9.2,0-13.7c0-0.1,0.3-0.3,0.8-0.3
		c46.9,0,93.9,0,140.8,0c0.4,0,0.7,0.1,0.8,0.3c1,4.5,1,9,0,13.7C325.5,186.1,325.2,186.2,324.8,186.2L324.8,186.2z"/>
	
		<linearGradient id="SVGID_6_" gradientUnits="userSpaceOnUse" x1="-2030.3162" y1="2101.7739" x2="-1476.6591" y2="2101.7739" gradientTransform="matrix(2.043244e-11 -0.4551 0.4551 2.043244e-11 -702.2709 -482.123)">
		<stop  offset="0" style="stop-color:#E60000"/>
		<stop  offset="0.74" style="stop-color:#E60000"/>
		<stop  offset="1" style="stop-color:#820000"/>
	</linearGradient>
	<path class="st9" d="M187.8,320.5c0.5-0.1,2.1-0.5,1.8,0.1c1.9-0.8-0.3-1.7,1-2.6c0.5-0.6-1.9-0.2-1.8-0.7c2.6-2.3,1.2-4.7,2.4-7.4
		c-3.3-0.1-0.6,1.9-1.5,3c-0.2,0.3-1,0-1.2-0.2C186.4,314.8,187.9,318.1,187.8,320.5L187.8,320.5z M195.9,326c1-0.5,0.3-2.2,0.7-3.1
		C194.6,323.2,196.3,325.1,195.9,326L195.9,326z M249.3,325.5l0.1,0.3c0,0.4-0.1,0.8,0.2,1c0.1,0.6,0.3,1.1,0.5,1.6
		c0.1-0.6,0.2-1.1,0.4-1.7c0,0.4,0,0.7-0.1,1.1c0,0.3-0.2,0.6-0.4,0.9c-0.1,0-0.2,0-0.4,0c0.1,0.1,0.1,0.2,0.2,0.3
		c-0.6,0.8-1,1.6,0.9,2.3c0,0,0,0,0,0v0c-0.6,0.2-1.1,0-1.4-0.3c0-0.4-0.1-0.7-0.2-1.1c-0.1,0.2-0.1,0.4-0.2,0.6
		C248.2,328.9,248.8,326.1,249.3,325.5L249.3,325.5z M215.7,339.3c-0.4,0.5,0.2,1.1-0.3,1.9c0.2-0.1,0.3-0.2,0.4-0.3
		c0.5,14.2,1.5,29.2,2.7,43c0.2,2.2-1.2,4.6-1.2,6.8c0,1.5,1.5,2.8,0.3,4.4c1.9,3-1.6,7.8,2,10.8c-0.8,0-0.5-0.4-0.6-0.7
		c-3.3,0.8,0.4,1.5,0.8,2.4c0.6,1.4-1.1,2.9-0.8,4.4c0.7,3.8,1.7,7.9,2.1,11.7c-2.3,0.2-0.8-1-1.3-1.4c-0.5-0.1-1.7,3.2,0.8,2.4
		c0.9,0.7-1.6,0.4-1.1,0.9c1.5-0.5,0.5,0.3,2.3,0.1c0,4.2,0.1,7.4,0.9,11.5c1.2-0.4,2-0.1,2.4,0.3c1.3-2.2,2.7-3.4,0.7-5.9
		c2.6-1.7,0.1-2.7-0.9-3.5c0.3-0.4,0.9,0.2,1.7-0.2c-1.1-0.9,2.2-2.2-1.3-2.2c0.2-1,3.2-2.3-0.2-2.9c1.4-0.5,2.1-1.2,1.6-2.2
		c-1.8,1.1-2.7-0.8-1.9-1.2c0-0.7,2,0.3,1.7-0.2c-0.6-3.7,0.6-9-1-12.3c1.4-7.4,0.3-16-0.6-22.7c0-0.5-0.5-0.2-1.2-0.2
		c3.5-4.5-0.2-10.3,1.7-15.6c1.6,1.3-0.3,3.4,1.6,5.6c1.5-12.2,0.6-23.7,1-35.2c0.1,0,0.2,0.1,0.3,0.1c-0.1-1.3-0.1-1.3,0.2-2.6
		c2.3,1.5-0.6,4,0.8,5.5c0.2-0.2,0.4-0.5,0.6-0.8c-0.2,1,1.1,2.4,1.2,3.5c0.7-0.6,0.9-3.6,0.2-4.6c-0.5,0.1-0.9,0.3-1.1,0.5
		c0.2-0.3,0.3-0.7,0.5-1.1l0,0.1c1-0.4,1.2-1,0.5-1.5c2.8,1.5,2,3,1.4,4.7c-1.1-0.3-0.9,1.3-0.4,1.5c0,0.2,0,0.3,0,0.5
		c-0.1-0.1-0.1-0.1-0.2-0.2c0.1,0.5-0.1,1-0.2,1.5c-0.1-0.3-0.3-0.7-0.6-1.1c-0.3,1.7-2.4,4.4,1,5.1c-0.6-0.8-0.4-1.7-0.3-2.6
		c0.1,0.2,0.2,0.5,0.4,0.7c0-0.1,0.1-0.1,0.1-0.2c0.5,3.3,1.6,6.8,1.6,10.3h0.1c0,0.4,0,0.8,0.1,1.2c-0.3,0.2,0,0.6,0.1,0.9l0,0.2
		c0,0,0,0.1-0.1,0.1l0.1,0l0,0.4c-1.3,0.8,0.2,2,0.1,2.5l0.1,0c0,0.5,0.1,0.9,0.1,1.3c0.4-0.4,0.5-0.9,0.5-1.5
		c0.4-0.1,1-0.1,1.6-0.1c-0.5-0.7-0.4-1-0.3-1.4c0.3,0.2,0.5,0.2,0.4-0.4c0-0.2-0.1-0.4-0.3-0.5v-0.1l-0.1,0
		c-0.4-0.3-1.1-0.3-1.3-0.7c0.1-0.1,0-0.2,0-0.3c0.8,0.1,1.1,0.5,1.6,0.8c0.2-0.5-0.7-1.7,0.3-1.8c2.3,4.4-0.7,8.3,1.9,12.8
		c0.1-1.1,0.1-1.7,0.1-2.5c0.1,0,0.3-0.1,0.5-0.1c1.7,3.8-1.6,7.9,0.3,11.4c0.3,0.6,2,0.9,2.5,1.4c1.5,1.7-1.6,3.4,0.4,4.8
		c0,0.5-2.2,0.3-2.9,0.6c5,1.8,1.6,5.5,2.4,8c-3.1-0.5,0-2.4-1.3-2.2c-2-0.2-1.4,1.6-1.6,2.6c0.8,0.2,0.9,0.1,1.7,0
		c0,0.5,0.1,1,0.1,1.5c0.8-0.1,1.1-0.4,1.1-0.8c0.8,2,1.7,6.5,1.3,8.8c-0.3,0.6,0.7,0.9,0.7,1.4c0.2,2.1-2,3.8,2.2,5.5
		c0.8-1.5-0.7-2.4,0.2-4.4c1.8,0.5,0.1,1.1,1.9,1.6c1-1.7-0.1-4,0.1-6.4c1.2,1.2,1.6-0.4,1.1-1.5c0,0-0.8,0.2-0.6,0.4
		c-3.4-1.7,1.3-4.5,0.1-6.2c-3.1,2.4,2.2-2-1.3-1.6c2.1-0.9-1.8-1.9,0.9-3c0-0.5-0.5-0.2-1.2-0.2c-0.3-0.8,0.1-1.1,1.1-1.1
		c0.2-2.6-0.9-5.6-0.9-8.2c0-0.7,0.1-1.3,1-1.4c-0.4,0-0.7,0-0.9-0.1c0.1-0.6,0.3-1.1,0.6-1.7c0-0.1,0-0.1,0-0.2
		c0.8-1.8-0.1-4.7,1.3-6.1c0.3,2.3,0,4.5,1.6,4.7c-0.1,3.4,1.6,6,2,8.4c1.3-3.7,1.1-8.2,1.5-11.2c0.5-0.9,0.7-1.8,0.9-2.8
		c0.6-1,0.5-2.2,0.2-3.4c0-2.4-0.3-4.9-0.2-7.1c0.2-3.8,1.8-7.5-0.5-10.7c1.2,0.3,0.6-1,0.7-2.2c0.2,0.1,0.6,0.1,1.2-0.1
		c-3.5,3.8,3.4,7.2-0.3,11.4c0.5,0.1,1.6,0.1,1.8,0.3c-0.1,0.1-0.6,0.2-0.6,0.4c-0.1,0.6-1.6-0.6-1.8,0c-0.5,0.7,1.5,0.6,1.8,1.1
		c-1.1,4.8,0.8,5.8-1.6,9.9c2.1-0.2,1.1,0.8,2.4,0.9c0.1,5.4,0.6,9.3,0.5,14.5c0,0.3,1.2,0.5,1.2,0.5c0,0.1-1.6,0.6-1.7,0.8
		c-1.5,2.4,3,6.5,1.3,9.3c0.7-0.1,1.2-0.3,1.1-0.6c1.2,0.9,0.5,1.6-1.6,2.1c2.1,2.1-1.9,5.2,2.9,6.5c-0.1,0.6-1.9-0.7-2.3,0.1
		c-0.4,0.8,2.4,0.5,2.4,1.2c1.6-2.7,0.1-5.1,0.6-7.5c-0.8,0.1-0.9,0.3-1.7,0.4c2.6-0.5,0.9-2.5,2-3.9c1.2,0.1,1.2,0.5,2.3,0.1
		c0.7,6.1,2.1,11.4,1.3,16.7c2.2-0.9,1,3.4,1.5,4.2c0.2,0.4,1.2,0.3,1.2,0.2c0.2,2.2-2,4.8-0.6,7.4c1.6,0.1,1.1-0.4,2.3-0.4
		c0.9,0.6,0.2,0.6,0.1,1.3c-1.2,0.2-1.2-0.9-1.8-0.3c-0.2,0.5-2.4,3.6,0.4,4.8c0.7-0.7-1.6-1.5-0.2-2.2c1.4,0,2.7,0.1,2.4,0.7
		c0.7,0,0-3.7,1.3-5.2c-2.6,0.7-0.1-0.8-3.6-0.7c0.4-1,0.6-0.9,0.5-1.5c1.2,0.1,1.3,0.7,1.3,1.3c1.1-0.4,0.7-1.1,1.6-1.5
		c0.6,0.1,0.6,0.4,1.8,0.3c-0.1-0.3,0.7-0.4,0.5-0.7c0.7,0,0.5,0.3,0.6,0.5c1.9-0.5,0.4-1.5,0.4-2.2c-0.9,0.2,0.2,1.5-1.1,0.6
		c-1,0.2-0.4,1-1.1,1.3c-0.8-0.2-0.9-0.1-1.8,0c-0.9-0.5-1-1.8,0.4-2.6c-1.9,0.1-2,0.7-3.4,1c-0.3-0.6,0.1-1,0.5-1.5
		c1,0,1.5,0.1,1.8,0.3c2-0.7,1.3-2.6,0.3-3.7c1.3-0.2,1-0.9,3.4-0.8c-1.1,0.5-1.3,1.3-1.6,1.5c-0.5,0.4,2.9-0.3,1.2,0.2
		c1.3,0,3-2.1,1-2.6c-2.5,0,0,0.3,0,0.5c-1.6,0-1.1,0.3-2.3,0.1c-1.5-0.2-0.4-1,0.5-1.1c0-0.8-1.6,0.1-2.4-0.3
		c1.6-0.6,0.5-1.3,1-1.9c2.5,0.1,1.2,1.5,4.2,1.4c0.7-0.6-1.9-0.1-1.2-0.7c2.6-0.1,3.8-5.2,0.2-5.1c3.4-1.2,1.5-4,1.9-5.5
		c0.2-0.3,1.5-0.2,2.3-0.2c-0.9-0.2-1.1-0.9-2.4-0.5c0-4,0.1-6-0.1-9c0.1-0.2,1.1-0.2,1.7-0.2c0.6-1.7-2.1-2.7,0.8-3.5
		c-0.4,2.7-0.9,7.7,1.7,9.6c-1.2-2.5,0-8.1-0.1-11.2c2,1.9-0.1,5.7,2.4,8.4c-1.6-8.6-0.2-17.8-3.6-27.2c0.9-0.5,1.2-1.2,1.3-2l0.1,0
		c-0.1,0-0.1,0-0.1,0c0.1-0.6,0.1-1.2,0-1.8c0.3,0.7,0.7,1.3,1.2,1.9c0.9-1-0.1-2.4-0.1-3.7c2.2,6.6,2.3,16.9,2.8,23.2
		c1.9,0.9,0.9,3.5,0.3,3.9c-0.1,0.8,1.1-0.7,1.3,0.3c-0.1,0.5-1.9,0-1.1,1c0.2,1,1.3-0.2,1.7,0.5c0.2,3.9,1.3,6.7,1.3,9.9
		c2.2-1.2-1.1-4.6,0.8-5.2c0.3,2,0.1,4.3,0.9,5.2c0.7-1.1-0.4-2.3,0.1-3.1c1.2,0-0.2,1.6,1,1.6c3.2-2.9-0.8-6.6,1.6-9.9
		c-0.5-1.4-1.2-2.8-1.2-4.2c-0.1-5.9-0.6-13-1-20.4c0.3,0.5,0.8,0.8,1.2,0.3c-0.8-0.1-0.2-1.1-1.2-1.1l-0.2-2.8
		c0.2,0.3,0.4,0.5,0.7,0.7c-1.2-2.5,0-8.1-0.1-11.2c0.5,0.5,0.8,1.2,0.9,2c0.1,3.7,0.5,7.9,0.2,8.7c2.2,6.8-0.4,12.8,2.9,18.8
		c0.1-2-0.7-3.2,0-4.7c0.3,0.2,0.4,0.5,0.6,0.9c-0.2,1.9-0.5,3.8,0.8,5.1c0.2,0.5,0.6,0.9,1.3,1.1l0-0.3l0.1,0.1
		c0.4-1,0.5-1.9,0.6-2.7c0.1,0,0.1,0.1,0.2,0.1c0-0.3-0.1-0.6-0.1-0.8c0.1-0.7,0.1-1.3,0.3-2c0.8,2.3-1,4.6,2.1,5.7
		c0.8-1.7,0.3-3.3,0.6-4.9c0.2,0,0.3,0,0.6,0c-0.5-0.4-0.1-0.6-0.3-0.8c0.1-0.2,0.2-0.4,0.3-0.6c0.1,0.4,0,2.4,0.5,1.6
		c-0.1-0.5-0.2-1-0.2-1.6c2.6,3.8,0.3,8.4,1.7,12.2c-1.5,0.2-1.5,0.8-2.3,1.2c1.9,0.4,1.6,1.4,2.5,2.1c1.4-0.5,2.2-2.5,0.4-1.8
		c0.4-1.5,0.5-3.1,0.5-4.8c0.1,0.3,0.2,0.5,0.5,0.6c-0.3-0.9,1.3-2.7-0.6-3.1l0-1c0.1,0,0.1,0,0.2-0.1c-0.2-2.1-0.1-4.4-0.1-6.7
		l0-0.1c0.6,0.2,1.2,0.3,1.8,0.5c1.4,0-0.4-0.8,1.7-0.6c-0.5-0.3-2.6-0.4-3.5-0.1l0,0c0-0.6,0-1.2,0-1.8c1.4,0.2,0.5,1.2,1.7,1.4
		c3.4-0.7,1.5-3.4,0.8-4.2c2.1-0.6,0.8-2-0.2-2.6c0.2-0.6,1.3-1.4,0.5-1.7c-3.9,1.9,0.3,3.7-2.4,6.1c-0.6-2.5-0.9-5.1-1.1-7.8
		c0.5-2.6,0.6-6.1-0.1-8.1v-0.3c1.4-1.1,0.3-3.5,0.3-5.2c0-1.5,0-3.1,0-4.6c1,0,0.5,0.5,0.7,0.8c0.3-0.1,0.8-0.2,1.2-0.2
		c0.2,0.2,0.5,0.4,0.9,0.5c0-0.2,0-0.3,0-0.5c0.4-0.2,0.3-0.4,0-0.5c0-0.7-0.1-1-0.3-2.2c0.6,0,0.9,0.1,1.3,0.3
		c0-1.3-1.1-2.1,0.2-2.9c0.8,2.1-0.8,4.3,1.6,5.5c0,1.2,0.1,2.5,0.1,3.7c0.1,3.9-0.7,7.8,1.4,11c-3.2,4.1,0.5,7.3-0.8,12.1
		c-0.5,0.6,1.9,0.2,1.8,0.7c0.3,0.7-1.6-0.1-1.7,0.6c0.2,0.7-0.5,1.7,1.3,1.8c-0.1,0.1-2.6,0.2,0,0.4c-1.4,3.3-1.6,9,0.9,11.5
		c0.1,0.6-1.9,0.7-1.7,1.3c1.7,0.1-0.5,2,1.9,1.2c-3.5,1.9,1.6,3-1.4,4.6c2.5-0.1,0.3,2.1,0.9,3.6c1.9-0.2,0.3-0.3,0.5-0.9
		c1.7,1.5,0.8,3.9,1.1,6c-0.5,0.5-0.6-0.6-1.8,0c0.7,0.8,1.7,0.3,3.5,0.5c-3.4,4.6,1.1,9.5,1.1,14.3c2.9-2.2-0.1-4,2.4-6.3
		c-2.3-1.1-2.4-2.4-0.3-3.5c-1.7-7.1-1.3-12.9-1.5-19.8c-0.6-0.6,1.5-0.4,1.7-0.8c-1.9-6,0-12.4-2-18.5c-0.8-0.6,1.9-0.2,1.1-0.8
		c-1.2-6.3,0-12.1-0.2-18.2c-0.1-2.8-1.1-5.7-1.3-8.8c-0.6-10,1-22.6,1.1-30.8c0-2.2,1.2-4.6,1.2-6.6c0.2-3.8-0.1-8.2-0.4-12.6h0.6
		v-99.5H187v92.7v4.3v2.6h1c0.8,3.3-0.1,6.5,0.5,9.7c0,0.5-1,0.7-1.7,1c3.4,2-0.9,5.3,2.3,7.5c-0.8,0.1-1.1-0.2-1.7,0.6
		c0,0.8,3.8,0.1,1.9,1.2c-1.3-1.2-2.6,1-1.6,1.5c1.8-0.3,0.9-1.6,2.8-1.4c0.3-2.9,0.3-4.9,0.5-8.1c4.4,3.4,0.5,7.2,1.9,10
		c0.6-0.1,0.6-0.4,1.7-0.4c-0.8-1.6-1.3-2.9,0.3-4.2c0.9,0.6,2.1,0.2,1.7-0.6c0.4,0.1,0.7,0.2,0.9,0.4c-2,4.4-0.8,10.5-1.3,15.3
		c0.7,0.6,0.6-2.3,0.8-3.9c0.1-0.8,0.1-1.6,0.2-2.2c0.1,1.5,0.6,3,2.2,4.2c0.4-0.7,0.5-1.6,0.6-2.5c0.3,0.8,0.3,1.7,0.3,2.6
		c-0.4,0-0.9,0.1-1.4,0.1c0.3,0.5-0.7,2.2-1.1,1.3c-1.3,0-0.2,0.7-0.5,0.9c0.6-0.2,1.1-0.2,1.4,0c0,0.3-0.1,0.6,0,1.1v0
		c0.2-0.2,0.3-0.4,0.4-0.6c0,0.1,0,0.1,0,0.2c1,0,1.5-0.3,1.8,0c0.1-0.1,0.1-0.1,0.2-0.2c2.5-1,1.3-3,1.7-5
		c0.2,3.8,0.1,7.1-0.8,11.6c0.8-0.1,0.5-0.5,0.5-0.7c1.4,0.8,1.8,3-0.3,3.3c4.1,2.4,1.2,4.8,0,8.1c0.5-0.1,0.9-0.2,1.7-0.2
		c0.7,3.4-1.5,5.9,0,7.7c-1.5,1.1,1.4,3.3,0.4,4.9c-0.4,0.3-2.7-0.1-2.9,0.3c0.1,0.8,2.3-0.2,3,0.5c0.8,0.8-2.9,0.4-1.7,1.3
		c0.7,0,0.5-0.3,0.5-0.6c3.3,7.8,1.1,14.6,4.1,22.1c1.4-1.9,0.9-4.4,1.9-6.1c1.7-0.1-0.4,1.1,1.3,1.1c3.6-0.7-2.2-1.2,0.4-2.8
		c-1.4-0.4-1.3,0.2-2.3,0.4c1.8-1.3-1.3-1.7-0.9-3.8c2.5,0.1,1.7,1.3,1.9,2.2c2-0.4,0-0.9,1.1-1.5c1.3-0.1,0.3,0.6,0.7,0.9
		c1.7-0.4,1.4-2.2,0.4-2.8c-2,0.2-1.3,1.1-1.1,1.5c-5.8-1.8-1.4-6.1-3-8.2c0.2-0.5,0.9-0.9,2.3-1.2c-2.8-0.2-1.6-1.7-2-2.7
		c1.3,0.2,0.3,1.1,0.7,1.6c2.4-1,0.3-2.2,0.9-3.1c0.8,0.4,1.2,0.1,1.8,0.3c1.9-0.6-0.5-1.3-1.9-1.4c-1.8,0.3,0.9,0.7-0.5,0.9
		c-2,0-1.4-1.5,0.5-1.5c-1.8-0.9-1.6-2.6-1.5-3.6c1.4-0.3,1.8,0.6,0.6,0.5c1.9,0.3,1.8-0.9-0.1-1.1c1.5-2.4-1-5.3,0.8-8.1
		c0.2,0.7,0.5,1.3,1.2,2c1.2,0-0.2-1.6,1-1.6c0.6,0.8-0.5,2,0.1,3.1c0.7-0.9,0.6-3.3,0.9-5.2c1.9,0.6-1.4,4,0.8,5.2
		c-0.1-3.3,1.1-6,1.3-9.9c0.2-0.3,0.5-0.2,0.9-0.2C215.5,333.8,215.6,336.5,215.7,339.3L215.7,339.3z M210.9,307.9l-0.1,1.2
		C210.6,308.7,209.6,308.2,210.9,307.9L210.9,307.9z M210.7,311.1l-0.1,1.4C210.3,312.1,210.2,311.6,210.7,311.1L210.7,311.1z
		 M210.5,314.4c-0.1,1.6-0.2,3.2-0.2,4.7C209.4,317.6,210,316.1,210.5,314.4L210.5,314.4z M209.7,332.6c0,0.8-0.2,1.6-0.3,2.4
		c-0.6-0.2-1.2-0.4-1.8-0.6c0.7-0.6,1.9-1,1.6-1.9C209.4,332.5,209.6,332.6,209.7,332.6L209.7,332.6z M209.2,336c0,0.2,0,0.4,0,0.6
		c-0.2,0-0.3-0.1-0.3-0.2C208.8,336.3,209,336.1,209.2,336L209.2,336z M215.4,329.9c-0.1,0-0.3-0.1-0.3-0.2c0-0.2,0.1-0.3,0.3-0.3
		L215.4,329.9L215.4,329.9z M227.8,330.1c0.1,1.3,0.2,2.5,0.3,3.5c0,0.4-0.1,0.8-0.3,1.3c-0.7-1.1-1.9-2.3-1.7-3.3
		C226.2,331.1,227.1,330.6,227.8,330.1L227.8,330.1z M231.3,336.8c0-0.2,0-0.5,0.1-0.7c0.1-0.2,0.2-0.3,0.3-0.4
		c0.7,0.5,2.2,1.4,0.1,1.8C231.5,337.3,231.4,337,231.3,336.8L231.3,336.8z M231.5,334.5c0.1-1,0.1-2.1,0.2-3.1
		c0.1,0.1,0.2,0.2,0.2,0.4c0.4,0.3,0.7,0.6,0.8,0.9c0,0-0.1,0-0.1,0c0.2,0.8-0.6,1.1-0.3,1.9c-0.3,0.3-0.6,0.5-0.8,0.5
		C231.6,335,231.5,334.8,231.5,334.5L231.5,334.5z M231.8,330.7c0.1-0.4,0.2-0.9,0.3-1.3c0.1,0,0.3,0,0.4,0
		C232.7,329.9,232.7,330.4,231.8,330.7L231.8,330.7z M233.4,329.8c0.1,0.1,0.3,0.2,0.3,0.3l-0.1,0
		C233.5,330,233.5,329.9,233.4,329.8L233.4,329.8L233.4,329.8z M198.4,302.3C198.1,299.5,199.8,300.6,198.4,302.3L198.4,302.3
		L198.4,302.3z M199.5,308.9c0,0.2,0,0.4,0.1,0.6c-0.6,0.2-1.1,0.4-1.8,0.5c0.1-1.1,0.1-2.2,0.1-3.3c1.2,0.7,1.6,1.6,1.3,2.4
		C199.3,309,199.4,309,199.5,308.9L199.5,308.9z M200.4,310.7c0.1,0,0.1,0,0.2,0c-0.1,0.1-0.1,0.1-0.2,0.2L200.4,310.7L200.4,310.7z
		 M199.3,315.3l0,0.4c-0.4,0.1-0.6,0.3-0.2,0.5c-1.3,0.1-0.3-0.6-0.7-0.9C198.6,315,198.9,315.2,199.3,315.3L199.3,315.3z
		 M200.3,320.6c0,0.3,0,0.5,0.1,0.8C200.2,321.1,200.2,320.8,200.3,320.6L200.3,320.6z M197,296.8c-0.6,2.3-0.3,5.9,0.2,8.4
		c-0.3,0.6-1,1.1-2.4,1.5c-1.9-1.9,1.5-4.9-1.1-6.2c3.4-1.2-0.9-3.5,2-4.6c1.2,0.3,0.3,0.9,0.1,1.3C196.5,297,196.7,296.9,197,296.8
		L197,296.8z M197.4,313.2c-0.2-0.1-0.5-0.3-0.7-0.4c0.4-0.5,0.7-1.1,0.9-1.7C197.5,311.7,197.4,312.4,197.4,313.2L197.4,313.2z
		 M285.4,289.4h0.8c-0.3,0.8-0.6,1.6-0.8,2.4C285.4,291,285.4,290.2,285.4,289.4L285.4,289.4z M302.8,289.4h0.9
		c0,0.3-0.1,0.5-0.1,0.8C303.4,289.9,303.2,289.6,302.8,289.4L302.8,289.4z M232,353.3c0.7-0.2,0.2,4.8-0.2,2.6
		C231.7,355.4,231.4,354.3,232,353.3L232,353.3z M236.6,353.6c-0.3,0.6-0.4,1.2-0.1,1.8c0.4,0.3,0.8,0.6,0.9,1.1
		c-0.7,0-1,0.2-1.5,0.3c0,0.8,0.3,1.9,1.1,1.8C237.4,357.6,237.9,354.5,236.6,353.6L236.6,353.6z M236.9,353.1
		c-0.3-1.5,1.2-1.9,0.6-3.5c-0.2,0.1-0.2,0.3-0.6,0.3c-0.2-0.1-0.3-0.1-0.4-0.2c-0.5,0.4-0.7,1.2-0.6,1.9c0.2,0.2,1.2,0.2,1.2,0.3
		c0,0.2-0.3,0.5-0.7,0.7C236.5,352.8,236.7,353,236.9,353.1L236.9,353.1z M255,342c0,0.3,0.1,0.6,0.1,0.8c0.1,0.2,0.5,0.4,0.7,0.5
		c0.1-0.6,0-1.1-0.7-1.5C255.1,341.9,255.1,342,255,342L255,342z M255.8,343.7c-0.3,0.3-0.7,0.6-0.8,1.1l0,0.5
		c0.1,0.3,0.4,0.7,1.1,1.1c0.1-0.1,0.2-0.2,0.3-0.2c0-0.3-0.1-0.6-0.1-0.9C255.6,345,255.7,344.4,255.8,343.7L255.8,343.7z
		 M239.7,362.5c-0.6-0.1-0.2-0.9-0.3-1.3c-0.6,0.8-1.3,4.4,0,5.5c0.2-0.8,0.3-1.5,0.3-2.3l0-0.1l0.1,0
		C239.7,363.7,239.7,363.1,239.7,362.5L239.7,362.5z M239.1,367.2c0,0-0.1,0-0.1-0.1l0,0.5C239,367.5,239.1,367.4,239.1,367.2
		L239.1,367.2z M234.7,337.5c0.1-1.6,0.2-3.1,0.4-4.7l0,0C234.3,334.2,234.4,335.8,234.7,337.5L234.7,337.5z M247.5,337.4
		c0.2-1.3,0.3-2.5,0.6-3.7c-0.5-2.1-0.1-4.2-0.1-6.3C247.7,330.8,247.5,334.1,247.5,337.4L247.5,337.4z M249.3,332
		c-0.1,1.4-0.3,2.9,0,5.1c0-0.1,0.1-0.2,0.1-0.3C249.7,335,249.9,333.3,249.3,332L249.3,332z M287,395.4c1.6,0.5,0.3,1.2,1,2.4
		C286.8,396.9,287.5,396.5,287,395.4L287,395.4z M284.4,297.3c-1.5-0.3-0.1-1.4-0.6-2.5c-0.4,0.5-0.6,1.1-0.7,1.8
		c-0.1,1-0.1,2-0.2,3c0.9-0.6,0.9-1.4,1.2-1.9c0.1,0.1,0.2,0.2,0.3,0.3L284.4,297.3L284.4,297.3z M283.8,301.7
		c-0.2,0-0.5-0.1-0.8-0.1c0.1,0.6,0.2,1.2,0.1,1.7c-0.2,0.9-1,1.1-0.5,2.2c0.2,0.1,0.3,0.3,0.3,0.4l0,0
		C283.2,304.6,283.5,303.1,283.8,301.7L283.8,301.7z M299.3,379.7L299.3,379.7c0.1,0.1,0.1,0.1,0.2,0.1c0.1,0.5-0.1,1.1,0.7,1.3
		c-0.5,0.1-1,0.1-1.4,0.1c-0.3,0.3-0.6,0.3-0.6-0.1c-0.8-0.1-1.1-0.4-0.4-0.5c0.1,0.1,0.2,0.2,0.4,0.2c0-0.3,0.1-0.6,0.3-1
		c-0.3,0-0.6,0-0.8,0C297.9,378.9,298.6,380,299.3,379.7L299.3,379.7z M298.9,380.9L298.9,380.9L298.9,380.9L298.9,380.9
		L298.9,380.9z M279.5,366.4c-0.2-0.1-0.3-0.1-0.4-0.2c0,0.2,0,0.3,0,0.5C279.3,366.6,279.4,366.5,279.5,366.4L279.5,366.4z
		 M282.2,377.9c-0.9,0-1,0.4-0.7,0.7c0.1,0,0.2-0.1,0.4-0.1c-0.1,0.1-0.1,0.3,0,0.4c0.3,0.2,0.6,0.3,0.9,0.2
		C282.8,378.6,282.5,378.2,282.2,377.9L282.2,377.9z M280.6,369c0-0.2,0.1-0.2,0.3-0.2c0-0.2,0-0.4,0-0.6
		C280.3,368.5,279.6,368.6,280.6,369L280.6,369z M281.9,369.8c-0.3,0-0.6,0-0.8,0c0,0.3-0.3,0.3-0.4,0.5c0.9-0.1,0.5,0.8,1.3,0.8
		C281.7,370.2,282.7,370.3,281.9,369.8L281.9,369.8z M285.6,319.2c0.4-1.2,0.7-2.5,1-3.9c-0.1,0.1-0.2,0.1-0.3,0.2
		c0-0.1-0.3-0.3-0.5-0.5C285.6,316.3,285.6,317.7,285.6,319.2L285.6,319.2z M286.7,315.1c0.1-0.2,0.1-0.4,0.1-0.7v-0.7
		c0.1,0,0.1-0.1,0.1-0.1c0.1-0.4,0.1-0.9,0.2-1.3c-0.2-0.1-0.5-0.3-0.5-0.5c-0.4,0.8-0.7,1.7-0.8,2.6c0.2,0,0.5-0.1,0.9-0.1
		C286.4,314.7,286.6,314.9,286.7,315.1L286.7,315.1z M287.3,311.7l0.1-0.5C286.9,311.4,286.5,311.2,287.3,311.7L287.3,311.7z
		 M287.7,307.8l0-0.3C287.7,307.6,287.7,307.7,287.7,307.8L287.7,307.8z M287.7,305.4c0-0.9,0-1.9-0.1-2.8c-0.1,0-0.3-0.1-0.6-0.1
		C287,303.6,287.2,304.6,287.7,305.4L287.7,305.4z M287.7,302.1c0-0.5-0.1-0.9-0.1-1.3c0.7-0.2,0.6-0.8,1.2-1c-0.5-0.3-0.8-0.7-1-1
		c-0.1,0.1-0.2,0.2-0.3,0.3l-0.1,0.8c0.2-0.1,0.4-0.1,0.6-0.1c-1.1,0.6-0.1,2.2-0.9,2.3l0,0.3C287.4,302.2,287.5,302.2,287.7,302.1
		L287.7,302.1z M291.6,328.8l0,0.4c0.6,1.8,1.1,3.7,1.4,5.5c0-3.6,0.4-7.4,1-11.1c-0.2-0.6-0.4-1.3-0.7-1.8
		C291.8,323.5,294.1,327.2,291.6,328.8L291.6,328.8z M291.4,332c0,0.4,0,0.9,0,1.3l0,0C291.6,333.1,292.2,332.2,291.4,332L291.4,332
		z M291.4,334.1l0,0.8c0.1,0.2,0.2,0.5,0.6,0.5c-0.3-0.8,0.7-0.8-0.1-1.3H291.4L291.4,334.1z M291.4,342.4l0,0.5
		c0.2,0.4,0.8,0.7,1.3,0.6c0.1-0.6-0.1-1-0.5-1.3C291.8,342.2,291.5,342.2,291.4,342.4L291.4,342.4z M279.7,381.3c0.1,0,0.2,0,0.3,0
		c0-0.5-0.1-0.5-0.3-0.4C279.7,381,279.6,381.2,279.7,381.3L279.7,381.3z M278.9,379.6c0.4-0.3,0.9-0.6,0.9-1.2
		c-0.3,0.4-0.7,0.8-1.4,1C278.6,379.6,278.8,379.6,278.9,379.6L278.9,379.6z M295.9,368.7c0.8,1.1-0.5,1.9,1.1,2.6
		C296.5,370.5,297.6,368.7,295.9,368.7L295.9,368.7z M303.8,369.2L303.8,369.2l0.1,0C303.9,369.2,303.9,369.2,303.8,369.2
		L303.8,369.2z M301.4,299.5C301.4,299.5,301.4,299.5,301.4,299.5c0.1-1.3,0.1-2.6,0.1-4C301.4,296.8,301.4,298.1,301.4,299.5
		L301.4,299.5z M302.4,300.5c0,0.2,0,0.4,0,0.6c0.1-0.1,0.2-0.2,0.3-0.3C302.6,300.7,302.5,300.6,302.4,300.5L302.4,300.5z
		 M306.7,337.8c0,0.5-0.1,1-0.1,1.5c0.4,0,0.6-0.1,0.9-0.1c0-0.2,0-0.5-0.1-0.7C306.7,338.5,306.7,338.2,306.7,337.8L306.7,337.8z
		 M306.6,340.2l0,0.2c0,0.2,0,0.3,0,0.5c0.5-0.1,0.8,0,1,0.1c0-0.4-0.1-0.8-0.1-1.3C307.2,339.9,306.9,340,306.6,340.2L306.6,340.2z
		 M232.2,360.1C230.8,358.7,232.5,357.6,232.2,360.1L232.2,360.1L232.2,360.1z M283.5,397.7c-0.5,0.8-1.5-0.4-1.3-1
		C283.3,396.6,282.6,397.7,283.5,397.7L283.5,397.7z M284.7,392.8c0.3,0.5,0.8,2.1,0.3,3.1C284.3,395,284.4,393.7,284.7,392.8
		L284.7,392.8z M286.3,387.8c1.1,1.3,0.5,3.7,0.9,5.5C286.1,392,286.8,389.5,286.3,387.8L286.3,387.8z M286.7,387.5
		C285.3,385.9,287,384.8,286.7,387.5L286.7,387.5L286.7,387.5z M286.5,384.7c-1.4-0.2,0-1.9-0.7-3.1
		C286.6,381.1,286.2,383.8,286.5,384.7L286.5,384.7z M304.7,380C303.3,378.3,305,377.2,304.7,380L304.7,380L304.7,380z M187.7,311.4
		c-0.2,0.4,0.4,0.5,0.6,0.7C189.3,312.1,189.3,311,187.7,311.4L187.7,311.4z M191.8,319.2c1.5,0.5,0.8,1.4,1.3,1.8
		c0.5-0.3,1.5-0.5,1.7-1C192.5,320.2,194.2,318.9,191.8,319.2L191.8,319.2z M192.7,330.7c0.3,0.6,1,1.2,0.7,2
		c2.3-0.5,1.2-0.9,1.6-1.9C194,330.9,193.8,330.6,192.7,330.7L192.7,330.7z M192.8,324.8c-0.1,0.5-0.1,0.9,1.8,0.7
		C193.7,325.4,194.7,324.6,192.8,324.8L192.8,324.8z M193.1,328.7c0,0.2,0,0.5,0.1,0.7c0.4,0,0.8,0,1.2,0c0-0.2,0-0.5-0.1-0.7
		C193.9,328.7,193.5,328.7,193.1,328.7L193.1,328.7z M193.2,329.6c0,0.3,0.7,0.4,0.6,0.7C195.5,330.2,194.9,329.5,193.2,329.6
		L193.2,329.6z M200.4,385c1.9-1.4,1.2-1.7,0.9-3.5C200,382.7,200.6,383.9,200.4,385L200.4,385z M202.1,406.4
		c-0.9,0-1.1,1.2,0.7,0.9C202.9,406.9,202.6,406.6,202.1,406.4L202.1,406.4z M202.5,411.6c-1.3,0.1-0.2,0.9-0.5,1.3
		C203.3,412.7,202.2,411.9,202.5,411.6L202.5,411.6z M201.1,385.7c-1.3,0-0.2,0.7-0.5,0.9c0.5-0.1,0.9-0.2,1.7-0.2
		C202.7,385.9,201.1,386.1,201.1,385.7L201.1,385.7z M201.2,394.7c2.1-0.8,0.4-1.4,1-2C200.1,392.1,201.5,394.1,201.2,394.7
		L201.2,394.7z M201.1,371.4C198.3,373,201.1,373.4,201.1,371.4L201.1,371.4L201.1,371.4z M200.7,373.3c-1,0-1,1,0.6,0.7
		C201.5,373.6,200.9,373.5,200.7,373.3L200.7,373.3z M200.1,365.7C201.7,363.7,199.2,363.3,200.1,365.7L200.1,365.7L200.1,365.7z
		 M200.3,368.3C202,367.1,199.4,366.4,200.3,368.3L200.3,368.3L200.3,368.3z M199.8,346.5c-1.3,0.1-0.2,0.9-0.5,1.3
		C200.6,347.7,199.4,346.9,199.8,346.5L199.8,346.5z M202.9,386.8c-1.3,0.2-0.1,1.2-0.5,1.7c0.8,0,1.6,0,2.3-0.1
		C202.2,388.2,203.6,387.3,202.9,386.8L202.9,386.8z M198.2,326.3c0.7,0,1,0,1.2,0.2c0.9,0,1.2-1.4-0.7-1.1
		C199,325.9,197.7,325.8,198.2,326.3L198.2,326.3z M198.7,325.1c0.5-0.1,0.9-0.2,1.7-0.2c-0.5-0.4-1.6-1.3,1.1-1.3
		c-0.6-0.5-0.9-0.2-2.4-0.1C199.1,324,198.2,324.3,198.7,325.1L198.7,325.1z M201.7,334.2c0.9-0.2,0.8-0.6,1.1-0.9
		C200.8,333.1,202,333.8,201.7,334.2L201.7,334.2z M202,337.3c1.4-0.4,1.4-0.8,1-1.7C201.9,335.9,201.8,336.6,202,337.3L202,337.3z
		 M209.6,420.2c-1.3,0.2-0.1,1.2-0.5,1.7C210.5,421.3,209.7,421,209.6,420.2L209.6,420.2z M210.2,428.3c-1.3,0.1-0.2,0.9-0.5,1.3
		C210.5,429.2,211.2,428.5,210.2,428.3L210.2,428.3z M210.8,435.4c-1.3,0.1-0.2,0.9-0.5,1.3C211,436.4,211.7,435.7,210.8,435.4
		L210.8,435.4z M207.9,383c2.9-0.5-1.4-0.9-0.2-2C206,381.3,207.3,382.4,207.9,383L207.9,383z M210.7,426.2c0.4,0.4,0.9,0.4,1.8,0.1
		c0,0.5,0.4,1.1-1.1,1.1c-0.1,0.2,0.2,0.2,0.6,0.2c0.5,0,0.6,0.1,0.6,0.2c1.3,0,0.2-0.7,0.5-0.9c0.5,0.1,1.1,0.1,1.2,0.3
		c2.4-0.6-0.7-0.8,0.5-1.7c-1.5,0.1-1.9,0.4-1.8-0.3C211.8,425.5,211.7,426,210.7,426.2L210.7,426.2z M211.6,431c0.7,0,1,0,1.2,0.2
		c1.5-0.3-0.7-1.5,2.3-1c0.1-0.6-2.9-0.1-1.8-1.1C211,429.6,212.3,430.4,211.6,431L211.6,431z M212,390.8c-1.8-0.2,0.8-0.7-0.7-0.9
		c-1.8-0.1-1.4,1.2-1.7,0c-2.3,1.2,2.3,0.9,2.5,1.6c2.5-0.1-0.9-0.8,1.1-1.1C212.8,389.9,211.3,390.4,212,390.8L212,390.8z
		 M210.6,402.4c1.3-0.1,0.2-0.8,0.5-1.1C208.9,401.5,210.7,401.8,210.6,402.4L210.6,402.4z M210.7,397.2c1.3-0.4,0.1-1.5,0.4-2.2
		C209.6,395.7,210.4,396.4,210.7,397.2L210.7,397.2z M210.4,400.5c1,0.6,1.5-0.4,1.1-0.8C209.3,399.9,211.5,400.5,210.4,400.5
		L210.4,400.5z M210.9,384.8c0.6-0.8-0.6-2.1-0.2-2.7C209,382.6,210.1,384.1,210.9,384.8L210.9,384.8z M209.3,371.8
		C209.6,373.2,212.1,372.4,209.3,371.8L209.3,371.8L209.3,371.8z M209.5,373.6c0,0.2,0,0.5,0.1,0.7
		C211.5,374.3,211.8,373.4,209.5,373.6L209.5,373.6z M212.6,399.2c1.1-0.1,0.4-0.7,2.3-0.6c-0.3-0.5-0.8-0.6,0.5-0.9
		c-0.6-0.7-2.2,0.9-2.4-0.1C212,397.5,212.3,398.6,212.6,399.2L212.6,399.2z M213.3,400.7c1.2-0.7,2.2,0.7,0,0.5
		c-1.2,0,0.8-0.5-0.6-0.7c-1.6,0.2,0.2,1.6,0.7,1.1c0.7,0,0.5,0.3,0.6,0.5c1.7-0.2,1.8-0.9,1.6-1.7c-0.6-0.2-2.2,0-1.8-0.5
		C213.1,400,213.4,400.4,213.3,400.7L213.3,400.7z M212.2,393c1-0.2,1.2-0.6,1.1-1.1C211.1,391.7,212.5,392.6,212.2,393L212.2,393z
		 M212.2,393.4c0,0.2,0,0.4,0,0.6c1.1-0.1,2.5-0.1,2.3-0.6C213.4,393.6,213.8,393.3,212.2,393.4L212.2,393.4z M214.4,407.2
		c-1.4,0.1-0.3,0.8,0.1,0.9C216.2,408,214.1,407.6,214.4,407.2L214.4,407.2z M211,355.8C209.1,357,212.5,356.8,211,355.8L211,355.8
		L211,355.8z M214.9,390.5c-0.7-0.3,0.3-1.4-0.2-2.2C214,388.7,212.3,390.4,214.9,390.5L214.9,390.5z M214.4,392
		c-1.3,0.1-0.4,1,0.1,1.1C216.1,392.9,213.7,392.6,214.4,392L214.4,392z M214.1,380.3c-0.8,0.1-0.4,0.5-0.5,0.7c0.5-0.1,1-0.2,1.2,0
		c1.3-0.1,0.2-0.8,0.5-1.1c-0.7,0-0.5,0.3-0.5,0.6C214.2,380.5,214.1,380.4,214.1,380.3L214.1,380.3z M213.6,366.9
		C211.2,368.9,216.2,367.8,213.6,366.9L213.6,366.9L213.6,366.9z M213.8,368.6c-1.3,0.5-0.1,1.6-0.4,2.4c0.8-0.2,0.7-0.6,1.7-0.8
		c-1.8-0.6,0.1-0.5-0.1-1.5C214.3,368.8,213.9,368.7,213.8,368.6L213.8,368.6z M214,371.1c-1.3,0.1-0.2,0.9-0.5,1.3
		C214.8,372.3,213.6,371.5,214,371.1L214,371.1z M214.1,372.6c-1.3,0.3-0.1,1.3-0.4,1.8C215.2,373.8,214.3,373.2,214.1,372.6
		L214.1,372.6z M213.8,377c-0.3,0.6,0.5,0.8,0.7,1.3C215.4,378.2,215.8,376.7,213.8,377L213.8,377z M212.2,348
		c3.5,0.2,0.5-4.1,1.3-5.5C211,343.5,214.1,346.5,212.2,348L212.2,348z M212.4,350.8c0.8,0.6,0.2,0.6,0.1,1.3
		C213.9,352.1,214.5,350.6,212.4,350.8L212.4,350.8z M213.4,356.3c-1.3,0.1-0.2,0.9-0.5,1.3C214.2,357.5,213.1,356.7,213.4,356.3
		L213.4,356.3z M212.9,342.3C214.7,340.8,211.5,340.7,212.9,342.3L212.9,342.3L212.9,342.3z M224.7,440.6c-1.3,0.1-0.2,0.9-0.5,1.3
		C227,441.6,225.3,441.1,224.7,440.6L224.7,440.6z M229.1,399.6c-0.7-1.5-0.2-1.5-0.2-3.1C227.1,396.8,227,399.3,229.1,399.6
		L229.1,399.6z M227.1,374.3c-1.3,0.2-0.1,1.2-0.5,1.7C227.9,375.7,226.8,374.8,227.1,374.3L227.1,374.3z M229.9,350.6
		c-0.1,0.2,0.2,0.2,0.6,0.2c1.5,0.2-0.1,1.4,1.3,1.6c1.3-0.6,0.1-1.9-0.2-2.2C231.1,350.3,231.1,350.6,229.9,350.6L229.9,350.6z
		 M232.9,374.3c-1.4-0.6,1.4-1.1-0.1-1.6C231.7,372.8,230.6,374.4,232.9,374.3L232.9,374.3z M232.4,382.8c0.6,0.2,1,0.5,1.8,0.7
		c1.3-0.2,0.8-0.7,2.2-1.2c-2.1,0.5-0.1-0.3-1.2-0.5c0.2-0.3,0.8,0.1,1.7,0c0.3-1.2-1.9-2.6-1.2-0.5c-1.3,0-0.3-0.8-0.7-1.1
		C233,380.5,236.6,383.1,232.4,382.8L232.4,382.8z M233.3,394.1C235,392.9,232.4,392.2,233.3,394.1L233.3,394.1L233.3,394.1z
		 M233.4,394.7c0,0.5,0.1,1.1,0.1,1.6c1,0.5,0.1-1,1.7-1C234.9,395,234.9,394.6,233.4,394.7L233.4,394.7z M234.2,397.8
		C232.3,399.2,235.6,399,234.2,397.8L234.2,397.8L234.2,397.8z M232.2,364.3c1.2-1.4,0.5-2.7,0.3-4.2
		C230.5,361.1,231.6,363.4,232.2,364.3L232.2,364.3z M231.8,367.2c2,0.1,0.9-0.6,1.1-0.9C231.6,366.3,231.7,366.8,231.8,367.2
		L231.8,367.2z M234.3,391.9c-0.7,1.2,2.6,1.1,2.5,2.1c1.3-0.4,0.1-1.5,0.4-2.2C236,392.1,237.4,392.4,234.3,391.9L234.3,391.9z
		 M234,373c0.2,0.7,0.9,0.7,0.1,1.3c0.9-0.1,1,0.1,1.8,0.1c-1.2,0.7,0,0.8-0.5,1.7c2.9,0.7-1.1-2.1,2.8-1.7c-1-0.4-3-0.5-3-1.2
		c1.4,0.7,1.2-0.1,1.1-0.8C235.1,372.5,235.2,373,234,373L234,373z M234.5,378.7c0.5-0.1,1.6-0.3,1.8,0c1.3-0.3,0.1-1.3,0.4-1.8
		C235.4,377.3,235.2,378.1,234.5,378.7L234.5,378.7z M234.3,368.6c1.5-1,0-0.4,2.3-0.1c-0.8-1.3-0.6-1.8,0.3-3.1
		c-0.8,0-1.7,0.1-1.8-0.1C233.1,365.9,235,367.3,234.3,368.6L234.3,368.6z M237,396.6c0.8-0.9,0.9-1.6,0.4-2
		C237.7,394.8,235.9,395.8,237,396.6L237,396.6z M237.4,409.3c1-0.2,1.2-0.6,1.1-1.1C236.4,408,237.7,408.9,237.4,409.3L237.4,409.3
		z M237.3,384.9c-1.5-0.4,0.5-0.9-0.1-1.6C235.3,383.1,235.4,385.1,237.3,384.9L237.3,384.9z M239.4,396.4c0,0.2,0,0.5,0.1,0.7
		c0.4,0,0.8,0,1.2,0c0-0.2,0-0.5-0.1-0.7C240.1,396.4,239.7,396.4,239.4,396.4L239.4,396.4z M246.1,415.7c0.4-0.6-1-0.5-0.7-1.1
		C244.1,414.8,244.2,415.7,246.1,415.7L246.1,415.7z M249.5,436.2c-1.3,0.2-0.1,1.2-0.5,1.7C250.3,437.6,249.1,436.7,249.5,436.2
		L249.5,436.2z M248.2,412.9c1.6-1.2-0.3-2.4,0.9-3.5C246.6,410.2,248,412.1,248.2,412.9L248.2,412.9z M248.2,419.9
		c2.3-0.4,0.5-1.9,1-2.8C246.5,417.5,249.2,419.3,248.2,419.9L248.2,419.9z M248.6,424.4c1.8-0.5-0.1-1.3,0.4-2.4
		C247.7,421.8,248.8,423.8,248.6,424.4L248.6,424.4z M253.8,386.2c0,0.8,0.2,1.4,2.5,1.4C256.1,386.9,256.8,385.9,253.8,386.2
		L253.8,386.2z M257.7,413.9c0.9-0.2,0.6-0.8,1.1-1.1C256.6,412.7,258,413.6,257.7,413.9L257.7,413.9z M257.6,397.3
		c-1.3,0.1-0.2,0.9-0.5,1.3C258.4,398.4,257.2,397.6,257.6,397.3L257.6,397.3z M260.8,408.7c0.8-0.1,0.3,0.9-1.1,0.8
		c1.5,1-0.6,1,1.9,2.3c0.6,0,0.4-0.2,0.6-0.4c1.5,0.4,0.9,0.8,0.7,1.5c2.5-0.1,0.4-1.5,1-2.2c-2.8,1.3-2.9-2.4-0.2-2
		c-0.9-0.2-1.7-0.4-2.4-0.7c2.5-0.4-1.4-0.4,1.1-0.6c-0.9-0.3-0.4-1.1-3-0.8c0,0.2,0.7,0.1,1.2,0.2c-0.4,0.5,1.3,1.6-1.1,1.5
		c0,0.3,0.1,0.6,0.1,0.9C260.2,409,260.7,408.9,260.8,408.7L260.8,408.7z M262.8,412.4c-2-1-1.9,1-1.6,1.7
		C263.6,414,261.2,412.6,262.8,412.4L262.8,412.4z M261.8,414.6c-1.5,0.6-0.1,1.8,0.8,2.2C264,416.2,262.3,415.1,261.8,414.6
		L261.8,414.6z M264.1,414.2c-1.3,0.1-0.2,0.9-0.5,1.3C265,415.3,263.8,414.6,264.1,414.2L264.1,414.2z M273,429.6
		c1.1,0.3,0.5-1.9-0.2-2.2C271.1,428.3,272.7,428.6,273,429.6L273,429.6z M272.6,433c1.3-0.1,0.2-0.9,0.5-1.3
		C271.1,431.9,272.3,432.7,272.6,433L272.6,433z M275.3,422c0.2,0.4,2.6,0,2.4,0.5c0.8-0.1,0.4-0.5,0.5-0.7
		C276.8,421.7,276,421.8,275.3,422L275.3,422z M299.2,413.9c0.9,0.1,1.2-1.4,1-2.2C297.6,412.2,299.5,412.9,299.2,413.9L299.2,413.9
		z M298.5,404.2c1.3-0.1,1.2-0.5,1.1-0.9C298.3,403.3,298.3,403.7,298.5,404.2L298.5,404.2z M299.4,416.5c0,0.5,0,0.9,0.7,1.1
		C301,417.5,301.3,416.2,299.4,416.5L299.4,416.5z M298.6,391.4c1.3,0,0.2-0.7,0.5-0.9c0.7,0,0.5,0.3,0.6,0.5c3.1-3-1-6.3,1.1-8.8
		c-2.7,0.1-4.1,3-2,4.1C297.1,387.4,297.9,390.2,298.6,391.4L298.6,391.4z M299.9,407.1c2.1,0.1,0.8-0.7,1.1-1.1
		C300.1,406.2,299.9,406.6,299.9,407.1L299.9,407.1z M308.4,427.1c-1.6,0.2,0.2,0.8,0.1,1.1C309.6,427.8,308.6,427.4,308.4,427.1
		L308.4,427.1z M308.2,431.3c1-0.1,1.3-0.3,1.1-0.8C307.5,430.4,308.3,431,308.2,431.3L308.2,431.3z M306.4,393.2
		c1.5-1.3,0.6-3,0.3-4.2C305.2,390.1,306,391.8,306.4,393.2L306.4,393.2z M306.4,393.4c-0.4,0.7-0.5,1.9,0.2,2.4
		C307.7,395.3,307.2,393.8,306.4,393.4L306.4,393.4z M306.9,407.7c1.3-0.1,1.2-0.5,1.1-0.9C306.1,406.6,307.2,407.3,306.9,407.7
		L306.9,407.7z M308.6,422.1c-1.3,0.3-0.1,1.3-0.4,1.8C309.5,423.7,308.3,422.7,308.6,422.1L308.6,422.1z M310.3,413.3
		c1.4,0.6,1.7-1.1,1.1-1.1C309.7,412.2,312,413.3,310.3,413.3L310.3,413.3z M310.8,419.3c1.9-0.1,0.8-1.1,1-1.7
		C309.7,418.1,312,418.7,310.8,419.3L310.8,419.3z M311.7,423.9C313.6,423,309.7,422.7,311.7,423.9L311.7,423.9L311.7,423.9z
		 M308.9,388c2.4-0.3,2.5-1.3,2.1-2.4C308.4,385.8,308.7,386.9,308.9,388L308.9,388z M309.3,392.9c0.8,0,1.1-1,1.7-0.4
		c1-0.5-0.7-1.1,0.4-1.8c-2.5,0.4-1.5-1.1-0.1-1.5c-0.7,0-1,0-1.2-0.2C308.5,390.2,309.8,391.3,309.3,392.9L309.3,392.9z M310,401.7
		c0.5-0.5,1.7-0.1,2.3-1c-0.5,0-0.5,0.1-0.6,0.2c-0.8,0-0.5-0.4-0.6-0.7C309.2,400.3,310.1,401.2,310,401.7L310,401.7z M308.9,380.7
		c0.6,0.5,1.5-0.2,2.3-0.2c0.7-0.6-1.4-1.2-0.1-1.5C308.6,378.6,311.8,380.4,308.9,380.7L308.9,380.7z M309,352c1-1.3,0.8-2.7,0.3-4
		C308.5,348.7,306.9,350.9,309,352L309,352z M307.7,344c-1.2,0.2-0.1,0.3,0.6,0.4c-0.3,0.9-0.1,1.2,0.1,1.2c0,0.3,0.3,0.7,0.2,0.9
		c1.3-0.1,0.2-0.9,0.5-1.3c-0.1,0-0.2,0-0.2,0c0.1-0.1,0.2-0.3,0.3-0.5c0.5-0.1,0.4-0.2,0.1-0.4c0-0.1,0.1-0.3,0.1-0.4
		C308.6,344.3,307.9,343.2,307.7,344L307.7,344L307.7,344z M308.4,344.1c-0.2-0.1-0.4-0.1-0.5-0.1h0.6L308.4,344.1L308.4,344.1z
		 M187.8,335.8c2-0.9,0-1.9,0.9-2.8C186.7,333.6,188.3,334.5,187.8,335.8L187.8,335.8z M193.1,335.6c1.8,0.2,1.7-1.2-0.1-0.9
		C192.7,334.8,191.7,335.6,193.1,335.6L193.1,335.6z M200,326.7c-0.5,0.1-2.1,0.5-1.8-0.1c-0.9,1-0.8,2.2,1.4,3.3
		c1.6-0.3-0.8-1.7,1.6-1.7C199.9,328.3,199.9,327.5,200,326.7L200,326.7z M211.3,403.8c-2.4,1.9-0.6,3.8-0.1,6.1
		C212.9,407.9,209.8,406.1,211.3,403.8L211.3,403.8z M214.3,420.3c-0.6,0-0.4,0.2-0.6,0.4c-1.9,0.3-0.5-0.6-2.4-0.3
		c0,0.4,1,0.5,0.7,1.1c2.2-1.1,1.7,0.9,2.5,1.4C215.5,422.1,214.1,421.5,214.3,420.3L214.3,420.3z M210.9,391.4
		c0.1,0.5-1.8,1.5-0.4,2.4C211,393.1,211.9,391.9,210.9,391.4L210.9,391.4z M210,388.1c1.4-1.2,2.8-1.8,2.2-2.3
		c-0.1-0.3,0.4-0.5,1.1-0.6c1.3,1.1-0.6,1.5,0.8,2.2c1.9,1-0.3-1.6,0.4-2.8c1.7,0,0.7-1-0.1-1.8c-1.8,0.4,0.4,0.7-0.4,1.8
		c-1.2,0.4-1.5,0.9-3.5,0.6C209.5,386.7,210.9,387.1,210,388.1L210,388.1z M211.6,378.9c0.5,0.1,0.7,0.4,0.6,0.7
		c0.5,0.6,0.7-0.3,0.5-0.6c2.2-0.3,0.2,0.8,2.4,0.5c0.8-0.4-1.6-0.7-0.1-0.7C214.3,378.5,213.8,378.8,211.6,378.9L211.6,378.9z
		 M233.6,405.2c0.7,0.7-0.1,0.9,0.1,1.8c1.5,0.6-0.8-1.3,1.7-1C233.5,405.8,235.9,405.2,233.6,405.2L233.6,405.2z M237.7,390.4
		c-1.7-0.8,0-2.7-0.8-3.3c-0.7,0.2-1,0.5-2.9,0.4c0.1,0.7,0.2,1.5-0.4,2c3.3-0.3,1.7-0.9,2.2-1.9c0.7,0.2,1.7,2-0.4,2
		c1.4,0.6,0.8,0.8,1.3,1.6c1.3-0.1-0.2-1,1.7-1c1.8,0-2.6,0.8,0.6,0.7c-1.2-0.3,0.2-0.4,1.1-0.6c-0.8-0.2-0.4-0.9-1.3-1.1
		C237.6,389.5,238.7,390.2,237.7,390.4L237.7,390.4z M265,395.8c0,0.6-1.9-0.4,0.1,0.7C265.7,396.9,265.1,394.2,265,395.8L265,395.8
		z M278.2,414.2c-2.5,0-0.5,0.8-0.5,1.1C278.9,415,277.1,414.7,278.2,414.2L278.2,414.2z M303.4,385.4c-0.1-0.2,0.2-0.2,0.6-0.2
		c0.1-0.2-0.2-0.2-0.6-0.2c-0.4,0-0.8,0-1.2,0c0.9,0.2,1.1,0.9,2.4,0.5C304.6,385.3,303.9,385.4,303.4,385.4L303.4,385.4z
		 M298.8,393.4c1.5-0.4,2.3-1.2,1-1.9c-0.5,0.1-0.8,0.5-1.2,0.2c-1.2,0.1-0.6,1.4,0.6,0.7c-1,0.4-1.4,1-1,1.9
		c0.9-0.1,0.5-0.6,2.3-0.4c-0.8-0.2-1.8-0.3,0-0.6C300.3,393.1,299.8,393.4,298.8,393.4L298.8,393.4z M302.5,388.9
		c0.9,1.8-1.3,4.7,2.2,5.6c-0.9-2.3-1.3-3.3,0.1-6.1C304.1,387.9,304.4,389.1,302.5,388.9L302.5,388.9z M312.2,407.5
		c-0.8,0.1-0.4,0.5-0.5,0.7c-1.5-3.8-1.9,1.4-1,2.4C311,409.9,311.7,408.6,312.2,407.5L312.2,407.5z M310,394.6
		c-1.3,0.2-0.1,1-0.5,1.5c0.8,0,0.8-1.2,1.7-0.6C312.5,395.3,309.9,394.9,310,394.6L310,394.6z M308.4,358.5
		c2.5-0.3,0.5-1.3,1.6-1.7C308,356.6,308.6,357.9,308.4,358.5L308.4,358.5z M308.7,354.8c-0.1,0.6,1.1,0.7,0.7,1.4
		C309,356.8,311.2,354.6,308.7,354.8L308.7,354.8z M191.9,312.7c1.4,0.5-1.4,1.7,1.3,2c3,0,1.2-1.3,1.6-2.1
		C193.7,313,193.3,312.7,191.9,312.7L191.9,312.7z M307.7,341.6c0,0.3,0.1,0.5,0.2,0.7c-0.3-0.1-0.6-0.1-0.8-0.2
		C307.1,341.9,307.4,341.8,307.7,341.6L307.7,341.6z M198.1,340.5c1.9,0,0.1-0.9,2.3-0.8c-2.1-0.5-1-2-1.4-3.1
		c5-1.9-1.7-3.1,0.2-5.1C195.8,334.5,199.6,337.5,198.1,340.5L198.1,340.5z M206.8,384.3c1.7,0.7-1.3,1.9,1.9,2.2
		c-2,0.6-1.9,2.1-0.4,2.6c1.2-1.1,1.2-3.4,0.8-4.4C207.4,385.8,209.2,384.3,206.8,384.3L206.8,384.3z M214.4,413.8
		c1.5,0.1,0.4-0.7,1.1-0.4c2-0.4-1.4-0.5-1.8-0.1c-0.5-0.5,0.8-0.5,0.5-0.9c0.5,0.1,1,0.2,1.8,0.1c-2.9-0.6,1.2-1.7-0.8-2.6
		c-0.8,0.1-0.2,0.6-1.1,0.6c-0.7-0.6-0.1-1.2-0.7-2c-1.3,0.4-0.1,1.5-0.4,2.2c0.6,0,1.2,0,1.7,0c-0.1,0.8-1.9,0.6-1.6,2.1
		c-2.2,0.2-0.8-0.8-1.3-1.3c-1.5,0.9-0.8,1.6-1.5,3c0.7,0.1,1.2,0.2,1.2,0.5c1.5-0.1,1.9-0.4,1.8,0.3c1.3,0.1,1.1-0.3,1.1-0.6
		C215.3,417.4,217.3,414.7,214.4,413.8L214.4,413.8z M208.9,381.3c-0.1,0.4,2.1,0,2.9,0.1c0.1-0.5,0-1-1.8-0.9
		C210.2,381,209.9,381.3,208.9,381.3L208.9,381.3z M297.9,396.3c0.6,1.6,0.9,2.4,2.7,4c0.1-1.5,0.8-3.8-0.5-5.9
		c-3.8,0.3,0.7,0.8-0.4,1.8C298.8,396.1,298.7,396.2,297.9,396.3L297.9,396.3z M292.8,320.5c0.1,0.4-0.1,1,0.5,1
		c0.1-0.3,0.4-0.2,0.8,0c0-0.3-0.1-0.7-0.1-1C293.6,320.5,293.2,320.5,292.8,320.5L292.8,320.5z M309.8,335.4
		c0.3,0.6-0.4,1.9,0.6,2.1C310.4,336.6,311.2,335.8,309.8,335.4L309.8,335.4z M275.2,398.9c-0.6,0-0.8-0.3,0-0.4
		c0.3,0.2,0.8,0.4,1.8,0.3c0.6,0.7-2.8,0.8-2.9,0.3C274.5,399,275.2,399,275.2,398.9L275.2,398.9z M275.4,401.1
		c-0.8,0-1.6,0-2.3,0.1c0.3-0.3-0.8-0.9,0.5-0.9C273.7,400.7,276.1,400.3,275.4,401.1L275.4,401.1z M272.6,425.2
		c0.1,0.5,0.2,0.9-1.1,0.9c-0.1-0.1,0-0.4-0.6-0.4c0,0.1-0.1,0.2-0.6,0.2C270,425.4,271.8,425.4,272.6,425.2L272.6,425.2z
		 M269.6,409.1c2.8,0.2,0.9,2,0.2,2.6C268.7,410.3,271,410.1,269.6,409.1L269.6,409.1z M266.2,388.1c-2.5,0-0.7-1.4-1.3-2
		C267.3,386,265.6,387.5,266.2,388.1L266.2,388.1z M265.3,384.2C263.9,383.3,267.3,382.9,265.3,384.2L265.3,384.2L265.3,384.2z
		 M263.7,393.4c0.5-0.6,1,0.4,1.8,0.3c0.5-0.9-1.4-2.5,0.9-3c-1.3,1.5,1.8,3.2-2.7,3.5C264.1,393.8,262.6,393.8,263.7,393.4
		L263.7,393.4z M264.6,389.6c-0.4,0.8,1.2,2.1-1,2.4C262.7,391.5,262.8,389.9,264.6,389.6L264.6,389.6z M226.4,365.3
		c-1.3,0.2-0.1,1.2-0.5,1.7C223.3,367.1,225.2,364.7,226.4,365.3L226.4,365.3z"/>
	
		<linearGradient id="SVGID_7_" gradientUnits="userSpaceOnUse" x1="-3888.4932" y1="-2589.1213" x2="-3888.4932" y2="-2469.7949" gradientTransform="matrix(-0.1803 0 0 -0.2419 -446.7319 -432.7316)">
		<stop  offset="0" style="stop-color:#E60000"/>
		<stop  offset="0.23" style="stop-color:#FF7A7A"/>
		<stop  offset="1" style="stop-color:#E60000"/>
	</linearGradient>
	<path class="st10" d="M322.3,193.6c-45.3,0-90.6,0-135.9,0c-0.4,0-0.7-0.2-0.7-0.5c-0.9-9.4-1-18.7,0-27.8c0-0.3,0.3-0.5,0.7-0.5
		c45.3,0,90.6,0,135.9,0c0.4,0,0.7,0.2,0.7,0.5c1,9.1,0.9,18.4,0,27.8C323,193.3,322.7,193.6,322.3,193.6L322.3,193.6z"/>
</g>
</svg>
