<?xml version="1.0" encoding="utf-8"?>
<!-- Generator: Adobe Illustrator 24.0.1, SVG Export Plug-In . SVG Version: 6.00 Build 0)  -->
<svg version="1.1" id="Layer_1" xmlns="http://www.w3.org/2000/svg" xmlns:xlink="http://www.w3.org/1999/xlink" x="0px" y="0px"
	 viewBox="0 0 500 500" style="enable-background:new 0 0 500 500;" xml:space="preserve">
<style type="text/css">
	.st0{fill-rule:evenodd;clip-rule:evenodd;fill:#203C80;}
</style>
<path class="st0" d="M309.8,271.8l-142.1-4.2l73-68c-15.4-11.1-40.7-20.4-59.5-20.4c-21.5,0-46.5,13.1-46.5,36.5
	c0,15.4,8.8,33.4,18.8,48l-44.6-31.9l-36.1-1.2v8.8l35.3,0.8l50.7,35.3l15.8,51.1h5.4l40.7,25.4l-15.4,8.5c-4.6-5.8-11.9-9.2-20-9.2
	c-13.8,0-25.4,11.1-25.4,25c0,13.8,11.5,25,25.4,25s25.7-11.1,25.7-25c0-3.5-0.8-6.9-1.9-10l18.4-10.8l20,11.9
	c-1.5,3.1-2.3,6.5-2.3,10.4c0,13.8,11.9,25,25.7,25c13.8,0,25.4-11.1,25.4-25c0-13.8-11.5-25-25.4-25c-7.7,0-15.4,3.1-20,8.8
	l-16.5-9.6l47.6-24.6L309.8,271.8L309.8,271.8z M223.7,200.4l-61.1,58.4c-6.1-11.5-13.4-26.1-13.4-41.5c0-17.3,13.4-27.3,31.1-27.3
	C194.9,190,211.4,194.6,223.7,200.4L223.7,200.4z M297.5,281.5l-18.8,36.5l-96.4-1.9l-9.2-38.4L297.5,281.5L297.5,281.5z
	 M267.5,326.8l-40,21.5l-34.2-21.5H267.5L267.5,326.8z M284.8,378.3c0,7.7-6.5,14.2-14.2,14.2c-7.7,0-14.2-6.5-14.2-14.2
	c0-1.5,0-3.5,0.8-5l14.2,8.5l3.8-5.4l-14.2-8.4c2.7-2.3,6.1-3.8,9.6-3.8C278.3,364,284.8,370.6,284.8,378.3L284.8,378.3z
	 M199.5,376.7c0,7.7-6.5,14.2-14.2,14.2c-7.7,0-14.2-6.5-14.2-14.2c0-7.7,6.5-14.2,14.2-14.2c3.8,0,6.9,1.5,9.6,4.2l-12.7,7.3
	l4.2,5.8l12.3-7.3C199.2,373.7,199.5,375.2,199.5,376.7z"/>
<path class="st0" d="M427.3,307.2l-25.7-66.8c12.3-1.2,18.4-6.1,18.4-12.3c0-3.8-1.5-8.5-4.2-13.4c6.9-6.1,10.8-12.7,10.8-22.7
	c0-4.2-4.6-13.4-13.4-21.9c-11.9-11.5-29.6-20-45.7-20c-11.9,0-19.6,2.7-24.6,5.4c-4.6-1.5-9.2-2.3-13.4-2.3
	c-23.8,0-30.3,18.8-30.3,38.4c0,9.2,3.1,16.9,8.1,22.7c-0.8,3.5-1.9,8.5-1.9,12.7c0,8.5,2.7,13.8,7.7,13.8c5.4,0,13.8-4.2,23-10.4
	c2.7,0.8,5.4,1.5,8.1,2.3c-7.7,23.8-19.6,54.2-30,75.3l22.3,0.8l4.6,89.9H357c1.5-24.2,5-64.5,7.7-80.3c1.2-6.5,2.7-10.4,5.4-10.4
	c2.7,0,4.2,3.5,5.8,11.1c3.1,15.7,5.8,53.8,7.3,79.5h16.1l3.8-89.9L427.3,307.2L427.3,307.2z M398.2,204.2
	c-4.6,5.8-15.7,12.3-25.4,17.3l8.5,11.5c-5-0.4-10-0.8-12.3-1.5c-4.2-12.7-13.1-33.4-13.1-46.9c0-5.8,0.8-11.1,1.5-15.4
	C370.5,177.7,387,191.2,398.2,204.2L398.2,204.2z M410.4,226.9c0,4.6-6.1,6.5-15.7,6.5c-3.1,0-6.5,0-10.4-0.4
	c9.6-4.6,17.7-8.5,24.6-13.1C410.1,222.7,410.4,224.6,410.4,226.9L410.4,226.9z M351.3,167c-0.4,2.3-1.2,4.6-1.5,6.9
	c-2.7-3.8-7.3-6.5-12.3-6.5c-8.1,0-15,6.9-15,15c0,5.8,3.5,10.8,8.1,13.4c-6.1,3.5-11.9,8.8-16.9,15c-5.8-5.8-8.1-10.4-8.1-19.2
	c0-18.1,5.8-31.9,23.8-31.9C337.1,159.7,343.6,163.1,351.3,167L351.3,167z M361.3,230.7c-5.8-1.5-12.3-3.1-18.4-5.4
	c1.5-1.2,3.5-2.7,5-3.8l-8.8-13.4l-13.4,10c-1.9-1.2-4.2-2.3-5.8-3.5c8.8-11.5,16.9-16.1,31.1-17.7
	C353.6,206.9,359,224.2,361.3,230.7z"/>
<path class="st0" d="M392,118.9c0-13.4-11.1-24.6-24.6-24.6c-13.4,0-24.6,11.1-24.6,24.6c0,13.4,11.1,24.6,24.6,24.6
	C380.9,143.5,392,132.4,392,118.9z"/>
</svg>
