<?xml version="1.0" encoding="utf-8"?>
<!-- Generator: Adobe Illustrator 24.0.1, SVG Export Plug-In . SVG Version: 6.00 Build 0)  -->
<svg version="1.1" id="Layer_1" xmlns="http://www.w3.org/2000/svg" xmlns:xlink="http://www.w3.org/1999/xlink" x="0px" y="0px"
	 viewBox="0 0 500 500" style="enable-background:new 0 0 500 500;" xml:space="preserve">
<style type="text/css">
	.st0{fill-rule:evenodd;clip-rule:evenodd;fill:url(#SVGID_1_);}
</style>
<radialGradient id="SVGID_1_" cx="249.7863" cy="249.023" r="166.3115" gradientUnits="userSpaceOnUse">
	<stop  offset="0" style="stop-color:#7D3825"/>
	<stop  offset="0.5393" style="stop-color:#4F0000"/>
	<stop  offset="1" style="stop-color:#2D0000"/>
</radialGradient>
<path class="st0" d="M198.9,347.7c-7.6,7-14,8.1-20.8,4.3c-21.9-11.9-16-33.8-12.9-54.8c1.8-12-1.7-25.2-7.5-35.4
	c1.7,9.4-0.2,17-3.1,24.5c-6,15.3-11.1,35.7-8,51.9c3.3,17.3,12.8,29.7,21,36.6c9,7.5,20.1,12.2,23.7,29.3c3.5-9.8-0.1-22,1-32.7
	c0.8-7.8,5.3-14.9,10.3-19.3c-2.5,11.3-3.1,20.6-0.1,30.9c4.8,16.7,17.4,18.2,26.7,38.1c2.3-3.5,10.8-16.8-0.5-31.6
	c2.2,0.7-3.2,17.4-11.5,6.2c-3.9-5.2-3.5-12.3,0.4-15.2c5.5-4.1,10.9-1.2,15.4,3.7c4.3,4.7,7.6,11.2,9,14.9
	c4.3,11.3,6.7,14.6,7.5,23.1h0.4c0.8-8.5,3.3-11.9,7.5-23.1c1.4-3.7,4.7-10.2,9-14.9c4.4-4.8,9.9-7.7,15.4-3.7
	c3.9,2.9,4.3,9.9,0.4,15.2c-8.3,11.2-13.7-5.5-11.5-6.2c-11.2,14.8-2.8,28.1-0.5,31.6c9.3-19.9,21.8-21.4,26.7-38.1
	c3-10.3,2.4-19.6-0.1-30.9c5,4.3,9.6,11.5,10.3,19.3c1.1,10.7-2.5,22.9,1,32.7c3.6-17.1,14.7-21.8,23.7-29.3
	c8.2-6.9,17.7-19.3,21-36.6c3.1-16.2-2-36.7-8-51.9c-2.9-7.4-4.8-15.1-3.1-24.5c-5.8,10.3-9.3,23.5-7.5,35.4
	c3.1,21,9,42.8-12.9,54.8c-6.9,3.8-13.2,2.7-20.8-4.3c-3.7-3.4-4.4-12.7-0.8-17.1c1.7-2,4.2-3,7.8-2c3.1,0.9,5.7,4.4,4.8,9.7
	c17.9-14.3,14.4-52,3.4-73.7c4.4-7.2,10.1-14.4,16.8-17c11.9-4.7,23.5,5.2,28.7,15.7c6.3,12.7,4.9,27.7,3.7,37.1
	c-2.8,21.2-5.3,39.3,3.8,59.7c2.7-26.7,8.4-30.7,16.9-52.6c8.9-23.1,10.4-66.4-17.8-93.3c10.7,33.4-15.3,32.6-21.6,14
	c-9.3-22.8-0.8-34.8,9.2-33.6c14.2,0,26.2,8.6,31.4,22.2c5.9,15.4,2.3,28.5,22,44.8c-11.7-20.7,0-42.7-1.5-62
	c-1-12.5-2.9-22.4-6.8-31.8c-4.5-10.6-20-22.1-21.4-43.2c-7.7,20.2,8.7,33.1,7.8,45.5c-0.4,4.7-2.2,9.5-5.9,12.3
	c-9.1,6.8-23.4-1.1-27.3-10.3c-3.6-8.4-0.6-24.1,11.7-19.8c3.3,1.1,7.2,3.3,11.9,4.8c-4.9-5.8-6-15.4-5.4-23.9
	c0.3-4,1.3-7.7,1.9-11.5c1.4-9-1.1-15.8-5.8-21.1c-6.2-6.9-16.3-11-26.3-13.3c-21.6-5-37.4-1.2-59.1-1c-13.7,0.1-28.8-4.4-32.7-10.4
	c-0.1,0.1,0.1,0.2,0,0.3h-0.4c-0.1-0.1,0.1-0.2,0-0.3c-3.9,6.1-19,10.5-32.7,10.4c-21.8-0.1-37.5-4-59.1,1
	c-9.9,2.3-20,6.4-26.3,13.3c-4.7,5.2-7.2,12.1-5.8,21.1c0.6,3.8,1.6,7.5,1.9,11.5c0.6,8.5-0.4,18.1-5.4,23.9
	c4.7-1.5,8.6-3.7,11.9-4.8c12.3-4.2,15.2,11.4,11.7,19.8c-4,9.3-18.2,17.2-27.3,10.3c-3.7-2.8-5.5-7.6-5.9-12.3
	c-0.9-12.4,15.4-25.3,7.8-45.5c-1.4,21-16.9,32.5-21.4,43.2c-4,9.4-5.8,19.4-6.8,31.8c-1.5,19.3,10.1,41.3-1.5,62
	c19.6-16.3,16.1-29.4,22-44.8c5.2-13.6,17.2-22.1,31.4-22.2c10.1-1.2,18.5,10.8,9.2,33.6c-6.4,18.6-32.4,19.3-21.6-14
	c-28.2,27-26.7,70.2-17.8,93.3c8.4,21.9,14.1,25.9,16.9,52.6c9.1-20.4,6.6-38.6,3.8-59.7c-1.2-9.3-2.6-24.3,3.7-37.1
	c5.2-10.5,16.8-20.4,28.7-15.7c6.7,2.6,12.5,9.8,16.8,17c-11,21.6-14.5,59.4,3.4,73.7c-0.9-5.3,1.7-8.8,4.8-9.7c3.6-1,6.1,0,7.8,2
	C203.4,335,202.6,344.3,198.9,347.7L198.9,347.7z M277.3,106.5c17.5-12,33.4-14.5,54.5-12.8c16.5,1.4,33.8,7.6,33.6,25.5
	c-0.7-1.1-13.3-20.4-52.6-14.2c41.9,0.5,43.9,24.5,41.7,26.5c-19.4-8.1-39.2,20.1-59,10.4c6.3,9.8,18.8,13.3,27,18.5
	c15.5,12.5,8.4,28-10.4,26.3c-10.4-1.1-18.6-0.5-26.1,4c-6.9,4.5-8.9,15.4-9.2,23.8c-0.3,12,2.6,21,6.6,28.9
	c2.8,5.5,10.9,13.3,18,22.4c10.5,13.7,11.5,32.4,5.4,46.4c-4,9.2-10.4,15.7-18.2,18c-9.2,2.8-30.1-1.8-34-11.1
	c-10.1-23.9,9.9-27.7,20.8-31.3c6.9-2.3,13.4-6.7,15.3-17.7c-18.7,5.7-29.7,8.5-40.9,8.4c-11.1,0-22.2-2.8-40.9-8.4
	c1.9,11.1,8.4,15.4,15.3,17.7c10.9,3.6,30.8,7.4,20.8,31.3c-3.9,9.3-24.9,13.8-34,11.1c-7.8-2.3-14.2-8.8-18.2-18
	c-6.1-14-5.1-32.7,5.4-46.4c7-9.1,15.2-16.9,18-22.4c4-7.9,6.9-16.9,6.6-28.9c-0.2-8.4-2.2-19.3-9.2-23.8c-7.5-4.5-15.7-5.1-26.1-4
	c-18.8,1.7-25.9-13.9-10.4-26.3c8.2-5.2,20.6-8.7,27-18.5c-19.7,9.7-35.6-12.1-59-10.4c-2.2-2-0.2-26,41.7-26.5
	c-39.4-6.2-51.9,13.1-52.6,14.2c-0.3-17.9,17-24.2,33.6-25.5c21.2-1.7,37,0.7,54.5,12.8c16.2,12,26,42.6,27.5,49.2
	C250.6,149,250.8,124.7,277.3,106.5L277.3,106.5z M249.8,368.5c-0.1,0-0.1,0-0.2,0l0,0c-0.1,0,0.1,0,0,0c-0.1,0,0.1,0,0,0l0,0
	c-9.3,0.1-19.3-0.4-26.1-1.6c-8.9-0.9-21.5-11.6-14.1-20c11.3-9,25.2-17.9,40.2-18c0.1,0,0.1,0,0.2,0s0.1,0,0.2,0
	c14.9,0.2,28.8,9,40.2,18c7.4,8.5-5.2,19.1-14.1,20c-6.8,1.3-16.8,1.7-26.1,1.6l0,0c-0.1,0,0.1,0,0,0c-0.1,0,0.1,0,0,0l0,0
	C249.9,368.5,249.8,368.5,249.8,368.5L249.8,368.5z M301.5,195.1c-1.3-1.2-4.7-1.5-6-1.3c0,0.1,0,0.1,0,0.2c0,0.9-0.7,1.6-1.6,1.6
	c-0.9,0-1.6-0.7-1.6-1.6c0-0.1,0-0.1,0-0.2c-2.5,0.3-4.9,1.9-5.4,2.6C289.7,203.2,299.6,201.9,301.5,195.1L301.5,195.1z
	 M301.6,256.5c-16.6-6.8-21.7-36.2-15-48.8c6.8,1.2,15.4-4.5,19.8-10.8c0.5-0.2,1-0.5,1.5-0.7C342.3,202.2,314.8,245,301.6,256.5
	L301.6,256.5z M198,195.1c1.3-1.2,4.7-1.5,6-1.3c0,0.1,0,0.1,0,0.2c0,0.9,0.7,1.6,1.6,1.6c0.9,0,1.6-0.7,1.6-1.6c0-0.1,0-0.1,0-0.2
	c2.5,0.3,4.9,1.9,5.4,2.6C209.9,203.2,199.9,201.9,198,195.1L198,195.1z M197.9,256.5c16.6-6.8,21.7-36.2,15-48.8
	c-6.8,1.2-15.4-4.5-19.8-10.8c-0.5-0.2-1-0.5-1.5-0.7C157.3,202.2,184.8,245,197.9,256.5L197.9,256.5z"/>
</svg>
