<?xml version="1.0" encoding="utf-8"?>
<!-- Generator: Adobe Illustrator 24.0.1, SVG Export Plug-In . SVG Version: 6.00 Build 0)  -->
<svg version="1.1" id="Layer_1" xmlns="http://www.w3.org/2000/svg" xmlns:xlink="http://www.w3.org/1999/xlink" x="0px" y="0px"
	 viewBox="0 0 500 500" style="enable-background:new 0 0 500 500;" xml:space="preserve">
<style type="text/css">
	.st0{fill:url(#SVGID_1_);}
	.st1{fill-rule:evenodd;clip-rule:evenodd;fill:url(#SVGID_2_);}
	.st2{fill:#666666;}
	
		.st3{fill-rule:evenodd;clip-rule:evenodd;fill:#999999;stroke:#999999;stroke-width:1.4173;stroke-linecap:round;stroke-linejoin:round;stroke-miterlimit:2.4142;}
	.st4{fill-rule:evenodd;clip-rule:evenodd;fill:#FFFFFF;}
	.st5{fill-rule:evenodd;clip-rule:evenodd;fill:#333333;}
	.st6{fill-rule:evenodd;clip-rule:evenodd;fill:url(#SVGID_3_);}
	.st7{fill-rule:evenodd;clip-rule:evenodd;fill:url(#SVGID_4_);}
	.st8{fill-rule:evenodd;clip-rule:evenodd;fill:url(#SVGID_5_);}
	.st9{fill-rule:evenodd;clip-rule:evenodd;fill:url(#SVGID_6_);}
	.st10{fill-rule:evenodd;clip-rule:evenodd;fill:url(#SVGID_7_);}
	.st11{fill-rule:evenodd;clip-rule:evenodd;fill:url(#SVGID_8_);}
</style>
<g>
	
		<linearGradient id="SVGID_1_" gradientUnits="userSpaceOnUse" x1="577.7526" y1="-170.7854" x2="577.7526" y2="489.8844" gradientTransform="matrix(0.3127 0.104 -0.104 0.3127 160.4195 242.1211)">
		<stop  offset="0" style="stop-color:#BFBFBF"/>
		<stop  offset="0.7255" style="stop-color:#FFFFFF"/>
		<stop  offset="1" style="stop-color:#FFFFFF"/>
	</linearGradient>
	<path class="st0" d="M422.2,283.4l-3.3,20.4c-0.4,2.3-1.2,2.9-3,3.9c-0.3,0.2-0.6,0.4-0.9,0.5l-77.7,43.4l-3.4,21.2
		c1.5,3.7,2.5,10.1,3,17.4l0,0.1c0.3,4.4,0.4,9,0.5,13.7v0.2l0,1l0,0.3l0,1v0.2l0,1v0.1l0,1.1l0,1.2v0.1l0,1.1l0,0.1l0,0.5l0,0.8
		l0,0.6l0,0.5l0,0.7l0,0.6l0,0.6l0,0.1l0,1l0,0.1l0,1.1l0,0.1l0,0.3l0,0.8l0,0.5l0,0.7l0,0.4l0,0.7l0,0.5l-0.1,0.9v0l-0.1,1.1v0
		l-0.1,1l0,0.1l0,0.2l-0.1,0.8l0,0.2l-0.1,0.8l0,0.3l-0.1,0.8l0,0.1l-0.1,0.9v0c0,0.3-0.1,0.6-0.1,0.9l0,0v0c0,0.3-0.1,0.6-0.1,0.9
		l0,0c0,0.3-0.1,0.5-0.1,0.8l0,0.1l-0.1,0.7l0,0.1c0,0.2-0.1,0.4-0.1,0.6l0,0.1c0,0.2-0.1,0.4-0.1,0.6v0c0,0.2-0.1,0.4-0.1,0.6h0
		c0,0.2-0.1,0.4-0.1,0.6l0,0c0,0.2-0.1,0.4-0.1,0.6l0,0c0,0.2-0.1,0.4-0.1,0.6l0,0c0,0.2-0.1,0.4-0.1,0.6l0,0c0,0.2-0.1,0.4-0.1,0.6
		l0,0c0,0.2-0.1,0.4-0.1,0.6l0,0c-0.1,0.2-0.1,0.4-0.2,0.6l0,0c-0.1,0.2-0.1,0.4-0.2,0.6l0,0c-0.1,0.2-0.1,0.4-0.2,0.6l0,0
		c-0.1,0.2-0.1,0.4-0.2,0.5c-0.1,0.2-0.1,0.4-0.2,0.5c-0.1,0.2-0.1,0.4-0.2,0.5l0,0c-0.1,0.2-0.1,0.4-0.2,0.5l0,0
		c-0.1,0.2-0.1,0.3-0.2,0.5c-0.1,0.2-0.1,0.3-0.2,0.5c-0.1,0.2-0.1,0.3-0.2,0.5c-0.1,0.2-0.2,0.3-0.2,0.5c-0.1,0.2-0.2,0.3-0.2,0.5
		l0,0c-0.1,0.2-0.2,0.3-0.2,0.5c-0.1,0.2-0.2,0.3-0.3,0.5c-0.1,0.2-0.2,0.3-0.3,0.5l0,0c-0.1,0.2-0.2,0.3-0.3,0.5
		c-0.1,0.2-0.2,0.3-0.3,0.4c-0.1,0.1-0.2,0.3-0.3,0.4c-0.1,0.1-0.2,0.3-0.3,0.4c-0.1,0.1-0.2,0.3-0.3,0.4c-0.1,0.1-0.2,0.3-0.3,0.4
		l0,0c-0.1,0.1-0.2,0.3-0.3,0.4l0,0c-0.1,0.1-0.2,0.3-0.3,0.4c-0.1,0.1-0.2,0.3-0.3,0.4c-0.1,0.1-0.2,0.2-0.3,0.4
		c-0.1,0.1-0.2,0.2-0.3,0.4c-0.1,0.1-0.2,0.2-0.3,0.4c-0.1,0.1-0.2,0.2-0.3,0.3c-0.1,0.1-0.2,0.2-0.3,0.3c-0.1,0.1-0.2,0.2-0.3,0.3
		c-0.1,0.1-0.2,0.2-0.3,0.3c-0.1,0.1-0.2,0.2-0.3,0.3l0,0c-0.1,0.1-0.2,0.2-0.4,0.3c-0.1,0.1-0.2,0.2-0.4,0.3
		c-0.1,0.1-0.2,0.2-0.4,0.3c-0.1,0.1-0.2,0.2-0.4,0.2c-0.1,0.1-0.2,0.2-0.4,0.2v0c-0.1,0.1-0.2,0.2-0.4,0.2h0
		c-0.1,0.1-0.2,0.1-0.4,0.2c-0.1,0.1-0.2,0.1-0.4,0.2c-0.1,0.1-0.3,0.1-0.4,0.2c-0.1,0.1-0.3,0.1-0.4,0.2c-0.1,0.1-0.3,0.1-0.4,0.2
		c-0.1,0.1-0.3,0.1-0.4,0.1l0,0c-0.1,0-0.3,0.1-0.4,0.1c-0.1,0-0.3,0.1-0.4,0.1l0,0c-0.1,0-0.3,0.1-0.4,0.1c-0.1,0-0.3,0.1-0.4,0.1
		l0,0c-0.1,0-0.3,0.1-0.4,0.1l0,0c-0.1,0-0.3,0-0.4,0.1h0c-0.1,0-0.3,0-0.4,0l0,0c-0.1,0-0.3,0-0.4,0l0,0c-0.1,0-0.3,0-0.4,0l0,0
		c-0.1,0-0.3,0-0.4,0l0,0c-0.1,0-0.3,0-0.4,0l0,0c-0.1,0-0.3,0-0.4,0l0,0c-0.1,0-0.3,0-0.4,0h0c-0.1,0-0.3,0-0.4-0.1l0,0
		c-0.1,0-0.3,0-0.4-0.1l0,0c-0.1,0-0.3-0.1-0.4-0.1l0,0c-0.1,0-0.3-0.1-0.4-0.1l0,0c-0.1,0-0.3-0.1-0.4-0.1h0
		c-0.1,0-0.2-0.1-0.4-0.1l0,0c-0.1,0-0.2-0.1-0.4-0.1l0,0c-0.1-0.1-0.2-0.1-0.4-0.2l0,0c-0.1-0.1-0.2-0.1-0.4-0.2l0,0
		c-0.1-0.1-0.2-0.1-0.3-0.2l0,0c-0.1-0.1-0.2-0.1-0.3-0.2l0,0c-0.1-0.1-0.2-0.1-0.3-0.2h0c-0.1-0.1-0.2-0.1-0.3-0.2l0,0
		c-0.1-0.1-0.2-0.1-0.3-0.2l0,0c-0.1-0.1-0.2-0.2-0.3-0.2l0,0c-0.1-0.1-0.2-0.2-0.3-0.3h0c-0.1-0.1-0.2-0.2-0.3-0.3l0,0
		c-0.1-0.1-0.2-0.2-0.3-0.3h0c-0.1-0.1-0.2-0.2-0.3-0.3l0,0c-0.1-0.1-0.2-0.2-0.3-0.3c-0.1-0.1-0.2-0.2-0.3-0.3l0,0
		c-0.1-0.1-0.2-0.2-0.3-0.3l0,0c-0.1-0.1-0.2-0.2-0.3-0.3l0,0c-0.1-0.1-0.2-0.2-0.3-0.4c-0.1-0.1-0.2-0.2-0.3-0.4l0,0
		c-0.1-0.1-0.2-0.2-0.3-0.4l0,0c-0.1-0.1-0.2-0.3-0.2-0.4l0,0c-0.1-0.1-0.2-0.3-0.2-0.4l0,0c-0.1-0.1-0.2-0.3-0.2-0.4
		c-0.1-0.1-0.1-0.3-0.2-0.4l0,0c-0.1-0.1-0.1-0.3-0.2-0.4l0,0c-0.1-0.1-0.1-0.3-0.2-0.4h0c-0.1-0.1-0.1-0.3-0.2-0.4l0,0
		c-0.1-0.1-0.1-0.3-0.2-0.4c-0.1-0.1-0.1-0.3-0.2-0.4l0,0c-0.1-0.2-0.1-0.3-0.2-0.5l0,0c-0.1-0.1-0.1-0.3-0.2-0.5l0,0
		c-0.1-0.2-0.1-0.3-0.2-0.5l0,0c-0.1-0.2-0.1-0.3-0.2-0.5c0-0.2-0.1-0.3-0.1-0.5c0-0.2-0.1-0.3-0.1-0.5c0-0.2-0.1-0.3-0.1-0.5
		c0-0.2-0.1-0.3-0.1-0.5l0,0c0-0.2-0.1-0.3-0.1-0.5c0-0.2-0.1-0.3-0.1-0.5l0,0c0-0.2-0.1-0.4-0.1-0.5l0,0c0-0.2-0.1-0.4-0.1-0.5
		c0-0.2-0.1-0.4-0.1-0.5l0,0c0-0.2,0-0.4-0.1-0.5v0c0-0.2,0-0.4-0.1-0.5l0,0c0-0.2,0-0.4,0-0.6c0-0.4,0-0.7-0.1-1.1l0,0
		c0-0.2,0-0.4,0-0.6c0-0.4,0-0.8,0-1.1l0,0c0-0.2,0-0.4,0-0.6l0,0c0-0.2,0-0.4,0-0.6l0,0c0-0.2,0-0.4,0-0.6h0c0-0.2,0-0.4,0-0.6l0,0
		c0-0.2,0-0.4,0.1-0.6h0c0-0.2,0-0.4,0.1-0.6l0,0c0-0.2,0-0.4,0.1-0.6h0c0-0.2,0.1-0.4,0.1-0.6l0,0c0-0.2,0.1-0.4,0.1-0.6h0
		c0-0.2,0.1-0.4,0.1-0.5l0,0l0.1-0.3l0.1-0.3l0.1-0.3l0.1-0.4l0.1-0.4l0.1-0.3l0.1-0.5l0-0.2l0.1-0.5v0l0.2-0.7l0.1-0.6l0-0.1
		l0.1-0.6l0.1-0.3l0.1-0.5l0.1-0.4l0.1-0.4l0.1-0.5l0.1-0.5l0,0l0.2-0.8l0-0.1l0.2-0.9l0-0.1l0.1-0.4l0.2-0.6l0.2-0.6l0.1-0.4
		l0.2-0.6l0.1-0.5l0.2-0.6l0.1-0.5l0.2-0.6l0,0l0.3-1l0,0l0.3-1l0-0.1l0.2-0.7l0.1-0.3l0.2-0.8l0.1-0.3l0.3-0.9l0.1-0.2l0.3-0.9
		l0.1-0.1c0.4-1.4,0.9-2.8,1.4-4.3l0-0.1l0.4-1.1l0.3-1l0.1-0.3c0.6-1.8,1.2-3.6,1.9-5.4l0,0l0.4-1.1l0,0
		c3.6-9.9,7.7-18.9,11.2-23.1v0l3.4-21c0.1-0.4,0.1-0.7,0.2-1.1c0.2-1.1,0.3-1.7,0.7-2.4c0.5-0.8,1-1.2,2-1.7l0.6-0.4l1-0.6l77.4-43
		l2.8-17.3l-1.7-0.3c-0.5,2.2-1,4.4-1.7,6.5c-0.1,0.2-0.4,0.3-0.8,0.3l-1.1-0.2c-0.7,3.4-1.4,6.8-2.2,10.1c-0.1,0.4-0.4,0.7-0.8,0.7
		c-42.7-6.9-85.3-13.8-128-20.6c-0.4-0.1-0.6-0.5-0.6-0.9c0.3-3.4,0.7-6.9,1.1-10.3l-1.1-0.2c-0.4-0.1-0.7-0.3-0.7-0.5
		c0.1-6.8,1.3-13.6,3.3-20.4c0.1-0.2,0.4-0.3,0.8-0.3l1.1,0.2c0.7-3.4,1.4-6.8,2.1-10.1c0.1-0.4,0.4-0.7,0.8-0.7
		c42.7,6.9,85.3,13.8,128,20.6c0.4,0.1,0.6,0.5,0.6,0.9c-0.3,3.5-0.7,6.9-1.1,10.3l1.1,0.2c0.4,0.1,0.7,0.3,0.7,0.5
		c-0.1,2.3-0.2,4.5-0.5,6.7l4,0.6c1.6,0.3,2.7,0.9,3.5,2C422.2,280.7,422.5,281.9,422.2,283.4L422.2,283.4z M317.1,455.7
		c-0.1,0-0.3,0-0.4-0.1l0,0"/>
	
		<linearGradient id="SVGID_2_" gradientUnits="userSpaceOnUse" x1="549.8252" y1="497.4757" x2="1214.2797" y2="355.3783" gradientTransform="matrix(0.2654 -0.1208 0.4311 7.440000e-02 -158.3406 364.5864)">
		<stop  offset="0" style="stop-color:#0096E6"/>
		<stop  offset="0.7236" style="stop-color:#0096E6"/>
		<stop  offset="1" style="stop-color:#004078"/>
	</linearGradient>
	<path class="st1" d="M158.7,295.8c0.7,0,2.6,0.1,1.6,0.4c2.7,0,1.3-0.8,3.5-1c1.1-0.2-1.7-0.4-1.1-0.6c4.8-0.6,5.7-1.9,9.6-2.9
		c-3.2-0.6-2.5,0.7-4.4,1.1c-0.4,0.1-1.1-0.2-1-0.3C162.9,293,161.1,294.7,158.7,295.8L158.7,295.8z M161.5,299.6
		c1.5-0.1,2.4-0.9,3.7-1.3C162.9,298.1,162.7,299.3,161.5,299.6L161.5,299.6z M215.4,308.6l-0.3,0.2c-0.4,0.2-0.9,0.3-0.7,0.5
		c-0.4,0.3-0.8,0.5-1.1,0.8c0.6-0.2,1.4-0.5,2.1-0.7c-0.3,0.2-0.7,0.3-1.1,0.5c-0.3,0.1-0.8,0.2-1.3,0.3c-0.1,0-0.2,0-0.4-0.1
		c0,0.1-0.1,0.1-0.1,0.2c-1.3,0.3-2.5,0.5-1.3,1.2c0,0,0,0-0.1,0l0,0c-0.8,0-1.1-0.2-1.1-0.4c0.3-0.2,0.6-0.4,0.9-0.5
		c-0.2,0.1-0.5,0.1-0.7,0.2C210.9,309.9,214.2,308.8,215.4,308.6L215.4,308.6z M168.3,308.9c-0.8,0.1-0.9,0.5-2.2,0.8
		c0.3,0,0.5,0,0.7-0.1c-13.3,6.4-27,13.2-39.2,19.5c-2,1-5.7,1.9-7.9,2.8c-1.5,0.7-1.2,1.5-3.9,2c-1,1.7-9.2,3.2-8.5,5.1
		c-0.8-0.2-0.1-0.3,0.1-0.4c-4.1-0.2-1,0.7-1.5,1.2c-0.8,0.7-4,1.1-5.1,1.8c-3,1.8-6,3.8-9.3,5.5c-2.5-0.3,0.2-0.6,0.1-0.9
		c-0.4-0.1-4.8,1.1-1.5,1.2c0.2,0.5-2-0.1-2,0.2c2,0,0.2,0.2,2.2,0.5c-4.1,1.8-7.2,3.3-10.4,5.3c1.6,0,2,0.3,2.1,0.5
		c3.4-0.8,6.1-1.1,6.5-2.5c4.2-0.3,2.7-1.2,2.5-1.7c0.7-0.1,0.7,0.3,2,0.2c-0.2-0.6,4.3-0.6,0.8-1.2c1.3-0.4,5.4-0.5,2.6-1.3
		c1.9,0,3.3-0.2,3.8-0.7c-2.8,0.2-1.9-0.8-0.6-0.9c0.6-0.3,1.6,0.5,2,0.2c3-1.7,9.3-3.9,11-5.6c8.7-3.1,15.9-7,21.6-10.2
		c0.4-0.2-0.2-0.2-1-0.3c7.9-1.4,9.9-4.6,16.9-6.6c0.4,0.9-3.6,1.5-3.9,2.8c13.3-5.1,23.6-10.4,35.4-15.5c0,0,0.1,0.1,0.2,0.1
		c1.1-0.6,1.2-0.6,2.8-1.1c0.9,1-4.4,1.7-4.6,2.6c0.5-0.1,0.9-0.2,1.3-0.2c-1.1,0.4-1.3,1.3-2.2,1.8c1.4-0.2,4.4-1.4,4.7-2
		c-0.6,0-1.1,0-1.5,0c0.5-0.1,1-0.3,1.5-0.4l-0.1,0c1.4,0,2.1-0.2,1.9-0.6c1.4,1.1-1,1.7-3.2,2.3c-0.9-0.3-2.1,0.4-1.9,0.6
		c-0.2,0.1-0.4,0.1-0.5,0.2c0,0,0-0.1,0-0.1c-0.4,0.2-1,0.4-1.6,0.6c0.2-0.2,0.4-0.4,0.4-0.6c-1.9,0.7-6.6,1.5-4,2.4
		c0.2-0.5,1.2-0.8,2.2-1.2c-0.1,0.1-0.2,0.2-0.2,0.4c0.1,0,0.2,0,0.3-0.1c-2.8,1.6-5,3.3-8.5,4.8l0.1,0c-0.4,0.2-0.8,0.4-1.1,0.5
		c-0.5,0-0.6,0.2-0.8,0.4l-0.2,0.1c0,0-0.1,0-0.2,0l0.1,0l-0.4,0.2c-2,0.1-1.8,0.9-2.3,1.1l0.1,0c-0.4,0.2-0.8,0.4-1.2,0.6
		c0.7-0.1,1.4-0.3,2-0.6c0.5,0.1,1.1,0.1,1.7,0.2c0.2-0.4,0.5-0.5,1.1-0.7c0.1,0.1,0.3,0.2,0.8-0.1c0.2-0.1,0.2-0.2,0.2-0.3l0.1,0
		l-0.1,0c-0.2-0.2-0.8-0.3-0.6-0.6c0.1,0,0.2-0.1,0.3-0.1c0.7,0.2,0.6,0.4,0.9,0.6c0.7-0.2,1-0.9,2-0.8c-2,2.3-8.8,3.6-10.6,6
		c1.1-0.5,1.7-0.7,2.5-1.1c0.2,0,0.3,0,0.6,0.1c-2.1,2-9.4,3.2-10.8,5.1c-0.2,0.3,1.1,0.7,1.1,1c-0.1,1-4.9,1.2-4.3,2.2
		c-0.5,0.2-2.5-0.2-3.5-0.2c3.3,1.7-3.8,2.7-5.4,4c-2.6-0.8,2.3-1.1,0.8-1.2c-1.8-0.4-2.9,0.5-4.1,0.9c0.6,0.2,0.9,0.2,1.8,0.3
		c-0.4,0.2-0.9,0.5-1.3,0.7c0.9,0.1,1.5,0,1.9-0.1c-1.1,1-4.6,3.2-7.3,4.1c-0.9,0.2-0.3,0.5-0.7,0.8c-1.8,1-5.7,1.3-3.1,2.8
		c2.3-0.5,1.6-1.2,4.5-1.9c1.3,0.5-1,0.5,0.3,1c2.7-0.6,3.7-1.8,6.3-2.8c0.1,0.7,2,0.1,2.5-0.5c0,0-1.1,0-0.9,0.1
		c-1.7-1.4,5.8-1.8,6.2-2.8c-5.5,0.5,4.2-0.5,0.3-0.9c3,0,0.1-1.1,3.8-1.1c0.4-0.2-0.2-0.2-1-0.3c0.4-0.4,1.2-0.5,2.2-0.3
		c2.7-1.1,4.6-2.6,7.1-3.8c0.6-0.3,1.3-0.5,2.3-0.4c-0.4-0.1-0.7-0.1-0.8-0.2c0.7-0.2,1.4-0.5,2.2-0.6c0.1,0,0.2-0.1,0.2-0.1
		c2.6-0.7,4.4-2.1,7.3-2.5c-1.9,1.1-4.4,2-2.9,2.4c-3.4,1.5-4.2,2.9-6.2,4c4.9-1.4,9.2-3.5,12.5-4.7c1.3-0.3,2.5-0.7,3.6-1.1
		c1.5-0.3,2.7-0.9,3.5-1.5c2.3-1.1,4.5-2.2,6.8-3.2c3.9-1.7,9-3,9.9-4.8c0.8,0.4,1.6-0.4,2.9-0.9c0.2,0.1,0.6,0.1,1.3,0.2
		c-7.2,1.1-3.7,3.8-11.4,5c0.3,0.1,1.5,0.3,1.5,0.5c-0.2,0-0.8,0-0.9,0.1c-0.8,0.3-1-0.5-1.8-0.3c-1.2,0.2,0.9,0.5,0.8,0.8
		c-5.8,1.9-4.8,2.7-11.3,4.1c2.3,0.3,0.3,0.5,1.6,0.8c-5.2,2.4-8.4,4.2-13.6,6.5c-0.3,0.1,0.7,0.4,0.7,0.4c-0.1,0-2.1,0-2.4,0
		c-3.9,0.8-3.3,3.4-7.8,4.4c0.8,0.1,1.4,0.1,1.7-0.1c0.4,0.6-1,0.8-3.6,0.6c0.1,1.3-7,2-3.5,3.4c-0.7,0.3-1.2-0.6-2.4-0.4
		c-1.2,0.3,1.9,0.7,1.2,1c4.2-0.9,5.1-2.3,7.9-3.2c-0.8-0.1-1.2,0-2.1-0.1c3.1,0.2,3.4-1,5.8-1.4c1.1,0.2,0.7,0.4,2.2,0.5
		c-5.2,2.8-9,5.4-14.9,7.6c3.1,0-2.3,1.7-2.6,2.1c-0.1,0.2,0.9,0.3,1,0.3c-1.9,1-6.6,1.8-7.8,3.2c1.5,0.3,1.5,0,2.7,0.2
		c0.3,0.4-0.4,0.3-1.1,0.6c-1.4-0.1-0.4-0.6-1.5-0.5c-0.6,0.2-5.9,1.2-4.3,2.2c1.4-0.2-0.2-0.9,2-1c1.3,0.3,2.7,0.5,1.7,0.7
		c0.7,0.1,3.6-1.7,6.4-2.1c-3.3-0.1,0.8-0.4-2.9-0.9c1.4-0.4,1.5-0.3,1.9-0.6c1.1,0.3,0.7,0.5,0,0.8c1.4,0,1.8-0.4,3.1-0.4
		c0.5,0.1,0.2,0.3,1.5,0.4c0.2-0.2,1.1-0.1,1.3-0.2c0.7,0.1,0.2,0.2,0.1,0.3c2.4,0.1,1.9-0.6,2.6-0.9c-1.1-0.1-1.2,0.7-1.7,0.1
		c-1.3-0.1-1.3,0.4-2.3,0.4c-0.6-0.2-0.9-0.2-1.8-0.3c-0.4-0.4,0.8-1,2.9-1.1c-2-0.3-2.7,0-4.4-0.1c0.3-0.3,1.2-0.4,1.9-0.6
		c1,0.2,1.4,0.3,1.5,0.5c2.7,0,3.8-0.9,3.9-1.6c1.5,0.1,1.9-0.2,4.2,0.2c-1.6,0-2.6,0.4-3.1,0.4c-0.9,0.1,3.3,0.4,1,0.3
		c1.3,0.2,5-0.4,3.5-1c-2.5-0.4-0.2,0.1-0.5,0.3c-1.6-0.3-1.5,0-2.4-0.4c-1.4-0.3,0.6-0.5,1.6-0.4c0.8-0.4-1.8-0.2-2.1-0.5
		c2.2,0,1.7-0.5,2.8-0.6c2.4,0.5-0.3,0.9,2.9,1.3c1.3-0.1-1.8-0.4-0.5-0.5c2.7,0.4,8.8-1.6,5.2-2.3c4.6,0.1,5.4-1.5,7.3-2.1
		c0.4-0.1,1.6,0.2,2.5,0.3c-0.7-0.3-0.2-0.6-1.9-0.6c3.9-1.8,6-2.6,8.6-4c0.3-0.1,1.2,0.1,2,0.2c2.2-0.7,0.6-1.6,4.2-1.4
		c-3,1.1-8.4,3.2-7.7,4.5c1.2-1.3,7.9-3.6,10.8-5c0.1,1.2-5.7,2.5-5.8,4.1c6.8-4.1,17.1-7.9,22.9-12.7c1.3-0.1,2.4-0.3,3.3-0.7
		l0.1,0c0,0-0.1,0-0.1,0c0.7-0.2,1.2-0.5,1.8-0.8c-0.4,0.3-0.6,0.7-0.7,1c1.9-0.3,2.3-1.1,3.5-1.7c-4.2,3.3-14.2,7.9-19.8,10.8
		c1,0.7-2.6,1.7-3.5,1.8c-0.9,0.4,1.8-0.1,1,0.3c-0.6,0.2-1.9-0.3-2.2,0.3c-0.8,0.5,1.5,0.1,1.2,0.5c-3.6,1.8-5.2,3.2-8.4,4.6
		c3.4-0.2,3.4-2.2,5.9-2.2c-1.6,0.9-4.1,1.9-4.2,2.5c1.8-0.4,1.8-1.1,3.2-1.4c1.2,0.2-1.8,0.7-0.6,0.9c6.1-0.7,5.7-3.1,11.3-4.1
		c0.9-0.7,1.5-1.4,2.9-2.1c5.7-2.6,12.1-5.9,18.8-9.2c-0.2,0.3,0,0.5,0.8,0.4c-0.8-0.2,0.8-0.5-0.2-0.7l2.5-1.3
		c-0.1,0.1,0,0.3,0,0.4c1.2-1.3,7.9-3.6,10.8-5c0,0.3-0.4,0.7-1,1c-3.5,1.7-7.2,3.6-8.2,3.9c-4.5,3.4-12.9,5.6-15.5,8.8
		c2.1-0.9,2.5-1.5,4.6-2.1c0,0.2-0.1,0.3-0.3,0.5c-2.1,0.8-4.3,1.6-4.2,2.4c-0.3,0.3-0.2,0.5,0.2,0.7l0.3-0.1l0.1,0
		c1.4-0.4,2.4-0.8,3.3-1.1c0.1,0,0.1,0,0.1,0.1c0.3-0.1,0.5-0.3,0.7-0.4c0.8-0.3,1.5-0.6,2.3-0.8c-1.4,1.1-5.5,1.9-3.4,2.9
		c2.4-0.6,3.5-1.4,5.4-2.1c0.2,0,0.3,0.1,0.5,0.1c-0.2-0.3,0.5-0.3,0.4-0.4c0.3-0.1,0.5-0.1,0.8-0.2c-0.3,0.2-2.3,1-1,0.8
		c0.4-0.2,0.8-0.5,1.4-0.7c-1.2,2.1-7.9,3.8-10.2,5.7c-1.7-0.2-2.2,0.1-3.4,0.1c1.5,0.5,0.2,0.9,0.4,1.4c1.8,0,4.6-0.7,2.2-0.7
		c1.8-0.6,3.5-1.3,5.1-2.1c-0.2,0.1-0.2,0.3-0.1,0.4c0.5-0.5,3.9-1,2.5-1.5l0.9-0.5c0,0,0.1,0,0.3,0c1.9-1,4.2-2,6.5-3l0.1-0.1
		c0.4,0.2,0.9,0.4,1.3,0.5c1.4,0.3,0.4-0.4,2.3,0c-0.2-0.2-2.2-0.6-3.4-0.6l0,0c0.6-0.3,1.2-0.5,1.8-0.8c1.2,0.3-0.6,0.6,0.4,0.9
		c4.1,0.3,4.8-1.2,5-1.7c2.6,0.1,2.7-0.7,2.3-1.2c0.7-0.2,2.7-0.4,2.1-0.7c-5.8,0.2-3.4,1.7-8.4,2.3c1.8-1.2,4-2.4,6.5-3.6
		c3-1.1,6.5-2.6,7.7-3.6l0.3-0.1c2.5-0.3,3.8-1.5,5.3-2.2c1.5-0.7,3-1.4,4.5-2c1.1,0.2,0.1,0.3-0.1,0.5c0.4,0,1,0.1,1.4,0.1
		c0,0.1,0.1,0.3,0.4,0.4c0.2-0.1,0.3-0.1,0.5-0.2c0.6,0,0.7-0.1,0.5-0.2c0.6-0.3,0.9-0.5,1.8-1c0.6,0.1,0.8,0.2,1,0.3
		c1.2-0.6,0.9-1.1,3-1.2c-1.2,1.1-5,1.8-3.8,2.7c-1.2,0.6-2.3,1.1-3.5,1.7c-3.7,1.8-8.3,3.3-9.3,5.1c-7.3,1.3-6.6,3.3-12.6,5.2
		c-1.1,0.2,1.7,0.4,1.1,0.6c-0.4,0.4-1.4-0.3-2.3,0c-0.5,0.3-2.1,0.7-0.5,1c-0.3,0-2.8-0.3-0.3,0.2c-4.6,1.2-10.4,3.7-10.3,5.3
		c-0.5,0.3-2.5,0-2.9,0.3c1.6,0.3-2.4,0.8,0.6,0.9c-5.4,0.2-1.3,1.6-5.9,1.8c2.6,0.4-1.7,1-2.7,1.8c2.2,0.2,0.6-0.1,1.4-0.3
		c0.2,1-3,1.8-4.8,2.9c-1.1,0.1,0-0.4-1.8-0.3c-0.1,0.5,1.4,0.4,3.1,0.8c-7.9,1.4-8.2,4.4-12.8,6.5c5.1-0.5,3.8-1.8,8.6-2.4
		c-1.2-0.9-0.1-1.5,3.1-1.6c5.2-3.4,11.4-6,17.7-9c0-0.4,1.9,0.1,2.4,0c3.9-3,12.1-5.5,16-8.6c-0.2-0.4,2.1,0.2,1.8-0.1
		c4.9-3,11.8-5.4,17.5-8.1c2.6-1.3,4.5-2.7,7.3-4.1c9.2-4.5,23-9.9,31.2-13.5c2.2-1,5.6-1.8,7.7-2.7c3.9-1.7,7.3-4.4,11.3-6.4
		l0.6,0.1l91-45.8l-128-20.8l-90.4,41.1l-4.1,1.9l-2.5,1.1l1,0.2c-2.4,1.6-6.4,2.9-8.9,4.4c-0.5,0.2-1.7,0.1-2.6,0.1
		c1.5,1.5-6.1,2.2-4.9,3.7c-0.8-0.1-0.9-0.3-2.3,0c-0.7,0.4,3.7,0.7,0.6,0.9c-0.1-0.8-3.6,0-3.1,0.4c2.1,0.2,2.4-0.5,4.1-0.1
		c3.1-1.2,5.1-2.1,8.4-3.5c1.1,2.2-6.6,3.3-7.8,4.8c0.7,0,1-0.1,2.1,0.1c0.8-0.8,1.5-1.5,4.4-1.8c0.4,0.4,2,0.4,2.3,0
		c0.2,0.1,0.4,0.2,0.6,0.3c-6.3,1.6-11,4.5-16.2,6.6c0.2,0.4,2.8-0.9,4.6-1.6c0.8-0.3,1.7-0.7,2.4-1c-1.4,0.7-2.3,1.4-1.9,2.3
		c1.1-0.3,2.1-0.7,3-1c-0.5,0.4-1.4,0.8-2.3,1.2c-0.4,0-0.9-0.1-1.5-0.2c-0.2,0.3-2.8,0.8-2.3,0.4c-1.3-0.2-0.9,0.3-1.4,0.3
		c0.8,0,1.2,0.1,1.4,0.2c-0.3,0.1-0.7,0.3-1.1,0.5l0,0c0.4-0.1,0.7-0.1,1-0.2c0,0-0.1,0.1-0.2,0.1c1,0.2,1.8,0.1,1.8,0.3
		c0.1,0,0.3,0,0.4,0c3.5,0,4.3-1.1,6.6-1.9c-3.5,1.7-6.9,3.2-12.1,5c0.9,0.1,0.9-0.1,1.3-0.2c0.6,0.6-1.2,1.7-3.5,1.4
		c1.8,1.8-3.5,2.3-7.8,3.6c0.6,0,1.1,0.1,2,0.2c-2.6,1.6-7.3,2.4-7.5,3.4c-2.6,0.2-1.9,1.7-4.4,2.3c-0.7,0.1-2.6-0.5-3.1-0.4
		c-0.7,0.4,2.5,0.3,2.5,0.7c0,0.5-3.3-0.3-2.9,0.3c0.7,0.1,0.8-0.1,1.1-0.2c-4.3,4-13.1,6.7-17.5,10.5c3.3-0.6,5.2-1.8,7.8-2.4
		c1.7,0.3-1.5,0.4,0.2,0.7c4.3,0.3-1-0.9,3.1-1.2c-1-0.4-1.5-0.1-2.7-0.2c3-0.3,0.4-1,2.9-1.9c2.4,0.5,0.5,0.9-0.2,1.3
		c2.4,0.1,0.8-0.4,2.5-0.5c1.3,0.2-0.3,0.3-0.2,0.5c2.1,0.1,3.6-0.7,3.1-1.2c-2.2-0.3-2.4,0.3-2.5,0.5c-4-1.8,4.5-2.9,5-4.1
		c0.7-0.2,1.8-0.3,3.4-0.1c-2.6-0.6,0-1,0.7-1.5c1.2,0.3-0.8,0.6-0.9,0.9c3.4-0.1,2.5-0.9,4-1.2c0.4,0.3,1.1,0.2,1.5,0.5
		c2.5,0.1,0.8-0.7-0.5-1c-2-0.2,0.3,0.5-1.4,0.3c-2-0.4,0-0.9,1.9-0.6c-1-0.7,0.9-1.4,2.1-1.9c1.7,0.1,1.2,0.6,0.1,0.3
		c1.6,0.5,2.7-0.1,1-0.5c3.8-0.8,4.1-2.5,8.7-3.4c-0.5,0.3-0.8,0.7-0.7,1.1c1.1,0.2,1.4-0.8,2.5-0.5c-0.2,0.5-2.5,0.8-2.9,1.4
		c1.6-0.3,3.8-1.4,6-2.2c1.3,0.6-5.3,1.5-4.3,2.5c3.1-1.5,7-2.5,10.9-4.2c0.5-0.1,0.8,0,1,0.1C173.5,306.4,170.9,307.6,168.3,308.9
		L168.3,308.9z M194.1,294.2l-1.3,0.5C193,294.4,192.5,294,194.1,294.2L194.1,294.2z M190.9,295.5l-1.5,0.6
		C189.5,295.9,189.9,295.7,190.9,295.5L190.9,295.5z M187.4,297c-1.7,0.7-3.3,1.4-4.8,2C183.2,298.2,185.2,297.6,187.4,297
		L187.4,297z M168.9,304.9c-0.8,0.4-1.8,0.7-2.6,1c-0.4-0.2-0.8-0.4-1.2-0.6c1.3-0.1,2.9-0.1,3.4-0.6
		C168.6,304.8,168.7,304.9,168.9,304.9L168.9,304.9z M165.1,306.3c-0.2,0.1-0.4,0.2-0.6,0.3c-0.1,0-0.2-0.1-0.1-0.1
		C164.4,306.4,164.7,306.3,165.1,306.3L165.1,306.3z M177.1,304.7c-0.1,0-0.1-0.1-0.1-0.1c0.3-0.1,0.4-0.1,0.6-0.1L177.1,304.7
		L177.1,304.7z M189.3,306.9c-1.2,0.6-2.3,1.2-3.2,1.6c-0.3,0.2-0.9,0.4-1.5,0.5c0.4-0.6,0.3-1.3,1.6-1.8
		C186.8,307.1,188.1,307,189.3,306.9L189.3,306.9z M186.3,310.5c0.2-0.1,0.5-0.2,0.7-0.3c0.2-0.1,0.5-0.1,0.8-0.1
		c0.1,0.3,0.8,1-1.6,0.8C186.1,310.7,186.2,310.6,186.3,310.5L186.3,310.5z M188.8,309.5c1.1-0.4,2.1-0.9,3.2-1.3c0,0,0,0.1-0.1,0.2
		c0.2,0.2,0.1,0.4,0,0.5c0,0,0,0-0.1,0c-0.6,0.4-1.6,0.4-2.2,0.8c-0.6,0.1-1.1,0.1-1.3,0.1C188.4,309.7,188.5,309.6,188.8,309.5
		L188.8,309.5z M192.7,307.9c0.5-0.2,1-0.4,1.6-0.5c0.1,0,0.2,0.1,0.3,0.1C194.4,307.7,194,307.9,192.7,307.9L192.7,307.9z
		 M195.2,307.7c0,0.1,0.1,0.1,0,0.2l-0.1,0C195.2,307.9,195.2,307.8,195.2,307.7L195.2,307.7L195.2,307.7z M187.1,289.5
		C189.6,288.2,190.2,289,187.1,289.5L187.1,289.5L187.1,289.5z M181.8,292.6c-0.2,0.1-0.4,0.2-0.5,0.3c-0.7,0-1.5,0-2.3-0.1
		c1.2-0.5,2.2-1,3.3-1.4c0.5,0.5,0,1-0.9,1.3C181.4,292.6,181.6,292.6,181.8,292.6L181.8,292.6z M180.9,293.6c0.1,0,0.2,0,0.3,0
		c-0.1,0-0.3,0-0.4,0.1L180.9,293.6L180.9,293.6z M175.4,295.4l-0.4,0.2c-0.5,0-0.9,0-0.7,0.2c-1.3-0.2,0.3-0.3,0.2-0.5
		C174.9,295.2,175.1,295.3,175.4,295.4L175.4,295.4z M171.2,297.9c-0.2,0.1-0.5,0.2-0.7,0.4C170.6,298.2,170.8,298,171.2,297.9
		L171.2,297.9z M191.1,286.8c-2.8,0.9-6.1,2.6-7.9,3.7c-0.9,0.2-2.1,0.3-3.8,0.3c-0.1-1.2,6.3-1.9,5-2.9c4.6,0,2.5-1.7,6.5-1.7
		c0.9,0.4-0.5,0.4-1.1,0.6C190.3,286.8,190.7,286.8,191.1,286.8L191.1,286.8z M175.5,294.1c-0.1-0.1-0.2-0.2-0.2-0.3
		c1-0.2,1.8-0.4,2.5-0.6C177,293.5,176.3,293.8,175.5,294.1L175.5,294.1z M286.5,298.8l0.8,0.1c-1.1,0.3-2.1,0.6-3.2,0.9
		C285.1,299.5,285.8,299.1,286.5,298.8L286.5,298.8z M304,301.8l0.9,0.2c-0.3,0.1-0.6,0.2-0.9,0.3
		C304.1,302.1,304.1,301.9,304,301.8L304,301.8z M170.9,317.9c0.9,0-4.4,2.2-2.7,1.1C168.6,318.8,169.3,318.3,170.9,317.9
		L170.9,317.9z M175.2,318.8c-0.9,0.2-1.6,0.5-1.9,0.8c0.1,0.2,0.2,0.4-0.1,0.6c-0.7-0.1-1.1-0.1-1.8-0.1c-0.8,0.4-1.5,0.9-0.6,1
		C172.1,320.8,175.7,319.5,175.2,318.8L175.2,318.8z M176.1,318.7c1.1-0.7,3-0.6,4-1.5c-0.3,0-0.5,0.1-0.9,0
		c-0.1-0.1-0.2-0.1-0.2-0.2c-0.9,0.1-1.9,0.4-2.4,0.7c0,0.1,1,0.3,0.9,0.3c-0.2,0.1-0.8,0.1-1.4,0.2
		C175.9,318.5,175.9,318.6,176.1,318.7L176.1,318.7z M204.9,316.9c-0.3,0.1-0.5,0.3-0.7,0.4c-0.1,0.1,0.1,0.3,0.2,0.4
		c0.6-0.2,1.2-0.5,0.8-0.8C205.1,316.9,205,316.9,204.9,316.9L204.9,316.9z M204,317.8c-0.5,0.1-1.3,0.2-1.8,0.3l-0.5,0.2
		c-0.2,0.2-0.3,0.4,0,0.7c0.2,0,0.4,0,0.6,0c0.2-0.1,0.5-0.3,0.8-0.4C202.6,318.3,203.3,318,204,317.8L204,317.8z M169.6,323.3
		c-0.4-0.2,0.7-0.4,0.9-0.6c-1.4,0.2-5.5,1.7-5.4,2.4c0.9-0.3,1.8-0.6,2.6-1l0,0l0.1,0C168.5,323.9,169.1,323.6,169.6,323.3
		L169.6,323.3z M164.5,325.3C164.4,325.3,164.4,325.3,164.5,325.3l-0.5,0.2C164.1,325.4,164.3,325.4,164.5,325.3L164.5,325.3z
		 M189,311.4c1.6-0.7,3.3-1.3,4.9-2l0,0C191.9,309.9,190.4,310.6,189,311.4L189,311.4z M201.9,313.5c1.4-0.5,2.8-1.1,4.2-1.5
		c1.6-1,4-1.9,6-2.8C208.6,310.6,205.2,312.1,201.9,313.5L201.9,313.5z M209,311.4c-1.4,0.6-3.1,1.2-5,2.3c0.1,0,0.2-0.1,0.4-0.1
		C206.5,312.9,208.3,312.1,209,311.4L209,311.4z M184.8,346.1c1,0.5-0.8,0.6-1.3,1.2C183.2,346.7,184.3,346.6,184.8,346.1
		L184.8,346.1z M277.8,302.1c-1.2-0.4,1.2-0.6,1.9-1.2c-0.9,0.1-1.7,0.4-2.5,0.7c-1,0.4-2.1,0.9-3.1,1.3c1.5-0.1,2.3-0.5,3-0.6
		c0,0.1,0,0.1,0,0.2L277.8,302.1L277.8,302.1z M273,303.9c-0.2-0.1-0.4-0.1-0.8-0.2c-0.4,0.3-0.9,0.6-1.5,0.8
		c-1.1,0.4-2.1,0.3-2.6,0.9c0.1,0.1,0,0.2-0.2,0.3h0C269.6,305.1,271.3,304.5,273,303.9L273,303.9z M212.4,341.2L212.4,341.2
		c0,0,0,0.1,0.1,0.1c-0.4,0.2-1.2,0.4-0.6,0.7c-0.6,0-1.1-0.1-1.5-0.2c-0.6,0.1-0.9,0-0.5-0.1c-0.6-0.2-0.7-0.4,0.1-0.3
		c0,0,0,0.1,0.2,0.1c0.3-0.1,0.7-0.2,1.3-0.4c-0.3,0-0.6-0.1-0.8-0.1C211.7,340.6,211.4,341.2,212.4,341.2L212.4,341.2z
		 M210.9,341.7L210.9,341.7L210.9,341.7L210.9,341.7L210.9,341.7z M205.7,331.9c-0.1-0.1-0.1-0.1-0.1-0.2c-0.2,0.1-0.3,0.1-0.5,0.2
		C205.2,332,205.4,332,205.7,331.9L205.7,331.9z M197.1,337.5c-0.9-0.2-1.4,0-1.5,0.2c0.1,0,0.3,0,0.5,0c-0.2,0-0.3,0.1-0.4,0.2
		c0.1,0.1,0.3,0.2,0.7,0.2C197,337.9,197.2,337.7,197.1,337.5L197.1,337.5z M204.2,333.3c0.2-0.1,0.3-0.1,0.5,0
		c0.2-0.1,0.4-0.2,0.5-0.2C204.4,333,203.5,332.9,204.2,333.3L204.2,333.3z M204.7,333.8c-0.3,0-0.6-0.1-0.8-0.1
		c-0.2,0.1-0.6,0.1-0.9,0.2c1,0.1-0.2,0.4,0.5,0.6C204,334,205,334.2,204.7,333.8L204.7,333.8z M257.7,312c1.6-0.5,3.2-1,4.8-1.5
		c-0.1,0-0.3,0-0.5,0c0.1,0,0-0.2,0-0.3C260.5,310.7,259.1,311.4,257.7,312L257.7,312z M262.8,310.4c0.3-0.1,0.5-0.2,0.8-0.3
		l0.7-0.3c0.1,0,0.2,0,0.2,0c0.5-0.2,1-0.4,1.5-0.5c-0.2-0.1-0.2-0.2-0.1-0.3c-1.2,0.3-2.3,0.6-3.3,1c0.2,0,0.6,0.1,1,0.1
		C262.9,310.2,262.9,310.3,262.8,310.4L262.8,310.4z M266.7,309l0.6-0.2C266.6,308.8,266.4,308.6,266.7,309L266.7,309z M270.9,307.3
		l0.3-0.1C271.1,307.2,271,307.3,270.9,307.3L270.9,307.3z M273.3,306.3c0.9-0.4,1.8-0.8,2.7-1.3c-0.1,0-0.3-0.1-0.5-0.1
		C274.4,305.4,273.6,305.8,273.3,306.3L273.3,306.3z M276.4,304.8c0.4-0.2,0.8-0.4,1.2-0.6c0.9,0,1.4-0.2,2.2-0.3
		c-0.1-0.2-0.1-0.4,0-0.6c-0.2,0-0.4,0-0.6,0.1l-0.9,0.3c0.2,0,0.5,0,0.8,0.1c-1.7,0.1-2.3,1-3.1,0.9l-0.3,0.1
		C276,304.8,276.2,304.8,276.4,304.8L276.4,304.8z M254.4,317.3l-0.4,0.2c-1.2,0.9-2.5,1.8-3.9,2.7c3.5-1.6,7.6-3.2,11.8-4.7
		c0.4-0.3,0.8-0.6,1.1-0.9C259.7,315,258.4,317,254.4,317.3L254.4,317.3z M251.1,318.7c-0.4,0.2-0.9,0.4-1.3,0.6l0,0
		C250.1,319.3,251.7,318.9,251.1,318.7L251.1,318.7z M249,319.6l-0.8,0.4c-0.1,0.1-0.3,0.3,0.1,0.3c0.5-0.4,1.5-0.2,1.2-0.6
		L249,319.6L249,319.6z M240.9,323.3l-0.5,0.2c-0.1,0.2,0.1,0.5,0.7,0.5c0.7-0.3,0.8-0.5,0.7-0.7
		C241.5,323.3,241.2,323.3,240.9,323.3L240.9,323.3z M191.3,338.6c0.1,0,0.2,0,0.3,0c0.5-0.2,0.4-0.3,0.2-0.3
		C191.5,338.4,191.4,338.5,191.3,338.6L191.3,338.6z M192.1,337.7c0.7-0.1,1.5-0.1,2-0.4c-0.7,0.1-1.4,0.2-2.4,0.2
		C191.9,337.6,192,337.7,192.1,337.7L192.1,337.7z M219.7,335.8c-0.2,0.6-2.4,0.8-1.5,1.3C218.5,336.7,221.5,336.1,219.7,335.8
		L219.7,335.8z M227.2,337.4L227.2,337.4L227.2,337.4C227.2,337.4,227.2,337.4,227.2,337.4L227.2,337.4z M260.7,323.9
		c-0.5,0.2-1,0.4-1.5,0.6c0.4,0.1,0.7,0.1,1,0.1c0.2-0.1,0.4-0.2,0.6-0.3C260,324.2,260.3,324.1,260.7,323.9L260.7,323.9z
		 M258.3,325l-0.2,0.1c-0.1,0.1-0.3,0.1-0.4,0.2c0.6,0,0.8,0.1,0.9,0.2c0.4-0.2,0.8-0.4,1.1-0.6C259.2,324.9,258.7,324.9,258.3,325
		L258.3,325z M164.5,321C164.4,320.1,167.2,319.9,164.5,321L164.5,321L164.5,321z M179,346.5c-1.2,0.3-1.1-0.5-0.3-0.7
		C179.9,346,178.2,346.3,179,346.5L179,346.5z M185.1,344.5c-0.2,0.3-1.2,1.1-2.8,1.4C182.6,345.4,183.8,344.9,185.1,344.5
		L185.1,344.5z M191.6,342.6c-0.2,0.8-3.2,1.7-4.5,2.6C187.3,344.4,190.3,343.5,191.6,342.6L191.6,342.6z M192.2,342.6
		C192.4,341.6,195.2,341.4,192.2,342.6L192.2,342.6L192.2,342.6z M194.8,341.2c-1.2-0.3,1.8-0.8,2.4-1.5
		C198.4,339.7,195.4,340.8,194.8,341.2L194.8,341.2z M217.6,342.3C217.8,341.3,220.6,341.1,217.6,342.3L217.6,342.3L217.6,342.3z
		 M167.5,291.7c-0.6,0.1,0,0.3-0.1,0.4C168.5,292.3,169.5,291.8,167.5,291.7L167.5,291.7z M164,295.9c1,0.5-0.5,0.8-0.5,1
		c0.8-0.1,2,0,2.6-0.1C163.7,296.4,166.7,296.2,164,295.9L164,295.9z M153.7,301.1c-0.3,0.3-0.2,0.7-1.2,1c2.8,0.2,2.1-0.2,3.4-0.6
		C154.8,301.4,154.9,301.3,153.7,301.1L153.7,301.1z M159.5,298.5c-0.6,0.2-1,0.4,1.1,0.6C159.9,298.9,161.6,298.8,159.5,298.5
		L159.5,298.5z M156.1,300.3c-0.2,0.1-0.4,0.2-0.7,0.3c0.4,0.1,0.8,0.1,1.2,0.2c0.2-0.1,0.4-0.2,0.7-0.3
		C156.9,300.4,156.5,300.4,156.1,300.3L156.1,300.3z M155.3,300.7c-0.4,0.1,0.4,0.3-0.1,0.4C156.9,301.4,157.1,301,155.3,300.7
		L155.3,300.7z M108.5,326.6c3.3-0.3,2.9-0.5,4.3-1.4C110.3,325.5,109.8,326.1,108.5,326.6L108.5,326.6z M89.2,336.4
		c-0.9-0.2-2.3,0.4-0.2,0.5C89.6,336.7,89.6,336.5,89.2,336.4L89.2,336.4z M84.6,338.7c-1.4-0.2-1,0.4-1.7,0.5
		C84.3,339.4,84,338.8,84.6,338.7L84.6,338.7z M108.4,327c-1.3-0.2-0.9,0.3-1.4,0.3c0.6,0,1.1,0.1,2,0.2
		C109.8,327.4,108.1,327.2,108.4,327L108.4,327z M99.8,331c2.9,0,1.8-0.5,3-0.7C101.2,329.7,100.6,330.8,99.8,331L99.8,331z
		 M122.4,320.6C118.1,320.9,120.4,321.6,122.4,320.6L122.4,320.6L122.4,320.6z M120.2,321.4c-1-0.2-2,0.3-0.1,0.4
		C120.7,321.7,120.1,321.5,120.2,321.4L120.2,321.4z M126.9,318C130.5,317.3,128.3,316.7,126.9,318L126.9,318L126.9,318z
		 M124.6,319.1C127.5,318.9,125.6,318.1,124.6,319.1L124.6,319.1L124.6,319.1z M145.4,309.4c-1.4-0.2-1.1,0.4-1.7,0.5
		C145,310,144.7,309.5,145.4,309.4L145.4,309.4z M109.2,327.8c-1.5-0.1-1.3,0.5-2.1,0.7c0.8,0.1,1.6,0.3,2.4,0.4
		C107.2,328.3,109.3,328.1,109.2,327.8L109.2,327.8z M163.4,300.1c0.7,0.1,1,0.2,1,0.3c0.9,0.1,2.5-0.4,0.4-0.6
		C164.7,300.1,163.4,299.8,163.4,300.1L163.4,300.1z M165.2,299.6c0.6,0,1.1,0.1,1.9,0.2c-0.1-0.3-0.3-0.9,2.3-0.4
		c0-0.3-0.7-0.2-2.2-0.5C166.7,299.3,165.4,299.3,165.2,299.6L165.2,299.6z M159.4,304.2c1,0.1,1.4-0.1,2-0.2
		C159.5,303.6,159.9,304.1,159.4,304.2L159.4,304.2z M156.6,305.6c1.8,0.1,2.2-0.1,2.7-0.6C157.8,305,157.1,305.3,156.6,305.6
		L156.6,305.6z M83.3,343.8c-1.5-0.1-1.3,0.5-2.1,0.7C83.2,344.4,82.6,344.1,83.3,343.8L83.3,343.8z M76.1,347.4
		c-1.4-0.2-1.1,0.4-1.7,0.5C75.4,347.9,76.8,347.7,76.1,347.4L76.1,347.4z M69.7,350.7c-1.4-0.2-1.1,0.4-1.7,0.5
		C69,351.2,70.4,351,69.7,350.7L69.7,350.7z M117.9,327c3.4,0.3-0.5-0.7,1.8-0.9C117.7,325.9,117.9,326.6,117.9,327L117.9,327z
		 M78.5,346.6c0,0.2,0.6,0.3,1.6,0.4c-0.4,0.2-0.6,0.5-2.2,0.3c-0.2,0.1,0.1,0.1,0.4,0.2c0.5,0.1,0.5,0.1,0.4,0.2
		c1.3,0.2,0.9-0.3,1.4-0.3c0.5,0.1,0.9,0.2,0.9,0.4c3,0.1,0-0.5,2.1-0.7c-1.6-0.2-2.3-0.1-1.5-0.5C80.4,346.5,79.8,346.7,78.5,346.6
		L78.5,346.6z M74.8,348.9c0.7,0.1,1,0.2,1,0.3c1.8,0.1,0.8-0.8,3.2,0c0.7-0.3-2.8-0.6-0.8-0.8C75.6,348.2,76,348.8,74.8,348.9
		L74.8,348.9z M114.4,331.1c-1.6-0.4,1.5-0.2,0.2-0.5c-1.7-0.3-2.5,0.3-1.8-0.3c-3.5,0.1,1.4,0.8,0.9,1.1c2.6,0.4-0.1-0.5,2.2-0.3
		C116.1,330.9,114,330.8,114.4,331.1L114.4,331.1z M101.7,336c1.3,0.2,0.9-0.3,1.6-0.4C100.9,335.3,102.4,335.8,101.7,336L101.7,336
		z M106.8,333.8c1.7,0,1.6-0.7,2.6-0.9C107.2,332.9,107.3,333.3,106.8,333.8L106.8,333.8z M103.3,335.2c0.4,0.5,1.9,0.1,1.8-0.1
		C102.9,334.7,104.5,335.4,103.3,335.2L103.3,335.2z M119.2,328.3c1.4-0.3,1.4-1,2.5-1.3C119.4,327,119,327.8,119.2,328.3
		L119.2,328.3z M130.3,322.2C129.2,322.9,132.4,323,130.3,322.2L130.3,322.2L130.3,322.2z M128.6,323.1c-0.2,0.1-0.4,0.2-0.7,0.3
		C129.9,323.7,131.1,323.4,128.6,323.1L128.6,323.1z M106.8,335c1.2,0.1,1.1-0.3,2.9,0.1c0.1-0.3-0.2-0.4,1.4-0.3
		c0.1-0.4-3.1,0-2.2-0.5C107.9,334.1,107.1,334.7,106.8,335L106.8,335z M106.1,335.7c1.9-0.1,1.5,0.7-0.5,0.3
		c-1.2-0.2,1.3-0.1,0.1-0.4c-1.8-0.2-1.4,0.8-0.4,0.6c0.7,0.1,0.2,0.2,0.1,0.3c1.9,0.2,2.7-0.1,3.3-0.5c-0.4-0.2-2.1-0.4-1.3-0.5
		C106.5,335.4,106.5,335.6,106.1,335.7L106.1,335.7z M112.4,332.1c1.2,0.1,1.8-0.1,2.2-0.3C112.6,331.4,113.1,332,112.4,332.1
		L112.4,332.1z M112.1,332.3c-0.2,0.1-0.3,0.2-0.5,0.3c1.2,0.1,2.6,0.4,2.9,0.1C113,332.6,113.7,332.5,112.1,332.3L112.1,332.3z
		 M100.8,338.8c-1.4-0.2-1.1,0.3-0.8,0.4C101.9,339.5,100.1,338.9,100.8,338.8L100.8,338.8z M147.6,315.4
		C144.4,315.6,148,316.1,147.6,315.4L147.6,315.4L147.6,315.4z M117.5,331.5c-0.4-0.3,1.6-0.6,2-1
		C118.4,330.5,115.1,331,117.5,331.5L117.5,331.5z M115.6,332.1c-1.4-0.2-1.3,0.4-1,0.5C116.4,332.8,114.3,332.2,115.6,332.1
		L115.6,332.1z M126.7,326.8c-0.9-0.1-0.9,0.1-1.2,0.2c0.6,0,1.3,0.1,1.2,0.2c1.3,0.2,1-0.3,1.6-0.4c-0.7-0.1-0.8,0.1-1.1,0.2
		C126.6,326.9,126.7,326.9,126.7,326.8L126.7,326.8z M139.3,320.8C134.9,321.3,141,321.6,139.3,320.8L139.3,320.8L139.3,320.8z
		 M137.8,321.6c-1.8,0-1.7,0.7-2.7,1c1,0,1.3-0.2,2.4,0c-1.2-0.6,0.6-0.2,1.3-0.7C138.2,321.7,137.9,321.6,137.8,321.6L137.8,321.6z
		 M135.5,322.7c-1.4-0.2-1,0.4-1.7,0.5C135.2,323.4,134.9,322.8,135.5,322.7L135.5,322.7z M134.2,323.4c-1.6-0.1-1.4,0.5-2.2,0.7
		C134.2,324.1,133.8,323.7,134.2,323.4L134.2,323.4z M129.7,325.3c-0.9,0.2-0.4,0.5-0.6,0.7C130,326.1,131.9,325.5,129.7,325.3
		L129.7,325.3z M156.2,312.2c3.3,0.7,4.5-1.7,6.7-2.2C159.5,310,159.7,311.8,156.2,312.2L156.2,312.2z M153.8,313.4
		c0.3,0.4-0.4,0.3-1.2,0.6C154,314.3,156.1,313.7,153.8,313.4L153.8,313.4z M149.5,316c-1.4-0.2-1,0.4-1.7,0.5
		C149.1,316.7,148.8,316.2,149.5,316L149.5,316z M162.5,309.8C165.8,309.4,162.7,308.8,162.5,309.8L162.5,309.8L162.5,309.8z
		 M78.5,355.4c-1.4-0.2-1.1,0.4-1.7,0.5C79.8,356.3,78.6,355.7,78.5,355.4L78.5,355.4z M122.9,338c0.7-0.8,1.3-0.7,2.8-1.4
		C123.6,336.4,121.1,337.5,122.9,338L122.9,338z M145.6,326.4c-1.5-0.1-1.3,0.5-2.1,0.7C145,327.2,144.7,326.6,145.6,326.4
		L145.6,326.4z M171.5,316.4c-0.3,0.1,0.1,0.1,0.4,0.2c1.3,0.3-1.5,0.6-0.3,0.9c2-0.1,2-0.8,2-1
		C172.9,316.4,172.6,316.6,171.5,316.4L171.5,316.4z M151.4,327.4c-0.8-0.5,2.5-0.3,1.5-0.8C151.6,326.5,149,327.1,151.4,327.4
		L151.4,327.4z M142.6,331.1c0.4,0.2,0.5,0.4,1.1,0.6c1.5,0.2,1.4-0.2,3.4-0.1c-2.6-0.2,0.3-0.1-0.7-0.4c0.5-0.1,0.7,0.2,1.8,0.3
		c1.5-0.5,0.6-1.5-0.7-0.4c-1.3-0.2,0.4-0.4,0.4-0.6C145.4,330.2,146.5,332,142.6,331.1L142.6,331.1z M132.4,336.3
		C135.3,336,133.4,335.3,132.4,336.3L132.4,336.3L132.4,336.3z M131.9,336.5c-0.5,0.3-1,0.5-1.5,0.8c0.5,0.4,1.1-0.4,2.6-0.1
		C133.1,337,133.5,336.8,131.9,336.5L131.9,336.5z M129.7,338.1C126.4,338.4,130,338.8,129.7,338.1L129.7,338.1L129.7,338.1z
		 M160.4,322.8c2.6-0.4,3.1-1.1,4.4-1.8C161.8,321.1,160.7,322.4,160.4,322.8L160.4,322.8z M157.2,324.1c1.8,0.4,1.4-0.1,2-0.2
		C157.9,323.6,157.5,323.9,157.2,324.1L157.2,324.1z M135.6,335.5c-1.9,0.4,1.5,0.9,0.4,1.4c1.7,0,1.6-0.7,2.6-0.9
		C137,335.8,138.2,336.2,135.6,335.5L135.6,335.5z M153.7,327c-0.5,0.3,0.2,0.5-1.1,0.6c1,0.1,0.9,0.2,1.6,0.4
		c-1.9,0.1-0.7,0.4-2.1,0.7c2.3,0.8,0.9-1.1,4.5-0.3c-0.6-0.4-2.6-0.7-1.8-1.1c0.7,0.6,1.3,0.2,1.8-0.1
		C155.3,327,155,327.2,153.7,327L153.7,327z M148.6,329.6c0.6,0,1.9,0.1,1.8,0.3c1.6,0.1,1.4-0.5,2.2-0.7
		C150.9,329.2,150,329.5,148.6,329.6L148.6,329.6z M158.2,325.1c2.5-0.2,0.3-0.2,2.4,0.4c0.5-0.7,1.1-0.9,3.4-1.3
		c-0.9-0.1-1.7-0.3-1.6-0.4C159.7,323.7,160.2,324.7,158.2,325.1L158.2,325.1z M133.7,338c1.6-0.3,2.4-0.5,2.4-0.8
		C136.1,337.3,133.5,337.5,133.7,338L133.7,338z M121.8,343.7c1.2,0.1,1.8-0.1,2.2-0.3C121.9,343,122.5,343.6,121.8,343.7
		L121.8,343.7z M145.4,332.9c-1-0.4,1.4-0.3,1.5-0.8C145.1,331.7,143.4,332.6,145.4,332.9L145.4,332.9z M136.2,338.3
		c-0.2,0.1-0.4,0.2-0.7,0.3c0.4,0.1,0.8,0.1,1.2,0.2c0.2-0.1,0.4-0.2,0.7-0.3C137,338.4,136.6,338.4,136.2,338.3L136.2,338.3z
		 M124.2,348c0.9-0.2-0.5-0.4,0.4-0.6C123,347.3,122.3,347.7,124.2,348L124.2,348z M107.6,357.7c-1.5-0.1-1.3,0.5-2.1,0.7
		C107,358.5,106.8,357.9,107.6,357.7L107.6,357.7z M129.1,347.2c2.8-0.3,2-1.1,4.3-1.4C130,345.7,129.6,346.8,129.1,347.2
		L129.1,347.2z M122.2,350.3c2.7,0.2,2.4-0.8,3.7-1.1C122.7,348.9,123.7,350.2,122.2,350.3L122.2,350.3z M118.1,352.4
		c2.4,0.1,1.2-0.6,2.7-1C119.8,351.1,119,352.1,118.1,352.4L118.1,352.4z M160.6,336.3c-0.7,0.3-1.2,0.7,1.1,1
		C162.3,337,163.9,336.6,160.6,336.3L160.6,336.3z M137.5,349.3c1.2,0.1,1.3-0.3,2.2-0.3C137.6,348.5,138.1,349.2,137.5,349.3
		L137.5,349.3z M153.6,341.8c-1.4-0.2-1,0.4-1.7,0.5C153.3,342.5,152.9,342,153.6,341.8L153.6,341.8z M145.6,347.5
		c0.9,0.1-0.6,0.5-1.9,0.1c0.5,0.7-1.5,0.3-0.3,1.4c0.6,0.1,0.7,0,0.9-0.1c1.1,0.4,0.1,0.5-0.7,0.8c2.6,0.4,1.9-0.6,3.2-0.8
		c-4.1,0.1-0.6-1.6,1.8-0.9c-0.7-0.2-1.3-0.5-1.7-0.7c2.9,0.3-1-0.4,1.7-0.1c-0.5-0.3,0.7-0.6-2.2-0.9c-0.1,0.1,0.6,0.2,1,0.3
		c-0.9,0.1-0.3,0.9-2.5,0.5c-0.3,0.1-0.6,0.3-0.8,0.4C144.7,347.5,145.3,347.6,145.6,347.5L145.6,347.5z M144.1,349.5
		c-1-0.8-2.8,0.1-3.3,0.5C143.3,350.3,142.3,349.3,144.1,349.5L144.1,349.5z M141,350.3c-2.1,0-1.8,0.8-1.4,1.1
		C141.6,351.4,140.9,350.6,141,350.3L141,350.3z M143.7,350.5c-1.4-0.2-1.1,0.4-1.8,0.5C143.3,351.1,143,350.6,143.7,350.5
		L143.7,350.5z M137.5,358.8c0.9,0.3,2.3-0.7,2-1C136.9,357.9,138.1,358.4,137.5,358.8L137.5,358.8z M133.8,360.3
		c1.4,0.2,1.1-0.4,1.8-0.5C133.4,359.6,133.8,360.1,133.8,360.3L133.8,360.3z M147.2,355.9c-0.2,0.2,2.6,0.4,1.9,0.6
		c0.9,0.1,0.9-0.1,1.3-0.2C149,356,148,355.9,147.2,355.9L147.2,355.9z M179,356.4c0.7,0.2,2.6-0.4,3.2-0.8
		C179.1,355.4,180.3,356,179,356.4L179,356.4z M187.7,352c1.3,0.2,1.7,0,2-0.2C188.4,351.5,188,351.8,187.7,352L187.7,352z
		 M176.7,357.6c-0.5,0.2-0.9,0.4-0.4,0.6C177.2,358.3,178.8,357.8,176.7,357.6L176.7,357.6z M200.4,346.3c1.3,0.2,0.9-0.3,1.4-0.3
		c0.7,0.1,0.2,0.2,0.1,0.3c6-0.8,5.1-3,9.7-3.7c-2.9-0.4-7,0.6-6,1.5C202.7,344.3,200.8,345.6,200.4,346.3L200.4,346.3z
		 M186.3,353.5c2,0.4,1.5-0.2,2.2-0.3C187.4,353.2,186.7,353.3,186.3,353.5L186.3,353.5z M175.4,363.8c-1.8-0.2-0.5,0.4-1,0.5
		C175.9,364.4,175.2,364,175.4,363.8L175.4,363.8z M171,365.7c1.1,0.1,1.6,0.1,1.9-0.1C171.2,365.2,171.4,365.5,171,365.7L171,365.7
		z M206.3,348.4c2.8-0.3,3.5-1.2,4.4-1.8C208.2,346.9,207.3,347.8,206.3,348.4L206.3,348.4z M206.2,348.5c-1.1,0.2-2.4,0.8-2.1,1.1
		C205.5,349.6,206.6,348.9,206.2,348.5L206.2,348.5z M192.8,355c1.3,0.2,1.7,0,2-0.2C192.9,354.3,193.3,354.9,192.8,355L192.8,355z
		 M180.4,361.7c-1.6-0.1-1.4,0.5-2.2,0.7C179.7,362.5,179.5,361.9,180.4,361.7L180.4,361.7z M190.7,358c0.8,0.5,2.8-0.2,2.2-0.3
		C191.2,357.4,192.3,358.3,190.7,358L190.7,358z M185.2,360.8c2,0.3,1.9-0.3,2.7-0.6C185.4,360.1,187.2,360.7,185.2,360.8
		L185.2,360.8z M181.7,363C184.5,362.9,180.9,362.1,181.7,363L181.7,363L181.7,363z M213.9,346.6c2.7,0.3,3.8-0.1,4.5-0.7
		C215.6,345.5,214.7,346.1,213.9,346.6L213.9,346.6z M209.5,348.8c0.8,0.1,2-0.2,2.1,0.1c1.5,0,0.4-0.6,2.2-0.7
		c-2.9-0.3-0.4-0.7,1.3-0.7c-0.7-0.1-1-0.2-1-0.3C211.3,347.5,211.6,348.2,209.5,348.8L209.5,348.8z M201.6,352.9
		c1-0.1,1.7,0.3,3.2,0c-0.5-0.1-0.6-0.1-0.8,0c-0.8-0.2-0.1-0.3,0.1-0.4C202.2,352.1,202.3,352.6,201.6,352.9L201.6,352.9z
		 M221.1,343.3c0.1,0.4,1.8,0.2,2.6,0.3c1.3-0.2-0.2-0.8,1.3-0.7C222.8,342.3,224.2,343.7,221.1,343.3L221.1,343.3z M249.1,330.6
		c2.3-0.4,3.4-1.1,4.2-1.8C251.9,329.1,248.1,329.8,249.1,330.6L249.1,330.6z M255.6,326.9c-1.4-0.1-0.3,0.1,0.1,0.3
		c-1.2,0.3-1.4,0.5-1,0.5c-0.3,0.1-0.3,0.4-0.7,0.4c1.4,0.2,1-0.4,1.7-0.5c-0.1,0-0.2,0-0.3,0c0.2,0,0.5-0.1,0.7-0.2
		c0.6,0,0.7,0,0.5-0.2c0.2,0,0.3-0.1,0.5-0.2C256.2,327.1,256.5,326.5,255.6,326.9L255.6,326.9L255.6,326.9z M256.2,327
		c-0.1-0.1-0.3-0.1-0.4-0.2l0.6,0.1L256.2,327L256.2,327z M143.9,302.5c2.8,0,1.9-0.9,3.7-1.1C144.8,301.4,145.6,302.1,143.9,302.5
		L143.9,302.5z M149.3,303.4c1.6,0.4,2.9-0.3,0.8-0.4C149.6,303,147.9,303.1,149.3,303.4L149.3,303.4z M164.9,300.6
		c-0.7,0-2.6-0.2-1.6-0.4c-1.8,0.3-3,0.9-1.8,1.7c1.9,0.2,0.8-0.9,3.3-0.5C163.3,301.3,164.1,300.9,164.9,300.6L164.9,300.6z
		 M100.9,336.8c-4.3,0.4-4.3,1.6-6,2.7C98.6,338.9,97.2,337.5,100.9,336.8L100.9,336.8z M87.9,344.6c-0.6-0.1-0.7,0-0.9,0.1
		c-2.1-0.2,0.1-0.3-2.1-0.5c-0.4,0.2,0.5,0.4-0.4,0.6c3.3-0.1,0.9,0.7,1.1,1C87.4,345.6,86.5,345.1,87.9,344.6L87.9,344.6z
		 M112.7,331.2c-0.3,0.3-3.2,0.4-2.7,1C111.2,332,113.2,331.6,112.7,331.2L112.7,331.2z M115.1,329.6c2.5-0.3,4.6-0.3,4.4-0.6
		c0.3-0.1,0.9-0.1,1.7-0.1c0.1,0.7-2,0.6-1.4,1.1c1,0.8,1.4-0.8,3.1-1.2c1.7,0.3,1.7-0.3,1.6-0.8c-2.2-0.1-0.3,0.4-2.2,0.7
		c-1.5,0-2.4,0.1-4.1-0.3C115.8,328.9,116.9,329.3,115.1,329.6L115.1,329.6z M125.7,325.8c0.3,0.1,0.3,0.3-0.1,0.4
		c0,0.3,1.1,0,1.1-0.2c2.5,0.2-0.6,0.4,1.9,0.6c1.2-0.1-0.9-0.6,0.7-0.3C128.6,326.1,127.9,326.1,125.7,325.8L125.7,325.8z
		 M122,341.2c0,0.4-0.9,0.4-1.6,0.8c0.9,0.5,0.5-0.7,2.6-0.1C121.2,341.5,124.3,341.6,122,341.2L122,341.2z M140.5,335.4
		c-0.9-0.6,2.7-1.2,2.4-1.6c-0.9,0-1.6,0.1-3.3-0.3c-0.6,0.4-1.2,0.7-2.4,0.8c3.6,0.4,2.5-0.1,4-0.5c0.5,0.2-0.3,1.2-2.4,0.8
		c0.8,0.5,0,0.5-0.3,0.9c1.4,0.2,0.8-0.5,2.6-0.1c1.8,0.3-3.4-0.1-0.1,0.4c-0.9-0.4,0.6-0.1,1.7-0.1c-0.6-0.2,0.4-0.5-0.2-0.7
		C141.2,335,141.6,335.5,140.5,335.4L140.5,335.4z M162.5,342.5c-0.6,0.2-1.5-0.5-0.7,0.3C162.1,343.1,164.2,341.8,162.5,342.5
		L162.5,342.5z M157.7,352.9c-2.5-0.4-1.2,0.3-1.6,0.4C157.5,353.4,156.1,352.9,157.7,352.9L157.7,352.9z M211,344.5
		c0-0.1,0.4,0,0.8,0c0.3-0.1-0.1-0.1-0.4-0.2c-0.4-0.1-0.8-0.1-1.2-0.2c0.7,0.2,0.2,0.6,1.9,0.6C212.2,344.7,211.5,344.6,211,344.5
		L211,344.5z M198.6,347.2c1.8,0.1,3.5-0.1,2.8-0.6c-0.7,0-1.4,0.1-1.4-0.1c-1.3-0.2-2,0.5-0.1,0.4c-1.4,0-2.4,0.2-2.8,0.6
		c1,0.1,1-0.2,2.7,0.2c-0.5-0.2-1.5-0.5,0.5-0.3C200.4,347.3,199.6,347.4,198.6,347.2L198.6,347.2z M206.7,345.9
		c-0.9,1-5.9,1.9-3.3,2.9c1.4-1.2,1.9-1.7,6-2.7C209.2,345.7,208.3,346.3,206.7,345.9L206.7,345.9z M198.1,355.8
		c-0.9-0.1-0.9,0.1-1.3,0.2c2.2-1.9-3.2,0.3-3.3,0.9C194.7,356.6,196.7,356.2,198.1,355.8L198.1,355.8z M208.6,349.7
		c-1.5-0.1-1.2,0.4-1.9,0.6c0.9,0.1,1.9-0.4,2.3,0C210.4,350.4,208.2,349.8,208.6,349.7L208.6,349.7z M242.2,333.4
		c2.9,0.3,1.7-0.5,3.3-0.5C243.7,332.5,243,333.2,242.2,333.4L242.2,333.4z M246.1,331.8c-0.7,0.2,0.4,0.5-0.7,0.8
		C244.4,332.8,248.7,332.1,246.1,331.8L246.1,331.8z M170.4,293c1,0.5-3.1,0.5-0.6,1.1c3,0.5,2.5-0.4,3.6-0.6
		C171.9,293.5,171.9,293.3,170.4,293L170.4,293z M257.9,325.8c-0.2,0.1-0.4,0.3-0.6,0.4c-0.3-0.1-0.5-0.2-0.6-0.2
		C257,325.8,257.5,325.8,257.9,325.8L257.9,325.8z M149.6,306.4c1.8,0.3,1-0.4,3,0c-1.6-0.6,1-1.1,1.6-1.6c6.8,0,1.4-1.7,5.2-2.3
		C153.1,303.4,154,305.3,149.6,306.4L149.6,306.4z M115.5,327.4c1.1,0.6-3.2,0.6-0.2,1.3c-2.6-0.1-3.9,0.6-2.9,1.1
		c2.3-0.3,4.6-1.3,5.1-1.8C114.7,328.1,117.9,327.8,115.5,327.4L115.5,327.4z M94.3,341.8c1.4,0.3,1.1-0.2,1.5,0
		c2.4,0.2-0.9-0.5-1.6-0.4c0-0.3,1.3-0.1,1.4-0.3c0.4,0.1,0.8,0.2,1.6,0.4c-2.3-0.8,2.9-0.5,1.7-1.3c-0.9-0.1-0.7,0.2-1.7,0.1
		c-0.1-0.4,1.1-0.5,1.2-1c-1.7,0-1.6,0.7-2.6,0.9c0.6,0.1,1.2,0.2,1.8,0.3c-0.9,0.3-2.5-0.1-3.6,0.6c-2.4-0.3,0-0.5,0-0.8
		c-2.4,0.2-2.4,0.6-4.4,1.1c0.7,0.2,1,0.3,0.7,0.4c1.6,0.2,2.3,0.1,1.5,0.4c1.2,0.2,1.4,0.1,1.7-0.1
		C91.8,343.5,96.4,342.6,94.3,341.8L94.3,341.8z M120.5,326.4c-0.5,0.2,2,0.4,2.8,0.6c0.6-0.2,1-0.4-1-0.7
		C122.2,326.5,121.6,326.5,120.5,326.4L120.5,326.4z M194.8,348.4c-0.9,0.8-1.4,1.2-1.2,2.2c1.6-0.7,4.5-1.6,5.3-2.7
		c-4.1-0.5-0.1,0.5-2.2,0.7C196,348.4,195.7,348.5,194.8,348.4L194.8,348.4z M263.7,313.8c-0.3,0.2-1,0.4-0.5,0.5
		c0.4-0.1,0.6,0,0.8,0.1c0.3-0.2,0.6-0.3,0.9-0.5C264.5,314,264.1,313.9,263.7,313.8L263.7,313.8z M266.1,323.4
		c-0.3,0.3-2.2,0.8-1.4,1C265.6,324,267,323.8,266.1,323.4L266.1,323.4z M169.7,345.6c-0.6-0.1-0.5-0.3,0.3-0.2
		c0,0.1,0.4,0.3,1.5,0.5c0,0.4-3.6-0.1-3.1-0.4C168.8,345.5,169.5,345.7,169.7,345.6L169.7,345.6z M167.7,346.6
		c-0.8-0.1-1.6-0.3-2.4-0.4c0.6-0.1,0.2-0.5,1.4-0.3C166.4,346.1,169.1,346.4,167.7,346.6L167.7,346.6z M141.4,356.8
		c-0.3,0.2-0.7,0.4-2,0.2c0-0.1,0.3-0.2-0.3-0.3c-0.1,0-0.3,0.1-0.8,0C138.6,356.5,140.3,356.8,141.4,356.8L141.4,356.8z
		 M154.1,349.2c2.5,0.6-1.1,1-2.3,1.2C152,349.6,154.5,349.9,154.1,349.2L154.1,349.2z M171.2,339.3c-2.5-0.4,0.7-0.7,0.6-1.1
		C174.3,338.5,171.1,338.9,171.2,339.3L171.2,339.3z M174,337.4C173.5,336.8,177.3,337.1,174,337.4L174,337.4L174,337.4z
		 M163.4,341.2c1.1-0.2,0.6,0.3,1.5,0.5c1.4-0.3,1.1-1.4,3.8-1.1c-2.7,0.4-1.3,1.7-6.1,1.1C163.5,341.4,162,341.2,163.4,341.2
		L163.4,341.2z M168.1,339.6c-1.1,0.3-0.8,1.2-3.3,0.9C164.4,340.2,166,339.5,168.1,339.6L168.1,339.6z M153.6,322.3
		c-1.5-0.1-1.3,0.5-2.1,0.7C148.8,322.5,153,321.8,153.6,322.3L153.6,322.3z"/>
	<g>
		<path class="st2" d="M429.6,237.7l3.3-20.4c0.4-2.3-0.3-3.1-1.6-4.6c-0.2-0.3-0.5-0.5-0.7-0.8l-60.1-65.7l5.7-35.1l0.4-2.3
			l-2.3-0.4l-2.6-0.4l-2.3-0.4l-0.4,2.3l-5.6,34.7c-0.1,0.4-0.1,0.7-0.2,1.1c-0.2,1.1-0.2,1.7,0,2.5c0.2,1,0.6,1.4,1.4,2.2l0.5,0.5
			l0.8,0.8l59.9,65.2l-2.8,17.3l-7.2-1.2l-2.3-0.4l-0.4,2.3l-0.5,2.6l-0.4,2.3l2.3,0.4l9.5,1.6c1.6,0.3,2.9,0,3.9-0.8
			C428.8,240.3,429.4,239.1,429.6,237.7L429.6,237.7z"/>
		<path class="st3" d="M424.1,237l-9.5-1.5l0.1,0.5l9.7,1.6c0.6,0.1,1.1-0.2,1.3-0.9l3.2-19.8c0.1-0.7-0.3-1.1-0.7-1.6l-60.9-66.6
			c-0.5-0.6-1.2-1.1-1-2.4l3.6-22.1l-0.5-0.1l-3.6,22.4c-0.2,1.1,0.3,1.6,1,2.4l61.1,66.8c0.3,0.3,0.6,0.6,0.5,1.1l-3.2,19.5
			C425,236.8,424.5,237.1,424.1,237L424.1,237z"/>
		<path class="st4" d="M414.7,237.7l9.9,1.6c1,0.2,2.2-0.5,2.4-1.8l3.4-20.8c0.2-1.2-0.7-1.9-1.3-2.6l-60.7-66.4l0,0l0,0
			c-0.3-0.4-0.6-0.8-0.5-1.6l3.5-21.6l-1-0.2l-3.6,22c-0.2,1,0.4,1.6,0.8,2h0l0,0l60.8,66.5c0.6,0.6,1.1,1.1,0.9,1.9l-3.3,20.4
			c-0.1,0.7-0.9,1.3-1.5,1.1l-9.8-1.6L414.7,237.7L414.7,237.7z"/>
		<path class="st5" d="M414.7,236l9.6,1.6c0.5,0.1,1.1-0.3,1.2-0.9l3.2-19.9c0.1-0.7-0.4-1.2-0.8-1.6l-61-66.7h0h0
			c-0.5-0.6-1-1.1-0.8-2.2l3.6-22.1l0.6,0.1c-1.2,7.3-2.7,14.6-3.6,21.9c-0.1,1,0.2,1.4,0.7,2l60.9,66.6c0.5,0.5,1.1,1.1,0.9,1.9
			l-3.3,20.3c-0.1,0.7-0.7,1.3-1.5,1.2l-9.8-1.6L414.7,236L414.7,236z"/>
		
			<linearGradient id="SVGID_3_" gradientUnits="userSpaceOnUse" x1="252.5253" y1="586.1265" x2="299.9675" y2="515.7906" gradientTransform="matrix(1.2011 -0.5305 -0.9709 -0.884 579.7995 717.5844)">
			<stop  offset="1.000000e-02" style="stop-color:#081112"/>
			<stop  offset="0.99" style="stop-color:#344043"/>
		</linearGradient>
		<path class="st6" d="M369.9,127.3c8.4,1.4,23.2-47.7,25.3-60.6c2.1-12.9-3-24.4-11.4-25.8c-8.4-1.4-16.9,8-19,20.8
			C362.7,74.6,361.5,125.9,369.9,127.3L369.9,127.3z"/>
		
			<linearGradient id="SVGID_4_" gradientUnits="userSpaceOnUse" x1="1860.0349" y1="1400.7639" x2="2154.3545" y2="964.4172" gradientTransform="matrix(0.1933 -8.540000e-02 -0.1563 -0.1423 174.5304 423.971)">
			<stop  offset="1.000000e-02" style="stop-color:#000000"/>
			<stop  offset="0.7842" style="stop-color:#ACBAC0"/>
			<stop  offset="0.99" style="stop-color:#000000"/>
		</linearGradient>
		<path class="st7" d="M369.9,127.3L369.9,127.3c8.4,1.4,23.2-47.7,25.3-60.6c2.1-12.9-3-24.4-11.4-25.8c8.1,1.9,11.8,12,9.8,24.9
			C391.5,78.6,377.7,127.5,369.9,127.3L369.9,127.3L369.9,127.3z"/>
		
			<linearGradient id="SVGID_5_" gradientUnits="userSpaceOnUse" x1="1137.8101" y1="1041.874" x2="1317.052" y2="776.137" gradientTransform="matrix(0.3178 -0.1404 -0.2569 -0.2339 219.3125 468.7364)">
			<stop  offset="0" style="stop-color:#000000"/>
			<stop  offset="0.79" style="stop-color:#ACBAC0"/>
			<stop  offset="1" style="stop-color:#000000"/>
		</linearGradient>
		<path class="st8" d="M383.8,40.9c-8.4-1.4-16.9,8-19,20.9c-2.1,12.9-3.3,64.1,5.1,65.5c-8.6-4.3-2.9-58.8-1.6-66.6
			C370.4,47.8,376.6,40.7,383.8,40.9L383.8,40.9z"/>
		
			<linearGradient id="SVGID_6_" gradientUnits="userSpaceOnUse" x1="252.6783" y1="585.843" x2="300.0688" y2="515.5837" gradientTransform="matrix(1.2011 -0.5305 -0.9709 -0.884 579.7995 717.5844)">
			<stop  offset="1.000000e-02" style="stop-color:#000000"/>
			<stop  offset="0.7842" style="stop-color:#ACBAC0"/>
			<stop  offset="0.99" style="stop-color:#000000"/>
		</linearGradient>
		<path class="st9" d="M369.9,127.3c6.6-0.3,19.1-48.6,21.1-61.5c2.1-12.9-1.7-22.2-7.2-24.8c4.4,5.5,3.8,10.8,1.8,23.6
			C383.5,77.4,374.9,124.1,369.9,127.3L369.9,127.3z"/>
		
			<linearGradient id="SVGID_7_" gradientUnits="userSpaceOnUse" x1="1441.963" y1="2182.0476" x2="1441.963" y2="2381.9426" gradientTransform="matrix(0.1669 2.720000e-02 1.730000e-02 -0.106 72.6604 429.1867)">
			<stop  offset="0.33" style="stop-color:#000000"/>
			<stop  offset="0.67" style="stop-color:#898989"/>
		</linearGradient>
		<path class="st10" d="M284.8,226.3c44.2,7.2,88.4,14.4,132.6,21.6c0.4,0.1,0.7-0.1,0.8-0.3c2-6.8,3.2-13.6,3.3-20.4
			c0-0.2-0.3-0.4-0.7-0.5c-44.2-7.2-88.4-14.4-132.6-21.6c-0.4-0.1-0.7,0.1-0.8,0.3c-2.1,6.5-3.1,13.3-3.3,20.4
			C284.1,226,284.4,226.2,284.8,226.3L284.8,226.3z"/>
		
			<linearGradient id="SVGID_8_" gradientUnits="userSpaceOnUse" x1="1491.9423" y1="1473.5974" x2="1493.1073" y2="1269.4669" gradientTransform="matrix(0.161 2.620000e-02 3.520000e-02 -0.216 64.2293 483.6634)">
			<stop  offset="0" style="stop-color:#004A99"/>
			<stop  offset="0.7515" style="stop-color:#00BFFF"/>
			<stop  offset="1" style="stop-color:#003C7D"/>
		</linearGradient>
		<path class="st11" d="M285.3,237.7c42.6,6.9,85.3,13.9,128,20.8c0.4,0.1,0.7-0.2,0.8-0.7c3.2-14,5.5-27.8,6.8-41.6
			c0-0.4-0.2-0.8-0.6-0.9c-42.7-6.9-85.3-13.9-128-20.8c-0.4-0.1-0.7,0.2-0.8,0.7c-3.2,13.4-5.4,27.3-6.8,41.6
			C284.7,237.2,284.9,237.6,285.3,237.7L285.3,237.7z"/>
	</g>
</g>
</svg>
