<?xml version="1.0" encoding="utf-8"?>
<!-- Generator: Adobe Illustrator 24.0.1, SVG Export Plug-In . SVG Version: 6.00 Build 0)  -->
<svg version="1.1" id="Layer_1" xmlns="http://www.w3.org/2000/svg" xmlns:xlink="http://www.w3.org/1999/xlink" x="0px" y="0px"
	 viewBox="0 0 500 500" style="enable-background:new 0 0 500 500;" xml:space="preserve">
<style type="text/css">
	.st0{fill-rule:evenodd;clip-rule:evenodd;fill:url(#SVGID_1_);}
	.st1{fill-rule:evenodd;clip-rule:evenodd;fill:url(#SVGID_2_);}
	.st2{fill-rule:evenodd;clip-rule:evenodd;fill:url(#SVGID_3_);}
	.st3{fill-rule:evenodd;clip-rule:evenodd;fill:url(#SVGID_4_);}
	.st4{fill-rule:evenodd;clip-rule:evenodd;fill:url(#SVGID_5_);}
	.st5{fill-rule:evenodd;clip-rule:evenodd;fill:url(#SVGID_6_);}
	.st6{fill-rule:evenodd;clip-rule:evenodd;fill:url(#SVGID_7_);}
	.st7{fill-rule:evenodd;clip-rule:evenodd;fill:url(#SVGID_8_);}
	.st8{fill-rule:evenodd;clip-rule:evenodd;fill:url(#SVGID_9_);}
	.st9{fill-rule:evenodd;clip-rule:evenodd;fill:url(#SVGID_10_);}
	.st10{fill-rule:evenodd;clip-rule:evenodd;fill:url(#SVGID_11_);}
	.st11{fill-rule:evenodd;clip-rule:evenodd;fill:url(#SVGID_12_);}
	.st12{fill-rule:evenodd;clip-rule:evenodd;fill:url(#SVGID_13_);}
	.st13{fill-rule:evenodd;clip-rule:evenodd;fill:url(#SVGID_14_);}
	.st14{fill-rule:evenodd;clip-rule:evenodd;fill:url(#SVGID_15_);}
	.st15{fill-rule:evenodd;clip-rule:evenodd;fill:url(#SVGID_16_);}
	.st16{fill-rule:evenodd;clip-rule:evenodd;fill:url(#SVGID_17_);}
	.st17{fill-rule:evenodd;clip-rule:evenodd;fill:url(#SVGID_18_);}
	.st18{fill-rule:evenodd;clip-rule:evenodd;fill:url(#SVGID_19_);}
	.st19{fill-rule:evenodd;clip-rule:evenodd;fill:url(#SVGID_20_);}
	.st20{fill-rule:evenodd;clip-rule:evenodd;fill:url(#SVGID_21_);}
	.st21{fill-rule:evenodd;clip-rule:evenodd;fill:url(#SVGID_22_);}
	.st22{fill-rule:evenodd;clip-rule:evenodd;fill:url(#SVGID_23_);}
	.st23{fill-rule:evenodd;clip-rule:evenodd;fill:url(#SVGID_24_);}
	.st24{fill-rule:evenodd;clip-rule:evenodd;fill:url(#SVGID_25_);}
	.st25{fill-rule:evenodd;clip-rule:evenodd;fill:url(#SVGID_26_);}
	.st26{fill-rule:evenodd;clip-rule:evenodd;fill:url(#SVGID_27_);}
	.st27{fill-rule:evenodd;clip-rule:evenodd;fill:url(#SVGID_28_);}
	.st28{fill-rule:evenodd;clip-rule:evenodd;fill:url(#SVGID_29_);}
	.st29{fill-rule:evenodd;clip-rule:evenodd;fill:url(#SVGID_30_);}
	.st30{fill-rule:evenodd;clip-rule:evenodd;fill:url(#SVGID_31_);}
	.st31{fill-rule:evenodd;clip-rule:evenodd;fill:url(#SVGID_32_);}
	.st32{fill-rule:evenodd;clip-rule:evenodd;fill:url(#SVGID_33_);}
	.st33{fill-rule:evenodd;clip-rule:evenodd;fill:url(#SVGID_34_);}
	.st34{fill-rule:evenodd;clip-rule:evenodd;fill:url(#SVGID_35_);}
	.st35{fill-rule:evenodd;clip-rule:evenodd;fill:url(#SVGID_36_);}
	.st36{fill-rule:evenodd;clip-rule:evenodd;fill:url(#SVGID_37_);}
	.st37{fill-rule:evenodd;clip-rule:evenodd;fill:url(#SVGID_38_);}
	.st38{fill-rule:evenodd;clip-rule:evenodd;fill:url(#SVGID_39_);}
	.st39{fill-rule:evenodd;clip-rule:evenodd;fill:url(#SVGID_40_);}
	.st40{fill-rule:evenodd;clip-rule:evenodd;fill:url(#SVGID_41_);}
	.st41{fill-rule:evenodd;clip-rule:evenodd;fill:url(#SVGID_42_);}
</style>
<linearGradient id="SVGID_1_" gradientUnits="userSpaceOnUse" x1="186.8736" y1="341.8498" x2="247.1141" y2="341.8498">
	<stop  offset="5.618000e-03" style="stop-color:#BBBCBE"/>
	<stop  offset="0.2921" style="stop-color:#989CA0"/>
	<stop  offset="0.6517" style="stop-color:#BFBEC2"/>
	<stop  offset="0.8652" style="stop-color:#9EA0A4"/>
	<stop  offset="1" style="stop-color:#A7A9AC"/>
	<stop  offset="1" style="stop-color:#C3C6CA"/>
</linearGradient>
<polygon class="st0" points="209.1,373.3 223.6,354.1 246.3,362 232.5,342.3 247.1,323.1 224.1,330.2 210.4,310.4 209.9,334.5 
	186.9,341.4 209.6,349.2 209.1,373.3 "/>
<linearGradient id="SVGID_2_" gradientUnits="userSpaceOnUse" x1="137.4583" y1="317.1375" x2="189.6791" y2="317.1375">
	<stop  offset="5.618000e-03" style="stop-color:#BBBCBE"/>
	<stop  offset="0.2921" style="stop-color:#989CA0"/>
	<stop  offset="0.6517" style="stop-color:#BFBEC2"/>
	<stop  offset="0.8652" style="stop-color:#9EA0A4"/>
	<stop  offset="1" style="stop-color:#A7A9AC"/>
	<stop  offset="1" style="stop-color:#C3C6CA"/>
</linearGradient>
<polygon class="st1" points="156.7,344.4 169.3,327.8 189,334.6 177,317.5 189.7,300.9 169.7,307 157.8,289.9 157.4,310.7 
	137.5,316.7 157.2,323.5 156.7,344.4 "/>
<linearGradient id="SVGID_3_" gradientUnits="userSpaceOnUse" x1="107.9645" y1="300.0344" x2="141.2942" y2="300.0344">
	<stop  offset="5.618000e-03" style="stop-color:#BBBCBE"/>
	<stop  offset="0.2921" style="stop-color:#989CA0"/>
	<stop  offset="0.6517" style="stop-color:#BFBEC2"/>
	<stop  offset="0.8652" style="stop-color:#9EA0A4"/>
	<stop  offset="1" style="stop-color:#A7A9AC"/>
	<stop  offset="1" style="stop-color:#C3C6CA"/>
</linearGradient>
<polygon class="st2" points="118.4,320.8 127.2,307.5 139,311.6 132.5,299.3 141.3,285.9 128.6,291.7 122.1,279.3 120.7,295.2 
	108,300.8 119.9,304.9 118.4,320.8 "/>
<linearGradient id="SVGID_4_" gradientUnits="userSpaceOnUse" x1="80.5917" y1="285.1895" x2="104.7271" y2="285.1895">
	<stop  offset="5.618000e-03" style="stop-color:#BBBCBE"/>
	<stop  offset="0.2921" style="stop-color:#989CA0"/>
	<stop  offset="0.6517" style="stop-color:#BFBEC2"/>
	<stop  offset="0.8652" style="stop-color:#9EA0A4"/>
	<stop  offset="1" style="stop-color:#A7A9AC"/>
	<stop  offset="1" style="stop-color:#C3C6CA"/>
</linearGradient>
<polygon class="st3" points="88.2,300.2 94.5,290.6 103.1,293.6 98.4,284.6 104.7,275 95.5,279.1 90.8,270.1 89.8,281.7 80.6,285.8 
	89.2,288.7 88.2,300.2 "/>
<linearGradient id="SVGID_5_" gradientUnits="userSpaceOnUse" x1="249.6487" y1="357.3986" x2="301.8688" y2="357.3986">
	<stop  offset="5.618000e-03" style="stop-color:#BBBCBE"/>
	<stop  offset="0.2921" style="stop-color:#989CA0"/>
	<stop  offset="0.6517" style="stop-color:#BFBEC2"/>
	<stop  offset="0.8652" style="stop-color:#9EA0A4"/>
	<stop  offset="1" style="stop-color:#A7A9AC"/>
	<stop  offset="1" style="stop-color:#C3C6CA"/>
</linearGradient>
<polygon class="st4" points="268.9,384.7 269.4,363.8 249.6,357 269.6,351 270,330.1 281.9,347.3 301.9,341.2 289.2,357.8 
	301.2,374.9 281.5,368 268.9,384.7 "/>
<linearGradient id="SVGID_6_" gradientUnits="userSpaceOnUse" x1="309.3909" y1="366.0907" x2="342.7213" y2="366.0907">
	<stop  offset="5.618000e-03" style="stop-color:#BBBCBE"/>
	<stop  offset="0.2921" style="stop-color:#989CA0"/>
	<stop  offset="0.6517" style="stop-color:#BFBEC2"/>
	<stop  offset="0.8652" style="stop-color:#9EA0A4"/>
	<stop  offset="1" style="stop-color:#A7A9AC"/>
	<stop  offset="1" style="stop-color:#C3C6CA"/>
</linearGradient>
<polygon class="st5" points="319.9,386.9 321.3,371 309.4,366.9 322.1,361.2 323.5,345.3 330,357.7 342.7,352 334,365.3 
	340.5,377.7 328.6,373.5 319.9,386.9 "/>
<linearGradient id="SVGID_7_" gradientUnits="userSpaceOnUse" x1="350.3854" y1="369.7934" x2="374.5208" y2="369.7934">
	<stop  offset="5.618000e-03" style="stop-color:#BBBCBE"/>
	<stop  offset="0.2921" style="stop-color:#989CA0"/>
	<stop  offset="0.6517" style="stop-color:#BFBEC2"/>
	<stop  offset="0.8652" style="stop-color:#9EA0A4"/>
	<stop  offset="1" style="stop-color:#A7A9AC"/>
	<stop  offset="1" style="stop-color:#C3C6CA"/>
</linearGradient>
<polygon class="st6" points="358,384.8 359,373.3 350.4,370.4 359.6,366.3 360.6,354.8 365.3,363.7 374.5,359.6 368.2,369.2 
	372.9,378.2 364.3,375.2 358,384.8 "/>
<linearGradient id="SVGID_8_" gradientUnits="userSpaceOnUse" x1="176.5084" y1="399.8004" x2="218.6548" y2="399.8004">
	<stop  offset="5.618000e-03" style="stop-color:#BBBCBE"/>
	<stop  offset="0.2921" style="stop-color:#989CA0"/>
	<stop  offset="0.6517" style="stop-color:#BFBEC2"/>
	<stop  offset="0.8652" style="stop-color:#9EA0A4"/>
	<stop  offset="1" style="stop-color:#A7A9AC"/>
	<stop  offset="1" style="stop-color:#C3C6CA"/>
</linearGradient>
<polygon class="st7" points="192.1,421.8 202.2,408.4 218.1,413.9 208.5,400.1 218.7,386.7 202.5,391.6 192.9,377.8 192.6,394.6 
	176.5,399.5 192.4,405 192.1,421.8 "/>
<linearGradient id="SVGID_9_" gradientUnits="userSpaceOnUse" x1="137.3504" y1="380.5094" x2="173.8859" y2="380.5094">
	<stop  offset="5.618000e-03" style="stop-color:#BBBCBE"/>
	<stop  offset="0.2921" style="stop-color:#989CA0"/>
	<stop  offset="0.6517" style="stop-color:#BFBEC2"/>
	<stop  offset="0.8652" style="stop-color:#9EA0A4"/>
	<stop  offset="1" style="stop-color:#A7A9AC"/>
	<stop  offset="1" style="stop-color:#C3C6CA"/>
</linearGradient>
<polygon class="st8" points="150.8,399.6 159.6,387.9 173.4,392.8 165,380.8 173.9,369.2 159.9,373.4 151.6,361.4 151.3,376 
	137.4,380.2 151.2,385 150.8,399.6 "/>
<linearGradient id="SVGID_10_" gradientUnits="userSpaceOnUse" x1="113.9044" y1="358.024" x2="137.2233" y2="358.024">
	<stop  offset="5.618000e-03" style="stop-color:#BBBCBE"/>
	<stop  offset="0.2921" style="stop-color:#989CA0"/>
	<stop  offset="0.6517" style="stop-color:#BFBEC2"/>
	<stop  offset="0.8652" style="stop-color:#9EA0A4"/>
	<stop  offset="1" style="stop-color:#A7A9AC"/>
	<stop  offset="1" style="stop-color:#C3C6CA"/>
</linearGradient>
<polygon class="st9" points="121.2,372.6 127.3,363.2 135.6,366.1 131.1,357.5 137.2,348.2 128.3,352.2 123.8,343.5 122.8,354.6 
	113.9,358.6 122.2,361.4 121.2,372.6 "/>
<linearGradient id="SVGID_11_" gradientUnits="userSpaceOnUse" x1="92.8502" y1="331.6893" x2="109.736" y2="331.6893">
	<stop  offset="5.618000e-03" style="stop-color:#BBBCBE"/>
	<stop  offset="0.2921" style="stop-color:#989CA0"/>
	<stop  offset="0.6517" style="stop-color:#BFBEC2"/>
	<stop  offset="0.8652" style="stop-color:#9EA0A4"/>
	<stop  offset="1" style="stop-color:#A7A9AC"/>
	<stop  offset="1" style="stop-color:#C3C6CA"/>
</linearGradient>
<polygon class="st10" points="98.1,342.2 102.6,335.4 108.6,337.6 105.3,331.3 109.7,324.5 103.3,327.4 100,321.2 99.3,329.2 
	92.9,332.1 98.9,334.2 98.1,342.2 "/>
<linearGradient id="SVGID_12_" gradientUnits="userSpaceOnUse" x1="225.6542" y1="408.3018" x2="262.1897" y2="408.3018">
	<stop  offset="5.618000e-03" style="stop-color:#BBBCBE"/>
	<stop  offset="0.2921" style="stop-color:#989CA0"/>
	<stop  offset="0.6517" style="stop-color:#BFBEC2"/>
	<stop  offset="0.8652" style="stop-color:#9EA0A4"/>
	<stop  offset="1" style="stop-color:#A7A9AC"/>
	<stop  offset="1" style="stop-color:#C3C6CA"/>
</linearGradient>
<polygon class="st11" points="239.1,427.4 239.5,412.8 225.7,408 239.6,403.8 239.9,389.2 248.2,401.2 262.2,397 253.3,408.6 
	261.7,420.5 247.9,415.7 239.1,427.4 "/>
<linearGradient id="SVGID_13_" gradientUnits="userSpaceOnUse" x1="273.5551" y1="409.3152" x2="296.874" y2="409.3152">
	<stop  offset="5.618000e-03" style="stop-color:#BBBCBE"/>
	<stop  offset="0.2921" style="stop-color:#989CA0"/>
	<stop  offset="0.6517" style="stop-color:#BFBEC2"/>
	<stop  offset="0.8652" style="stop-color:#9EA0A4"/>
	<stop  offset="1" style="stop-color:#A7A9AC"/>
	<stop  offset="1" style="stop-color:#C3C6CA"/>
</linearGradient>
<polygon class="st12" points="280.9,423.8 281.9,412.7 273.6,409.9 282.5,405.9 283.4,394.8 288,403.4 296.9,399.4 290.7,408.8 
	295.3,417.4 287,414.5 280.9,423.8 "/>
<linearGradient id="SVGID_14_" gradientUnits="userSpaceOnUse" x1="312.4823" y1="405.2865" x2="329.3687" y2="405.2865">
	<stop  offset="5.618000e-03" style="stop-color:#BBBCBE"/>
	<stop  offset="0.2921" style="stop-color:#989CA0"/>
	<stop  offset="0.6517" style="stop-color:#BFBEC2"/>
	<stop  offset="0.8652" style="stop-color:#9EA0A4"/>
	<stop  offset="1" style="stop-color:#A7A9AC"/>
	<stop  offset="1" style="stop-color:#C3C6CA"/>
</linearGradient>
<polygon class="st13" points="317.8,415.8 318.5,407.8 312.5,405.7 318.9,402.8 319.6,394.8 322.9,401 329.4,398.1 324.9,404.9 
	328.2,411.1 322.2,409 317.8,415.8 "/>
<linearGradient id="SVGID_15_" gradientUnits="userSpaceOnUse" x1="202.7" y1="281.1251" x2="272.312" y2="281.1251">
	<stop  offset="5.618000e-03" style="stop-color:#BBBCBE"/>
	<stop  offset="0.2921" style="stop-color:#989CA0"/>
	<stop  offset="0.6517" style="stop-color:#BFBEC2"/>
	<stop  offset="0.8652" style="stop-color:#9EA0A4"/>
	<stop  offset="1" style="stop-color:#A7A9AC"/>
	<stop  offset="1" style="stop-color:#C3C6CA"/>
</linearGradient>
<polygon class="st14" points="228.4,317.5 245.1,295.3 271.4,304.5 255.5,281.7 272.3,259.5 245.7,267.6 229.8,244.8 229.3,272.6 
	202.7,280.6 229,289.7 228.4,317.5 "/>
<linearGradient id="SVGID_16_" gradientUnits="userSpaceOnUse" x1="144.8818" y1="254.6292" x2="205.2259" y2="254.6292">
	<stop  offset="5.618000e-03" style="stop-color:#BBBCBE"/>
	<stop  offset="0.2921" style="stop-color:#989CA0"/>
	<stop  offset="0.6517" style="stop-color:#BFBEC2"/>
	<stop  offset="0.8652" style="stop-color:#9EA0A4"/>
	<stop  offset="1" style="stop-color:#A7A9AC"/>
	<stop  offset="1" style="stop-color:#C3C6CA"/>
</linearGradient>
<polygon class="st15" points="167.1,286.1 181.7,266.9 204.4,274.9 190.6,255.1 205.2,235.9 182.2,242.9 168.4,223.1 168,247.2 
	144.9,254.2 167.7,262 167.1,286.1 "/>
<linearGradient id="SVGID_17_" gradientUnits="userSpaceOnUse" x1="105.8001" y1="238.0391" x2="144.3146" y2="238.0391">
	<stop  offset="5.618000e-03" style="stop-color:#BBBCBE"/>
	<stop  offset="0.2921" style="stop-color:#989CA0"/>
	<stop  offset="0.6517" style="stop-color:#BFBEC2"/>
	<stop  offset="0.8652" style="stop-color:#9EA0A4"/>
	<stop  offset="1" style="stop-color:#A7A9AC"/>
	<stop  offset="1" style="stop-color:#C3C6CA"/>
</linearGradient>
<polygon class="st16" points="117.9,262 128,246.6 141.7,251.4 134.2,237.1 144.3,221.7 129.6,228.4 122.1,214 120.5,232.4 
	105.8,238.9 119.5,243.7 117.9,262 "/>
<linearGradient id="SVGID_18_" gradientUnits="userSpaceOnUse" x1="72.8731" y1="226.5412" x2="100.7634" y2="226.5412">
	<stop  offset="5.618000e-03" style="stop-color:#BBBCBE"/>
	<stop  offset="0.2921" style="stop-color:#989CA0"/>
	<stop  offset="0.6517" style="stop-color:#BFBEC2"/>
	<stop  offset="0.8652" style="stop-color:#9EA0A4"/>
	<stop  offset="1" style="stop-color:#A7A9AC"/>
	<stop  offset="1" style="stop-color:#C3C6CA"/>
</linearGradient>
<polygon class="st17" points="81.6,243.9 88.9,232.7 98.9,236.2 93.4,225.9 100.8,214.7 90.1,219.5 84.7,209.2 83.5,222.5 
	72.9,227.2 82.8,230.6 81.6,243.9 "/>
<linearGradient id="SVGID_19_" gradientUnits="userSpaceOnUse" x1="274.9901" y1="299.8139" x2="335.3343" y2="299.8139">
	<stop  offset="5.618000e-03" style="stop-color:#BBBCBE"/>
	<stop  offset="0.2921" style="stop-color:#989CA0"/>
	<stop  offset="0.6517" style="stop-color:#BFBEC2"/>
	<stop  offset="0.8652" style="stop-color:#9EA0A4"/>
	<stop  offset="1" style="stop-color:#A7A9AC"/>
	<stop  offset="1" style="stop-color:#C3C6CA"/>
</linearGradient>
<polygon class="st18" points="297.3,331.3 297.8,307.2 275,299.4 298.1,292.4 298.5,268.3 312.3,288.1 335.3,281.1 320.7,300.3 
	334.6,320 311.8,312.1 297.3,331.3 "/>
<linearGradient id="SVGID_20_" gradientUnits="userSpaceOnUse" x1="335.2872" y1="317.7367" x2="373.8024" y2="317.7367">
	<stop  offset="5.618000e-03" style="stop-color:#BBBCBE"/>
	<stop  offset="0.2921" style="stop-color:#989CA0"/>
	<stop  offset="0.6517" style="stop-color:#BFBEC2"/>
	<stop  offset="0.8652" style="stop-color:#9EA0A4"/>
	<stop  offset="1" style="stop-color:#A7A9AC"/>
	<stop  offset="1" style="stop-color:#C3C6CA"/>
</linearGradient>
<polygon class="st19" points="347.4,341.7 349,323.4 335.3,318.6 350,312.1 351.6,293.7 359.1,308 373.8,301.4 363.7,316.8 
	371.2,331.1 357.5,326.3 347.4,341.7 "/>
<linearGradient id="SVGID_21_" gradientUnits="userSpaceOnUse" x1="377.876" y1="329.867" x2="405.7663" y2="329.867">
	<stop  offset="5.618000e-03" style="stop-color:#BBBCBE"/>
	<stop  offset="0.2921" style="stop-color:#989CA0"/>
	<stop  offset="0.6517" style="stop-color:#BFBEC2"/>
	<stop  offset="0.8652" style="stop-color:#9EA0A4"/>
	<stop  offset="1" style="stop-color:#A7A9AC"/>
	<stop  offset="1" style="stop-color:#C3C6CA"/>
</linearGradient>
<polygon class="st20" points="386.6,347.2 387.8,334 377.9,330.5 388.5,325.8 389.7,312.5 395.1,322.9 405.8,318.1 398.4,329.2 
	403.9,339.5 393.9,336.1 386.6,347.2 "/>
<linearGradient id="SVGID_22_" gradientUnits="userSpaceOnUse" x1="256.638" y1="158.4439" x2="316.8784" y2="158.4439">
	<stop  offset="5.618000e-03" style="stop-color:#BBBCBE"/>
	<stop  offset="0.2921" style="stop-color:#989CA0"/>
	<stop  offset="0.6517" style="stop-color:#BFBEC2"/>
	<stop  offset="0.8652" style="stop-color:#9EA0A4"/>
	<stop  offset="1" style="stop-color:#A7A9AC"/>
	<stop  offset="1" style="stop-color:#C3C6CA"/>
</linearGradient>
<polygon class="st21" points="294.7,127 294.1,151 316.9,158.9 293.8,165.8 293.4,189.9 279.7,170.1 256.6,177.1 271.2,158 
	257.4,138.3 280.1,146.2 294.7,127 "/>
<linearGradient id="SVGID_23_" gradientUnits="userSpaceOnUse" x1="202.6849" y1="144.4722" x2="254.9051" y2="144.4722">
	<stop  offset="5.618000e-03" style="stop-color:#BBBCBE"/>
	<stop  offset="0.2921" style="stop-color:#989CA0"/>
	<stop  offset="0.6517" style="stop-color:#BFBEC2"/>
	<stop  offset="0.8652" style="stop-color:#9EA0A4"/>
	<stop  offset="1" style="stop-color:#A7A9AC"/>
	<stop  offset="1" style="stop-color:#C3C6CA"/>
</linearGradient>
<polygon class="st22" points="235.6,117.2 235.2,138.1 254.9,144.9 234.9,150.9 234.5,171.7 222.6,154.6 202.7,160.7 215.3,144.1 
	203.4,127 223.1,133.9 235.6,117.2 "/>
<linearGradient id="SVGID_24_" gradientUnits="userSpaceOnUse" x1="168.0783" y1="132.7542" x2="201.4087" y2="132.7542">
	<stop  offset="5.618000e-03" style="stop-color:#BBBCBE"/>
	<stop  offset="0.2921" style="stop-color:#989CA0"/>
	<stop  offset="0.6517" style="stop-color:#BFBEC2"/>
	<stop  offset="0.8652" style="stop-color:#9EA0A4"/>
	<stop  offset="1" style="stop-color:#A7A9AC"/>
	<stop  offset="1" style="stop-color:#C3C6CA"/>
</linearGradient>
<polygon class="st23" points="190.9,112 189.5,127.9 201.4,132 188.7,137.6 187.3,153.5 180.8,141.1 168.1,146.9 176.8,133.5 
	170.3,121.2 182.2,125.3 190.9,112 "/>
<linearGradient id="SVGID_25_" gradientUnits="userSpaceOnUse" x1="131.8366" y1="122.3134" x2="155.972" y2="122.3134">
	<stop  offset="5.618000e-03" style="stop-color:#BBBCBE"/>
	<stop  offset="0.2921" style="stop-color:#989CA0"/>
	<stop  offset="0.6517" style="stop-color:#BFBEC2"/>
	<stop  offset="0.8652" style="stop-color:#9EA0A4"/>
	<stop  offset="1" style="stop-color:#A7A9AC"/>
	<stop  offset="1" style="stop-color:#C3C6CA"/>
</linearGradient>
<polygon class="st24" points="148.4,107.3 147.4,118.8 156,121.7 146.7,125.9 145.7,137.4 141.1,128.4 131.8,132.5 138.2,122.9 
	133.5,113.9 142.1,116.9 148.4,107.3 "/>
<linearGradient id="SVGID_26_" gradientUnits="userSpaceOnUse" x1="315.6796" y1="182.4148" x2="367.8997" y2="182.4148">
	<stop  offset="5.618000e-03" style="stop-color:#BBBCBE"/>
	<stop  offset="0.2921" style="stop-color:#989CA0"/>
	<stop  offset="0.6517" style="stop-color:#BFBEC2"/>
	<stop  offset="0.8652" style="stop-color:#9EA0A4"/>
	<stop  offset="1" style="stop-color:#A7A9AC"/>
	<stop  offset="1" style="stop-color:#C3C6CA"/>
</linearGradient>
<polygon class="st25" points="348.6,155.1 336.1,171.8 316.4,164.9 328.3,182 315.7,198.6 335.6,192.5 347.5,209.7 347.9,188.8 
	367.9,182.8 348.2,176 348.6,155.1 "/>
<linearGradient id="SVGID_27_" gradientUnits="userSpaceOnUse" x1="367.0905" y1="205.764" x2="400.4208" y2="205.764">
	<stop  offset="5.618000e-03" style="stop-color:#BBBCBE"/>
	<stop  offset="0.2921" style="stop-color:#989CA0"/>
	<stop  offset="0.6517" style="stop-color:#BFBEC2"/>
	<stop  offset="0.8652" style="stop-color:#9EA0A4"/>
	<stop  offset="1" style="stop-color:#A7A9AC"/>
	<stop  offset="1" style="stop-color:#C3C6CA"/>
</linearGradient>
<polygon class="st26" points="390,185 381.2,198.3 369.4,194.2 375.9,206.5 367.1,219.9 379.8,214.1 386.3,226.5 387.7,210.6 
	400.4,205 388.5,200.9 390,185 "/>
<linearGradient id="SVGID_28_" gradientUnits="userSpaceOnUse" x1="402.0473" y1="225.2451" x2="426.1833" y2="225.2451">
	<stop  offset="5.618000e-03" style="stop-color:#BBBCBE"/>
	<stop  offset="0.2921" style="stop-color:#989CA0"/>
	<stop  offset="0.6517" style="stop-color:#BFBEC2"/>
	<stop  offset="0.8652" style="stop-color:#9EA0A4"/>
	<stop  offset="1" style="stop-color:#A7A9AC"/>
	<stop  offset="1" style="stop-color:#C3C6CA"/>
</linearGradient>
<polygon class="st27" points="418.6,210.2 412.3,219.9 403.7,216.9 408.4,225.8 402,235.5 411.3,231.3 415.9,240.3 416.9,228.8 
	426.2,224.7 417.6,221.7 418.6,210.2 "/>
<linearGradient id="SVGID_29_" gradientUnits="userSpaceOnUse" x1="284.1446" y1="103.248" x2="326.291" y2="103.248">
	<stop  offset="5.618000e-03" style="stop-color:#BBBCBE"/>
	<stop  offset="0.2921" style="stop-color:#989CA0"/>
	<stop  offset="0.6517" style="stop-color:#BFBEC2"/>
	<stop  offset="0.8652" style="stop-color:#9EA0A4"/>
	<stop  offset="1" style="stop-color:#A7A9AC"/>
	<stop  offset="1" style="stop-color:#C3C6CA"/>
</linearGradient>
<polygon class="st28" points="310.7,81.2 310.4,98.1 326.3,103.6 310.2,108.4 309.9,125.3 300.3,111.4 284.1,116.3 294.3,102.9 
	284.7,89.1 300.6,94.7 310.7,81.2 "/>
<linearGradient id="SVGID_30_" gradientUnits="userSpaceOnUse" x1="243.6639" y1="93.2942" x2="280.1986" y2="93.2942">
	<stop  offset="5.618000e-03" style="stop-color:#BBBCBE"/>
	<stop  offset="0.2921" style="stop-color:#989CA0"/>
	<stop  offset="0.6517" style="stop-color:#BFBEC2"/>
	<stop  offset="0.8652" style="stop-color:#9EA0A4"/>
	<stop  offset="1" style="stop-color:#A7A9AC"/>
	<stop  offset="1" style="stop-color:#C3C6CA"/>
</linearGradient>
<polygon class="st29" points="266.7,74.2 266.4,88.8 280.2,93.6 266.2,97.8 266,112.4 257.6,100.4 243.7,104.6 252.5,93 244.1,81 
	257.9,85.9 266.7,74.2 "/>
<linearGradient id="SVGID_31_" gradientUnits="userSpaceOnUse" x1="208.5602" y1="86.279" x2="231.8791" y2="86.279">
	<stop  offset="5.618000e-03" style="stop-color:#BBBCBE"/>
	<stop  offset="0.2921" style="stop-color:#989CA0"/>
	<stop  offset="0.6517" style="stop-color:#BFBEC2"/>
	<stop  offset="0.8652" style="stop-color:#9EA0A4"/>
	<stop  offset="1" style="stop-color:#A7A9AC"/>
	<stop  offset="1" style="stop-color:#C3C6CA"/>
</linearGradient>
<polygon class="st30" points="224.6,71.7 223.6,82.9 231.9,85.7 223,89.7 222,100.8 217.5,92.1 208.6,96.1 214.7,86.8 210.1,78.2 
	218.5,81.1 224.6,71.7 "/>
<linearGradient id="SVGID_32_" gradientUnits="userSpaceOnUse" x1="176.7601" y1="89.7637" x2="193.6465" y2="89.7637">
	<stop  offset="5.618000e-03" style="stop-color:#BBBCBE"/>
	<stop  offset="0.2921" style="stop-color:#989CA0"/>
	<stop  offset="0.6517" style="stop-color:#BFBEC2"/>
	<stop  offset="0.8652" style="stop-color:#9EA0A4"/>
	<stop  offset="1" style="stop-color:#A7A9AC"/>
	<stop  offset="1" style="stop-color:#C3C6CA"/>
</linearGradient>
<polygon class="st31" points="188.3,79.2 187.6,87.3 193.6,89.4 187.2,92.2 186.5,100.3 183.2,94 176.8,96.9 181.2,90.2 177.9,83.9 
	183.9,86 188.3,79.2 "/>
<linearGradient id="SVGID_33_" gradientUnits="userSpaceOnUse" x1="326.5076" y1="122.0853" x2="363.0431" y2="122.0853">
	<stop  offset="5.618000e-03" style="stop-color:#BBBCBE"/>
	<stop  offset="0.2921" style="stop-color:#989CA0"/>
	<stop  offset="0.6517" style="stop-color:#BFBEC2"/>
	<stop  offset="0.8652" style="stop-color:#9EA0A4"/>
	<stop  offset="1" style="stop-color:#A7A9AC"/>
	<stop  offset="1" style="stop-color:#C3C6CA"/>
</linearGradient>
<polygon class="st32" points="349.6,103 340.8,114.7 327,109.8 335.3,121.8 326.5,133.4 340.5,129.2 348.8,141.2 349.1,126.6 
	363,122.4 349.2,117.6 349.6,103 "/>
<linearGradient id="SVGID_34_" gradientUnits="userSpaceOnUse" x1="364.2776" y1="145.6408" x2="387.5966" y2="145.6408">
	<stop  offset="5.618000e-03" style="stop-color:#BBBCBE"/>
	<stop  offset="0.2921" style="stop-color:#989CA0"/>
	<stop  offset="0.6517" style="stop-color:#BFBEC2"/>
	<stop  offset="0.8652" style="stop-color:#9EA0A4"/>
	<stop  offset="1" style="stop-color:#A7A9AC"/>
	<stop  offset="1" style="stop-color:#C3C6CA"/>
</linearGradient>
<polygon class="st33" points="380.3,131.1 374.2,140.5 365.9,137.5 370.4,146.2 364.3,155.5 373.2,151.5 377.7,160.2 378.7,149.1 
	387.6,145.1 379.3,142.2 380.3,131.1 "/>
<linearGradient id="SVGID_35_" gradientUnits="userSpaceOnUse" x1="394.6489" y1="174.8927" x2="411.5347" y2="174.8927">
	<stop  offset="5.618000e-03" style="stop-color:#BBBCBE"/>
	<stop  offset="0.2921" style="stop-color:#989CA0"/>
	<stop  offset="0.6517" style="stop-color:#BFBEC2"/>
	<stop  offset="0.8652" style="stop-color:#9EA0A4"/>
	<stop  offset="1" style="stop-color:#A7A9AC"/>
	<stop  offset="1" style="stop-color:#C3C6CA"/>
</linearGradient>
<polygon class="st34" points="406.2,164.4 401.8,171.1 395.8,169 399.1,175.3 394.6,182 401.1,179.1 404.4,185.4 405.1,177.4 
	411.5,174.5 405.5,172.4 406.2,164.4 "/>
<linearGradient id="SVGID_36_" gradientUnits="userSpaceOnUse" x1="231.2537" y1="219.1035" x2="300.8651" y2="219.1035">
	<stop  offset="5.618000e-03" style="stop-color:#BBBCBE"/>
	<stop  offset="0.2921" style="stop-color:#989CA0"/>
	<stop  offset="0.6517" style="stop-color:#BFBEC2"/>
	<stop  offset="0.8652" style="stop-color:#9EA0A4"/>
	<stop  offset="1" style="stop-color:#A7A9AC"/>
	<stop  offset="1" style="stop-color:#C3C6CA"/>
</linearGradient>
<polygon class="st35" points="275.2,182.7 274.6,210.6 300.9,219.6 274.2,227.6 273.7,255.5 257.9,232.6 231.3,240.7 248.1,218.6 
	232.2,195.8 258.4,204.9 275.2,182.7 "/>
<linearGradient id="SVGID_37_" gradientUnits="userSpaceOnUse" x1="169.622" y1="200.8977" x2="229.9661" y2="200.8977">
	<stop  offset="5.618000e-03" style="stop-color:#BBBCBE"/>
	<stop  offset="0.2921" style="stop-color:#989CA0"/>
	<stop  offset="0.6517" style="stop-color:#BFBEC2"/>
	<stop  offset="0.8652" style="stop-color:#9EA0A4"/>
	<stop  offset="1" style="stop-color:#A7A9AC"/>
	<stop  offset="1" style="stop-color:#C3C6CA"/>
</linearGradient>
<polygon class="st36" points="207.7,169.4 207.2,193.5 230,201.4 206.9,208.3 206.4,232.4 192.7,212.6 169.6,219.6 184.2,200.4 
	170.4,180.7 193.2,188.6 207.7,169.4 "/>
<linearGradient id="SVGID_38_" gradientUnits="userSpaceOnUse" x1="127.677" y1="181.7677" x2="166.1923" y2="181.7677">
	<stop  offset="5.618000e-03" style="stop-color:#BBBCBE"/>
	<stop  offset="0.2921" style="stop-color:#989CA0"/>
	<stop  offset="0.6517" style="stop-color:#BFBEC2"/>
	<stop  offset="0.8652" style="stop-color:#9EA0A4"/>
	<stop  offset="1" style="stop-color:#A7A9AC"/>
	<stop  offset="1" style="stop-color:#C3C6CA"/>
</linearGradient>
<polygon class="st37" points="154.1,157.8 152.5,176.1 166.2,180.9 151.5,187.4 149.9,205.8 142.4,191.5 127.7,198.1 137.8,182.7 
	130.3,168.4 144,173.2 154.1,157.8 "/>
<linearGradient id="SVGID_39_" gradientUnits="userSpaceOnUse" x1="95.2797" y1="166.8896" x2="123.17" y2="166.8896">
	<stop  offset="5.618000e-03" style="stop-color:#BBBCBE"/>
	<stop  offset="0.2921" style="stop-color:#989CA0"/>
	<stop  offset="0.6517" style="stop-color:#BFBEC2"/>
	<stop  offset="0.8652" style="stop-color:#9EA0A4"/>
	<stop  offset="1" style="stop-color:#A7A9AC"/>
	<stop  offset="1" style="stop-color:#C3C6CA"/>
</linearGradient>
<polygon class="st38" points="114.4,149.5 113.2,162.8 123.2,166.2 112.5,171 111.3,184.3 105.9,173.9 95.3,178.7 102.6,167.5 
	97.2,157.2 107.1,160.7 114.4,149.5 "/>
<linearGradient id="SVGID_40_" gradientUnits="userSpaceOnUse" x1="299.7303" y1="246.0827" x2="360.0745" y2="246.0827">
	<stop  offset="5.618000e-03" style="stop-color:#BBBCBE"/>
	<stop  offset="0.2921" style="stop-color:#989CA0"/>
	<stop  offset="0.6517" style="stop-color:#BFBEC2"/>
	<stop  offset="0.8652" style="stop-color:#9EA0A4"/>
	<stop  offset="1" style="stop-color:#A7A9AC"/>
	<stop  offset="1" style="stop-color:#C3C6CA"/>
</linearGradient>
<polygon class="st39" points="337.8,214.6 323.3,233.8 300.5,225.9 314.3,245.6 299.7,264.8 322.8,257.8 336.5,277.6 337,253.5 
	360.1,246.5 337.3,238.7 337.8,214.6 "/>
<linearGradient id="SVGID_41_" gradientUnits="userSpaceOnUse" x1="357.1641" y1="261.4653" x2="395.6793" y2="261.4653">
	<stop  offset="5.618000e-03" style="stop-color:#BBBCBE"/>
	<stop  offset="0.2921" style="stop-color:#989CA0"/>
	<stop  offset="0.6517" style="stop-color:#BFBEC2"/>
	<stop  offset="0.8652" style="stop-color:#9EA0A4"/>
	<stop  offset="1" style="stop-color:#A7A9AC"/>
	<stop  offset="1" style="stop-color:#C3C6CA"/>
</linearGradient>
<polygon class="st40" points="383.6,237.5 373.5,252.9 359.8,248.1 367.3,262.4 357.2,277.8 371.9,271.2 379.3,285.5 380.9,267.1 
	395.7,260.6 381.9,255.8 383.6,237.5 "/>
<linearGradient id="SVGID_42_" gradientUnits="userSpaceOnUse" x1="398.6733" y1="274.8509" x2="426.5637" y2="274.8509">
	<stop  offset="5.618000e-03" style="stop-color:#BBBCBE"/>
	<stop  offset="0.2921" style="stop-color:#989CA0"/>
	<stop  offset="0.6517" style="stop-color:#BFBEC2"/>
	<stop  offset="0.8652" style="stop-color:#9EA0A4"/>
	<stop  offset="1" style="stop-color:#A7A9AC"/>
	<stop  offset="1" style="stop-color:#C3C6CA"/>
</linearGradient>
<polygon class="st41" points="417.8,257.5 410.5,268.6 400.6,265.2 406,275.5 398.7,286.7 409.3,281.9 414.7,292.2 415.9,278.9 
	426.6,274.2 416.6,270.8 417.8,257.5 "/>
</svg>
