<?xml version="1.0" encoding="utf-8"?>
<!-- Generator: Adobe Illustrator 24.0.1, SVG Export Plug-In . SVG Version: 6.00 Build 0)  -->
<svg version="1.1" id="Layer_1" xmlns="http://www.w3.org/2000/svg" xmlns:xlink="http://www.w3.org/1999/xlink" x="0px" y="0px"
	 viewBox="0 0 500 500" style="enable-background:new 0 0 500 500;" xml:space="preserve">
<style type="text/css">
	.st0{fill-rule:evenodd;clip-rule:evenodd;fill:url(#SVGID_1_);}
</style>
<radialGradient id="SVGID_1_" cx="496.9253" cy="-1126.2965" r="3069.8545" gradientTransform="matrix(0.1162 0 0 0.1162 -6.2107 205.636)" gradientUnits="userSpaceOnUse">
	<stop  offset="0" style="stop-color:#17479E"/>
	<stop  offset="1" style="stop-color:#000043"/>
</radialGradient>
<path class="st0" d="M250.3,256.2c-26.3-6.8-46.4-14.4-53.6-23.9l27.2-52.1c2.3-8.3-2.1-13.8-7.5-16.6l-50.6-12.3
	c-5.2-1.3-7.1-5.4-5.6-12l5-30.4c34.9-13.7,71.4-21.3,85.1,1.2c13.6-22.4,50.2-14.9,85.1-1.2l5,30.4c1.4,6.7-0.4,10.7-5.6,12
	l-50.6,12.3c-5.3,2.7-9.8,8.3-7.5,16.6l27.2,52.1C296.8,241.8,276.7,249.4,250.3,256.2L250.3,256.2z M250.3,67.5
	c-47.8,1.1-111.8,5.6-157.8,43.8c7.4,27.5,9.8,40.4,9.7,69.1l50.5-16.2l-6.6,5.3l-45.9,38c-10,35.5,3.1,91,9.9,94.9l62.5-73.3
	c-13.8-2.7-18.5-28.3-15.4-36l7.4-27.4l44.9,19.4l-89.7,138.7c11.8,18.7,23.5,32.9,46.4,47.7l33.7-45.6
	c21.3-13.6,44.2-16.5,50.6-19.1c6.4,2.6,29.3,5.5,50.6,19.1l33.7,45.6c22.8-14.8,34.6-29,46.4-47.7L291.2,185l44.9-19.4l7.4,27.4
	c3,7.7-1.7,33.3-15.4,36l62.5,73.3c6.7-3.9,19.9-59.3,9.9-94.9l-45.9-38l-6.6-5.3l50.5,16.2c0-28.7,2.3-41.6,9.7-69.1
	C362.1,73.2,298.1,68.6,250.3,67.5L250.3,67.5z M318.7,386.1c-11.7,8-54.1,36-68.4,44.3c-14.3-8.3-56.7-36.3-68.4-44.3l23.6-52.1
	c12.4,18.3,34.8,18.1,44.8,18.1c10,0,32.4,0.2,44.8-18.1L318.7,386.1L318.7,386.1z M254.4,274.6l53.2-35.1
	c17.1,32.8,27,47.7-2.9,74.7c-19.5-3.2-39-8.9-50.3-20.2V274.6L254.4,274.6z M246.3,274.6l-53.2-35.1c-17.1,32.8-27,47.7,2.9,74.7
	c19.5-3.2,39-8.9,50.3-20.2V274.6L246.3,274.6z"/>
</svg>
