<?xml version="1.0" encoding="utf-8"?>
<!-- Generator: Adobe Illustrator 24.0.1, SVG Export Plug-In . SVG Version: 6.00 Build 0)  -->
<svg version="1.1" id="Layer_1" xmlns="http://www.w3.org/2000/svg" xmlns:xlink="http://www.w3.org/1999/xlink" x="0px" y="0px"
	 viewBox="0 0 500 500" style="enable-background:new 0 0 500 500;" xml:space="preserve">
<style type="text/css">
	.st0{fill-rule:evenodd;clip-rule:evenodd;fill:#3986A3;}
	.st1{fill-rule:evenodd;clip-rule:evenodd;fill:#2F6A82;}
	.st2{fill-rule:evenodd;clip-rule:evenodd;fill:#1E526F;}
</style>
<polygon class="st0" points="242.7,131.1 215.2,174.7 204.8,163.6 108.4,323.6 302.8,323.6 323.6,360 42.5,360 209.3,78.7 
	242.7,131.1 "/>
<path class="st1" d="M286.2,76.8L457,357.9l-59.5,1L374,320.7l16.2,0L287.8,155.2l-102,158.8H139
	C188.7,230.2,235.3,159.6,286.2,76.8L286.2,76.8z"/>
<polygon class="st2" points="251.7,226.5 278.8,186.6 427.5,420.9 75.8,420.9 106,368.9 154.4,368.9 146.9,382 351.2,382 
	251.7,226.5 "/>
</svg>
