<?xml version="1.0" encoding="utf-8"?>
<!-- Generator: Adobe Illustrator 24.0.1, SVG Export Plug-In . SVG Version: 6.00 Build 0)  -->
<svg version="1.1" id="Layer_1" xmlns="http://www.w3.org/2000/svg" xmlns:xlink="http://www.w3.org/1999/xlink" x="0px" y="0px"
	 viewBox="0 0 500 500" style="enable-background:new 0 0 500 500;" xml:space="preserve">
<style type="text/css">
	.st0{fill-rule:evenodd;clip-rule:evenodd;fill:#FFFFFF;}
	.st1{fill-rule:evenodd;clip-rule:evenodd;fill:#D9E021;}
</style>
<g>
	<path class="st0" d="M254.7,93.7c83.5,0,151.7,68.1,151.7,151.7c0,83.5-68.1,151.7-151.7,151.7c-83.5,0-151.7-68.1-151.7-151.7
		C103,161.8,171.2,93.7,254.7,93.7L254.7,93.7z"/>
	<path class="st1" d="M387.9,277.5c0.8-11.6,0.2-23-7.1-32.7c-4.9-2.1-11.7,10-18.5,43.4c-4.5-53.8-9.2-47.1-22.3-21l-20.3,38.5
		l8.4-39.3c3.5-16.5,5-27.4,0.3-29.3c-5.6-2.3-35.6,36-54.3,57.6c13.9-26.8,33.3-64.2,31.7-70.3c-1.2-4.6-6.6-4.4-14.9-0.3
		c-5.7,2.8-12.8,7.4-20.9,13.4l-61.2,41.2l52.8-50.5c5.9-5.6,13.2-12.2,18.9-19c9.9-12-1.8-11.9-18.4-6.4c-21,7-51.6,16.2-55.9,17.4
		c5.9-3.6,35.2-20.6,53.4-31.6c14.9-9.1,21.6-19.1,6.7-19.6c-19.1,0.4-38.1,1.2-57.2,0.3l41.3-12.3c31.6-9.5,37.2-17.9-21.1-25.4
		c36.3-5.1,54.7-9.7,49.6-15.6c-7.4-3.7-17.1-6.2-27.7-7c-0.6,0-1.3,0-1.9,0c-77.8,0-141.3,63.5-141.3,141.3s63.5,141.3,141.3,141.3
		C317.7,391.4,375.1,342.3,387.9,277.5L387.9,277.5z"/>
	<path class="st1" d="M250,88c89.1,0,161.8,72.7,161.8,161.8c0,89.1-72.7,161.8-161.8,161.8c-89.1,0-161.8-72.7-161.8-161.8
		C88.3,160.7,161,88,250,88L250,88z M250,93.9c85.9,0,155.9,70,155.9,155.8c0,85.9-70,155.9-155.9,155.9
		c-85.8,0-155.8-70-155.8-155.9C94.2,163.9,164.2,93.9,250,93.9L250,93.9z"/>
	<path class="st1" d="M250.3,71.4c98,0,178,80,178,177.9c0,98-80,178-178,178c-98,0-177.9-80-177.9-178
		C72.4,151.4,152.4,71.4,250.3,71.4L250.3,71.4z M250.3,78c94.5,0,171.5,77,171.5,171.4c0,94.4-77,171.4-171.5,171.4
		c-94.4,0-171.4-77-171.4-171.4C78.9,155,155.9,78,250.3,78L250.3,78z"/>
</g>
</svg>
