<?xml version="1.0" encoding="utf-8"?>
<!-- Generator: Adobe Illustrator 24.0.1, SVG Export Plug-In . SVG Version: 6.00 Build 0)  -->
<svg version="1.1" id="Layer_1" xmlns="http://www.w3.org/2000/svg" xmlns:xlink="http://www.w3.org/1999/xlink" x="0px" y="0px"
	 viewBox="0 0 500 500" style="enable-background:new 0 0 500 500;" xml:space="preserve">
<style type="text/css">
	.st0{fill-rule:evenodd;clip-rule:evenodd;fill:url(#SVGID_1_);}
</style>
<linearGradient id="SVGID_1_" gradientUnits="userSpaceOnUse" x1="-85.0861" y1="588.4812" x2="-683.5937" y2="153.6399" gradientTransform="matrix(0.4327 0 0 0.4327 418.4975 94.7885)">
	<stop  offset="0.22" style="stop-color:#7B2B2F"/>
	<stop  offset="0.78" style="stop-color:#ED1C24"/>
</linearGradient>
<path class="st0" d="M73.8,257.3c-0.1-42.4,34.8-77,77-77c42.2,0,76.8,34.5,76.8,77c0,6.4-0.5,12.8-2.3,19
	c-26.5,8.1-46.1,29-54.5,55.5c-5.9,1.4-13.3,2.4-20,2.4C108.6,334.2,73.7,299.7,73.8,257.3L73.8,257.3z M217.3,184.5
	c10.6-5.3,22.5-8.3,35.1-8.3c10.9,0,21.3,2.2,30.8,6.3c-3.6-8.8-5.5-18.4-5.5-28.5c0-11.7,2.6-22.7,7.4-32.7
	c0.3-0.9,0.7-1.8,1.1-2.7c-1.1,0.5-2.3,0.9-3.4,1.3c-9.8,4.6-20.7,7.1-32.2,7.1c-11.9,0-23.1-2.7-33.2-7.6c-0.7-0.3-1.5-0.6-2.2-0.9
	l0,0.1c0.5,1.2,0.9,2.3,1.3,3.5c4.6,9.8,7.1,20.6,7.1,32.1C223.5,165,221.3,175.3,217.3,184.5L217.3,184.5z M181.5,290.3
	c-5.2-10.6-8.2-22.5-8.2-35c0-11.1,2.3-21.6,6.4-31.2c-8.9,3.7-18.7,5.7-28.9,5.7c-11.7,0-22.8-2.6-32.7-7.4
	c-0.9-0.3-1.8-0.7-2.7-1.1c0.5,1.1,0.9,2.3,1.3,3.4c4.6,9.8,7.1,20.7,7.2,32.2c0,11.9-2.7,23.1-7.6,33.2c-0.3,0.7-0.6,1.5-0.9,2.2
	l0.1,0c1.2-0.5,2.3-0.9,3.5-1.3c9.8-4.6,20.7-7.1,32.1-7.1C161.9,284,172.2,286.3,181.5,290.3L181.5,290.3z M287,326.4
	c-10.5,5.1-22.2,8-34.6,8c-11.1,0-21.7-2.3-31.3-6.5c3.6,8.9,5.7,18.6,5.7,28.8c0,11.7-2.6,22.7-7.4,32.7c-0.3,0.9-0.7,1.8-1.1,2.7
	c1.1-0.5,2.3-0.9,3.4-1.3c9.8-4.6,20.7-7.1,32.2-7.1c11.9,0,23.1,2.7,33.2,7.6c0.7,0.3,1.5,0.6,2.2,0.9l0-0.1
	c-0.5-1.2-0.9-2.3-1.3-3.5c-4.5-9.8-7.1-20.6-7.1-32.1C280.8,345.8,283,335.6,287,326.4L287,326.4z M323.4,220.6
	c5.2,10.5,8.1,22.3,8.1,34.7c0,11-2.3,21.5-6.4,31c8.8-3.5,18.4-5.5,28.4-5.5c11.7,0,22.8,2.6,32.7,7.4c0.9,0.3,1.8,0.7,2.7,1.1
	c-0.5-1.1-0.9-2.3-1.3-3.4c-4.6-9.8-7.1-20.7-7.2-32.2c0-11.9,2.7-23.1,7.6-33.2c0.3-0.7,0.6-1.5,0.9-2.2l-0.1,0
	c-1.2,0.5-2.3,0.9-3.5,1.3c-9.8,4.6-20.7,7.1-32.1,7.1C342.6,226.7,332.6,224.5,323.4,220.6L323.4,220.6z M254.1,433.7
	c-42.4,0.1-76.9-34.8-76.9-77c0-42.2,34.5-76.8,77-76.8c6.4,0,12.8,0.5,19,2.3c8.1,26.5,29.1,45.5,55.5,54
	c1.4,5.9,2.4,13.8,2.4,20.5C331,398.9,296.5,433.8,254.1,433.7L254.1,433.7z M430.6,253.5c0.1,42.4-34.8,77-77,77
	c-42.2,0-76.8-34.5-76.8-77c0-6.4,0.5-12.8,2.3-19c26.5-8.1,45.8-28.9,54.3-55.4c5.9-1.4,13.6-2.5,20.3-2.5
	C395.8,176.5,430.6,211,430.6,253.5L430.6,253.5z M250.3,77c42.4-0.1,76.9,34.8,76.9,77c0,42.2-34.5,76.8-77,76.8
	c-6.4,0-12.8-0.5-19-2.3c-8.1-26.5-28.9-46.1-55.3-54.6c-1.4-5.9-2.5-13.2-2.5-19.9C173.4,111.8,207.9,77,250.3,77L250.3,77z"/>
</svg>
