<?xml version="1.0" encoding="utf-8"?>
<!-- Generator: Adobe Illustrator 24.0.1, SVG Export Plug-In . SVG Version: 6.00 Build 0)  -->
<svg version="1.1" id="Layer_1" xmlns="http://www.w3.org/2000/svg" xmlns:xlink="http://www.w3.org/1999/xlink" x="0px" y="0px"
	 viewBox="0 0 500 500" style="enable-background:new 0 0 500 500;" xml:space="preserve">
<style type="text/css">
	.st0{fill:#FCB316;}
	.st1{fill:#647883;}
	.st2{fill:#849DAA;}
	.st3{fill:#F8951D;}
</style>
<polygon class="st0" points="202.2,326 190,329.9 190,129.5 143.3,169.2 143.3,329.3 132.9,335 132.9,162.4 202,97.4 202.2,97.4 
	202.2,326 "/>
<polygon class="st1" points="304.1,86.3 366.7,143.2 366.7,349.6 355.1,349.6 355.1,152.3 317.3,119.2 317.3,343.6 304.1,341.7 
	304.1,86.3 "/>
<polygon class="st2" points="304.1,341.7 292,341.6 292,122.6 217.8,185.9 217.8,163 304.1,86.3 304.1,341.7 "/>
<polygon class="st3" points="239.1,139.2 214.7,124.2 214.7,327.8 202.2,326 202.2,97.4 252.5,128 239.1,139.2 "/>
<path class="st1" d="M434.9,342.8C318.9,392,200,290.1,65.3,362.1C205.7,268.3,320.7,374.8,434.9,342.8L434.9,342.8z"/>
<path class="st3" d="M403,362.5c-87.8,32.8-178-35.1-280,12.9C229.4,312.9,316.5,383.8,403,362.5L403,362.5z"/>
<g>
	<polygon class="st2" points="104,365.1 107.3,363 108.9,361.9 112.3,359.8 114,358.9 117.5,356.9 119.3,356 122.8,354.3 
		124.5,353.5 126.3,352.8 128,352.1 129.7,351.5 131.5,350.8 133.2,350.2 134.9,349.7 138.2,349 139.8,348.7 141.4,348.4 143,348.2 
		144.5,348.2 146.1,348.1 147.6,348.2 149,348.3 150.4,348.6 151.8,348.9 151.8,348.9 153.9,351.1 153.9,351.2 153.1,351.2 
		151.5,351.3 149.8,351.4 148.2,351.5 146.5,351.7 143.1,352.2 141.4,352.6 139.7,353 138,353.3 136.3,353.7 134.5,354.2 
		131.1,355.2 129.4,355.8 125.9,357 124.2,357.6 120.7,359 117.1,360.6 115.4,361.3 111.9,362.9 106.6,365.6 101.4,368.4 98,370.2 
		96.7,370.9 96.8,370.8 103.5,365.4 	"/>
</g>
</svg>
