<?xml version="1.0" encoding="utf-8"?>
<!-- Generator: Adobe Illustrator 24.0.1, SVG Export Plug-In . SVG Version: 6.00 Build 0)  -->
<svg version="1.1" id="Layer_1" xmlns="http://www.w3.org/2000/svg" xmlns:xlink="http://www.w3.org/1999/xlink" x="0px" y="0px"
	 viewBox="0 0 500 500" style="enable-background:new 0 0 500 500;" xml:space="preserve">
<style type="text/css">
	.st0{fill-rule:evenodd;clip-rule:evenodd;fill:#FFFFFF;}
	.st1{fill-rule:evenodd;clip-rule:evenodd;fill:#FEFEFE;}
	.st2{fill-rule:evenodd;clip-rule:evenodd;fill:#FDFDFD;}
	.st3{fill-rule:evenodd;clip-rule:evenodd;fill:#FBFBFB;}
	.st4{fill-rule:evenodd;clip-rule:evenodd;fill:#FAFAFA;}
	.st5{fill-rule:evenodd;clip-rule:evenodd;fill:#F9F9F9;}
	.st6{fill-rule:evenodd;clip-rule:evenodd;fill:#F7F7F7;}
	.st7{fill-rule:evenodd;clip-rule:evenodd;fill:#F6F6F6;}
	.st8{fill-rule:evenodd;clip-rule:evenodd;fill:#F4F4F4;}
	.st9{fill-rule:evenodd;clip-rule:evenodd;fill:#F2F2F2;}
	.st10{fill-rule:evenodd;clip-rule:evenodd;fill:#F1F1F1;}
	.st11{fill-rule:evenodd;clip-rule:evenodd;fill:#EFEFEF;}
	.st12{fill-rule:evenodd;clip-rule:evenodd;fill:#ECECEC;}
	.st13{fill-rule:evenodd;clip-rule:evenodd;fill:#EAEAEA;}
	.st14{fill-rule:evenodd;clip-rule:evenodd;fill:#E8E8E8;}
	.st15{fill-rule:evenodd;clip-rule:evenodd;fill:#E5E5E5;}
	.st16{fill-rule:evenodd;clip-rule:evenodd;fill:#E2E2E2;}
	.st17{fill-rule:evenodd;clip-rule:evenodd;fill:#DFDFDF;}
	.st18{fill-rule:evenodd;clip-rule:evenodd;fill:#DBDBDB;}
	.st19{fill-rule:evenodd;clip-rule:evenodd;fill:#D7D7D7;}
	.st20{fill-rule:evenodd;clip-rule:evenodd;fill:#D2D2D2;}
	.st21{fill-rule:evenodd;clip-rule:evenodd;fill:#CCCCCC;}
	.st22{fill-rule:evenodd;clip-rule:evenodd;fill:url(#SVGID_1_);}
	.st23{fill-rule:evenodd;clip-rule:evenodd;fill:url(#SVGID_2_);}
</style>
<g>
	<g>
		<path class="st0" d="M250.3,267.5c89.1,0,161.4,10,161.4,22.3c0,12.3-72.2,22.3-161.4,22.3s-161.4-10-161.4-22.3
			C88.9,277.5,161.2,267.5,250.3,267.5L250.3,267.5z"/>
		<path class="st1" d="M250.3,268.5c86.1,0,155.9,9.5,155.9,21.3c0,11.8-69.8,21.3-155.9,21.3c-86.1,0-155.9-9.6-155.9-21.3
			C94.3,278,164.2,268.5,250.3,268.5L250.3,268.5z"/>
		<path class="st2" d="M250.3,269.5c83.1,0,150.5,9.1,150.5,20.3c0,11.2-67.4,20.3-150.5,20.3c-83.1,0-150.5-9.1-150.5-20.3
			C99.8,278.6,167.1,269.5,250.3,269.5L250.3,269.5z"/>
		<path class="st3" d="M250.3,270.5c80.2,0,145.1,8.7,145.1,19.3c0,10.7-65,19.3-145.1,19.3s-145.1-8.7-145.1-19.3
			C105.2,279.1,170.1,270.5,250.3,270.5L250.3,270.5z"/>
		<path class="st4" d="M250.3,271.5c77.2,0,139.7,8.2,139.7,18.3c0,10.1-62.6,18.3-139.7,18.3s-139.7-8.2-139.7-18.3
			C110.6,279.7,173.1,271.5,250.3,271.5L250.3,271.5z"/>
		<path class="st5" d="M250.3,272.5c74.2,0,134.3,7.8,134.3,17.3c0,9.6-60.1,17.4-134.3,17.4c-74.2,0-134.3-7.8-134.3-17.4
			C116,280.2,176.1,272.5,250.3,272.5L250.3,272.5z"/>
		<path class="st6" d="M250.3,273.5c71.2,0,128.9,7.3,128.9,16.4c0,9-57.7,16.4-128.9,16.4c-71.2,0-128.9-7.3-128.9-16.4
			C121.4,280.8,179.1,273.5,250.3,273.5L250.3,273.5z"/>
		<path class="st7" d="M250.3,274.5c68.2,0,123.5,6.9,123.5,15.4c0,8.5-55.3,15.4-123.5,15.4c-68.2,0-123.5-6.9-123.5-15.4
			C126.8,281.3,182.1,274.5,250.3,274.5L250.3,274.5z"/>
		<path class="st8" d="M250.3,275.5c65.2,0,118.1,6.4,118.1,14.4c0,7.9-52.9,14.4-118.1,14.4s-118.1-6.4-118.1-14.4
			C132.2,281.9,185.1,275.5,250.3,275.5L250.3,275.5z"/>
		<path class="st9" d="M250.3,276.5c62.2,0,112.7,6,112.7,13.4c0,7.4-50.4,13.4-112.7,13.4s-112.7-6-112.7-13.4
			C137.6,282.4,188.1,276.5,250.3,276.5L250.3,276.5z"/>
		<path class="st10" d="M250.3,277.5c59.2,0,107.3,5.5,107.3,12.4c0,6.8-48,12.4-107.3,12.4c-59.2,0-107.3-5.5-107.3-12.4
			C143,283,191.1,277.5,250.3,277.5L250.3,277.5z"/>
		<path class="st11" d="M250.3,278.5c56.3,0,101.9,5.1,101.9,11.4c0,6.3-45.6,11.4-101.9,11.4s-101.9-5.1-101.9-11.4
			C148.4,283.5,194,278.5,250.3,278.5L250.3,278.5z"/>
		<path class="st12" d="M250.3,279.4c53.3,0,96.4,4.6,96.4,10.4c0,5.7-43.2,10.4-96.4,10.4c-53.3,0-96.4-4.6-96.4-10.4
			C153.8,284.1,197,279.4,250.3,279.4L250.3,279.4z"/>
		<path class="st13" d="M250.3,280.4c50.3,0,91,4.2,91,9.4c0,5.2-40.8,9.4-91,9.4c-50.3,0-91-4.2-91-9.4
			C159.3,284.6,200,280.4,250.3,280.4L250.3,280.4z"/>
		<path class="st14" d="M250.3,281.4c47.3,0,85.6,3.8,85.6,8.4c0,4.6-38.3,8.4-85.6,8.4c-47.3,0-85.6-3.8-85.6-8.4
			C164.7,285.2,203,281.4,250.3,281.4L250.3,281.4z"/>
		<path class="st15" d="M250.3,282.4c44.3,0,80.2,3.3,80.2,7.4c0,4.1-35.9,7.4-80.2,7.4s-80.2-3.3-80.2-7.4
			C170.1,285.7,206,282.4,250.3,282.4L250.3,282.4z"/>
		<path class="st16" d="M250.3,283.4c41.3,0,74.8,2.9,74.8,6.4c0,3.5-33.5,6.4-74.8,6.4s-74.8-2.9-74.8-6.4
			C175.5,286.3,209,283.4,250.3,283.4L250.3,283.4z"/>
		<path class="st17" d="M250.3,284.4c38.3,0,69.4,2.4,69.4,5.4c0,3-31.1,5.4-69.4,5.4c-38.3,0-69.4-2.4-69.4-5.4
			C180.9,286.8,212,284.4,250.3,284.4L250.3,284.4z"/>
		<path class="st18" d="M250.3,285.4c35.3,0,64,2,64,4.4c0,2.4-28.6,4.4-64,4.4c-35.3,0-64-2-64-4.4
			C186.3,287.4,214.9,285.4,250.3,285.4L250.3,285.4z"/>
		<path class="st19" d="M250.3,286.4c32.4,0,58.6,1.5,58.6,3.4c0,1.9-26.2,3.4-58.6,3.4c-32.4,0-58.6-1.5-58.6-3.4
			C191.7,287.9,217.9,286.4,250.3,286.4L250.3,286.4z"/>
		<path class="st20" d="M250.3,287.4c29.4,0,53.2,1.1,53.2,2.4c0,1.3-23.8,2.4-53.2,2.4s-53.2-1.1-53.2-2.4
			C197.1,288.5,220.9,287.4,250.3,287.4L250.3,287.4z"/>
		<path class="st21" d="M250.3,288.4c26.4,0,47.8,0.6,47.8,1.4c0,0.8-21.4,1.4-47.8,1.4c-26.4,0-47.8-0.6-47.8-1.4
			C202.5,289,223.9,288.4,250.3,288.4L250.3,288.4z"/>
	</g>
	
		<radialGradient id="SVGID_1_" cx="351.9122" cy="748.6545" r="355.9089" gradientTransform="matrix(0.3907 -0.2631 0.2631 0.3907 -82.4799 -37.183)" gradientUnits="userSpaceOnUse">
		<stop  offset="0" style="stop-color:#DDFF54"/>
		<stop  offset="1" style="stop-color:#226B00"/>
	</radialGradient>
	<path class="st22" d="M158.3,23.7c1.5,6.6,3.8,13.1,4.4,19.8c0.1,1-1.9-0.9-2.8-1.3c0.9,4,2.9,7.9,2.6,12c-0.1,1.2-2.3-0.6-3.5-0.9
		c1.2,7,4.9,16.5,3.6,21c-0.7,2.3-8.7,2-13,3c2.8,3.5,6.4,6.6,8.5,10.7c0.4,0.8-1.6,0.8-2.4,1.3c5.3,7.7,17.4,19,15.8,23
		c-2,5.2-13.6,5.5-18.6,4.2c0.2,1.1,1.6,2.9,0.5,3.2c-5.1,1.2-10.5,0.2-15.8,0.4c4.6,2.4,10.2,3.6,13.9,7.3c1.3,1.3-3.4,1-5.1,1.5
		c5.9,3.3,12.7,5.3,17.8,9.8c1.3,1.2-2.7,1.5-4.4,2c15.3,8.5,31.6,2.5,45.1,25.1c-14.3,6.3-44.1-4.9-43.7-3.9c0.4,1,4.8,5.4,2.7,5.9
		c-10.3,2.4-21.2,0.6-31.8,0.9c0.8,2,4.3,4.9,2.5,6c-4.9,2.8-11.1,1.5-16.7,2.3c0.3,1.3,2,3.5,0.8,4c-8.2,3.4-17.2,4.3-25.8,6.5
		c6.9,2.6,14.3,4.2,20.7,7.9c1.1,0.6-0.5,2.5-0.7,3.7c4.4,0.9,9.5,0,13.1,2.7c1.6,1.2-1.7,3.5-2.6,5.3c7.7,1.2,16.7-0.8,23,3.7
		c2.9,2.1-2.9,6.5-4.4,9.7c11.4,0.3,22.9,0.6,34.3,1c-4.3,8.8-8.7,17.6-13,26.4c9.1-2.5,18-6.2,27.3-7.5c1.4-0.2-0.8,2.7-1.2,4
		c11.9-4.8,27.1-17.4,35.6-14.3c0.7,12.1-5.2,20.9-7.9,31.4c1.2-0.1,3.7-1.5,3.7-0.2c-0.1,7-2.7,13.8-4,20.7
		c4.5-6.3,8.1-13.4,13.6-18.8c0.9-0.9,1.5,2.2,2.2,3.3c3.2-4.3,4.6-10.9,9.6-12.9c2.6-1,2.3,5.1,3.5,7.6c4.4-8.8,6.5-19.3,13.2-26.5
		c1.9-2,4.1,3.6,6.2,5.4c2.2-10.4-0.4-23.1,10.8-38.8c-0.5-0.6-0.9-1.2-1.3-1.7L234.1,246l37.4-48.4L163,192.1l106.7,1.9l-42.6-60.3
		l-50.2-4.7l47.3-0.2l-39.9-65.4l43.1,62.6l17.7-38.9L231,130.3l42.9,59.9l44.7-116.4l-41.6,119.4l67.4-18.2L277,197.2
		c0,0,0.5,0.8,1.5,2.1c18.6-4.5,29.4,2.7,39.8,4.6c-0.9-2.6-5.3-6.8-2.7-7.8c9.3-3.5,19.7-1.5,29.6-2.3c-1.9-2-7.6-4.1-5.7-6.1
		c3.7-3.8,10.4-2.7,15.5-4c-0.7-1.1-3.4-2.8-2.2-3.3c7.1-3.1,15-3.7,22.5-5.6c-6.9-1.3-14.1-1.5-20.7-4c-1.1-0.4,1.1-2.2,1.6-3.3
		c-10.7-1.5-21.1,0.7-32.1-4.5c0.3-9,17.8-18.4,26.6-27.6c-1.4-0.1-4.8,0.8-4.1-0.4c4.7-8.2,11.5-15,17.2-22.5
		c-9.8,0.7-19.6,1.4-29.3,2.1c4-10.7,8-21.4,12-32.1c-3.5,0.1-9.8,3.9-10.6,0.4c-1.8-7.6,3.5-15.2,5.2-22.7
		c-1.9,0.1-5.3,2.3-5.8,0.4c-1.2-4.3,1.6-8.8,2.4-13.1c-1.2-0.2-3.5,0.5-3.7-0.7c-1-7.3,0.3-14.8,0.5-22.1
		c-5.2,7.1-9.4,15.2-15.7,21.5c-0.9,1-2.3-1.5-3.4-2.2c-2.8,4.9-4,11.2-8.4,14.6c-1.7,1.3-3.1-3-4.7-4.5
		c-4.3,9.7-6.7,20.5-12.8,29.1c-1.2,1.8-3.7-3.9-4.4-4.7c-0.7-0.8-1.6,31.1-12.8,41.9c-15.8-21-4.1-33.9-6.3-51.2
		c-1.1,1.4-2.9,5-3.5,3.3c-2.3-6.4-1.6-13.5-2.4-20.2c-1.1,1.4-2.6,5.8-3.3,4.1c-2-4.8-1-10.4-1.5-15.6c-2.1,4.8-3.3,10.2-6.3,14.5
		c-0.6,0.9-1.8-1.1-2.7-1.7c-0.6,5.1-5.4,15.8-10.9,15.7c-4.3-0.1-10.3-15.5-15.4-23.3c-0.7,0.6-1.5,2.4-2.1,1.7
		c-3-3.4-4.5-7.9-6.7-11.8c-2.6,3.6-5.3,11.2-7.7,11c-4.7-0.5-12.1-7.5-18.1-11.2c-0.2,1.2,0.6,3.9-0.5,3.5c-3.9-1.3-6.8-4.6-10.1-7
		c0.1,1,1.1,3.6,0.2,3.1C169,32.1,163.9,27.5,158.3,23.7L158.3,23.7z M278.2,205.4l3.2-2.9c0,0,19,28.2,41.4,46
		c22.3,17.8,39.4,25.2,40.5,34.4c0.3,2.5-0.4,4.5-0.8,5.9c-2.1,6.5-9.4,3.6-7.1-2c1.3-3,3.3-5.3-1.6-9.4c-4.9-4-20-15-35.4-27.1
		C303.1,238.2,284.3,213.7,278.2,205.4L278.2,205.4z"/>
	
		<linearGradient id="SVGID_2_" gradientUnits="userSpaceOnUse" x1="718.647" y1="136.1722" x2="414.6031" y2="587.7037" gradientTransform="matrix(0.3907 0.1805 0.2631 -0.268 -82.4799 377.1742)">
		<stop  offset="0" style="stop-color:#FFFFFF"/>
		<stop  offset="0.21" style="stop-color:#FFFFFF"/>
		<stop  offset="1" style="stop-color:#B2DE00"/>
	</linearGradient>
	<path class="st23" d="M158.3,476.9c1.5-4.5,3.8-9,4.4-13.6c0.1-0.7-1.9,0.6-2.8,0.9c0.9-2.7,2.9-5.4,2.6-8.2
		c-0.1-0.8-2.3,0.4-3.5,0.6c1.2-4.8,4.9-11.3,3.6-14.4c-0.7-1.6-8.7-1.4-13-2.1c2.8-2.4,6.4-4.5,8.5-7.3c0.4-0.5-1.6-0.6-2.4-0.9
		c5.3-5.3,17.4-13,15.8-15.8c-2-3.6-13.6-3.8-18.6-2.9c0.2-0.7,1.6-2,0.5-2.2c-5.1-0.8-10.5-0.2-15.8-0.3c4.6-1.7,10.2-2.5,13.9-5
		c1.3-0.9-3.4-0.7-5.1-1c5.9-2.2,12.7-3.6,17.8-6.7c1.3-0.8-2.7-1-4.4-1.4c15.3-5.9,31.6-1.7,45.1-17.2c-14.3-4.3-44.1,3.4-43.7,2.7
		c0.4-0.7,4.8-3.7,2.7-4c-10.3-1.6-21.2-0.4-31.8-0.6c0.8-1.4,4.3-3.4,2.5-4.1c-4.9-1.9-11.1-1-16.7-1.6c0.3-0.9,2-2.4,0.8-2.7
		c-8.2-2.3-17.2-3-25.8-4.4c6.9-1.8,14.3-2.9,20.7-5.4c1.1-0.4-0.5-1.7-0.7-2.5c4.4-0.6,9.5,0,13.1-1.9c1.6-0.8-1.7-2.4-2.6-3.6
		c7.7-0.9,16.7,0.6,23-2.6c2.9-1.4-2.9-4.4-4.4-6.6c11.4-0.2,22.9-0.4,34.3-0.7c-4.3-6-8.7-12.1-13-18.1c9.1,1.7,18,4.3,27.3,5.1
		c1.4,0.1-0.8-1.8-1.2-2.7c11.9,3.3,27.1,11.9,35.6,9.8c0.7-8.3-5.2-14.4-7.9-21.6c1.2,0.1,3.7,1,3.7,0.2c-0.1-4.8-2.7-9.5-4-14.2
		c4.5,4.3,8.1,9.2,13.6,12.9c0.9,0.6,1.5-1.5,2.2-2.3c3.2,2.9,4.6,7.5,9.6,8.8c2.6,0.7,2.3-3.5,3.5-5.2c4.4,6.1,6.5,13.2,13.2,18.2
		c1.9,1.4,4.1-2.5,6.2-3.7c2.2,7.1-0.4,15.9,10.8,26.6c-0.5,0.4-0.9,0.8-1.3,1.2l-40.6-32.1l37.4,33.2L163,361.3l106.7-1.3
		l-42.6,41.4l-50.2,3.2l47.3,0.1l-39.9,44.9l43.1-43l17.7,26.7L231,403.8l42.9-41.1l44.7,79.8l-41.6-81.9l67.4,12.5L277,357.8
		c0,0,0.5-0.5,1.5-1.5c18.6,3.1,29.4-1.9,39.8-3.2c-0.9,1.8-5.3,4.7-2.7,5.4c9.3,2.4,19.7,1,29.6,1.6c-1.9,1.4-7.6,2.8-5.7,4.2
		c3.7,2.6,10.4,1.9,15.5,2.8c-0.7,0.8-3.4,1.9-2.2,2.3c7.1,2.1,15,2.5,22.5,3.8c-6.9,0.9-14.1,1-20.7,2.8c-1.1,0.3,1.1,1.5,1.6,2.3
		c-10.7,1-21.1-0.5-32.1,3.1c0.3,6.2,17.8,12.6,26.6,18.9c-1.4,0.1-4.8-0.5-4.1,0.3c4.7,5.6,11.5,10.3,17.2,15.4
		c-9.8-0.5-19.6-1-29.3-1.5c4,7.4,8,14.7,12,22c-3.5-0.1-9.8-2.6-10.6-0.3c-1.8,5.2,3.5,10.4,5.2,15.6c-1.9-0.1-5.3-1.6-5.8-0.3
		c-1.2,2.9,1.6,6,2.4,9c-1.2,0.2-3.5-0.4-3.7,0.5c-1,5,0.3,10.1,0.5,15.2c-5.2-4.9-9.4-10.4-15.7-14.7c-0.9-0.7-2.3,1-3.4,1.5
		c-2.8-3.4-4-7.7-8.4-10c-1.7-0.9-3.1,2.1-4.7,3.1c-4.3-6.7-6.7-14-12.8-20c-1.2-1.2-3.7,2.7-4.4,3.2c-0.7,0.5-1.6-21.3-12.8-28.8
		c-15.8,14.4-4.1,23.2-6.3,35.1c-1.1-1-2.9-3.4-3.5-2.3c-2.3,4.4-1.6,9.2-2.4,13.9c-1.1-0.9-2.6-4-3.3-2.8c-2,3.3-1,7.1-1.5,10.7
		c-2.1-3.3-3.3-7-6.3-9.9c-0.6-0.6-1.8,0.8-2.7,1.1c-0.6-3.5-5.4-10.8-10.9-10.8c-4.3,0.1-10.3,10.7-15.4,16
		c-0.7-0.4-1.5-1.6-2.1-1.2c-3,2.4-4.5,5.4-6.7,8.1c-2.6-2.5-5.3-7.7-7.7-7.5c-4.7,0.3-12.1,5.1-18.1,7.7c-0.2-0.8,0.6-2.7-0.5-2.4
		c-3.9,0.9-6.8,3.2-10.1,4.8c0.1-0.7,1.1-2.4,0.2-2.1C169,471.1,163.9,474.3,158.3,476.9L158.3,476.9z M278.2,352.2l3.2,2
		c0,0,19-19.3,41.4-31.5c22.3-12.2,39.4-17.3,40.5-23.6c0.3-1.7-0.4-3.1-0.8-4c-2.1-4.5-9.4-2.4-7.1,1.3c1.3,2.1,3.3,3.7-1.6,6.4
		c-4.9,2.8-20,10.3-35.4,18.6C303.1,329.7,284.3,346.5,278.2,352.2L278.2,352.2z"/>
</g>
</svg>
