<?xml version="1.0" encoding="utf-8"?>
<!-- Generator: Adobe Illustrator 24.0.1, SVG Export Plug-In . SVG Version: 6.00 Build 0)  -->
<svg version="1.1" id="Layer_1" xmlns="http://www.w3.org/2000/svg" xmlns:xlink="http://www.w3.org/1999/xlink" x="0px" y="0px"
	 viewBox="0 0 500 500" style="enable-background:new 0 0 500 500;" xml:space="preserve">
<style type="text/css">
	.st0{fill-rule:evenodd;clip-rule:evenodd;fill:url(#SVGID_1_);}
	.st1{fill-rule:evenodd;clip-rule:evenodd;fill:url(#SVGID_2_);}
	.st2{fill-rule:evenodd;clip-rule:evenodd;fill:url(#SVGID_3_);}
	.st3{fill-rule:evenodd;clip-rule:evenodd;fill:url(#SVGID_4_);}
	.st4{fill-rule:evenodd;clip-rule:evenodd;fill:url(#SVGID_5_);}
	.st5{fill-rule:evenodd;clip-rule:evenodd;fill:url(#SVGID_6_);}
	.st6{fill-rule:evenodd;clip-rule:evenodd;fill:url(#SVGID_7_);}
	.st7{fill-rule:evenodd;clip-rule:evenodd;fill:url(#SVGID_8_);}
	.st8{fill-rule:evenodd;clip-rule:evenodd;fill:url(#SVGID_9_);}
	.st9{fill-rule:evenodd;clip-rule:evenodd;fill:url(#SVGID_10_);}
	.st10{fill-rule:evenodd;clip-rule:evenodd;fill:url(#SVGID_11_);}
	.st11{fill-rule:evenodd;clip-rule:evenodd;fill:url(#SVGID_12_);}
	.st12{fill-rule:evenodd;clip-rule:evenodd;fill:url(#SVGID_13_);}
	.st13{fill-rule:evenodd;clip-rule:evenodd;fill:url(#SVGID_14_);}
	.st14{fill-rule:evenodd;clip-rule:evenodd;fill:url(#SVGID_15_);}
	.st15{fill-rule:evenodd;clip-rule:evenodd;fill:url(#SVGID_16_);}
	.st16{fill-rule:evenodd;clip-rule:evenodd;fill:url(#SVGID_17_);}
	.st17{fill-rule:evenodd;clip-rule:evenodd;fill:url(#SVGID_18_);}
	.st18{fill-rule:evenodd;clip-rule:evenodd;fill:url(#SVGID_19_);}
	.st19{fill-rule:evenodd;clip-rule:evenodd;fill:url(#SVGID_20_);}
	.st20{fill-rule:evenodd;clip-rule:evenodd;fill:url(#SVGID_21_);}
	.st21{fill-rule:evenodd;clip-rule:evenodd;fill:url(#SVGID_22_);}
	.st22{fill-rule:evenodd;clip-rule:evenodd;fill:#FFFFFF;}
</style>
<g>
	
		<linearGradient id="SVGID_1_" gradientUnits="userSpaceOnUse" x1="-154.4469" y1="538.1461" x2="63.5649" y2="538.1461" gradientTransform="matrix(-0.471 0 0 0.471 53.8359 78.7798)">
		<stop  offset="0" style="stop-color:#FFD500"/>
		<stop  offset="1" style="stop-color:#FAFFB2"/>
	</linearGradient>
	<polygon class="st0" points="24,344.6 23.9,355.8 23.9,356.3 24,356.8 24.2,357.3 24.4,357.8 24.6,358.2 24.9,358.6 25.2,359 
		25.6,359.3 26,359.6 26.4,359.9 26.9,360.2 27.4,360.4 27.9,360.6 28.5,360.8 29.1,360.9 29.8,361 30.5,361.1 31.2,361.2 
		31.9,361.2 32.7,361.1 33.5,361.1 34.3,361 35.1,360.9 36,360.7 36.8,360.5 37.7,360.3 38.6,360.1 39.6,359.8 40.5,359.4 
		41.5,359.1 43.6,358.2 45.7,357.4 47.9,356.5 50,355.7 52.1,354.8 54.2,354 56.3,353.2 58.4,352.3 60.5,351.5 62.7,350.6 
		64.8,349.8 66.9,348.9 69,348.1 71.1,347.2 73.2,346.4 75.3,345.5 77.4,344.7 79.6,343.8 81.7,343 83.8,342.2 85.9,341.3 88,340.5 
		90.1,339.6 92.2,338.8 94.3,337.9 96.4,337.1 98.5,336.2 100.7,335.4 102.8,334.6 104.9,333.7 107,332.9 109.1,332 110,331.6 
		111,331.2 111.9,330.8 112.8,330.3 113.7,329.8 114.6,329.3 115.4,328.8 116.2,328.3 117,327.7 117.8,327.2 118.6,326.6 119.3,326 
		120,325.4 120.6,324.8 121.3,324.2 121.9,323.6 122.5,323 123,322.4 123.5,321.8 124,321.1 124.4,320.5 124.8,319.9 125.1,319.3 
		125.5,318.6 125.7,318 126,317.4 126.1,316.8 126.3,316.2 126.4,315.6 126.4,315.1 126.4,314.5 126.6,303.3 126.6,303.9 
		126.5,304.5 126.4,305 126.3,305.6 126.1,306.2 125.9,306.8 125.6,307.5 125.3,308.1 124.9,308.7 124.5,309.3 124.1,309.9 
		123.6,310.6 123.1,311.2 122.6,311.8 122,312.4 121.4,313.1 120.8,313.7 120.1,314.3 119.4,314.9 118.7,315.4 118,316 117.2,316.6 
		116.4,317.1 115.6,317.6 114.7,318.2 113.8,318.7 113,319.1 112,319.6 111.1,320 110.2,320.5 109.2,320.8 107.1,321.7 105,322.5 
		102.9,323.4 100.8,324.2 98.7,325.1 96.6,325.9 94.5,326.7 92.4,327.6 90.3,328.4 88.1,329.3 86,330.1 83.9,331 81.8,331.8 
		79.7,332.7 77.6,333.5 75.5,334.4 73.4,335.2 71.3,336.1 69.1,336.9 67,337.7 64.9,338.6 62.8,339.4 60.7,340.3 58.6,341.1 
		56.5,342 54.3,342.8 52.2,343.7 50.1,344.5 48,345.4 45.9,346.2 43.8,347 41.6,347.9 40.7,348.2 39.7,348.6 38.8,348.9 37.9,349.1 
		37,349.4 36.1,349.6 35.2,349.7 34.4,349.8 33.6,349.9 32.8,350 32.1,350 31.3,350 30.6,349.9 29.9,349.9 29.3,349.7 28.7,349.6 
		28.1,349.4 27.5,349.2 27,349 26.6,348.7 26.1,348.5 25.7,348.1 25.4,347.8 25,347.4 24.8,347 24.5,346.6 24.3,346.1 24.2,345.6 
		24.1,345.1 24,344.6 	"/>
	
		<linearGradient id="SVGID_2_" gradientUnits="userSpaceOnUse" x1="-416.8423" y1="610.7038" x2="-131.0639" y2="610.7038" gradientTransform="matrix(-0.471 0 0 0.471 84.3925 74.3043)">
		<stop  offset="0" style="stop-color:#467500"/>
		<stop  offset="1" style="stop-color:#BCF000"/>
	</linearGradient>
	<polygon class="st1" points="146.3,326.7 146.1,337.8 146.2,338.5 146.3,339.1 146.5,340.5 146.8,341.9 147.1,343.3 147.3,344.8 
		147.6,346.2 147.9,347.7 148.2,349.1 148.4,350.6 148.7,352.1 149,353.6 149.3,355 149.5,356.5 149.8,358 150.1,359.6 150.4,361.1 
		150.7,362.6 151,364.1 151.2,365.7 151.5,367.2 151.8,368.8 152.1,370.4 152.4,371.9 152.7,373.5 153,375.1 153.3,376.7 
		153.6,378.3 153.9,379.9 154.3,381.5 154.6,383.2 154.9,384.8 155.2,386.4 155.6,388.1 155.7,388.9 156,389.6 156.3,390.4 
		156.7,391.1 157.1,391.7 157.5,392.3 158,392.9 158.6,393.5 159.2,394 159.9,394.5 160.6,394.9 161.3,395.3 162.1,395.7 162.9,396 
		163.7,396.3 164.6,396.6 165.5,396.8 166.5,396.9 167.4,397.1 168.4,397.2 169.4,397.2 170.5,397.2 171.5,397.2 172.6,397.1 
		173.7,397 174.8,396.8 176,396.6 177.1,396.3 178.3,396 179.4,395.6 180.6,395.2 181.8,394.8 184.4,393.8 186.9,392.7 189.5,391.7 
		192.1,390.7 194.6,389.6 197.2,388.6 199.8,387.5 202.3,386.5 204.9,385.5 207.5,384.4 210,383.4 212.6,382.3 215.2,381.3 
		217.7,380.3 220.3,379.2 222.9,378.2 225.4,377.2 228,376.1 230.6,375.1 233.1,374.1 235.7,373 238.3,372 240.8,371 243.4,370 
		246,368.9 248.5,367.9 251.1,366.9 253.7,365.9 256.2,364.9 258.8,363.8 261.4,362.8 263.9,361.8 265.1,361.3 266.2,360.8 
		267.3,360.3 268.4,359.7 269.4,359.1 270.4,358.5 271.4,357.9 272.3,357.2 273.1,356.5 274,355.8 274.8,355.1 275.5,354.4 
		276.2,353.6 276.8,352.9 277.4,352.1 278,351.3 278.5,350.6 278.9,349.8 279.3,349 279.7,348.2 280,347.4 280.2,346.6 280.4,345.8 
		280.5,345 280.6,344.2 280.7,333 280.7,333.8 280.5,334.6 280.3,335.4 280.1,336.2 279.8,337 279.5,337.8 279.1,338.6 278.6,339.4 
		278.1,340.2 277.6,340.9 277,341.7 276.3,342.5 275.6,343.2 274.9,343.9 274.1,344.7 273.3,345.4 272.4,346 271.5,346.7 
		270.6,347.3 269.6,348 268.6,348.6 267.5,349.1 266.4,349.7 265.3,350.2 264.1,350.7 261.5,351.7 259,352.7 256.4,353.7 
		253.8,354.7 251.2,355.7 248.7,356.7 246.1,357.8 243.5,358.8 241,359.8 238.4,360.8 235.9,361.9 233.3,362.9 230.7,363.9 
		228.2,365 225.6,366 223,367 220.5,368.1 217.9,369.1 215.3,370.1 212.8,371.2 210.2,372.2 207.6,373.2 205.1,374.3 202.5,375.3 
		199.9,376.4 197.4,377.4 194.8,378.4 192.2,379.5 189.6,380.5 187.1,381.6 184.5,382.6 181.9,383.6 180.8,384.1 179.6,384.5 
		178.4,384.8 177.3,385.1 176.1,385.4 175,385.6 173.9,385.8 172.8,385.9 171.7,386 170.6,386 169.6,386 168.6,386 167.6,385.9 
		166.6,385.8 165.7,385.6 164.7,385.4 163.9,385.1 163,384.9 162.2,384.5 161.4,384.2 160.7,383.7 160,383.3 159.4,382.8 
		158.8,382.3 158.2,381.8 157.7,381.2 157.2,380.5 156.8,379.9 156.4,379.2 156.1,378.5 155.9,377.7 155.7,376.9 155.4,375.3 
		155,373.6 154.7,372 154.4,370.4 154.1,368.7 153.8,367.1 153.5,365.5 153.2,363.9 152.9,362.3 152.6,360.8 152.3,359.2 152,357.6 
		151.7,356.1 151.4,354.5 151.1,353 150.8,351.4 150.5,349.9 150.2,348.4 150,346.9 149.7,345.4 149.4,343.9 149.1,342.4 
		148.9,340.9 148.6,339.4 148.3,338 148,336.5 147.8,335 147.5,333.6 147.2,332.2 146.9,330.7 146.7,329.3 146.4,327.9 146.3,327.3 
		146.3,326.7 	"/>
	
		<linearGradient id="SVGID_3_" gradientUnits="userSpaceOnUse" x1="-340.9644" y1="487.2422" x2="-111.8476" y2="487.2422" gradientTransform="matrix(-0.471 0 0 0.471 81.373 58.7711)">
		<stop  offset="0" style="stop-color:#2C8CBF"/>
		<stop  offset="1" style="stop-color:#7AFFFF"/>
	</linearGradient>
	<polygon class="st2" points="134.2,264.5 134.1,275.7 134.1,276.6 134.3,277.5 134.4,278.5 134.6,279.4 134.7,280.4 134.9,281.4 
		135,282.4 135.2,283.4 135.4,284.3 135.5,285.3 135.7,286.3 135.9,287.3 136,288.3 136.2,289.3 136.4,290.3 136.5,291.4 
		136.7,292.4 136.9,293.4 137,294.4 137.2,295.5 137.4,296.5 137.6,297.6 137.7,298.6 137.9,299.7 138.1,300.7 138.3,301.8 
		138.5,302.9 138.6,303.9 138.8,305 139,306.1 139.2,307.2 139.4,308.3 139.6,309.3 139.7,309.9 139.9,310.4 140.1,310.8 
		140.3,311.3 140.6,311.7 141,312.1 141.4,312.5 141.8,312.8 142.2,313.1 142.7,313.4 143.3,313.7 143.8,313.9 144.4,314.1 
		145.1,314.3 145.7,314.5 146.4,314.6 147.1,314.7 147.9,314.7 148.6,314.8 149.4,314.8 150.2,314.7 151.1,314.7 151.9,314.6 
		152.8,314.5 153.7,314.3 154.6,314.2 155.5,314 156.4,313.7 157.4,313.5 158.3,313.2 159.3,312.8 160.2,312.5 162.3,311.6 
		164.4,310.8 166.5,310 168.6,309.2 170.7,308.3 172.8,307.5 174.9,306.7 177,305.9 179.1,305 181.2,304.2 183.3,303.4 185.4,302.6 
		187.5,301.8 189.6,300.9 191.7,300.1 193.8,299.3 195.9,298.5 198,297.7 200.1,296.9 202.2,296.1 204.3,295.2 206.4,294.4 
		208.5,293.6 210.6,292.8 212.7,292 214.8,291.2 216.9,290.4 219,289.6 221,288.7 223.1,287.9 225.2,287.1 227.3,286.3 229.2,285.5 
		231,284.7 232.7,283.8 234.2,282.8 235.7,281.8 237,280.7 238.1,279.6 239.1,278.5 240,277.4 240.7,276.2 241.3,275.1 241.6,274 
		241.8,272.9 242,261.7 241.8,262.8 241.4,263.9 240.9,265.1 240.2,266.2 239.3,267.3 238.3,268.4 237.1,269.5 235.8,270.6 
		234.4,271.6 232.8,272.6 231.1,273.5 229.4,274.4 227.5,275.1 225.4,276 223.3,276.8 221.2,277.6 219.1,278.4 217,279.2 214.9,280 
		212.8,280.8 210.7,281.6 208.6,282.4 206.5,283.2 204.4,284.1 202.3,284.9 200.2,285.7 198.1,286.5 196,287.3 193.9,288.1 
		191.8,288.9 189.7,289.8 187.6,290.6 185.6,291.4 183.5,292.2 181.4,293 179.3,293.9 177.2,294.7 175.1,295.5 173,296.3 
		170.9,297.2 168.8,298 166.7,298.8 164.6,299.6 162.5,300.4 160.4,301.3 159.4,301.6 158.5,302 157.5,302.3 156.6,302.6 
		155.6,302.8 154.7,303 153.8,303.2 152.9,303.3 152.1,303.4 151.2,303.5 150.4,303.6 149.6,303.6 148.8,303.6 148,303.6 
		147.3,303.5 146.6,303.4 145.9,303.3 145.2,303.1 144.6,303 144,302.8 143.4,302.5 142.9,302.3 142.4,302 141.9,301.7 141.5,301.3 
		141.1,300.9 140.8,300.5 140.5,300.1 140.2,299.7 140,299.2 139.9,298.7 139.7,298.2 139.5,297.1 139.4,296 139.2,294.9 139,293.8 
		138.8,292.7 138.6,291.7 138.4,290.6 138.2,289.6 138.1,288.5 137.9,287.4 137.7,286.4 137.5,285.3 137.4,284.3 137.2,283.3 
		137,282.2 136.8,281.2 136.7,280.2 136.5,279.2 136.3,278.2 136.2,277.2 136,276.2 135.8,275.1 135.7,274.2 135.5,273.2 
		135.4,272.2 135.2,271.2 135,270.2 134.9,269.2 134.7,268.3 134.6,267.3 134.4,266.3 134.2,265.4 134.2,264.5 	"/>
	
		<linearGradient id="SVGID_4_" gradientUnits="userSpaceOnUse" x1="-654.0989" y1="349.144" x2="-371.5053" y2="349.144" gradientTransform="matrix(-0.471 0 0 0.471 166.457 37.2608)">
		<stop  offset="0" style="stop-color:#2C8CBF"/>
		<stop  offset="1" style="stop-color:#7AFFFF"/>
	</linearGradient>
	<polygon class="st3" points="474.5,178.5 474.4,189.7 474.2,190.6 473.9,191.5 473.3,192.4 472.5,193.3 471.6,194.2 470.5,195.1 
		469.2,195.9 467.7,196.8 466,197.5 464.2,198.3 462.1,199 460,199.8 457.9,200.5 455.8,201.3 453.7,202 451.6,202.8 449.5,203.5 
		447.4,204.3 445.3,205 443.2,205.8 441.1,206.5 439,207.3 436.9,208 434.8,208.8 432.7,209.5 430.6,210.3 428.5,211 426.4,211.8 
		424.3,212.6 422.2,213.3 420.1,214.1 418,214.8 415.9,215.6 413.8,216.3 411.7,217.1 409.6,217.8 407.6,218.6 405.5,219.3 
		403.4,220.1 401.3,220.9 399.2,221.6 397.1,222.4 396.1,222.7 395.1,223 394.1,223.3 393.1,223.6 392.1,223.8 391.1,224 
		390.1,224.2 389.1,224.4 388.1,224.5 387.1,224.7 386.1,224.8 385.1,224.8 384.1,224.9 383.1,224.9 382.2,224.9 381.2,224.9 
		380.3,224.8 379.4,224.8 378.5,224.7 377.6,224.6 376.8,224.4 376,224.3 375.2,224.1 374.4,223.9 373.7,223.7 373,223.4 
		372.4,223.1 371.7,222.8 371.1,222.5 370.6,222.2 370.1,221.8 369.6,221.4 368.7,220.6 367.8,219.8 367,219 366.1,218.2 
		365.2,217.4 364.3,216.6 363.4,215.9 362.6,215.1 361.7,214.3 360.8,213.5 360,212.7 359.1,212 358.2,211.2 357.4,210.4 
		356.5,209.7 355.7,208.9 354.9,208.2 354,207.4 353.2,206.7 352.4,205.9 351.5,205.2 350.7,204.5 349.9,203.7 349.1,203 
		348.3,202.3 347.5,201.5 346.7,200.8 345.9,200.1 345.1,199.4 344.3,198.7 343.5,198 342.7,197.2 342.1,196.6 341.7,195.9 
		341.5,195.2 341.4,194.4 341.6,183.3 341.6,184 341.9,184.7 342.3,185.4 342.9,186.1 343.7,186.8 344.5,187.5 345.2,188.2 
		346,188.9 346.8,189.6 347.6,190.4 348.4,191.1 349.2,191.8 350.1,192.6 350.9,193.3 351.7,194 352.5,194.8 353.4,195.5 
		354.2,196.3 355,197 355.9,197.8 356.7,198.5 357.5,199.3 358.4,200 359.2,200.8 360.1,201.6 361,202.3 361.8,203.1 362.7,203.9 
		363.6,204.7 364.5,205.5 365.3,206.3 366.2,207.1 367.1,207.8 368,208.6 368.9,209.4 369.8,210.3 370.2,210.6 370.7,211 
		371.3,211.3 371.9,211.7 372.5,212 373.2,212.2 373.9,212.5 374.6,212.7 375.3,212.9 376.1,213.1 376.9,213.3 377.8,213.4 
		378.6,213.5 379.5,213.6 380.4,213.7 381.4,213.7 382.3,213.7 383.3,213.7 384.2,213.7 385.2,213.7 386.2,213.6 387.2,213.5 
		388.2,213.4 389.2,213.2 390.2,213.1 391.2,212.9 392.3,212.6 393.3,212.4 394.3,212.1 395.3,211.8 396.2,211.5 397.2,211.2 
		399.3,210.4 401.4,209.7 403.5,208.9 405.6,208.2 407.7,207.4 409.8,206.7 411.9,205.9 414,205.1 416.1,204.4 418.2,203.6 
		420.3,202.9 422.4,202.1 424.5,201.4 426.6,200.6 428.7,199.9 430.8,199.1 432.9,198.4 435,197.6 437,196.9 439.1,196.1 
		441.2,195.4 443.3,194.6 445.4,193.9 447.5,193.1 449.6,192.3 451.7,191.6 453.8,190.8 455.9,190.1 458,189.3 460.1,188.6 
		462.2,187.8 464.3,187.1 466.1,186.4 467.8,185.6 469.3,184.8 470.6,183.9 471.7,183.1 472.7,182.2 473.4,181.2 474,180.3 
		474.4,179.4 474.5,178.5 	"/>
	
		<linearGradient id="SVGID_5_" gradientUnits="userSpaceOnUse" x1="-259.1784" y1="337.1025" x2="-95.8119" y2="337.1025" gradientTransform="matrix(-0.471 0 0 0.471 78.8554 39.5963)">
		<stop  offset="0" style="stop-color:#DE0000"/>
		<stop  offset="1" style="stop-color:#FF859B"/>
	</linearGradient>
	<polygon class="st4" points="124.1,187.8 124,199 124.1,199.5 124.1,200.1 124.2,200.6 124.3,201.1 124.3,201.7 124.4,202.2 
		124.5,202.7 124.5,203.2 124.6,203.8 124.7,204.3 124.7,204.9 124.8,205.4 124.9,205.9 125,206.5 125,207 125.1,207.6 125.2,208.1 
		125.2,208.7 125.3,209.2 125.4,209.8 125.4,210.3 125.5,210.9 125.6,211.4 125.7,212 125.7,212.6 125.8,213.1 125.9,213.7 
		125.9,214.3 126,214.8 126.1,215.4 126.2,216 126.2,216.5 126.4,217.1 126.6,217.5 127,217.9 127.6,218.2 128.2,218.5 129,218.6 
		129.8,218.7 130.7,218.8 131.7,218.8 132.8,218.7 134,218.5 135.2,218.3 136.5,218 137.9,217.6 139.2,217.2 140.6,216.6 
		142.2,216.1 143.7,215.5 145.2,214.9 146.7,214.3 148.2,213.7 149.8,213.1 151.3,212.6 152.8,212 154.3,211.4 155.8,210.8 
		157.4,210.2 158.9,209.6 160.4,209.1 161.9,208.5 163.4,207.9 165,207.3 166.5,206.7 168,206.2 169.5,205.6 171,205 172.6,204.4 
		174.1,203.8 175.6,203.2 177.1,202.7 178.7,202.1 180.2,201.5 181.7,200.9 183.2,200.3 184.7,199.8 186.3,199.2 187.8,198.6 
		189.3,198 190.7,197.5 192,196.9 193.2,196.3 194.4,195.6 195.5,195 196.5,194.3 197.4,193.6 198.2,192.9 198.9,192.3 199.6,191.6 
		200,191 200.4,190.3 200.7,189.7 200.8,189.1 200.9,178 200.8,178.5 200.6,179.1 200.2,179.8 199.7,180.4 199.1,181.1 198.4,181.8 
		197.6,182.4 196.6,183.1 195.6,183.8 194.6,184.4 193.4,185.1 192.1,185.7 190.8,186.3 189.5,186.8 187.9,187.4 186.4,188 
		184.9,188.6 183.4,189.2 181.8,189.7 180.3,190.3 178.8,190.9 177.3,191.5 175.8,192.1 174.2,192.7 172.7,193.2 171.2,193.8 
		169.7,194.4 168.2,195 166.6,195.6 165.1,196.1 163.6,196.7 162.1,197.3 160.5,197.9 159,198.5 157.5,199 156,199.6 154.5,200.2 
		152.9,200.8 151.4,201.4 149.9,202 148.4,202.5 146.9,203.1 145.3,203.7 143.8,204.3 142.3,204.9 140.8,205.5 139.4,206 138,206.4 
		136.7,206.8 135.4,207.1 134.2,207.3 133,207.5 131.9,207.6 130.9,207.6 129.9,207.6 129.1,207.5 128.4,207.3 127.7,207 
		127.2,206.7 126.8,206.3 126.5,205.9 126.4,205.4 126.3,204.8 126.2,204.2 126.2,203.7 126.1,203.1 126,202.5 125.9,201.9 
		125.9,201.4 125.8,200.8 125.7,200.3 125.7,199.7 125.6,199.2 125.5,198.6 125.5,198 125.4,197.5 125.3,196.9 125.2,196.4 
		125.2,195.9 125.1,195.3 125,194.8 125,194.2 124.9,193.7 124.8,193.1 124.8,192.6 124.7,192.1 124.6,191.5 124.6,191 124.5,190.5 
		124.4,189.9 124.3,189.4 124.3,188.9 124.2,188.4 124.1,187.8 	"/>
	
		<linearGradient id="SVGID_6_" gradientUnits="userSpaceOnUse" x1="-291.9085" y1="398.7289" x2="-101.4227" y2="398.7289" gradientTransform="matrix(-0.471 0 0 0.471 79.7363 47.8633)">
		<stop  offset="0" style="stop-color:#467500"/>
		<stop  offset="1" style="stop-color:#BCF000"/>
	</linearGradient>
	<polygon class="st5" points="127.7,220.9 127.5,232.1 127.6,232.8 127.7,233.5 127.8,234.2 127.9,234.8 128,235.5 128.1,236.2 
		128.2,236.9 128.3,237.6 128.4,238.4 128.5,239.1 128.6,239.8 128.7,240.5 128.8,241.2 128.9,241.9 129,242.6 129.1,243.4 
		129.2,244.1 129.3,244.8 129.4,245.6 129.5,246.3 129.6,247 129.7,247.8 129.8,248.5 129.9,249.3 130.1,250 130.2,250.8 
		130.3,251.5 130.4,252.3 130.5,253 130.6,253.8 130.7,254.6 130.8,255.3 131,256 131.4,256.7 131.9,257.2 132.5,257.7 133.3,258.1 
		134.1,258.3 135.1,258.6 136.2,258.7 137.5,258.7 138.7,258.7 140.1,258.5 141.5,258.3 143,258 144.6,257.6 146.2,257.1 
		147.8,256.5 149.6,255.8 151.3,255.1 153.1,254.4 154.9,253.8 156.6,253.1 158.4,252.4 160.2,251.7 161.9,251 163.7,250.4 
		165.5,249.7 167.2,249 169,248.3 170.7,247.7 172.5,247 174.3,246.3 176,245.6 177.8,244.9 179.6,244.3 181.3,243.6 183.1,242.9 
		184.8,242.2 186.6,241.6 188.4,240.9 190.1,240.2 191.9,239.6 193.7,238.9 195.4,238.2 197.2,237.5 198.9,236.9 200.7,236.2 
		202.5,235.5 204.2,234.8 205.8,234.2 207.3,233.5 208.8,232.8 210.1,232 211.3,231.2 212.5,230.4 213.5,229.5 214.4,228.7 
		215.2,227.8 215.9,227 216.4,226.2 216.8,225.3 217,224.6 217.1,223.8 217.2,212.6 217.1,213.4 216.9,214.2 216.5,215 216,215.8 
		215.3,216.7 214.6,217.5 213.6,218.4 212.6,219.2 211.5,220 210.2,220.8 208.9,221.6 207.5,222.3 206,223 204.4,223.7 202.6,224.3 
		200.9,225 199.1,225.7 197.3,226.4 195.6,227 193.8,227.7 192,228.4 190.3,229.1 188.5,229.7 186.8,230.4 185,231.1 183.2,231.7 
		181.5,232.4 179.7,233.1 177.9,233.8 176.2,234.4 174.4,235.1 172.7,235.8 170.9,236.5 169.1,237.2 167.4,237.8 165.6,238.5 
		163.8,239.2 162.1,239.9 160.3,240.5 158.5,241.2 156.8,241.9 155,242.6 153.2,243.3 151.5,243.9 149.7,244.6 147.9,245.3 
		146.3,245.9 144.7,246.4 143.2,246.8 141.7,247.1 140.3,247.3 138.9,247.5 137.6,247.5 136.4,247.5 135.3,247.4 134.3,247.2 
		133.4,246.9 132.6,246.5 132,246 131.5,245.5 131.2,244.9 131,244.2 130.9,243.4 130.7,242.6 130.6,241.9 130.5,241.1 130.4,240.3 
		130.3,239.6 130.2,238.8 130.1,238.1 130,237.3 129.9,236.6 129.8,235.9 129.7,235.1 129.6,234.4 129.5,233.7 129.4,232.9 
		129.2,232.2 129.1,231.5 129,230.7 128.9,230 128.8,229.3 128.7,228.6 128.6,227.9 128.5,227.2 128.4,226.5 128.3,225.8 
		128.2,225.1 128.1,224.4 128,223.7 127.9,223 127.8,222.3 127.7,221.6 127.7,220.9 	"/>
	
		<linearGradient id="SVGID_7_" gradientUnits="userSpaceOnUse" x1="-533.4531" y1="415.0546" x2="-278.344" y2="415.0546" gradientTransform="matrix(-0.471 0 0 0.471 107.5156 48.5255)">
		<stop  offset="0" style="stop-color:#DE0000"/>
		<stop  offset="1" style="stop-color:#FF859B"/>
	</linearGradient>
	<polygon class="st6" points="238.8,223.6 238.6,234.7 238.8,235.5 239.1,236.3 239.6,237.1 240,237.9 240.5,238.8 241,239.6 
		241.5,240.4 242,241.3 242.4,242.1 242.9,243 243.4,243.8 243.9,244.7 244.4,245.6 244.9,246.4 245.4,247.3 245.9,248.2 246.4,249 
		246.9,249.9 247.4,250.8 247.9,251.7 248.4,252.6 249,253.5 249.5,254.4 250,255.3 250.5,256.2 251,257.1 251.6,258 252.1,258.9 
		252.6,259.9 253.2,260.8 253.7,261.7 254.2,262.7 254.8,263.6 255.3,264.5 255.6,265 256,265.4 256.3,265.8 256.7,266.2 
		257.2,266.6 257.7,266.9 258.3,267.2 258.8,267.5 259.4,267.7 260.1,268 260.8,268.2 261.5,268.4 262.2,268.5 262.9,268.6 
		263.7,268.8 264.5,268.8 265.4,268.9 266.2,268.9 267.1,268.9 268,268.9 268.9,268.8 269.8,268.8 270.7,268.7 271.7,268.5 
		272.6,268.4 273.6,268.2 274.5,268 275.5,267.7 276.5,267.5 277.5,267.2 278.4,266.8 279.4,266.5 281.5,265.7 283.6,264.9 
		285.7,264.1 287.8,263.3 289.9,262.5 292,261.8 294.1,261 296.2,260.2 298.3,259.4 300.4,258.6 302.4,257.8 304.5,257.1 
		306.6,256.3 308.7,255.5 310.8,254.7 312.9,253.9 315,253.1 317.1,252.4 319.2,251.6 321.3,250.8 323.4,250 325.5,249.3 
		327.6,248.5 329.7,247.7 331.7,246.9 333.8,246.1 335.9,245.4 338,244.6 340.1,243.8 342.2,243.1 344.3,242.3 346.4,241.5 
		348.3,240.8 350,239.9 351.6,239.1 353.1,238.2 354.4,237.2 355.5,236.3 356.5,235.3 357.2,234.3 357.9,233.3 358.3,232.3 
		358.6,231.3 358.6,230.3 358.8,219.1 358.7,220.1 358.5,221.1 358,222.1 357.4,223.1 356.6,224.1 355.6,225.1 354.5,226.1 
		353.2,227 351.8,227.9 350.2,228.8 348.4,229.6 346.6,230.3 344.5,231.1 342.4,231.9 340.3,232.6 338.2,233.4 336.1,234.2 334,235 
		331.9,235.7 329.8,236.5 327.7,237.3 325.6,238.1 323.5,238.9 321.4,239.6 319.3,240.4 317.2,241.2 315.2,242 313.1,242.8 
		311,243.5 308.9,244.3 306.8,245.1 304.7,245.9 302.6,246.7 300.5,247.4 298.4,248.2 296.3,249 294.2,249.8 292.1,250.6 290,251.4 
		287.9,252.2 285.9,252.9 283.8,253.7 281.7,254.5 279.6,255.3 278.6,255.7 277.6,256 276.6,256.3 275.7,256.6 274.7,256.8 
		273.7,257 272.8,257.2 271.8,257.3 270.9,257.5 269.9,257.6 269,257.7 268.1,257.7 267.2,257.7 266.4,257.7 265.5,257.7 
		264.7,257.7 263.9,257.6 263.1,257.5 262.3,257.3 261.6,257.2 260.9,257 260.2,256.8 259.6,256.6 259,256.3 258.4,256 257.9,255.7 
		257.4,255.4 256.9,255 256.5,254.6 256.1,254.2 255.8,253.8 255.5,253.4 254.9,252.4 254.4,251.5 253.9,250.5 253.3,249.6 
		252.8,248.7 252.2,247.8 251.7,246.8 251.2,245.9 250.7,245 250.1,244.1 249.6,243.2 249.1,242.3 248.6,241.4 248.1,240.5 
		247.6,239.6 247.1,238.7 246.6,237.9 246.1,237 245.6,236.1 245.1,235.2 244.6,234.4 244.1,233.5 243.6,232.7 243.1,231.8 
		242.6,231 242.1,230.1 241.6,229.3 241.1,228.4 240.7,227.6 240.2,226.7 239.7,225.9 239.2,225.1 238.9,224.3 238.8,223.6 	"/>
	
		<linearGradient id="SVGID_8_" gradientUnits="userSpaceOnUse" x1="-396.8094" y1="285.6599" x2="-219.5431" y2="285.6599" gradientTransform="matrix(-0.471 0 0 0.471 98.2812 31.8922)">
		<stop  offset="0" style="stop-color:#C900B8"/>
		<stop  offset="1" style="stop-color:#FFA8F8"/>
	</linearGradient>
	<polygon class="st7" points="201.8,157 201.7,168.2 201.7,168.7 201.9,169.1 202.4,170 202.9,170.9 203.3,171.8 203.8,172.8 
		204.4,173.7 204.9,174.6 205.4,175.6 205.9,176.5 206.4,177.4 206.9,178.4 207.5,179.4 208,180.3 208.5,181.3 209,182.3 
		209.6,183.3 210.1,184.3 210.4,184.7 210.9,185.1 211.5,185.4 212.2,185.7 213,185.8 213.9,186 214.9,186 215.9,186 217.1,186 
		218.3,185.8 219.5,185.7 220.8,185.4 222.2,185.1 223.5,184.7 224.9,184.3 226.3,183.8 227.8,183.2 229.4,182.7 230.9,182.1 
		232.4,181.5 233.9,181 235.4,180.4 237,179.8 238.5,179.3 240,178.7 241.5,178.1 243,177.6 244.5,177 246.1,176.4 247.6,175.9 
		249.1,175.3 250.6,174.7 252.1,174.2 253.7,173.6 255.2,173.1 256.7,172.5 258.2,171.9 259.7,171.4 261.2,170.8 262.8,170.2 
		264.3,169.7 265.8,169.1 267.3,168.5 268.8,168 270.4,167.4 271.9,166.8 273.4,166.3 274.9,165.7 276.3,165.2 277.6,164.6 
		278.8,164 279.9,163.4 280.9,162.8 281.8,162.2 282.6,161.6 283.3,160.9 283.9,160.3 284.4,159.7 284.7,159.1 284.9,158.6 285,158 
		285.2,146.8 285.1,147.4 284.9,147.9 284.5,148.5 284.1,149.1 283.5,149.8 282.8,150.4 282,151 281,151.6 280,152.3 278.9,152.9 
		277.7,153.4 276.4,154 275,154.5 273.5,155.1 272,155.7 270.5,156.2 269,156.8 267.5,157.4 265.9,157.9 264.4,158.5 262.9,159.1 
		261.4,159.6 259.9,160.2 258.4,160.7 256.8,161.3 255.3,161.9 253.8,162.4 252.3,163 250.8,163.6 249.2,164.1 247.7,164.7 
		246.2,165.3 244.7,165.8 243.2,166.4 241.7,167 240.1,167.5 238.6,168.1 237.1,168.7 235.6,169.2 234.1,169.8 232.5,170.4 
		231,170.9 229.5,171.5 228,172.1 226.5,172.6 225.1,173.1 223.7,173.6 222.3,173.9 221,174.2 219.7,174.5 218.4,174.7 217.2,174.8 
		216.1,174.9 215,174.9 214,174.8 213.1,174.7 212.3,174.5 211.6,174.2 211.1,173.9 210.6,173.5 210.3,173.1 209.7,172.1 
		209.2,171.1 208.7,170.1 208.1,169.2 207.6,168.2 207.1,167.2 206.6,166.3 206,165.3 205.5,164.4 205,163.4 204.5,162.5 204,161.6 
		203.5,160.7 203,159.7 202.5,158.8 202,157.9 201.9,157.5 201.8,157 	"/>
	
		<linearGradient id="SVGID_9_" gradientUnits="userSpaceOnUse" x1="-453.0143" y1="339.6002" x2="-244.2992" y2="339.6002" gradientTransform="matrix(-0.471 0 0 0.471 102.1679 38.9825)">
		<stop  offset="0" style="stop-color:#171D8F"/>
		<stop  offset="1" style="stop-color:#0085EB"/>
	</linearGradient>
	<polygon class="st8" points="217.4,185.4 217.2,196.6 217.3,197.2 217.5,197.7 217.8,198.3 218.2,198.9 218.5,199.5 218.8,200.1 
		219.2,200.7 219.5,201.3 219.8,201.9 220.2,202.5 220.5,203.1 220.9,203.8 221.2,204.4 221.5,205 221.9,205.6 222.2,206.2 
		222.6,206.9 222.9,207.5 223.3,208.1 223.6,208.8 224,209.4 224.3,210 224.7,210.7 225,211.3 225.4,212 225.8,212.6 226.1,213.2 
		226.5,213.9 226.8,214.6 227.2,215.2 227.6,215.9 227.9,216.5 228.3,217.2 228.7,217.8 228.9,218.2 229.1,218.5 229.4,218.7 
		229.7,219 230.1,219.2 230.4,219.4 230.9,219.6 231.3,219.8 231.8,220 232.3,220.1 232.8,220.3 233.4,220.4 233.9,220.4 
		234.5,220.5 235.2,220.5 235.8,220.6 236.5,220.6 237.2,220.6 237.9,220.5 238.6,220.5 239.3,220.4 240.1,220.3 240.8,220.2 
		241.6,220 242.4,219.9 243.2,219.7 244,219.5 244.8,219.3 245.6,219.1 246.4,218.8 247.2,218.5 248,218.2 249.8,217.6 251.5,216.9 
		253.3,216.2 255,215.6 256.8,214.9 258.6,214.3 260.3,213.6 262.1,212.9 263.8,212.3 265.6,211.6 267.4,211 269.1,210.3 
		270.9,209.7 272.6,209 274.4,208.4 276.2,207.7 277.9,207 279.7,206.4 281.4,205.7 283.2,205.1 285,204.4 286.7,203.8 288.5,203.1 
		290.3,202.5 292,201.8 293.8,201.2 295.5,200.5 297.3,199.8 299.1,199.2 300.8,198.5 302.6,197.9 304.4,197.2 305.9,196.6 
		307.4,195.9 308.8,195.2 310,194.5 311.2,193.8 312.2,193 313.1,192.2 313.8,191.5 314.4,190.7 314.9,189.9 315.2,189.2 
		315.4,188.5 315.5,177.3 315.4,178 315.1,178.8 314.6,179.5 314,180.3 313.2,181.1 312.3,181.8 311.3,182.6 310.2,183.3 
		308.9,184.1 307.6,184.8 306.1,185.4 304.5,186.1 302.7,186.7 301,187.4 299.2,188 297.5,188.7 295.7,189.3 293.9,190 292.2,190.6 
		290.4,191.3 288.6,191.9 286.9,192.6 285.1,193.2 283.4,193.9 281.6,194.6 279.8,195.2 278.1,195.9 276.3,196.5 274.5,197.2 
		272.8,197.8 271,198.5 269.3,199.1 267.5,199.8 265.7,200.5 264,201.1 262.2,201.8 260.5,202.4 258.7,203.1 256.9,203.7 
		255.2,204.4 253.4,205.1 251.7,205.7 249.9,206.4 248.2,207.1 247.3,207.3 246.5,207.6 245.7,207.9 244.9,208.1 244.1,208.3 
		243.3,208.5 242.5,208.7 241.7,208.9 241,209 240.2,209.1 239.5,209.2 238.7,209.3 238,209.3 237.3,209.4 236.6,209.4 236,209.4 
		235.3,209.4 234.7,209.3 234.1,209.3 233.5,209.2 233,209.1 232.4,209 231.9,208.8 231.5,208.7 231,208.5 230.6,208.3 230.2,208.1 
		229.9,207.8 229.6,207.6 229.3,207.3 229,207 228.8,206.7 228.5,206 228.1,205.3 227.7,204.7 227.4,204 227,203.4 226.6,202.7 
		226.3,202.1 225.9,201.4 225.5,200.8 225.2,200.1 224.8,199.5 224.5,198.9 224.1,198.2 223.8,197.6 223.4,196.9 223.1,196.3 
		222.7,195.7 222.4,195.1 222,194.4 221.7,193.8 221.3,193.2 221,192.6 220.7,192 220.3,191.4 220,190.7 219.6,190.1 219.3,189.5 
		219,188.9 218.6,188.3 218.3,187.7 218,187.1 217.7,186.5 217.4,186 217.4,185.4 	"/>
	
		<linearGradient id="SVGID_10_" gradientUnits="userSpaceOnUse" x1="-535.3983" y1="235.9153" x2="-343.5691" y2="235.9153" gradientTransform="matrix(-0.471 0 0 0.471 117.7558 24.6265)">
		<stop  offset="0" style="stop-color:#FFD500"/>
		<stop  offset="1" style="stop-color:#FAFFB2"/>
	</linearGradient>
	<polygon class="st9" points="279.7,128 279.6,139.1 279.6,139.6 279.8,140 280.1,140.3 281,141.1 281.8,141.9 282.7,142.7 
		283.5,143.4 284.4,144.2 285.3,145 286.1,145.8 287,146.7 287.9,147.5 288.8,148.3 289.7,149.1 290.6,149.9 291.5,150.8 
		292.4,151.6 293.3,152.4 294.2,153.3 294.5,153.5 294.8,153.7 295.1,153.8 295.4,154 295.8,154.1 296.2,154.2 296.6,154.3 
		297,154.4 297.5,154.5 298,154.6 298.5,154.6 299,154.6 299.6,154.7 300.2,154.7 300.7,154.7 301.3,154.6 302,154.6 302.6,154.5 
		303.2,154.5 303.9,154.4 304.6,154.3 305.2,154.2 305.9,154 306.6,153.9 307.3,153.7 308,153.6 308.7,153.4 309.4,153.2 310.1,153 
		310.8,152.8 311.5,152.5 312.2,152.3 313.7,151.7 315.3,151.2 316.8,150.6 318.3,150.1 319.8,149.5 321.3,149 322.9,148.4 
		324.4,147.9 325.9,147.3 327.4,146.8 328.9,146.2 330.5,145.7 332,145.1 333.5,144.5 335,144 336.5,143.4 338.1,142.9 339.6,142.3 
		341.1,141.8 342.6,141.2 344.2,140.7 345.7,140.1 347.2,139.6 348.7,139 350.2,138.5 351.7,137.9 353.3,137.4 354.8,136.8 
		356.3,136.3 357.8,135.7 359.3,135.2 360.9,134.6 362.2,134.1 363.5,133.6 364.6,133 365.7,132.4 366.6,131.9 367.5,131.3 
		368.2,130.7 368.7,130.1 369.2,129.6 369.5,129 369.7,128.5 369.8,128 369.9,116.8 369.9,117.3 369.7,117.8 369.4,118.4 368.9,119 
		368.3,119.5 367.6,120.1 366.8,120.7 365.8,121.3 364.8,121.8 363.6,122.4 362.4,122.9 361,123.4 359.5,124 358,124.5 356.5,125.1 
		354.9,125.6 353.4,126.2 351.9,126.7 350.4,127.3 348.9,127.8 347.3,128.4 345.8,128.9 344.3,129.5 342.8,130.1 341.3,130.6 
		339.7,131.2 338.2,131.7 336.7,132.3 335.2,132.8 333.7,133.4 332.1,133.9 330.6,134.5 329.1,135 327.6,135.6 326.1,136.1 
		324.5,136.7 323,137.2 321.5,137.8 320,138.4 318.5,138.9 316.9,139.5 315.4,140 313.9,140.6 312.4,141.1 311.7,141.4 311,141.6 
		310.3,141.8 309.6,142 308.9,142.2 308.2,142.4 307.5,142.6 306.8,142.7 306.1,142.9 305.4,143 304.7,143.1 304,143.2 303.4,143.3 
		302.7,143.4 302.1,143.4 301.5,143.4 300.9,143.5 300.3,143.5 299.7,143.5 299.2,143.5 298.6,143.4 298.1,143.4 297.6,143.3 
		297.2,143.3 296.7,143.2 296.3,143.1 295.9,142.9 295.5,142.8 295.2,142.7 294.9,142.5 294.6,142.3 294.4,142.1 293.5,141.3 
		292.5,140.4 291.6,139.6 290.7,138.8 289.8,137.9 288.9,137.1 288,136.3 287.2,135.5 286.3,134.7 285.4,133.9 284.5,133.1 
		283.7,132.3 282.8,131.5 282,130.7 281.1,129.9 280.3,129.1 279.9,128.8 279.8,128.4 279.7,128 	"/>
	
		<linearGradient id="SVGID_11_" gradientUnits="userSpaceOnUse" x1="-614.8667" y1="280.9172" x2="-386.5703" y2="280.9172" gradientTransform="matrix(-0.471 0 0 0.471 124.5058 30.544)">
		<stop  offset="0" style="stop-color:#C900B8"/>
		<stop  offset="1" style="stop-color:#FFA8F8"/>
	</linearGradient>
	<polygon class="st10" points="306.7,151.6 306.6,162.8 306.7,163.4 307,163.9 307.4,164.3 307.9,164.8 308.5,165.4 309.1,165.9 
		309.6,166.4 310.2,166.9 310.8,167.4 311.3,167.9 311.9,168.5 312.5,169 313,169.5 313.6,170 314.2,170.6 314.8,171.1 315.4,171.6 
		316,172.2 316.6,172.7 317.2,173.2 317.7,173.8 318.3,174.3 318.9,174.9 319.5,175.4 320.1,176 320.8,176.5 321.4,177.1 322,177.6 
		322.6,178.2 323.2,178.7 323.8,179.3 324.4,179.9 325.1,180.4 325.7,181 326.3,181.6 326.6,181.8 327,182.1 327.4,182.3 
		327.8,182.5 328.3,182.7 328.8,182.9 329.3,183 329.9,183.2 330.5,183.3 331.1,183.4 331.7,183.5 332.4,183.6 333,183.6 
		333.7,183.6 334.5,183.7 335.2,183.7 335.9,183.6 336.7,183.6 337.5,183.5 338.3,183.5 339.1,183.4 339.9,183.3 340.7,183.1 
		341.5,183 342.3,182.8 343.2,182.6 344,182.4 344.8,182.2 345.7,182 346.5,181.7 347.3,181.5 348.1,181.2 349.9,180.5 351.7,179.9 
		353.4,179.2 355.2,178.6 356.9,178 358.7,177.3 360.5,176.7 362.2,176 364,175.4 365.7,174.8 367.5,174.1 369.2,173.5 371,172.8 
		372.8,172.2 374.5,171.6 376.3,170.9 378,170.3 379.8,169.7 381.5,169 383.3,168.4 385.1,167.7 386.8,167.1 388.6,166.5 
		390.3,165.8 392.1,165.2 393.8,164.5 395.6,163.9 397.3,163.3 399.1,162.6 400.9,162 402.6,161.3 404.4,160.7 405.9,160.1 
		407.4,159.5 408.7,158.8 409.9,158.1 410.9,157.4 411.8,156.7 412.5,156 413.1,155.3 413.6,154.6 413.8,153.9 414,153.2 
		414.1,142.1 414,142.7 413.7,143.4 413.3,144.1 412.7,144.8 411.9,145.5 411,146.2 410,146.9 408.8,147.6 407.5,148.3 406.1,148.9 
		404.5,149.5 402.8,150.2 401,150.8 399.2,151.4 397.5,152.1 395.7,152.7 394,153.4 392.2,154 390.5,154.6 388.7,155.3 387,155.9 
		385.2,156.6 383.4,157.2 381.7,157.8 379.9,158.5 378.2,159.1 376.4,159.8 374.7,160.4 372.9,161 371.2,161.7 369.4,162.3 
		367.6,162.9 365.9,163.6 364.1,164.2 362.4,164.9 360.6,165.5 358.9,166.1 357.1,166.8 355.3,167.4 353.6,168.1 351.8,168.7 
		350,169.4 348.3,170 347.5,170.3 346.6,170.6 345.8,170.8 345,171 344.2,171.3 343.3,171.5 342.5,171.6 341.7,171.8 340.8,171.9 
		340,172.1 339.2,172.2 338.4,172.3 337.6,172.4 336.8,172.4 336.1,172.5 335.3,172.5 334.6,172.5 333.9,172.5 333.2,172.4 
		332.5,172.4 331.8,172.3 331.2,172.2 330.6,172.1 330,172 329.5,171.9 328.9,171.7 328.4,171.5 328,171.3 327.5,171.1 327.1,170.9 
		326.8,170.6 326.5,170.4 325.8,169.8 325.2,169.2 324.6,168.7 324,168.1 323.4,167.6 322.7,167 322.1,166.4 321.5,165.9 
		320.9,165.3 320.3,164.8 319.7,164.2 319.1,163.7 318.5,163.2 317.9,162.6 317.3,162.1 316.7,161.5 316.1,161 315.5,160.5 
		314.9,159.9 314.4,159.4 313.8,158.9 313.2,158.3 312.6,157.8 312,157.3 311.5,156.8 310.9,156.2 310.3,155.7 309.8,155.2 
		309.2,154.7 308.6,154.2 308.1,153.7 307.5,153.2 307.1,152.7 306.8,152.2 306.7,151.6 	"/>
	<g>
		
			<linearGradient id="SVGID_12_" gradientUnits="userSpaceOnUse" x1="-296.6574" y1="216.4216" x2="-488.1754" y2="216.4216" gradientTransform="matrix(-0.471 0 0 0.471 139.998 21.4156)">
			<stop  offset="0" style="stop-color:#FFD500"/>
			<stop  offset="1" style="stop-color:#FAFFB2"/>
		</linearGradient>
		<path class="st11" d="M368.7,115.1c-6.7-3.8-13.2-7.5-19.2-11.1c-2.7-1.6-10.4-0.9-17.1,1.6c-14.5,5.3-29,10.5-43.5,15.8
			c-6.7,2.4-10.6,5.9-8.6,7.7c4.5,4.1,9.2,8.5,14.1,13c2.4,2.2,10.5,1.7,18-1c16.2-5.9,32.4-11.8,48.6-17.7
			C368.5,120.7,372,117,368.7,115.1L368.7,115.1z"/>
		
			<linearGradient id="SVGID_13_" gradientUnits="userSpaceOnUse" x1="-330.9244" y1="255.6677" x2="-558.9211" y2="255.6677" gradientTransform="matrix(-0.471 0 0 0.471 150.8593 27.4273)">
			<stop  offset="0" style="stop-color:#C900B8"/>
			<stop  offset="1" style="stop-color:#FFA8F8"/>
		</linearGradient>
		<path class="st12" d="M412.1,139.2c-9.1-5.2-17.7-10.1-25.8-14.7c-3.6-2.1-12.7-1.5-20.3,1.3c-16.4,6-32.9,12-49.4,18
			c-7.6,2.8-11.8,7-9.1,9.4c5.9,5.4,12.2,11.2,18.9,17.2c3.3,2.9,13.1,2.8,21.8-0.4c18.8-6.8,37.5-13.6,56.2-20.5
			C413.2,146.3,416.6,141.7,412.1,139.2L412.1,139.2z"/>
		
			<linearGradient id="SVGID_14_" gradientUnits="userSpaceOnUse" x1="-175.9197" y1="263.2413" x2="-352.885" y2="263.2413" gradientTransform="matrix(-0.471 0 0 0.471 118.9687 28.9874)">
			<stop  offset="0" style="stop-color:#C900B8"/>
			<stop  offset="1" style="stop-color:#FFA8F8"/>
		</linearGradient>
		<path class="st13" d="M284.6,145.4c-4.7-4.6-9.2-9-13.4-13.2c-1.9-1.9-8.9-1.4-15.6,1.1c-14.5,5.4-29,10.7-43.4,16.1
			c-6.7,2.5-11.3,6.3-10.1,8.5c2.6,4.8,5.4,9.9,8.3,15.2c1.4,2.5,8.7,2.3,16.2-0.5c16.2-6,32.4-12.1,48.6-18.1
			C282.6,151.8,286.8,147.6,284.6,145.4L284.6,145.4z"/>
		
			<linearGradient id="SVGID_15_" gradientUnits="userSpaceOnUse" x1="-193.0249" y1="310.2579" x2="-401.4799" y2="310.2579" gradientTransform="matrix(-0.471 0 0 0.471 126.4667 36.3135)">
			<stop  offset="0" style="stop-color:#171D8F"/>
			<stop  offset="1" style="stop-color:#0085EB"/>
		</linearGradient>
		<path class="st14" d="M314.6,174.7c-6.4-6.2-12.4-12-18-17.6c-2.5-2.5-10.7-2.1-18.4,0.7c-16.5,6.1-33,12.2-49.4,18.4
			c-7.6,2.9-12.7,7.5-11.1,10.3c3.5,6.4,7.2,13.1,11.2,20.1c1.9,3.5,10.6,3.6,19.3,0.4c18.7-7.1,37.6-14,56.3-21
			C313.2,182.8,317.7,177.7,314.6,174.7L314.6,174.7z"/>
		
			<linearGradient id="SVGID_16_" gradientUnits="userSpaceOnUse" x1="-215.8747" y1="374.6417" x2="-470.6841" y2="374.6417" gradientTransform="matrix(-0.471 0 0 0.471 137.0781 46.5142)">
			<stop  offset="0" style="stop-color:#DE0000"/>
			<stop  offset="1" style="stop-color:#FF859B"/>
		</linearGradient>
		<path class="st15" d="M357,215.5c-9.2-8.8-17.7-17.1-25.8-24.8c-3.5-3.4-13.6-3.4-22.4-0.1c-19.1,7.1-38.2,14.3-57.4,21.5
			c-8.8,3.3-14.4,9.1-12.1,13c5,8.8,10.4,18.2,16.2,28.3c2.8,4.9,13.7,5.9,24.1,1.9c22.3-8.4,44.6-16.8,67-25
			C356.9,226.5,361.6,219.8,357,215.5L357,215.5z"/>
		
			<linearGradient id="SVGID_17_" gradientUnits="userSpaceOnUse" x1="-54.3103" y1="366.4698" x2="-244.534" y2="366.4698" gradientTransform="matrix(-0.471 0 0 0.471 102.0507 45.441)">
			<stop  offset="0" style="stop-color:#467500"/>
			<stop  offset="1" style="stop-color:#BCF000"/>
		</linearGradient>
		<path class="st16" d="M216.9,211.2c-3.6-7.2-7-14.1-10.2-20.6c-1.4-2.9-8.8-2.8-16.4,0.1c-16.5,6.3-33.1,12.6-49.6,19
			c-7.6,2.9-13.5,8-13.1,11.2c1,7.3,2.1,15,3.3,23.3c0.6,4,8.2,4.5,17,1.1c18.9-7.3,37.6-14.5,56.5-21.6
			C213.1,220.3,218.7,214.7,216.9,211.2L216.9,211.2z"/>
		
			<linearGradient id="SVGID_18_" gradientUnits="userSpaceOnUse" x1="-55.4255" y1="311.9612" x2="-218.532" y2="311.9612" gradientTransform="matrix(-0.471 0 0 0.471 98.0097 36.8604)">
			<stop  offset="0" style="stop-color:#DE0000"/>
			<stop  offset="1" style="stop-color:#FF859B"/>
		</linearGradient>
		<path class="st17" d="M200.7,176.9c-2.6-5.4-5.1-10.6-7.5-15.5c-1.1-2.2-7.4-1.9-14.1,0.6c-14.5,5.5-29,11.1-43.4,16.6
			c-6.8,2.6-12,6.7-11.6,9.2c0.8,5.6,1.5,11.4,2.2,17.5c0.4,2.9,6.8,3,14.4,0.1c16.2-6.2,32.4-12.4,48.7-18.6
			C196.9,184,202,179.5,200.7,176.9L200.7,176.9z"/>
		
			<linearGradient id="SVGID_19_" gradientUnits="userSpaceOnUse" x1="-436.6418" y1="310.0975" x2="-718.9485" y2="310.0975" gradientTransform="matrix(-0.471 0 0 0.471 135.9218 36.1964)">
			<stop  offset="0" style="stop-color:#2C8CBF"/>
			<stop  offset="1" style="stop-color:#7AFFFF"/>
		</linearGradient>
		<path class="st18" d="M352.4,174.2c19.1-7,38.1-13.9,57.2-20.9c8.8-3.2,20-3.5,25-0.7c11.4,6.5,23.6,13.4,36.7,20.9
			c6.4,3.6,3.4,9.8-6.9,13.5c-22.4,8.1-44.7,16-67.1,24.1c-10.4,3.8-22.8,3.3-27.4-0.9c-9.6-8.6-18.6-16.6-26.9-24.2
			C339.2,182.8,343.5,177.5,352.4,174.2L352.4,174.2z"/>
		
			<linearGradient id="SVGID_20_" gradientUnits="userSpaceOnUse" x1="-55.2572" y1="441.2148" x2="-284.1198" y2="441.2148" gradientTransform="matrix(-0.471 0 0 0.471 108.1699 57.3116)">
			<stop  offset="0" style="stop-color:#2C8CBF"/>
			<stop  offset="1" style="stop-color:#7AFFFF"/>
		</linearGradient>
		<path class="st19" d="M241.4,258.7c-5.4-10.2-10.3-19.9-14.9-28.8c-2-3.9-10.9-4.3-19.8-0.9c-19.1,7.3-38.3,14.7-57.5,22.1
			c-8.9,3.4-15.6,9.9-14.9,14.3c1.6,10.2,3.5,21.1,5.5,32.8c1,5.7,10.3,7.2,20.7,3.1c22.4-8.8,44.7-17.5,67.1-26.1
			C237.8,271.2,244,263.7,241.4,258.7L241.4,258.7z"/>
		
			<linearGradient id="SVGID_21_" gradientUnits="userSpaceOnUse" x1="-60.642" y1="548.3276" x2="-346.1317" y2="548.3276" gradientTransform="matrix(-0.471 0 0 0.471 117.707 74.5567)">
			<stop  offset="0" style="stop-color:#467500"/>
			<stop  offset="1" style="stop-color:#BCF000"/>
		</linearGradient>
		<path class="st20" d="M279.5,327.7c-8.4-15.4-16-29.6-23-42.8c-3.1-5.8-14.2-7-24.8-3c-22.8,8.8-45.5,17.8-68.3,26.7
			c-10.6,4.1-18.2,12.8-17,19.3c2.9,15,5.8,31.4,9.3,49c1.7,8.6,13.7,11.8,26.2,6.7c27.4-11,54.8-22.2,82.1-33
			C276.8,345.7,283.7,335.3,279.5,327.7L279.5,327.7z"/>
		
			<linearGradient id="SVGID_22_" gradientUnits="userSpaceOnUse" x1="117.6548" y1="508.4829" x2="-100.0613" y2="508.4829" gradientTransform="matrix(-0.471 0 0 0.471 79.457 68.3311)">
			<stop  offset="0" style="stop-color:#FFD500"/>
			<stop  offset="1" style="stop-color:#FAFFB2"/>
		</linearGradient>
		<path class="st21" d="M126.5,302.8c-1.6-11.8-3-22.8-4.3-33.1c-0.6-4.5-8.3-5.3-17.2-1.8c-19.3,7.5-38.7,15.1-58,22.6
			c-9,3.5-17,10.5-17.7,15.5c-1.7,11.6-3.5,24.1-5.3,37.5c-0.8,6.4,7.2,8.6,17.5,4.5c22.6-9,45.1-18.1,67.6-27
			C119.5,316.8,127.3,308.5,126.5,302.8L126.5,302.8z"/>
	</g>
	<g>
		<path class="st22" d="M281.5,125.3c-1.7,1.5-2.3,2.9-1.2,3.8c4.5,4.1,9.2,8.5,14.1,13c2.4,2.2,10.5,1.7,18-1
			c16.2-5.9,32.4-11.8,48.6-17.7c5.6-2,9-4.6,8.9-6.6c-1.5,1.3-4,2.6-7.1,3.8c-16.2,5.9-32.4,11.8-48.6,17.7c-7.4,2.7-15.6,3.2-18,1
			c-5-4.5-9.6-8.9-14.1-13C281.7,126,281.5,125.7,281.5,125.3L281.5,125.3z"/>
		<path class="st22" d="M308.5,148.3c-1.9,1.8-2.4,3.6-1,4.8c5.9,5.4,12.2,11.2,18.9,17.2c3.3,2.9,13.1,2.8,21.8-0.4
			c18.8-6.8,37.5-13.6,56.2-20.5c5.7-2.1,9.2-4.8,9.6-7.2c-1.6,1.5-4.3,3.1-7.8,4.3c-18.7,6.8-37.4,13.6-56.2,20.5
			c-8.7,3.2-18.6,3.3-21.8,0.4c-6.7-6-13-11.8-18.9-17.2C308.7,149.8,308.4,149.1,308.5,148.3L308.5,148.3z"/>
		<path class="st22" d="M203.6,154.2c-1.5,1.4-2.1,2.7-1.6,3.7c2.6,4.8,5.4,9.9,8.3,15.2c1.4,2.5,8.7,2.3,16.2-0.5
			c16.2-6,32.4-12.1,48.6-18.1c6-2.2,9.9-5.3,10.1-7.5c-1.7,1.6-4.6,3.3-8.4,4.7c-16.2,6-32.4,12-48.6,18.1
			c-7.5,2.8-14.8,3-16.2,0.5c-2.9-5.3-5.7-10.3-8.3-15.2C203.6,154.8,203.6,154.5,203.6,154.2L203.6,154.2z"/>
		<path class="st22" d="M219.2,181.9c-1.6,1.7-2.3,3.3-1.6,4.6c3.5,6.4,7.2,13.1,11.2,20.2c1.9,3.5,10.6,3.6,19.3,0.4
			c18.7-7.1,37.6-14,56.3-21c6.2-2.3,10.2-5.5,10.9-8.3c-1.9,1.9-5,3.9-9.2,5.4c-18.8,7-37.6,13.9-56.3,21
			c-8.7,3.3-17.4,3.1-19.3-0.4c-4-7.1-7.7-13.8-11.2-20.2C219.1,183.2,219.1,182.6,219.2,181.9L219.2,181.9z"/>
		<path class="st22" d="M240.8,218.8c-2,2.2-2.6,4.5-1.6,6.3c5,8.8,10.4,18.2,16.2,28.3c2.8,4.9,13.7,5.9,24.1,1.9
			c22.3-8.4,44.6-16.8,67-25c6.4-2.4,10.6-5.8,11.8-9.1c-2.1,2.3-5.5,4.6-10.1,6.3c-22.4,8.2-44.6,16.6-67,25
			c-10.4,3.9-21.3,3-24.1-1.9c-5.8-10.1-11.2-19.5-16.2-28.3C240.4,221.2,240.4,220,240.8,218.8L240.8,218.8z"/>
		<path class="st22" d="M129.5,216.8c-1.3,1.5-2.1,2.9-1.9,4.1c1,7.3,2.1,15,3.3,23.3c0.6,4,8.2,4.5,17,1.1
			c18.9-7.3,37.6-14.5,56.5-21.6c6.6-2.5,11.5-6.4,12.6-9.7c-2.2,2.5-6,5-10.8,6.8c-18.8,7.2-37.6,14.4-56.5,21.6
			c-8.7,3.4-16.4,2.9-17-1.1c-1.2-8.2-2.3-15.9-3.3-23.3C129.4,217.7,129.4,217.2,129.5,216.8L129.5,216.8z"/>
		<path class="st22" d="M125.9,184.5c-1.2,1.2-1.9,2.4-1.8,3.3c0.8,5.6,1.5,11.4,2.2,17.5c0.4,2.9,6.8,3,14.4,0.1
			c16.2-6.2,32.4-12.4,48.7-18.6c6.3-2.4,10.9-6,11.4-8.6c-2,2-5.4,4.2-9.7,5.8c-16.2,6.2-32.4,12.4-48.7,18.6
			c-7.6,2.9-14,2.9-14.4-0.1c-0.8-6.1-1.5-12-2.2-17.5C125.9,184.9,125.9,184.7,125.9,184.5L125.9,184.5z"/>
		<path class="st22" d="M474.4,179.4c-0.8,2.7-4.3,5.6-10.1,7.7c-22.4,8.1-44.7,16-67.1,24.1c-10.4,3.8-22.8,3.3-27.4-0.9
			c-9.6-8.6-18.6-16.6-26.9-24.2c-2-1.8-1.6-4.2,0.6-6.6c-0.4,1.4,0,2.7,1.2,3.8c8.3,7.5,17.3,15.5,26.9,24.2
			c4.7,4.2,17.1,4.7,27.4,0.9c22.3-8.1,44.7-16.1,67.1-24.1C469.9,182.9,472.7,181.2,474.4,179.4L474.4,179.4z"/>
		<path class="st22" d="M136.5,259.6c-1.7,2-2.5,4-2.2,5.8c1.6,10.2,3.5,21.1,5.5,32.8c1,5.7,10.3,7.2,20.7,3.1
			c22.4-8.8,44.7-17.5,67.1-26.1c6.9-2.7,12-6.9,13.8-11c-2.5,3.1-6.7,6.1-12.1,8.1c-22.4,8.6-44.7,17.3-67.1,26.1
			c-10.3,4.1-19.7,2.6-20.7-3.1c-2-11.7-3.8-22.6-5.5-32.8C135.9,261.7,136,260.7,136.5,259.6L136.5,259.6z"/>
		<path class="st22" d="M149.3,318.8c-2.3,3.1-3.4,6.3-2.9,9.1c2.9,15,5.8,31.4,9.3,49c1.7,8.6,13.7,11.8,26.2,6.7
			c27.4-11,54.8-22.2,82.1-33c7.3-2.9,12.7-7.5,15.2-12.4c-2.9,3.8-7.5,7.3-13.4,9.6c-27.4,10.7-54.7,21.9-82.1,33
			c-12.6,5.1-24.5,1.9-26.2-6.7c-3.5-17.6-6.4-34-9.3-49C147.8,323.1,148.2,321,149.3,318.8L149.3,318.8z"/>
		<path class="st22" d="M31.7,301.1c-1.3,1.7-2.2,3.3-2.4,4.8c-1.7,11.6-3.5,24.1-5.3,37.5c-0.8,6.4,7.2,8.6,17.5,4.5
			c22.6-9,45.1-18.1,67.6-27c7.6-3,13.9-8.4,16.3-13.3c-3.1,4-8.4,8-14.6,10.5c-22.5,9-45,18-67.6,27c-10.4,4.1-18.4,2-17.5-4.5
			c1.7-13.4,3.5-25.8,5.3-37.5C31.2,302.5,31.4,301.8,31.7,301.1L31.7,301.1z"/>
	</g>
</g>
</svg>
