<?xml version="1.0" encoding="utf-8"?>
<!-- Generator: Adobe Illustrator 24.0.1, SVG Export Plug-In . SVG Version: 6.00 Build 0)  -->
<svg version="1.1" id="Layer_1" xmlns="http://www.w3.org/2000/svg" xmlns:xlink="http://www.w3.org/1999/xlink" x="0px" y="0px"
	 viewBox="0 0 500 500" style="enable-background:new 0 0 500 500;" xml:space="preserve">
<style type="text/css">
	.st0{fill-rule:evenodd;clip-rule:evenodd;fill:#FFFFFF;}
	.st1{fill-rule:evenodd;clip-rule:evenodd;fill:#FEFEFE;}
	.st2{fill-rule:evenodd;clip-rule:evenodd;fill:#FDFDFD;}
	.st3{fill-rule:evenodd;clip-rule:evenodd;fill:#FBFBFB;}
	.st4{fill-rule:evenodd;clip-rule:evenodd;fill:#FAFAFA;}
	.st5{fill-rule:evenodd;clip-rule:evenodd;fill:#F9F9F9;}
	.st6{fill-rule:evenodd;clip-rule:evenodd;fill:#F7F7F7;}
	.st7{fill-rule:evenodd;clip-rule:evenodd;fill:#F6F6F6;}
	.st8{fill-rule:evenodd;clip-rule:evenodd;fill:#F4F4F4;}
	.st9{fill-rule:evenodd;clip-rule:evenodd;fill:#F2F2F2;}
	.st10{fill-rule:evenodd;clip-rule:evenodd;fill:#F1F1F1;}
	.st11{fill-rule:evenodd;clip-rule:evenodd;fill:#EFEFEF;}
	.st12{fill-rule:evenodd;clip-rule:evenodd;fill:#ECECEC;}
	.st13{fill-rule:evenodd;clip-rule:evenodd;fill:#EAEAEA;}
	.st14{fill-rule:evenodd;clip-rule:evenodd;fill:#E8E8E8;}
	.st15{fill-rule:evenodd;clip-rule:evenodd;fill:#E5E5E5;}
	.st16{fill-rule:evenodd;clip-rule:evenodd;fill:#E2E2E2;}
	.st17{fill-rule:evenodd;clip-rule:evenodd;fill:#DFDFDF;}
	.st18{fill-rule:evenodd;clip-rule:evenodd;fill:#DBDBDB;}
	.st19{fill-rule:evenodd;clip-rule:evenodd;fill:#D7D7D7;}
	.st20{fill-rule:evenodd;clip-rule:evenodd;fill:#D2D2D2;}
	.st21{fill-rule:evenodd;clip-rule:evenodd;fill:#CCCCCC;}
	.st22{fill-rule:evenodd;clip-rule:evenodd;}
	.st23{fill-rule:evenodd;clip-rule:evenodd;fill:url(#SVGID_1_);}
	.st24{fill-rule:evenodd;clip-rule:evenodd;fill:url(#SVGID_2_);}
	.st25{fill-rule:evenodd;clip-rule:evenodd;fill:url(#SVGID_3_);}
	.st26{fill-rule:evenodd;clip-rule:evenodd;fill:url(#SVGID_4_);}
</style>
<g>
	<g>
		<path class="st0" d="M226.9,192.1c94.7,0,171.4,33.7,171.4,75.4c0,41.6-76.8,75.4-171.4,75.4S55.4,309.1,55.4,267.5
			C55.4,225.9,132.2,192.1,226.9,192.1L226.9,192.1z"/>
		<path class="st1" d="M226.8,194.6c91.4,0,165.4,32.6,165.4,72.7c0,40.2-74.1,72.7-165.4,72.7c-91.4,0-165.4-32.6-165.4-72.7
			C61.4,227.1,135.4,194.6,226.8,194.6L226.8,194.6z"/>
		<path class="st2" d="M226.7,197c88,0,159.4,31.4,159.4,70.1s-71.4,70.1-159.4,70.1c-88,0-159.4-31.4-159.4-70.1
			S138.7,197,226.7,197L226.7,197z"/>
		<path class="st3" d="M226.6,199.5c84.7,0,153.3,30.2,153.3,67.4c0,37.2-68.6,67.4-153.3,67.4c-84.7,0-153.3-30.2-153.3-67.4
			C73.3,229.6,142,199.5,226.6,199.5L226.6,199.5z"/>
		<path class="st4" d="M226.6,201.9c81.3,0,147.3,29,147.3,64.7c0,35.8-65.9,64.7-147.3,64.7c-81.4,0-147.3-29-147.3-64.7
			C79.3,230.9,145.2,201.9,226.6,201.9L226.6,201.9z"/>
		<path class="st5" d="M226.5,204.3c78,0,141.3,27.8,141.3,62.1c0,34.3-63.2,62.1-141.3,62.1c-78,0-141.3-27.8-141.3-62.1
			C85.2,232.1,148.5,204.3,226.5,204.3L226.5,204.3z"/>
		<path class="st6" d="M226.4,206.8c74.7,0,135.2,26.6,135.2,59.4c0,32.8-60.5,59.4-135.2,59.4S91.2,299.1,91.2,266.2
			C91.2,233.4,151.8,206.8,226.4,206.8L226.4,206.8z"/>
		<path class="st7" d="M226.4,209.2c71.3,0,129.2,25.4,129.2,56.8c0,31.4-57.8,56.8-129.2,56.8c-71.3,0-129.2-25.4-129.2-56.8
			C97.2,234.7,155,209.2,226.4,209.2L226.4,209.2z"/>
		<path class="st8" d="M226.3,211.7c68,0,123.1,24.2,123.1,54.1c0,29.9-55.1,54.1-123.1,54.1c-68,0-123.1-24.2-123.1-54.1
			C103.1,235.9,158.3,211.7,226.3,211.7L226.3,211.7z"/>
		<path class="st9" d="M226.2,214.1c64.7,0,117.1,23,117.1,51.5c0,28.4-52.4,51.5-117.1,51.5c-64.7,0-117.1-23.1-117.1-51.5
			C109.1,237.2,161.5,214.1,226.2,214.1L226.2,214.1z"/>
		<path class="st10" d="M226.1,216.6c61.3,0,111.1,21.9,111.1,48.8s-49.7,48.8-111.1,48.8s-111.1-21.9-111.1-48.8
			S164.8,216.6,226.1,216.6L226.1,216.6z"/>
		<path class="st11" d="M226.1,219c58,0,105,20.7,105,46.2c0,25.5-47,46.2-105,46.2c-58,0-105-20.7-105-46.2
			C121.1,239.7,168.1,219,226.1,219L226.1,219z"/>
		<path class="st12" d="M226,221.5c54.7,0,99,19.5,99,43.5c0,24-44.3,43.5-99,43.5S127,289,127,265C127,240.9,171.3,221.5,226,221.5
			L226,221.5z"/>
		<path class="st13" d="M225.9,223.9c51.3,0,92.9,18.3,92.9,40.9c0,22.6-41.6,40.9-92.9,40.9c-51.3,0-92.9-18.3-92.9-40.9
			C133,242.2,174.6,223.9,225.9,223.9L225.9,223.9z"/>
		<path class="st14" d="M225.9,226.3c48,0,86.9,17.1,86.9,38.2c0,21.1-38.9,38.2-86.9,38.2c-48,0-86.9-17.1-86.9-38.2
			C139,243.4,177.9,226.3,225.9,226.3L225.9,226.3z"/>
		<path class="st15" d="M225.8,228.8c44.7,0,80.9,15.9,80.9,35.5s-36.2,35.5-80.9,35.5c-44.7,0-80.9-15.9-80.9-35.5
			S181.1,228.8,225.8,228.8L225.8,228.8z"/>
		<path class="st16" d="M225.7,231.2c41.3,0,74.8,14.7,74.8,32.9c0,18.2-33.5,32.9-74.8,32.9c-41.3,0-74.8-14.7-74.8-32.9
			C150.9,246,184.4,231.2,225.7,231.2L225.7,231.2z"/>
		<path class="st17" d="M225.7,233.7c38,0,68.8,13.5,68.8,30.2s-30.8,30.2-68.8,30.2s-68.8-13.5-68.8-30.2S187.7,233.7,225.7,233.7
			L225.7,233.7z"/>
		<path class="st18" d="M225.6,236.1c34.7,0,62.8,12.3,62.8,27.6c0,15.2-28.1,27.6-62.8,27.6c-34.7,0-62.8-12.4-62.8-27.6
			C162.8,248.5,190.9,236.1,225.6,236.1L225.6,236.1z"/>
		<path class="st19" d="M225.5,238.6c31.3,0,56.7,11.2,56.7,24.9c0,13.8-25.4,24.9-56.7,24.9s-56.7-11.2-56.7-24.9
			C168.8,249.7,194.2,238.6,225.5,238.6L225.5,238.6z"/>
		<path class="st20" d="M225.4,241c28,0,50.7,10,50.7,22.3c0,12.3-22.7,22.3-50.7,22.3c-28,0-50.7-10-50.7-22.3
			C174.8,251,197.5,241,225.4,241L225.4,241z"/>
		<path class="st21" d="M225.4,243.4c24.7,0,44.6,8.8,44.6,19.6c0,10.8-20,19.6-44.6,19.6c-24.7,0-44.6-8.8-44.6-19.6
			C180.7,252.2,200.7,243.4,225.4,243.4L225.4,243.4z"/>
	</g>
	<path class="st22" d="M332.6,229c0.7,0.4,0.3,0.7,0.2,1c-0.5,0-0.6,0.2-1.4,0.1c-2.9,1.4-7.3,2.3-11.2,3.5c2.1-1.4,6-2.2,7.9-3.7
		c1.1,0,1.4-0.2,2.1-0.3C329.6,228.9,331.3,229,332.6,229L332.6,229z M79.8,239.6c3,0.1,4.3,0.5,6.8,0.5c0.3,0.6,3.7,0.3,3,1.2
		c-4.7,0-6.6-0.9-10.1-1.3C79.6,239.8,79.7,239.7,79.8,239.6L79.8,239.6z M46.5,292.5c0.2-0.3,0.4-0.6,0.6-0.9
		c6.3-0.6,11.7-1.2,17.7-1.6C59.3,291.7,53.4,291.8,46.5,292.5L46.5,292.5z M81.9,267.3c2.9-0.3,5.6-0.4,7.2,0.1
		C90.1,270.7,75.9,269.8,81.9,267.3L81.9,267.3z M118.5,207.2c4.8,2,9,4.2,14.6,6.2c0.2,0.5,1.6,0.7,1.7,1.3
		c-3.3-0.5-4.3-1.8-6.5-2.7c-2-0.8-3.7-1.9-6-2.8c-1.2-0.5-3-1-4.3-1.5C117.7,207.6,117.9,207.3,118.5,207.2L118.5,207.2z
		 M111,273.1c-0.5,0.2-1,0.3-1.5,0.4c0.8,0,0.5,0.3-2,0.4l0,0c0.3-0.1,0.7-0.2,0.9-0.3c-1.4,0.2-2.9,0.1-4.2,0.3
		c-5.4,0.7-11.3,1.7-18.7,1.6c-3.1-2.1,7.5-1,9.5-2.2c0.8,0.7,3.4-0.3,4.3,0.3C102.3,272.9,107.5,273.3,111,273.1L111,273.1z
		 M103.4,252.9c0.5,0.5,3.4,0.4,4.2,0.1c3,0.3,4.3,0.6,6.9,1c0.5,0.8,0.7,1.1,0.2,1.9c-1.5,0.4-3.1,0.6-4.8,0.8
		c3.1,0.2,6.2,0.4,9.1,0.6c-9.9-0.2-21.2-0.5-31.1-1.2c-10-0.7-21.2-0.7-28.3-1.4c-1.2-0.4,2.1-0.3,1.9-0.3c2.2,0.1,3.9,0.5,6.3,0.5
		c7.7,0.2,18.7,0.5,25.3,0.9c2.4,0.1,5.1,0.3,8,0.4c-0.2-0.1-0.4-0.2-0.3-0.4c-0.6,0-1.2,0-1.9,0C96.9,254.7,100,253.4,103.4,252.9
		L103.4,252.9z M104.1,267.9c9.1-0.6,21.3-1.5,31.2-1.6c-7.4,1.4-19.2,0.5-26.7,1.8C107.4,267.9,105.4,268.3,104.1,267.9
		L104.1,267.9z M129.3,285.4c0-0.4,1.4-0.2,1.6-0.5C131.8,285.1,130.3,285.6,129.3,285.4L129.3,285.4z M174.2,284
		c-4.2,3.1-14,4-19.1,7c-5.2,1.5-10.2,3.2-14.8,5.1c-0.6,0.1-0.6-0.1-1.1-0.1c-0.2-0.1-0.5-0.4,0.1-0.5c6.7-2.7,15.4-4.9,22.3-7.7
		C165.2,286.4,168.7,284.6,174.2,284L174.2,284z M154.8,308.1c-0.2-0.6,0.7-0.6,0.5-1.2c8.2-4,15-8.4,22.1-12.3
		c-3.6,3.3-10,7.2-16.4,10.2C160,306.5,158.1,307.6,154.8,308.1L154.8,308.1z M167.5,260c1.4-0.8,3.9-0.4,6-0.5
		c-3.1-0.4-6.4-1-9.9-1.2c-1.1-0.1-2.3,0.1-3.5,0.1c-9-0.5-16.6-1.5-25.9-1.6c0.9-0.4,2.1-0.2,3.2-0.2c4.9,0.2,11.9,0.5,15.5,0.8
		c10.2-0.5,21,0.5,30.1,2c0,0.1-0.2,0.2-0.3,0.2c0.4,0,0.8,0,1.2,0c0.6-0.3,1.1-0.6,1.3-1c1.8,0.1,3.1,0,4.6,0
		c-0.3-0.5-0.8-0.9-0.2-1.7c-2.3-1-7-1.2-10.8-1.7c-2.1-0.2-4.5-0.5-5.6-0.9c5.7,0.7,11.8,1.1,17.6,1.9c0.7,0,0.8-0.3,1.4-0.4
		c-0.5-0.7-2.2-1-3-1.5c1.4,0.3,2.9,1.1,4.2,0.9c0.1-0.9-1.6-1.2-1.9-2c-2.2-0.6-6.2-0.8-6.9-1.9c2.6-0.1,5.6,1.6,8.2,0.9
		c-2.6-1.6-8-2.5-10.8-4c2.5,0.4,4.4,1.1,6.2,1.7c3.3,1.1,6.3,2.3,10.8,3.1c1.4-0.3,3.4-0.2,4.4-0.7c-0.6-0.9-2.4-1.4-3.7-2
		c-1.3,0.1-1.4-0.1-2.8-0.1c-0.4-0.4-0.8-0.9-2.3-1c-0.2-1.7-2.6-2.2-3.1-4c2.8,1,3.1,2.1,6,2.8c-0.3,0.2-0.9-0.2-1.3-0.3
		c1.3,0.6,1.9,1.4,4.6,1.6c0.1,0.2-0.3,0.3-0.4,0.4c0.8,0.2,1,0.1,1.9,0.3c3.2-0.7-0.8-1.2-0.3-2.1c2.5,0,2.2,1.5,4.8,1.8
		c1.1-0.2,1.8-0.5,2.6-0.8c0-0.6-1.6-0.6-1.6-1.2c1.2,0,0.8,0.5,1.6,0.6c2.1-0.4-1.1-1.5-1.9-1c-1.5-0.8-5.2-1.4-4.5-2.5
		c2.4,0.4,2.3,1.5,4.4,2.1c2.3-0.7,0.2-2.3,1-2.8c-2.4-1.2-1.8-3-5.4-4.2c0.4-0.4-0.3-0.5-0.3-0.8c4.7-0.5,3,2.1,5.9,2.7
		c-0.4-1.6-3.8-3.2-5.1-4.8c3.2,2.1,5.7,4.5,8.6,6.8c-0.2,0.1-0.3,0-0.8,0c0.2,0.7,1.6,1.1,2,1.8c0.5,0.1,0.5,0,0.6-0.2
		c1.5,0.7-1.1,1-1.1,1.6c0.8,0.5,1.4,1.1,3.3,1.3c1.4-0.9-1.7-2.6-1.2-3.5c2.2,0.2,0.8,2.2,3.5,2.5c1.3-1.6-2.7-3.3-1.5-4.6
		c0.9-0.1,1.7,0.1,2.8,0.2c-1.9,1.9,1.3,3.5,1.6,5.4c0.8,0,1.6,0.1,2,0c-0.1-0.2-0.4-0.4-0.1-0.7c1.1,0.1,1.8,0.1,2.3-0.1
		c0.4-0.6-0.2-1.1,0.4-1.4c2.1,0.3,0.1,1.4,1.6,1.9c1,0.1,1.6-0.2,2.3,0.1c-2.1-1.5,0.9-3.3,1.1-4.8c0.6,0.1-0.2,0.7,0.9,0.6
		c1.8-1.3,2-2.5,1.7-4.2c0.4-0.1,0.8-0.1,1.1-0.3c0.2,0.1,0.4,0.1,0.8,0.1c0.5,0.5,0.1,1,0.3,1.4c0.1,0.1,0.3,0.1,0.6,0.1
		c0.2-0.3,0.5-0.6,0.3-1c0.9,0.2,0.7,0.7,0.2,1c0.4,0,0.8,0.1,1,0.1c2,1.3-0.5,2.7,1.2,4.5c2.7,0.1,0-1,0.8-1.2
		c1.8,0.7,2.4,1.7,2.4,2.9c2.2-0.5,3.9-1.3,5-2.2c-0.1-0.4,0.2-0.8,0.8-1c0.4-0.8,0.5-1.6,0-2.3c2.1-0.9,3.5-2.1,4.9-3.3
		c0.8,1.3,1.1,3.4-0.7,4.5c0.5,0.2,1.8,0.2,1.6,0.6c-0.3,0.1-0.4,0.2-0.6,0.3c-0.8,0-1.1-0.2-1.3-0.5c-0.8,0.6-3.2,1.5-2.2,2.1
		c-0.9,0.8-2.3,1.3-2.5,2.4c0.9,0,1.2-0.6,2.3-0.2c1.8-0.7,2.1-1.5,4.9-1.8c0.6,0.3-0.3,0.5-0.3,0.8c1.5,0,1.5-0.7,2.9-0.8
		c1-1.1,2.7-1.9,4-2.8c0.1-0.3,0.2-0.5,0.3-0.7c-1.2,0.6-0.9,1.6-2.8,1.9c1.7-1.1,0.8-2.9,4.2-3.5c0,0,0.1,0.1,0.1,0.1
		c0.1-0.1,0.3-0.2,0.5-0.3c0.5-0.7,0.1-1.8,2.5-2.1c0.2,0.1,0.5,0.2,0.8,0.2c-1.7,1-1.2,2.2-2.5,3.2c-0.2,0.2-0.9,0.2-1.1,0.3
		c-0.6,0.5-0.9,1.4-1.5,2.2c-0.9,1.3-0.5,3-3.2,3.8c0.5,0.5,0.8,1.4-1.2,1.4c0.2,0.6-1.1,1-2.1,0.7c-0.2,0.5-1,0.9-1.8,1.1
		c0.2,0.3,0.8,0.5,1.7,0.5c0.8,0-0.4-0.2,0-0.4c0.5,0.1,0.8,0.3,1.4,0.4c2.1-0.5,3.8-1.5,4.2-2.4c-0.8-0.2-1.1,0.6-2.3,0.6
		c1.4-0.5,0.9-1.1,1.5-1.6c2.3-2.4,9-3.2,11.8-5.3c0.8,0.4-0.3,0.8-1,0.8c-2.5,1.7-5.1,3.4-8.8,4.8c0.3,0.2,1,0.2,1.1,0.5
		c-1,1.5-4.3,2-4.8,3.8c3.4,1.2,5.4-1.1,8.8-1.2c0.8-0.7,2.4-1,4.1-1.4c-0.6,0.6-1.5,1.1-2.8,1.5c-0.9,1.4-6.1,1-7.3,2.3
		c1,0.5,3.3-0.2,4.7-0.2c2.6-1.1,7.1-1.5,9.8-2.5c-1.5,0.8-5.6,1.6-8.3,2.4c3-0.1,7.4-0.6,9.3-1.6c1.8,0.1,2,0,3.8,0
		c0.3,0.8-2,1-3.4,0.8c-2.7,0.7-6.7,0.9-9.1,1.8c2.9,0.1,6.1,1.1,9.2,0.9c-0.5-0.2,0.4-0.4,1.4-0.5c0.9,0.2-1,0.2-0.8,0.4
		c9.2,0.5,15.3-1.1,22.3-1.7c0.5-1.2,5.1-0.7,8.2-0.8c-1.1,0.5-2.4,1-3.1,1.6c-5.5,0-9.2,0.8-13.9,1.1c-0.7,0.1-0.9,0.4-1.7,0.5
		c-4.2-0.1-7.4,0.5-9.7,1.5c-0.5,0-0.5-0.1-0.9-0.2c-0.3,0.4-1,0.6-2.1,0.7c-1.2,1.2-5.7,1.1-7.4,1.7c0.2,0.3,1.7,0.1,2.4,0.2
		c-0.6,0.2-1.4,0.3-1.5,0.6c-0.8-0.5-1.6-0.2-2.1,0.1c-0.7,0-0.6-0.2-0.6-0.4c-1.3,0.3-2.6,0.6-3.1,1.2c0.6,0.6,1.9,0,3.1,0.1
		c0.6,0.5-0.4,0.6-0.9,0.9c3.5,1.5,9.2,0.1,13.5,0.4c0.3,0.4-0.5,0.3-0.2,0.7c2,0.1,5.9,0,8.9-0.1c-0.9,0.9-6.9,0.3-11.4,0.5
		c0.1-0.3,1.1-0.1,1.2-0.3c-3.1-0.4-3.6,0.7-7.1,0.3c0,0.7-2,1.3-2.1,2.3c1.4,0.9,4.1,0.6,6.3,1.3c-0.2,0.1-0.4,0.2,0,0.3
		c-1.1,0.7-4.6-0.4-6,0c0.8,0.3,1.8,0.5,3.1,0.6c-1.3,0.3-2.4-0.2-3.8-0.4c0.1,0.1,0.2,0.2,0.2,0.3c-0.2,0-0.4,0-0.6,0
		c0.1,0,0.2,0,0.4,0c0.1,0.5-0.1,0.8-1.3,0.6c-0.6-0.3,0-0.5,0.3-0.7c-0.1,0-0.2-0.1-0.3-0.2c-0.2,0-0.4,0-0.7,0
		c-0.5,0.5-1.7,0.8-1.3,1.8c-1.3,0.2-2.9,0-3.2,0.9c-1.3-0.2-1.6,0.1-2.8,0c0.4,0.9,4.2,0.6,4.5,1.5c-1.7-0.3-3,0.2-4.5-0.4
		c-0.3-0.5,1.5-0.4,2-0.2c-0.4-0.4-1.6-0.5-2.6-0.7c-0.3,0.7-1.4,0.6-3.3,0.8c0.5,1.6,0.3,2.6,1.8,3.8c-3.7,0.6-5.1,3.1-6.2,3.7
		c-1.2-0.5-1.2-0.1-2.7-0.1c0-0.2,0.4-0.1,0.7-0.1c-0.1-0.4-1.1-0.5-1.6-0.8c0.4-0.2,1-0.2,0.7-0.7c-1-0.7-3.1-0.2-4.3-0.1
		c0,0.3-0.1,0.7-0.1,1c-0.8-0.1-1.3,0-1.7,0.1c0,1.4-1.2,3,2.8,2.6c0.3,0.6-1.1,0.3-1.1,0.7c0.1,5.5,0.6,11,3,16.7
		c-1.8-0.8-1.3-2.5-1.9-3.9c-0.8-1.9-1.4-4.9-3.6-6.6c1.4-0.7-0.6-1.8-0.7-3.1c-0.1-0.5,0.3-1,0.1-1.4c-0.6-1.1-3.5-2.5-2.6-4
		c-0.1-0.3-1.5-0.1-0.9-0.6c-0.3,1.7,1.3,3.9,1.2,6.1c-1.2-1.9-2.4-3.7-2.3-6c-0.9-0.5-2.6-0.7-3.2-1.3c-1,0.1-0.7,0.9-1.9,0.9
		c-1.7,0-1.6-1.3-4.8-1.1c-0.4-0.2-0.3-0.8,0.2-1c-2-0.1-4.3,0-5.9,0.6c-0.4-0.8-1.4-0.7-2.3-1.6c-2.5,0.4-5.5,0-7.2,1
		c-0.8-0.1-1.5-0.3-2.6-0.3c-0.2-0.4-0.2-0.5,0.2-0.9c-2.9-0.2-2,1.7-4.8,1.5c0.4,0.7-0.4,1.1-2,1.1c0.1-0.2,0.6-0.2,0.8-0.4
		c-7.1,1.6-11.6,4.9-18.6,6.8c-0.5,0.5-1.5,1.4-2.8,0.8c6.2-2.3,11.7-5,17-7.5c3.8-0.1,10.6-1.8,7.1-3.3c-1.2-0.1-1.4,0.4-2.5,0.3
		c-4.7-0.9-8.3,1.2-12.3,1.8c0-0.5,1.1-0.3,1.3-0.7c-4.1,0.1-7.6,2.1-12.2,2.6c-0.3-0.2-0.1-0.5,0-0.9c4.6-0.8,8.7-1.8,11.8-3.4
		c-3.6,0.4-6.3,1.2-9.5,1.9c3.4-1.3,9.5-2.5,13.8-3.7c0.4,0.1,0.3,0.4,0.4,0.7c1.7-0.5,3.1-1.2,3.5-2.3c-2.1-0.4-1.8,0.6-2.9,0.7
		c-1.2,0-0.6-0.5-1-0.7c-1.4,0.4-3.2,0.5-4.9,0.7c-0.7-0.8,3.8-1.3,4.8-2.3c-1-0.2-2.1-0.4-3-0.7c-0.9,0-1.4,0.3-2.1,0.4
		c-3.2-0.6-6.7-0.2-7.9-1.4c-1.8-0.1-4.5,0.2-5.6-0.5c-1,0-1.4,0.3-2.2,0.4c-1.1,0,0.2-0.3-0.3-0.7c2.3-0.1,4.1-0.5,6.6-0.5
		c1.5-0.2,1.9-1,3.7-1c0.4-0.4-0.1-0.5,0-0.8c-0.7,0-1,0.2-1.9,0c-5.1-1.4-14.5-1.7-20.1-0.8c-0.8-0.1-0.5-0.6-1.5-0.7
		c3.3-1,9.1,0.5,12.2-0.3c0-0.2-0.4-0.2-0.4-0.4c-1.1,0-1.6,0.3-2.7,0.3c-0.1-0.4,2-0.7,0.1-0.7c3.5-0.5,5.8-0.9,8.9-0.2
		c0.9-0.4,2-0.8,4-0.6c0-0.5-3.9-0.3-3.9-0.3c-0.3-0.3,1.3-0.2,2-0.3c-0.1-0.5,0.5-0.9,1.2-1.2c-2.7,0.3-6.7,0.2-10.4,0.3
		C170.2,260.5,168.7,260.8,167.5,260L167.5,260z M170.1,254.3c1.7,0.2,4,0.2,4.7,0.8C173.3,254.8,171,254.8,170.1,254.3L170.1,254.3
		z M190.4,303c0-0.3,0-0.6,0-0.9c4.4-4.6,7.7-9.4,13.1-13c-0.8,2.7-2.6,5.4-5.9,7.7c4.3-0.6,5.9-3.8,8.3-5.6
		c1.2,0.1,1.6-0.1,2.5-0.2c0.5-0.5,1-1,2-1.4c0.7-1.4,1.9-2.7,3.4-3.9c1.3-1.1,3.4-2.4,5.8-2.9c-0.8,1.5-1.6,3-4.3,3.8
		c-1.2,3.1-5.7,5-7.9,7.9c-4.9,1-5.6,3.8-9.5,5.3c-1.1,0-2.3,0.1-2.3-0.5C192.2,300.5,194.2,302.3,190.4,303L190.4,303z
		 M191.5,241.2c2.3,0,2.8,0.7,3.6,1.2C193.2,242.4,191.7,241.7,191.5,241.2L191.5,241.2z M191.6,236.9c0.7,0.1,0.9,0.4,1.1,0.6
		C192.1,237.4,191.9,237.2,191.6,236.9L191.6,236.9z M198.9,251.7c0.1-0.3,1.1,0,0.9,0.2C199.4,251.9,199.3,251.7,198.9,251.7
		L198.9,251.7z M209.2,325c0.8,1.2-0.5,3.2-1.2,4.4c-0.4,0-0.8,0-1.3,0.1C206.2,328.1,208.5,326.4,209.2,325L209.2,325z
		 M203.3,282.5c0.1-0.2,0.6-0.3,0.6-0.5C204.8,282.1,204,282.6,203.3,282.5L203.3,282.5z M201.4,247c0.9,0,1,0.3,1.2,0.5
		C202.1,247.4,201.4,247.3,201.4,247L201.4,247z M208.9,219.7c0.9,0.3,0.2,0.6,0.4,0.9c0.2,0.5,1.1,0.9,1.4,1.3
		c0.4,0.5-0.2,1.1,0.3,1.8c0.5,0.7,1.8,1.3,2.1,2.1c0.1,0.2,0.5,0.6,0.7,0.9c1.7,2.2,4.6,4.2,6.4,6.6c-1.9-0.6-1.5-1.4-2.5-2.2
		c-0.3-0.2-1.2-0.3-1.6-0.5c-1.3-0.8-1.4-1.7-2.2-2.5c-0.7-0.8-2-1.5-2.4-2.2c-0.7-1.2-0.7-2.3-1.5-3.3c-0.7-0.9-1.4-1.7-2.3-2.5
		C207.6,219.8,208.1,219.7,208.9,219.7L208.9,219.7z M206.6,207.3c0,0,0-0.1,0-0.1c1.5,0.2,1.3,0.8,1.5,1.1c1.6,2.5,4.3,5.2,5.1,8.4
		C210.3,213.3,209.4,210.2,206.6,207.3L206.6,207.3z M219.9,233.7c1.4,0.1,1,0.8,1.3,1.3C220.3,234.7,220,234.2,219.9,233.7
		L219.9,233.7z M220.9,231.2c4.2,1.5,0.9,4.5,4.8,5.9c0.2,0.7,1,1.1,0.8,2c-1.2,0.1-0.7-0.5-1.2-0.6c-2.9-0.6-2.9-2.7-3.3-4.1
		C221.5,233.3,221.4,232.3,220.9,231.2L220.9,231.2z M239.1,297.8c0.3-0.4,1.9-0.2,1.7-0.7c2.5,1.9,0,3.4-0.5,5.3
		C237.6,301.6,240.2,299.3,239.1,297.8L239.1,297.8z M241.5,294.3c-0.8,0-0.3-0.6-0.6-0.8C241.7,293.4,241.3,294,241.5,294.3
		L241.5,294.3z M248.4,298.1c1.3,0.5,2,1.9,1.5,2.8c0.5,0.6,0.4,1.5,0.9,2.2c0.1,0.3-0.4,0.4-0.3,0.2c0.1-0.7-0.6-1.4-1.1-1.9
		c-0.1,0-0.1,0-0.1,0c-0.1-0.2-0.2-0.3-0.2-0.5c0,0,0,0,0,0c0,0,0,0,0,0C248.7,300.1,248.2,299,248.4,298.1L248.4,298.1z
		 M248.7,291.9c4.1,1.4,3.8,5.9,6.2,8.5c-1.1,0.2-1.2-0.3-2.3-0.1c-0.1-0.2-0.2-0.4-0.2-0.7c-0.4-0.2,0-0.6-0.6-0.7
		c0.1-0.1,0.2-0.1,0.2-0.1c-1.2-2.5-2.8-4.7-4.2-6.4C247.4,292,248.5,292.1,248.7,291.9L248.7,291.9z M255,309.2
		c3.3,1.1,3.6,3.2,3.9,5c0.5,0.5,1.2-0.4,2,0.1c0.4,1.1,2,3.7,2,5.1c-1.4,0-0.7-1.5-1.8-1.8c-0.6,0.1-0.1,0.7-1.4,0.5
		C258.7,314.7,255,312.2,255,309.2L255,309.2z M264.8,306.7c0.9,0.1,1.1,0.6,1.5,1C265.5,307.6,265,307.2,264.8,306.7L264.8,306.7z
		 M246.7,246.8c0.1,0.2,0,0.3-0.1,0.5c0.1,0,0.2,0,0.3,0.1c0.1-0.3,1.6-0.9,0.7-1C247.5,246.5,247.1,246.6,246.7,246.8L246.7,246.8z
		 M249.7,238.7c-1-0.9,0.5-1.8,0.6-2.6C251.2,237,249.9,237.9,249.7,238.7L249.7,238.7z M251.4,234.5c-0.5-0.2-0.6-1,0.4-1.1
		C252.1,233.9,251.4,234.1,251.4,234.5L251.4,234.5z M263.1,249.9c1.7-1.2,1.6-3,5.7-3.4C269.2,247.9,265.9,249.1,263.1,249.9
		L263.1,249.9z M290.8,292.8c2.9,0.7,8,2.1,7.7,3.5C295.3,295.4,293,294.1,290.8,292.8L290.8,292.8z M275.5,252
		c0.1-0.2,0.3-0.4,1.2-0.3C277,252,275.9,252,275.5,252L275.5,252z M304.4,299.3c5.8,2.2,10.7,5.1,15.9,8c-0.4,0.6-0.6,1.1-2.5,0.9
		c-0.2-1.1-2-1-2.2-2c-4.4-1.8-8.2-3.8-11.7-6C303.4,299.7,303.9,299.5,304.4,299.3L304.4,299.3z M297.1,269.5
		c0.9-0.3,2.6,0.3,3.9,0.3C300.6,270.3,298.4,269.4,297.1,269.5L297.1,269.5z M312,260.6c0.9-0.2,2.3-0.3,3.9-0.3
		C316,260.8,313.2,260.4,312,260.6L312,260.6z M395.7,337.7c9.1,1.6,18.9,9.4,28.8,12.1c4.3,2.9,9.3,5,14.8,6.4
		c1.9,1.2,3.9,2.4,6.7,2.5c1.3,0.5,2.2,1.8,4,1.5c14.1,9,31.2,14,47.8,21.6c1.5,1.1-1.1,0.6-0.6,1.3c-11.2-3-21.2-8.4-31.2-13
		c-1.2-0.2-2.4-0.4-3.4-0.7c-8.8-4-18.3-6.5-26.3-11c-0.5-0.5-1.6-0.1-2.2-0.5c-0.9-0.9-3.3-1.6-3-2.4c-9.7-3.9-20.6-9.6-29.6-13.6
		C399.5,341,395.4,339.8,395.7,337.7L395.7,337.7z M120.7,222.4c3.8,1.1,7.3,2.3,10.8,3.6C128.5,225.2,123.5,223.7,120.7,222.4
		L120.7,222.4z M134.7,205.4c1-0.1,2,0.6,2.2,0.8C135.7,206,136,205.5,134.7,205.4L134.7,205.4z M121,279.9c2.1-0.8,9.8-2,13-2.2
		c-0.1,0,1.8-0.4,0.3,0c-3.3,1-8.4,1.3-11.7,2.4C122.3,279.9,121.9,279.9,121,279.9L121,279.9z M181.4,274.9c-3.6,0-5.6,0.7-7.8,1.4
		C177,276.1,179.6,275.7,181.4,274.9L181.4,274.9z M148.7,249.9c-1.7-0.2,0.1,0,0.4,0c-1-0.2-2-0.4-3-0.6c6.9,1,14.9,2.5,22.8,3.6
		c-6.8-0.7-13.6-1.9-19.7-3C149.1,249.9,149,249.9,148.7,249.9L148.7,249.9L148.7,249.9z M143.9,287.2c-1.1-1.1,3.5-1.1,4.6-1.8
		C148.3,285.9,145,286.5,143.9,287.2L143.9,287.2z M159.4,213c2,0.3,1.7,1.2,3.5,1.5c2.5,2.1,6.6,3.7,9.3,5.8
		c-3.2-1.2-5.5-2.9-7.8-4.5C162.7,214.8,160.7,214,159.4,213L159.4,213z M152.2,284.5c1.8-1,4.7-1.6,7.3-2.3
		C158.8,283.1,154.8,283.9,152.2,284.5L152.2,284.5z M163.4,221.5c-0.1,0.4,0.4,0.6,0.9,0.9C163.7,222.2,161.8,221.6,163.4,221.5
		L163.4,221.5z M164.5,222.7c2.1,0.5,2.9,1.5,4.5,2.4c1.1,0.7,3.3,1,3.9,1.9c-2.6-0.7-4.2-1.8-6.5-2.6
		C167.4,223.8,165,223.3,164.5,222.7L164.5,222.7z M160.5,282c-0.5,0.2,1.8-0.8,3.2-0.8C163,281.6,161.7,281.8,160.5,282L160.5,282z
		 M178.2,248.2c1-0.1,3.2,0.3,3.7,0.8C180.4,248.9,179.5,248.5,178.2,248.2L178.2,248.2z M184.7,276
		C182.5,276.3,187.4,275.5,184.7,276L184.7,276L184.7,276z M190.1,240.7C191.4,240.9,190.5,241.3,190.1,240.7L190.1,240.7
		L190.1,240.7z M190.3,236.1C189.6,235.6,191.2,236.9,190.3,236.1L190.3,236.1L190.3,236.1z M192.4,285.5c2.4-1.8,7.9-2.2,9-4.5
		c3.1-0.7,4-2.3,7.2-2.9c-0.9,0.9-2.9,1.4-3.4,2.4C200.4,281.9,198,284.4,192.4,285.5L192.4,285.5z M194.1,242.5
		C196,242.9,195,243.3,194.1,242.5L194.1,242.5L194.1,242.5z M217.5,246.2C216.5,245.7,218.9,247,217.5,246.2L217.5,246.2
		L217.5,246.2z M250.6,235.7C250.3,236.5,250.9,235.1,250.6,235.7L250.6,235.7L250.6,235.7z M251,235.4c-0.6,0.1,0-0.6,0-0.8
		C251.6,234.7,250.7,235.1,251,235.4L251,235.4z M294.9,301.4c0.5,0.5-0.7,0.5-0.6,0.9c-3.3-1.2-4.9-3.4-8-5.4c-3-1.9-7-3.2-8-4.3
		c-0.9-1-0.6-2.5,0.8-0.7C285.3,294.3,289,298.5,294.9,301.4L294.9,301.4z M289.3,276.3c0.4-0.2,1.8,0.5,2.6,0.6
		C291.1,277.4,290.2,276.5,289.3,276.3L289.3,276.3z M290,268.4c0.3-0.5,7,0.9,6.1,0.9C294.7,269.3,291.9,268.7,290,268.4L290,268.4
		z M306.9,284.2c2.8,0.5,8,2.2,10,3.1C313.4,286.3,310.2,285.2,306.9,284.2L306.9,284.2z M361.2,321.4c6.3,1.3,9.7,5.5,15.7,7.3
		c3.9,2.8,8.5,5,13,7.4c-7.3-2.6-16.3-7-23.7-10.9C363.6,323.7,361.8,323,361.2,321.4L361.2,321.4z M47,294.7
		c3.8-0.9,8-0.7,12.8-1.7c-0.3-0.6-2.1,0.2-2.9-0.2c0.8-0.9,3.3-0.7,5-1c2.2-0.3,4.7-0.9,6.9-1c1.5-0.3-0.1,0.5,0.9,0.4
		c8.1-1.2,16.4-2.3,24.1-3.6c-1.6,1.3-8.8,1.4-11.8,2.6c-2.8,0.3-5.4,0.7-7.4,1.5c-9.8,0.9-19.1,3.5-28,4.3
		C46.1,295.9,46.7,295.2,47,294.7L47,294.7z M65.5,291.8c-1.7,0.1-3,0.3-4.1,0.8C63.4,292.7,64.6,292.3,65.5,291.8L65.5,291.8z
		 M83.8,233.6c2.6,0.8,7.5,1,9.5,2.1c-4.4,0.3-7-0.8-10.6-1.3C83.3,234,83,233.9,83.8,233.6L83.8,233.6z M252.6,291.4
		c0.8,0.4,1.4,0.9,1.4,1.7C253.1,292.7,253,292,252.6,291.4L252.6,291.4z M195.5,285.8c-0.7,0.9-2.5,1.3-3.2,2.2
		c-3.3,0.4-3.2,2.7-6.5,3.1c-0.2-1,2.2-1.7,4.1-2.4C190.9,287.3,193.2,285.8,195.5,285.8L195.5,285.8z M282.6,286.1
		c0.7-0.1,2.7,0.6,3.2,1.1C284.4,287,283.7,286.5,282.6,286.1L282.6,286.1z M307.5,292.8c-2.9-0.7-6-1.6-8.5-2.5
		c-4.7-1.6-8.2-2.4-11.2-4c-1.5-0.8,1.2,0.2,1,0.2c5,1.4,10.1,3.3,15,4.9C305,291.9,307.4,291.8,307.5,292.8L307.5,292.8z
		 M199.1,281c-1.9,2-7.4,3-11.3,4.5c-2.8,1.1-4.9,2.6-8.4,3.3C186,286.1,192.3,283.4,199.1,281L199.1,281z M330,289.5
		c-1.9-0.3-3.6-0.7-4.9-1.3c-1.3,0-1.6-0.3-2.8-0.3c-0.9-0.5-2.3-0.7-3.4-1.1C320.8,287.1,327.5,288.3,330,289.5L330,289.5z
		 M345.4,287.6c1.1-0.2,3.3,0.7,4.8,1C348.9,288.9,346.8,287.9,345.4,287.6L345.4,287.6z M249.5,280.8c1.1,0.7,1.7,1.5,2.6,2.3
		C250.7,282.6,250.4,281.6,249.5,280.8L249.5,280.8z M123.6,272.2c-1.9,0.7-5.2,0.5-7.6,0.8C117.1,272.6,121.2,272.4,123.6,272.2
		L123.6,272.2z M160.2,273.8c-7.2,0.9-15.3,1.3-23.1,2C144.7,274.8,151.6,274.3,160.2,273.8L160.2,273.8z M260.1,277.6
		c6,1.2,9.4,3.7,14.7,5.3C269.6,281.2,263.8,279.8,260.1,277.6L260.1,277.6z M165.5,273.2C166.6,273.3,162.1,273.5,165.5,273.2
		L165.5,273.2L165.5,273.2z M187.8,272.4c-0.3,0.7-3.9,1-6.1,1.2C183.5,273,185.8,272.8,187.8,272.4L187.8,272.4z M277.6,273.4
		c1.3-0.2,2.9,0.6,4,0.9C280.2,274.6,279.2,273.5,277.6,273.4L277.6,273.4z M274.7,272.1c4,0.2,6.5,0.8,10.4,1.1
		C281.8,273.4,277.4,272.7,274.7,272.1L274.7,272.1z M116.3,260.1c4.5,0.2,10.7,0.6,16.4,0.9C127.9,261,120.9,260.7,116.3,260.1
		L116.3,260.1z M281.1,259.9c-1.7,0.5-3.2,1.1-5.9,1.3C276.2,260.8,278.5,260,281.1,259.9L281.1,259.9z M277.6,262
		c-1.6-0.4-2.7,0.4-4.9,0.2c6.5-1,13.9-0.9,21.3-1.8c-2.3,0.5-5.4,0.7-8.3,1c2.1,0.6-0.5,0.3-2.6,0.6c-1.6,0.3-6.4,0.7-8.5,0.6
		C274.9,262.1,276.5,262.2,277.6,262L277.6,262z M140.9,248.4c1.7-0.2,2.3,0.6,4.3,0.6C143.8,249.1,142,248.6,140.9,248.4
		L140.9,248.4z M144.9,247.4c0.3-0.3,2.2,0.2,2.3,0.4c8,1.4,17,2.6,24.6,4.3c-3.2,0-6.2-0.9-9.3-1.4c-3.1-0.6-6.5-1.1-9-1.7
		C150.2,248.5,147.5,247.9,144.9,247.4L144.9,247.4z M255.4,251.4c0.5,0.2-0.9,0.5-1.8,0.5C253.8,251.5,255.2,251.7,255.4,251.4
		L255.4,251.4z M279.3,250.9c0.5,0.3-1.4,0.4-1.7,0.6C277,251.3,279.1,251.2,279.3,250.9L279.3,250.9z M280.9,250.6
		c0.3,0.3-0.9,0.1-0.8,0.4C279.6,250.9,280.2,250.4,280.9,250.6L280.9,250.6z M263.8,252.3c-0.5-0.2-0.7-0.4-1.7-0.4
		c1-0.7,2.1-1.4,4.1-1.7c0.2,0.1,0.3,0.2,0.3,0.4c1.5-1.1,5.6-1.7,5.6-3.1c1.2-0.2,2.2-0.6,3.4,0c-3.2,1.5-5.7,3.4-10.4,4.3
		c-0.6-0.1,0.5-0.4,0.6-0.6C263.9,251.3,264.1,252,263.8,252.3L263.8,252.3z M182,243.1c0.8-0.2,1.3,0.5,2,0.6
		C183.4,243.8,182.7,243.3,182,243.1L182,243.1z M325.5,251.1c2.3-0.6,5.7-0.8,7.9-1.4c0.6,0.2-2.2,0.6-3.4,0.7
		C328.6,250.7,326.9,251,325.5,251.1L325.5,251.1z M197.2,240.4c1.9,1.1,4,2.3,5.6,3.5c-2-0.1-2.7-1.4-4.6-1.9
		C198.5,241.3,195.4,241,197.2,240.4L197.2,240.4z M166.6,236.6c4.3,1,5.4,2.7,9.9,3.7c0.9,0.7,2.6,1.3,3.7,2
		c-4.5-1-7.5-2.9-11.2-4.4C168.2,237.5,166.5,237.1,166.6,236.6L166.6,236.6z M278.2,240.4C278.5,240.8,276.7,240.9,278.2,240.4
		L278.2,240.4L278.2,240.4z M242.5,286.4c0.4-0.2,0.2-0.6-0.3-0.8C242.4,285.8,241.8,286.4,242.5,286.4L242.5,286.4z M192.4,274.9
		c0.1-0.2,0.9,0,1.1-0.2C193.4,274.4,191.5,274.7,192.4,274.9L192.4,274.9z M248.1,250c0.1-0.1,0.7-0.4,0-0.4
		C248,249.6,247.3,250,248.1,250L248.1,250z M248.2,250.7c1.3-0.1,1.9-1.1,1.6-1.5C249,249.5,248,250.3,248.2,250.7L248.2,250.7z
		 M245.4,250.4c0.4,0,0.7,0,1.2,0c0.6-0.3,1.4-1.4-0.1-1.6C246.3,249.3,245.2,249.8,245.4,250.4L245.4,250.4z M242.7,249
		c-2.2-0.1,0.5,0.8-0.7,1c2.5-0.1,2.8-1.2,3.4-2.1C242.9,247.3,241.7,248.1,242.7,249L242.7,249z M234.1,247.9c0.3,0.2,1.1,0,1.7,0
		c0-0.3,0.4-0.8-0.7-0.8C234.8,247.4,234.1,247.5,234.1,247.9L234.1,247.9z M209.4,242.8c0-0.2,0-0.4-0.4-0.4
		C208.9,242.5,209,242.7,209.4,242.8L209.4,242.8z M242.5,286.5c-0.1,0.4-0.2,0.7,0.6,0.8C243.2,287,243,286.7,242.5,286.5
		L242.5,286.5z M389.5,242.4c0.7,1.2-4.5,0.6-5,1.4c-1.1-0.2-1.2,0.2-2.6,0.1c-1.2,0.3-2.5,0.6-4.9,0.6c-5.9,1.1-14.2,1.7-20.7,2.7
		c-5,0.8-10.9,1.6-17.7,2.1c-0.3,0-0.2-0.1,0-0.1c9-1.5,19.2-2.8,28.5-4.1c1.2-0.2,2.5,0,3.9-0.2c0.8-0.1,1.4-0.3,2.1-0.5
		c1.6-0.3,3.9-0.1,4.2-0.8c0.7,0,0.7,0.2,1.4,0.2c0.4-0.2,1.5-0.1,1.2-0.5C384,243.3,385.7,242.2,389.5,242.4L389.5,242.4z
		 M343.1,240c-1.6,0.3-3.5,0.4-4.6,0.9C338.7,240.5,341.7,240,343.1,240L343.1,240z M270.6,236.2
		C271.3,236.1,269.3,236.8,270.6,236.2L270.6,236.2L270.6,236.2z M249.4,235.3c0.2,0,0.2-0.1,0.3-0.2c1,0.1,0.1,0.4-0.1,0.6
		C249.3,235.7,249.5,235.6,249.4,235.3L249.4,235.3z M292.2,233.9c0.8,0.5-1.2,0.6-1.1,1.2c-2.6,0.5-3.5,1.5-4.9,2.4
		c-1.4,0.2-2.3,0.6-2.8,1.1c-0.7,0-0.9,0.1-1.3,0.2c1.7-1.5,4.9-2.8,7.6-4.3C290.3,234.3,291,233.9,292.2,233.9L292.2,233.9z
		 M300.7,229.4c-0.2,1-4.4,1.3-5.3,2.4c-2.7,0.8-5,1.8-7.2,2.8C291.4,232.8,296.1,230.9,300.7,229.4L300.7,229.4z M143.6,330.5
		c0.5,0.1,0.5,0.4,1.1,0.5c-6.9,3.2-6.9,8.8-14,11.7c0.3,1.4-3.5,6.9-8,5.2c-0.3-0.7,0.7-2.1,1.8-3.4
		C132,340.3,136.2,334.7,143.6,330.5L143.6,330.5z M144.5,326.8c0.6-0.8,0.8-2,1.9-3C158.5,320.4,152.5,331.5,144.5,326.8
		L144.5,326.8z M221.5,322.4c1.5,1.4,4.9,3.9,1.6,5.6c-1.1-0.2-2.1-0.4-3.2-0.6C220,325.8,220.1,323.8,221.5,322.4L221.5,322.4z
		 M208.6,306.5c0.4,0.5-0.1,4.1-2.9,3.9C206.1,308.8,208.3,308.2,208.6,306.5L208.6,306.5z M251.1,304.4c0.6,0.2,0.8,0.6,0.7,1.1
		C251.2,305.3,251,304.9,251.1,304.4L251.1,304.4z M257.2,290.5c0.6,0.2,1.3,0.4,1,0.9C257.6,291.3,257.4,290.9,257.2,290.5
		L257.2,290.5z M253.1,290c0.7,0,0.6,0.3,0.7,0.5c-0.3,0-0.3-0.2-0.7-0.2C253.1,290.2,253.1,290.1,253.1,290L253.1,290z
		 M248.8,289.8c1.3,0.6,1.4,1.8,1.9,2.7C249.4,291.9,249.4,290.7,248.8,289.8L248.8,289.8z M341.4,293.8c2.4,0.3,4.8,0.6,4.9,2
		C344.1,295.4,342.1,295,341.4,293.8L341.4,293.8z M92.4,277.9c-5.7,1.3-13.2,1.1-19.2,2.3c-10,0-21.2,1.5-31.7,1.7
		c10.3-1,22.7-1.9,34.2-2.5C81.8,279.1,86.1,277.8,92.4,277.9L92.4,277.9z M221.4,282c4.8,0.2,3.8,3.8,0.2,3.8
		C218.6,285.1,221.3,283.3,221.4,282L221.4,282z M257.9,282.8c0.8,0,1.3,0.1,1.7,0.2c-0.2,0.3-0.5,0.5-1.7,0.3
		C257.9,283.3,257.9,283,257.9,282.8L257.9,282.8z M294.3,284.5c-0.9,0-1.5-0.1-1.4-0.5C293.9,283.8,294.3,283.8,294.3,284.5
		L294.3,284.5z M245.5,280.8c1.6,0.5,2,1.4,1.8,2.6C245.9,282.8,245.3,281.9,245.5,280.8L245.5,280.8z M265.4,280.7
		c0.6,0,0.4,0.7-0.4,0.4c0-0.1,0-0.2,0-0.3C265.3,280.9,265.4,280.8,265.4,280.7L265.4,280.7z M253,280c0.2,0,0.4,0,0.7,0
		c0,0.1,0.1,0.2,0.3,0.2c0,0.1,0,0.2,0,0.3c-0.3,0-0.3,0-0.4,0.1c-0.2,0-0.4,0-0.7,0c0.1-0.1-0.1-0.2-0.3-0.2c0-0.1,0-0.2,0-0.3
		C252.9,280.1,252.9,280.1,253,280L253,280z M279.6,278.2c0.5,0,0.6,0.2,1,0.2c-0.1,0.1-0.3,0.1-0.3,0.3c-0.2,0-0.4,0-0.6,0
		C279.7,278.5,279.6,278.4,279.6,278.2L279.6,278.2z M297,277.5c0.9,0,1.1,0.2,1.1,0.6c-0.5,0-0.9-0.1-1.3-0.1
		C296.6,277.8,296.9,277.7,297,277.5L297,277.5z M298.2,274.9c-0.1-0.2,2.1-0.2,1.6,0.2C299.1,275.2,298.6,275.1,298.2,274.9
		L298.2,274.9z M281.1,272.2c-0.1-0.2,2.1-0.2,1.6,0.2C281.9,272.4,281.9,272.1,281.1,272.2L281.1,272.2z M276.6,271.7
		c0.8-0.3,2.4,0.2,3.5,0.2C279.5,272.1,277.4,271.8,276.6,271.7L276.6,271.7z M267.7,271.1c0.9-0.4,1.7,0.3,2.9,0.3
		C269.7,271.8,268.5,271.2,267.7,271.1L267.7,271.1z M70.5,261.8c-4.4,0.6-8.9,0.7-13.7,0.7c-11.5-0.2-23.5-1.1-34.7-0.3
		c-7.5-0.8-15.1-0.1-21.7-0.7c4.4-0.8,10.3-0.2,14.9-0.1c0.8,0.2,0.8-0.4,1.5-0.2c13.1,0.5,29.2,0.3,43.8,0.2
		C64,261.3,68.1,261.2,70.5,261.8L70.5,261.8z M110.8,259.8c0-0.2,0.4-0.2,0.8-0.2c1.4,0,1.7,0.2,2.3,0.2
		C117.6,260.2,114,259.9,110.8,259.8L110.8,259.8z M275.7,266.5c4.5,0.3,7.4,1.2,11.7,1.5C283.6,268.6,278,267.6,275.7,266.5
		L275.7,266.5z M161.5,260.2c0,0.3,0.6,0.4,0.2,0.8c2.9,0.1,5.4,0,8.9,0.4c-4.7,0.8-9.1,0.1-12.7-0.2c-2.6-0.2-5.7,0-8-0.4
		c-1.1-0.2-1.3-0.9-2.9-0.7c0-0.3,3.4,0.2,4.2-0.2C153.7,260.8,157.9,260,161.5,260.2L161.5,260.2z M87.8,257
		c0.1-0.3,0.8-0.2,1.2-0.3c0.1,0.1,6.9,0.2,4.4,0.3C91.2,257.2,89.6,257.1,87.8,257L87.8,257z M274.5,261.2c-2.1,0.6-4,0.6-6.4,1.1
		C269,261.4,272.2,261.5,274.5,261.2L274.5,261.2z M288.5,261.6c-0.1,0.2-0.5,0.3-1.1,0.2C287.5,261.6,288,261.6,288.5,261.6
		L288.5,261.6z M273.9,260.7c-0.1,0.4-1.4,0.3-2.4,0.3C272.2,260.8,272.8,260.6,273.9,260.7L273.9,260.7z M298.7,261
		c-1.9,0.3-4.1,0.5-6.8,0.5C293.5,261,296.2,261.1,298.7,261L298.7,261z M113.6,251.1c0.2-0.3,1.4,0,1.7,0.1
		C117.7,251.5,115.3,251.3,113.6,251.1L113.6,251.1z M171.3,253.5c1.6-0.2,3.7,0.2,4.9,0.4C175.1,254.1,172.6,253.7,171.3,253.5
		L171.3,253.5z M172.6,252.4c2.3-0.2,3.6,0.8,5.8,1C176.2,253.4,173.9,252.8,172.6,252.4L172.6,252.4z M174.3,251.4
		c3.3,0.4,5.5,1.1,8.4,1.6C179.9,252.9,176.5,252.1,174.3,251.4L174.3,251.4z M288.2,254.3c-3.1,0.5-5.8,1.2-9.5,1.5
		C280.7,254.9,285.5,254.5,288.2,254.3L288.2,254.3z M263.2,252.4c-0.6,0.4-1.1,0.8-2.7,0.8C260.9,252.7,262.1,252.6,263.2,252.4
		L263.2,252.4z M310.8,253.2c0,0.4-0.8,0.4-2,0.3C309.6,253.4,309.6,253.1,310.8,253.2L310.8,253.2z M325.3,251.1
		c-0.6,0.3-2.1,0.4-3.3,0.5C322.7,251.3,324,251.2,325.3,251.1L325.3,251.1z M228.6,245.4c0.5-0.3,0.2,0.4,0.2,0.6
		C228.2,246.3,228.6,245.6,228.6,245.4L228.6,245.4z M243.3,246.4c-1,0.1-0.7-0.3-1.6-0.3c0.2-1,1.4-3,3.6-2
		C244.5,244.9,244.5,245.6,243.3,246.4L243.3,246.4z M203.5,241.5c0-0.2,1.3-0.1,0.8,0.1c-0.2,0-0.4,0-0.6,0
		C203.8,241.5,203.7,241.5,203.5,241.5L203.5,241.5z M231.2,241c0.5,0,0.4,0.1,0.8,0.1c-0.8,0.8,0.6,1.6-1.5,1.9
		C230.8,242,230.8,241.6,231.2,241L231.2,241z M280.2,242c0.5,0,0.5,0.1,0.8,0.1c-1.2,0.8-2.6,1.5-3.9,2.3
		C276.6,243.4,279.4,242.8,280.2,242L280.2,242z M258.4,238.2c0.6,0,0.9,0.1,0.8,0.3c-0.3,0-0.6,0-0.8,0
		C258.4,238.4,258.4,238.3,258.4,238.2L258.4,238.2z M217.3,235.4c1.3,0.4,0.7,1.5,1.1,2.3c0.8,1.3,2.6,2.5,3,3.7
		c-2,1.2,1.8,2.6,0.3,3.9C218.3,241.8,216.5,238.8,217.3,235.4L217.3,235.4z M123.5,231.2c3.2,0.7,5.7,1.6,8.3,2.5
		c-4.6-0.3-6.2-1.6-10.3-2.1c0.1-0.1,0.3-0.2,0-0.3C121.8,231.1,122.8,231.2,123.5,231.2L123.5,231.2z M203.7,234.7
		c0.6,0.5,0.2,1.2,0.6,1.7c0.5,0.2,0.6-0.1,1.4,0c1.1,1.2,3.5,2.1,3.6,3.6c-2.6-0.6-1.3-2.3-4.5-2.7c0.1-0.3,1.1-0.3,0.5-0.5
		c-0.7,0-1.2,0-1.2,0.2C202.7,236.5,203.2,235.3,203.7,234.7L203.7,234.7z M262,234.8c0.7,0,0.6,0.4,0.3,0.5c-0.8,0-0.9-0.2-0.8-0.5
		C261.8,234.9,261.9,234.9,262,234.8L262,234.8z M232.2,229.2c1.5,0.2,0.5,0.7,0.8,1.2C232.3,230.1,231.9,229.5,232.2,229.2
		L232.2,229.2z"/>
	
		<linearGradient id="SVGID_1_" gradientUnits="userSpaceOnUse" x1="-202.5093" y1="882.3215" x2="-198.0651" y2="831.5237" gradientTransform="matrix(0.4698 -4.090000e-02 4.130000e-02 0.4654 282.9698 -140.8809)">
		<stop  offset="0" style="stop-color:#000000"/>
		<stop  offset="0.33" style="stop-color:#000000"/>
		<stop  offset="1" style="stop-color:#FFFFFF"/>
	</linearGradient>
	<path class="st23" d="M259,263.4c-7.8,5.9-19.9,9.7-33.6,9.8c-14.7,0.1-27.8-4.1-35.9-10.5c4.6-0.7,9.2-1.2,13.9-1.7
		C223.1,259.3,242,260.3,259,263.4L259,263.4z"/>
	<path class="st22" d="M228.7,115.2c-7,13.8-16,29.9-18.6,50.8c-1.8,14.4,8.4,22.9,18.6,22.9c10.2,0,20.4-8.4,18.6-22.9
		C244.8,145.1,235.8,129,228.7,115.2L228.7,115.2z"/>
	
		<linearGradient id="SVGID_2_" gradientUnits="userSpaceOnUse" x1="-156.3677" y1="691.7395" x2="-156.3677" y2="841.1615" gradientTransform="matrix(0.4052 0 0 0.4052 289.8524 -155.6672)">
		<stop  offset="0" style="stop-color:#000000"/>
		<stop  offset="1" style="stop-color:#D6D6D6"/>
	</linearGradient>
	<path class="st24" d="M226.8,124.6c-5.8,11.3-12.4,24.3-14.4,40.7c-1.5,12.5,7.3,19.8,16.1,19.8c4.6,0,9.2-2,12.4-5.7
		c-7.9,0.5-16.3-4.7-17.6-15.9C221.6,148.9,224.1,136,226.8,124.6L226.8,124.6z"/>
	
		<linearGradient id="SVGID_3_" gradientUnits="userSpaceOnUse" x1="-129.1895" y1="667.1727" x2="-129.1895" y2="784.9434" gradientTransform="matrix(0.4672 0 0 0.4672 287.3858 -184.4934)">
		<stop  offset="0" style="stop-color:#000000"/>
		<stop  offset="1" style="stop-color:#8A8A8A"/>
	</linearGradient>
	<path class="st25" d="M239.7,179.5c-7.5-0.1-15.2-5.3-16.4-16c-1.6-13.6,0.5-25.6,2.9-36.3c-5,10-9.9,21.4-11.6,35.2
		c-1.5,12.5,7.3,19.8,16.1,19.8C233.8,182.2,237,181.3,239.7,179.5L239.7,179.5z"/>
	
		<linearGradient id="SVGID_4_" gradientUnits="userSpaceOnUse" x1="198.7663" y1="770.5196" x2="188.4329" y2="676.1464" gradientTransform="matrix(-0.4644 5.090000e-02 5.090000e-02 0.4644 289.7578 -183.4453)">
		<stop  offset="0" style="stop-color:#000000"/>
		<stop  offset="1" style="stop-color:#FFFFFF"/>
	</linearGradient>
	<path class="st26" d="M228.1,183.2c6.6-1.7,12.3-7.6,12.4-17.3c0-8.8-1.3-16.9-3.3-24.2c3,6,5.6,12.5,7.4,19.9
		c2.9,12.3-5.1,20.5-13.9,21.5C229.9,183.2,229,183.2,228.1,183.2L228.1,183.2z"/>
	<path class="st0" d="M216.1,161.4c0.8,1,1,1.6,2,1.7c-1.1,2.2-1.4,4-1.5,6.3c-1.4-0.5-2-1.2-2.9-2.3c0.3-1,0.6-2,1-2.9
		C215,163.3,215.5,162.4,216.1,161.4L216.1,161.4z M219.3,163.4c1-0.2,2.2-0.5,3.1-0.9c-1,2.2-1.4,3.5-1.4,5.9c-1,0.7-1.7,1-2.9,1.2
		C218,167.7,218.3,165.6,219.3,163.4L219.3,163.4z M213.2,169.6c0.5,0.5,1,1.1,1.5,1.5c0.5,0.4,1.1,0.7,1.7,1
		c0.1,1.1,0.3,2.2,0.5,3.3c0.3,1.1,0.7,2.3,1.1,3.4c-0.8-0.3-1.6-0.7-2.3-1.3c-0.8-0.5-1.5-1.1-2.1-1.8c-0.2-1.1-0.4-2.1-0.5-3.2
		C213.1,171.7,213.2,170.6,213.2,169.6L213.2,169.6z M218.1,172.3c0.6-0.1,1.2-0.2,1.7-0.4c0.5-0.2,1-0.6,1.5-0.9
		c0.4,1.1,0.8,2.2,1.4,3.3c0.6,1.1,1.4,2.3,2.1,3.4c-0.7,0.4-1.4,0.9-2.1,1.2c-0.7,0.3-1.5,0.4-2.3,0.5c-0.5-1.2-1.1-2.4-1.4-3.5
		C218.6,174.6,218.3,173.5,218.1,172.3L218.1,172.3z"/>
	<path class="st0" d="M243.9,174.1c-0.4,0.2-0.7,0.4-1.1,0.6c-0.4,0.2-0.7,0.2-1.1,0.3c-0.2,0.6-0.5,1.2-0.8,1.8
		c-0.3,0.6-0.8,1.1-1.2,1.7c0.5-0.1,1-0.2,1.5-0.3c0.5-0.2,1-0.4,1.5-0.6c0.3-0.6,0.6-1.1,0.8-1.7
		C243.7,175.2,243.8,174.6,243.9,174.1L243.9,174.1z M243.7,169.1c-0.6,0.4-0.8,0.7-1.4,0.6c0.2,1.4,0.1,2.5-0.2,3.7
		c0.9-0.1,1.3-0.3,2-0.8c0-0.6,0-1.2-0.1-1.8C244,170.3,243.8,169.7,243.7,169.1L243.7,169.1z"/>
</g>
</svg>
