<?xml version="1.0" encoding="utf-8"?>
<!-- Generator: Adobe Illustrator 24.0.1, SVG Export Plug-In . SVG Version: 6.00 Build 0)  -->
<svg version="1.1" id="Layer_1" xmlns="http://www.w3.org/2000/svg" xmlns:xlink="http://www.w3.org/1999/xlink" x="0px" y="0px"
	 viewBox="0 0 500 500" style="enable-background:new 0 0 500 500;" xml:space="preserve">
<style type="text/css">
	.st0{fill:url(#SVGID_1_);}
	.st1{fill:#8A8A8A;}
	.st2{fill:url(#SVGID_2_);}
	.st3{fill:#930000;}
	.st4{fill:url(#SVGID_3_);}
	.st5{fill:url(#SVGID_4_);}
	.st6{fill:url(#SVGID_5_);}
	.st7{fill:#6B6B6B;}
	.st8{fill:url(#SVGID_6_);}
	.st9{fill:url(#SVGID_7_);}
	.st10{fill:#4D4D4D;}
	.st11{fill:url(#SVGID_8_);}
	.st12{fill:url(#SVGID_9_);}
	.st13{fill:url(#SVGID_10_);}
	.st14{fill:url(#SVGID_11_);}
	.st15{fill:#292929;}
	.st16{fill:#A22400;}
	.st17{fill:url(#SVGID_12_);}
	.st18{fill:url(#SVGID_13_);}
	.st19{fill:url(#SVGID_14_);}
	.st20{fill:url(#SVGID_15_);}
	.st21{fill:url(#SVGID_16_);}
	.st22{fill:url(#SVGID_17_);}
	.st23{fill:#FFFFFF;}
	.st24{fill:url(#SVGID_18_);}
	.st25{fill:url(#SVGID_19_);}
	.st26{fill:url(#SVGID_20_);}
	.st27{fill:url(#SVGID_21_);}
	.st28{fill:#999999;}
	.st29{fill:url(#SVGID_22_);}
	.st30{fill:url(#SVGID_23_);}
	.st31{fill:url(#SVGID_24_);}
	.st32{fill:url(#SVGID_25_);}
	.st33{fill:url(#SVGID_26_);}
	.st34{fill:url(#SVGID_27_);}
	.st35{fill:url(#SVGID_28_);}
	.st36{fill:url(#SVGID_29_);}
	.st37{fill:url(#SVGID_30_);}
	.st38{fill:#B5B5B5;}
	.st39{fill:#A1A1A1;}
	.st40{fill:url(#SVGID_31_);}
	.st41{fill:url(#SVGID_32_);}
	.st42{fill:url(#SVGID_33_);}
	.st43{fill:url(#SVGID_34_);}
	.st44{fill:#666666;}
	.st45{fill:url(#SVGID_35_);}
	.st46{fill:url(#SVGID_36_);}
</style>
<g>
	<linearGradient id="SVGID_1_" gradientUnits="userSpaceOnUse" x1="82.4941" y1="196.9718" x2="146.4589" y2="196.9718">
		<stop  offset="0" style="stop-color:#FFEAEA"/>
		<stop  offset="1" style="stop-color:#FFAA8E"/>
	</linearGradient>
	<polygon class="st0" points="82.5,225.6 146.5,168.3 133.2,168.3 82.5,225.6 	"/>
	<polygon class="st1" points="250,362.9 250,362.9 250,362.9 	"/>
	<linearGradient id="SVGID_2_" gradientUnits="userSpaceOnUse" x1="98.2631" y1="188.9072" x2="90.0803" y2="245.6688">
		<stop  offset="0" style="stop-color:#FF632E"/>
		<stop  offset="1" style="stop-color:#CB3317"/>
	</linearGradient>
	<polygon class="st2" points="133.2,168.3 61,225.6 82.5,225.6 	"/>
	<polygon class="st1" points="82.5,225.6 82.5,225.6 82.5,225.6 	"/>
	<polygon class="st3" points="416.7,225 417.5,225.6 438.9,225.6 366.8,168.3 416.9,225.1 	"/>
	<linearGradient id="SVGID_3_" gradientUnits="userSpaceOnUse" x1="373.5885" y1="181.2798" x2="407.8527" y2="226.794">
		<stop  offset="0" style="stop-color:#FF632E"/>
		<stop  offset="1" style="stop-color:#CB3317"/>
	</linearGradient>
	<polygon class="st4" points="416.9,225.1 366.8,168.3 353.5,168.3 416.7,225 	"/>
	<linearGradient id="SVGID_4_" gradientUnits="userSpaceOnUse" x1="323.6287" y1="196.6427" x2="416.7187" y2="196.6427">
		<stop  offset="0" style="stop-color:#FFEAEA"/>
		<stop  offset="1" style="stop-color:#FFAA8E"/>
	</linearGradient>
	<polygon class="st5" points="353.5,168.3 323.6,168.3 416.7,225 	"/>
	<linearGradient id="SVGID_5_" gradientUnits="userSpaceOnUse" x1="366.7579" y1="191.7783" x2="392.8378" y2="227.5737">
		<stop  offset="1.098900e-02" style="stop-color:#FF4F17"/>
		<stop  offset="1" style="stop-color:#A22400"/>
	</linearGradient>
	<polygon class="st6" points="417.5,225.6 416.7,225 323.6,168.3 369.1,225.6 	"/>
	<polygon class="st7" points="250,362.9 250,362.9 250,362.9 	"/>
	<polygon class="st7" points="82.5,225.6 82.5,225.6 82.5,225.6 	"/>
	<linearGradient id="SVGID_6_" gradientUnits="userSpaceOnUse" x1="122.3565" y1="183.3389" x2="166.8394" y2="269.2369">
		<stop  offset="0" style="stop-color:#FFEAEA"/>
		<stop  offset="1" style="stop-color:#FFAA8E"/>
	</linearGradient>
	<polygon class="st8" points="130.8,225.6 176.3,168.3 82.5,225.6 	"/>
	<linearGradient id="SVGID_7_" gradientUnits="userSpaceOnUse" x1="145.2049" y1="173.7211" x2="108.3857" y2="227.9273">
		<stop  offset="0" style="stop-color:#FF632E"/>
		<stop  offset="1" style="stop-color:#CB3317"/>
	</linearGradient>
	<polygon class="st9" points="82.5,225.6 176.3,168.3 146.5,168.3 82.5,225.6 	"/>
	<polygon class="st10" points="197.5,225.6 197.5,225.6 197.5,225.6 	"/>
	<polygon class="st10" points="250,362.9 250,362.9 250,362.9 	"/>
	<linearGradient id="SVGID_8_" gradientUnits="userSpaceOnUse" x1="323.5211" y1="211.1244" x2="306.645" y2="188.1115">
		<stop  offset="0" style="stop-color:#FFEAEA"/>
		<stop  offset="1" style="stop-color:#FFAA8E"/>
	</linearGradient>
	<polygon class="st11" points="302.3,225.1 323.6,168.3 282.4,168.3 302.2,225 	"/>
	<linearGradient id="SVGID_9_" gradientUnits="userSpaceOnUse" x1="155.1474" y1="174.46" x2="168.9545" y2="252.6998">
		<stop  offset="0" style="stop-color:#FF0000"/>
		<stop  offset="1" style="stop-color:#360000"/>
	</linearGradient>
	<polygon class="st12" points="197.5,225.6 176.3,168.3 130.8,225.6 	"/>
	<linearGradient id="SVGID_10_" gradientUnits="userSpaceOnUse" x1="196.9433" y1="168.419" x2="193.8752" y2="242.0547">
		<stop  offset="1.098900e-02" style="stop-color:#FF4F17"/>
		<stop  offset="1" style="stop-color:#A22400"/>
	</linearGradient>
	<polygon class="st13" points="197.5,225.6 217.6,168.3 176.3,168.3 197.5,225.6 	"/>
	<linearGradient id="SVGID_11_" gradientUnits="userSpaceOnUse" x1="323.2324" y1="174.3136" x2="342.6633" y2="254.0866">
		<stop  offset="0" style="stop-color:#FF632E"/>
		<stop  offset="1" style="stop-color:#CB3317"/>
	</linearGradient>
	<polygon class="st14" points="302.2,225 302.4,225.6 369.1,225.6 323.6,168.3 302.3,225.1 	"/>
	<polygon class="st15" points="197.6,225.6 197.5,225.6 197.5,225.6 	"/>
	<polygon class="st16" points="197.6,225.6 250,225.6 250,190.2 	"/>
	<linearGradient id="SVGID_12_" gradientUnits="userSpaceOnUse" x1="197.5487" y1="196.9718" x2="249.9765" y2="196.9718">
		<stop  offset="0" style="stop-color:#FFEAEA"/>
		<stop  offset="1" style="stop-color:#FF9B80"/>
	</linearGradient>
	<polygon class="st17" points="197.6,225.6 250,190.2 250,190 217.6,168.3 197.5,225.6 	"/>
	<linearGradient id="SVGID_13_" gradientUnits="userSpaceOnUse" x1="265.9899" y1="166.4308" x2="267.0132" y2="235.4704">
		<stop  offset="0" style="stop-color:#FF632E"/>
		<stop  offset="1" style="stop-color:#CB3317"/>
	</linearGradient>
	<polygon class="st18" points="250.1,190.1 282.4,168.3 250,168.3 250,190 	"/>
	<linearGradient id="SVGID_14_" gradientUnits="userSpaceOnUse" x1="247.2519" y1="154.8164" x2="215.5468" y2="212.0887">
		<stop  offset="0" style="stop-color:#FF4000"/>
		<stop  offset="1" style="stop-color:#4D0000"/>
	</linearGradient>
	<polygon class="st19" points="250,168.3 217.6,168.3 250,190 	"/>
	<polygon class="st15" points="250,190 250,190.2 250.1,190.1 	"/>
	<polygon class="st16" points="302.2,225 282.4,168.3 250.1,190.1 	"/>
	<linearGradient id="SVGID_15_" gradientUnits="userSpaceOnUse" x1="276.1894" y1="187.9952" x2="276.1894" y2="258.0494">
		<stop  offset="1.098900e-02" style="stop-color:#FF4F17"/>
		<stop  offset="1" style="stop-color:#A22400"/>
	</linearGradient>
	<polygon class="st20" points="250.1,190.1 250,190.2 250,225.6 302.4,225.6 302.2,225 	"/>
	<linearGradient id="SVGID_16_" gradientUnits="userSpaceOnUse" x1="124.4443" y1="311.6564" x2="249.9765" y2="311.6564">
		<stop  offset="1.098900e-02" style="stop-color:#FF4F17"/>
		<stop  offset="1" style="stop-color:#A22400"/>
	</linearGradient>
	<polygon class="st21" points="124.4,260.4 191.4,320.4 250,362.9 126.8,262 	"/>
	<linearGradient id="SVGID_17_" gradientUnits="userSpaceOnUse" x1="249.9765" y1="311.6564" x2="374.5115" y2="311.6564">
		<stop  offset="0" style="stop-color:#FFEAEA"/>
		<stop  offset="1" style="stop-color:#FFAA8E"/>
	</linearGradient>
	<polygon class="st22" points="374.5,260.4 285.8,321.7 250,362.9 368.1,266.2 	"/>
	<polygon class="st23" points="213.8,321.7 126.8,262 250,362.9 250,362.9 213.8,321.2 	"/>
	<linearGradient id="SVGID_18_" gradientUnits="userSpaceOnUse" x1="237.5101" y1="294.1322" x2="208.3617" y2="363.6797">
		<stop  offset="0" style="stop-color:#FF632E"/>
		<stop  offset="1" style="stop-color:#CB3317"/>
	</linearGradient>
	<polygon class="st24" points="210.4,260.4 213.8,321.2 250,362.9 211.5,262.1 	"/>
	<linearGradient id="SVGID_19_" gradientUnits="userSpaceOnUse" x1="269.3563" y1="291.294" x2="269.3563" y2="348.5696">
		<stop  offset="1.098900e-02" style="stop-color:#FF4F17"/>
		<stop  offset="1" style="stop-color:#A22400"/>
	</linearGradient>
	<polygon class="st25" points="285.7,321.7 288.7,261.4 250,362.9 285.8,321.7 	"/>
	<polygon class="st16" points="249.5,321.7 211.5,262.1 250,362.9 250,321 	"/>
	<linearGradient id="SVGID_20_" gradientUnits="userSpaceOnUse" x1="253.6115" y1="265.0751" x2="275.6007" y2="330.0217">
		<stop  offset="0" style="stop-color:#FFEAEA"/>
		<stop  offset="1" style="stop-color:#FFAA8E"/>
	</linearGradient>
	<polygon class="st26" points="288.8,260.4 250,321 250,362.9 250,362.9 288.7,261.4 	"/>
	<linearGradient id="SVGID_21_" gradientUnits="userSpaceOnUse" x1="67.1435" y1="269.2992" x2="105.4982" y2="271.345">
		<stop  offset="0" style="stop-color:#FFEAEA"/>
		<stop  offset="1" style="stop-color:#FFAA8E"/>
	</linearGradient>
	<polygon class="st27" points="82.5,225.6 82.5,225.6 61,225.6 61,225.6 191.4,320.4 126.2,261.9 126.2,262.2 126.2,261.9 
		124.4,260.4 126.2,261.6 126.2,261.5 	"/>
	<polygon class="st28" points="126.2,261.6 126.8,262 126.2,261.5 	"/>
	<linearGradient id="SVGID_22_" gradientUnits="userSpaceOnUse" x1="249.9765" y1="314.5538" x2="368.0507" y2="314.5538">
		<stop  offset="1.098900e-02" style="stop-color:#FF4F17"/>
		<stop  offset="1" style="stop-color:#A22400"/>
	</linearGradient>
	<polygon class="st29" points="250,362.9 306,322.3 368.1,266.2 	"/>
	<linearGradient id="SVGID_23_" gradientUnits="userSpaceOnUse" x1="397.41" y1="225.8097" x2="415.8198" y2="255.9819">
		<stop  offset="1.098900e-02" style="stop-color:#FF4F17"/>
		<stop  offset="1" style="stop-color:#A22400"/>
	</linearGradient>
	<polygon class="st30" points="376.3,259.4 438.9,225.6 417.5,225.6 417.5,225.6 	"/>
	<linearGradient id="SVGID_24_" gradientUnits="userSpaceOnUse" x1="390.6911" y1="220.7432" x2="398.3624" y2="252.9626">
		<stop  offset="0" style="stop-color:#FF632E"/>
		<stop  offset="1" style="stop-color:#CB3317"/>
	</linearGradient>
	<polygon class="st31" points="417.5,225.6 417.5,225.6 369.1,225.6 369.1,225.6 369.1,225.7 374.5,260.4 376.3,259.4 	"/>
	<linearGradient id="SVGID_25_" gradientUnits="userSpaceOnUse" x1="381.6259" y1="287.7126" x2="355.5479" y2="248.5956">
		<stop  offset="0" style="stop-color:#FF6970"/>
		<stop  offset="1" style="stop-color:#9D0000"/>
	</linearGradient>
	<polygon class="st32" points="438.9,225.6 376.3,259.4 374.5,260.4 368.1,266.2 306,322.3 439,225.6 	"/>
	<linearGradient id="SVGID_26_" gradientUnits="userSpaceOnUse" x1="322.8707" y1="258.1378" x2="336.1658" y2="303.1404">
		<stop  offset="0" style="stop-color:#FF0000"/>
		<stop  offset="1" style="stop-color:#360000"/>
	</linearGradient>
	<polygon class="st33" points="285.8,321.7 374.5,260.4 369.1,225.7 	"/>
	<linearGradient id="SVGID_27_" gradientUnits="userSpaceOnUse" x1="166.4024" y1="252.5206" x2="170.4925" y2="296.4992">
		<stop  offset="0" style="stop-color:#FF632E"/>
		<stop  offset="1" style="stop-color:#CB3317"/>
	</linearGradient>
	<polygon class="st34" points="126.2,261.5 126.8,262 213.8,321.7 213.8,321.2 130.8,225.7 	"/>
	<linearGradient id="SVGID_28_" gradientUnits="userSpaceOnUse" x1="116.0853" y1="243.8549" x2="160.0672" y2="328.7487">
		<stop  offset="0" style="stop-color:#FFEAEA"/>
		<stop  offset="1" style="stop-color:#FF9B80"/>
	</linearGradient>
	<polygon class="st35" points="130.8,225.7 130.8,225.6 130.8,225.6 82.5,225.6 82.5,225.6 126.2,261.5 	"/>
	<linearGradient id="SVGID_29_" gradientUnits="userSpaceOnUse" x1="170.5919" y1="229.1164" x2="171.1028" y2="272.589">
		<stop  offset="0" style="stop-color:#FF632E"/>
		<stop  offset="1" style="stop-color:#CB3317"/>
	</linearGradient>
	<polygon class="st36" points="197.5,225.6 197.5,225.6 130.8,225.6 210.4,260.4 210.7,260.1 	"/>
	<linearGradient id="SVGID_30_" gradientUnits="userSpaceOnUse" x1="163.1562" y1="270.3895" x2="215.3218" y2="287.7776">
		<stop  offset="0" style="stop-color:#FF4000"/>
		<stop  offset="1" style="stop-color:#4D0000"/>
	</linearGradient>
	<polygon class="st37" points="130.8,225.7 213.8,321.2 210.4,260.4 130.8,225.6 	"/>
	<polygon class="st38" points="130.8,225.7 130.8,225.6 130.8,225.6 	"/>
	<polygon class="st38" points="210.4,260.4 211.5,262.1 210.7,260.1 	"/>
	<polygon class="st39" points="369.1,225.6 369.1,225.6 369.1,225.7 	"/>
	<linearGradient id="SVGID_31_" gradientUnits="userSpaceOnUse" x1="328.0046" y1="223.3702" x2="331.0732" y2="274.5129">
		<stop  offset="1.098900e-02" style="stop-color:#FF4F17"/>
		<stop  offset="1" style="stop-color:#A22400"/>
	</linearGradient>
	<polygon class="st40" points="289.2,260.2 369.1,225.6 302.4,225.6 302.4,225.6 	"/>
	<linearGradient id="SVGID_32_" gradientUnits="userSpaceOnUse" x1="324.0256" y1="249.88" x2="330.1626" y2="292.8388">
		<stop  offset="0" style="stop-color:#FF632E"/>
		<stop  offset="1" style="stop-color:#CB3317"/>
	</linearGradient>
	<polygon class="st41" points="369.1,225.6 289.2,260.2 288.7,261.4 285.7,321.7 285.8,321.7 369.1,225.7 	"/>
	<linearGradient id="SVGID_33_" gradientUnits="userSpaceOnUse" x1="207.0695" y1="255.8483" x2="300.6527" y2="294.9691">
		<stop  offset="1.098900e-02" style="stop-color:#FF4F17"/>
		<stop  offset="1" style="stop-color:#A22400"/>
	</linearGradient>
	<polygon class="st42" points="210.7,260.1 211.5,262.1 249.5,321.7 250,321 250,225.6 	"/>
	<linearGradient id="SVGID_34_" gradientUnits="userSpaceOnUse" x1="197.5429" y1="242.8507" x2="249.9765" y2="242.8507">
		<stop  offset="0" style="stop-color:#FFEAEA"/>
		<stop  offset="1" style="stop-color:#FF9B80"/>
	</linearGradient>
	<polygon class="st43" points="250,225.6 197.6,225.6 197.5,225.6 210.7,260.1 	"/>
	<polygon class="st44" points="288.8,260.4 288.7,261.4 289.2,260.2 	"/>
	<linearGradient id="SVGID_35_" gradientUnits="userSpaceOnUse" x1="265.9162" y1="250.843" x2="229.6057" y2="301.9841">
		<stop  offset="1.098900e-02" style="stop-color:#FF4F17"/>
		<stop  offset="1" style="stop-color:#A22400"/>
	</linearGradient>
	<polygon class="st45" points="250,321 288.8,260.4 250,225.6 	"/>
	<linearGradient id="SVGID_36_" gradientUnits="userSpaceOnUse" x1="276.3448" y1="223.3078" x2="272.7635" y2="278.0345">
		<stop  offset="0" style="stop-color:#FF632E"/>
		<stop  offset="1" style="stop-color:#CB3317"/>
	</linearGradient>
	<polygon class="st46" points="302.4,225.6 302.4,225.6 250,225.6 288.8,260.4 289.2,260.2 	"/>
	<path class="st23" d="M111.9,215.4c4.3-3.4,10.4-7.1,18.5-12c-10.3,5.7-17.5,9.5-23.1,11.3c-6.2-2.5-11.3-10.6-20.5-25.8
		c6.9,12.5,11.1,20.4,12,26.5c-7-1.6-12.2-9.8-22.2-26.3c18.3,33.2,18.1,34.1-14.4,53.8c14.1-7.7,22.3-12.2,28.7-12.2
		c-4.3,3.4-10.4,7.1-18.5,12c10.3-5.7,17.5-9.5,23.1-11.2c6.2,2.5,11.3,10.6,20.5,25.8c-6.9-12.5-11.1-20.4-12-26.5
		c7,1.6,12.2,9.8,22.2,26.3c-18.3-33.2-18.1-34.1,14.4-53.8C126.5,211,118.3,215.4,111.9,215.4z"/>
	<path class="st23" d="M213.6,308.5c4-3.2,9.7-6.7,17.4-11.3c-9.6,5.3-16.4,8.9-21.6,10.5c-5.8-2.3-10.6-9.9-19.2-24.2
		c6.4,11.7,10.4,19.1,11.3,24.8c-6.6-1.5-11.4-9.2-20.8-24.6c17.1,31.1,16.9,31.9-13.5,50.3c13.2-7.3,20.9-11.4,26.9-11.4
		c-4,3.2-9.7,6.7-17.4,11.3c9.6-5.3,16.4-8.9,21.6-10.5c5.8,2.3,10.6,9.9,19.2,24.2c-6.4-11.7-10.4-19.1-11.3-24.8
		c6.6,1.5,11.4,9.1,20.8,24.6c-17.1-31.1-16.9-31.9,13.5-50.3C227.3,304.3,219.6,308.4,213.6,308.5z"/>
	<path class="st23" d="M251,225.1c2-1.6,4.9-3.3,8.7-5.6c-4.8,2.6-8.2,4.5-10.8,5.3c-2.9-1.1-5.3-4.9-9.6-12
		c3.2,5.8,5.2,9.5,5.6,12.4c-3.3-0.8-5.7-4.6-10.4-12.3c8.5,15.5,8.4,15.9-6.7,25.1c6.6-3.6,10.4-5.7,13.4-5.7
		c-2,1.6-4.9,3.3-8.6,5.6c4.8-2.6,8.1-4.5,10.8-5.2c2.9,1.1,5.3,4.9,9.6,12c-3.2-5.8-5.2-9.5-5.6-12.4c3.3,0.8,5.7,4.6,10.4,12.3
		c-8.5-15.5-8.4-15.9,6.7-25.1C257.8,223,253.9,225.1,251,225.1z"/>
	<path class="st23" d="M328.8,164.1c4.7-3.7,11.3-7.8,20.2-13.1c-11.2,6.2-19,10.4-25.2,12.3c-6.8-2.7-12.3-11.5-22.4-28.1
		c7.5,13.6,12.1,22.2,13.1,28.9c-7.7-1.8-13.3-10.7-24.2-28.7c19.9,36.2,19.7,37.2-15.7,58.6c15.3-8.4,24.3-13.2,31.3-13.3
		c-4.7,3.7-11.3,7.8-20.2,13.1c11.2-6.2,19-10.4,25.2-12.3c6.8,2.7,12.3,11.5,22.4,28.1c-7.5-13.6-12.1-22.2-13.1-28.9
		c7.7,1.8,13.3,10.7,24.2,28.7c-19.9-36.2-19.7-37.2,15.7-58.6C344.7,159.3,335.7,164.1,328.8,164.1z"/>
</g>
</svg>
