<?xml version="1.0" encoding="utf-8"?>
<!-- Generator: Adobe Illustrator 24.0.1, SVG Export Plug-In . SVG Version: 6.00 Build 0)  -->
<svg version="1.1" id="Layer_1" xmlns="http://www.w3.org/2000/svg" xmlns:xlink="http://www.w3.org/1999/xlink" x="0px" y="0px"
	 viewBox="0 0 500 500" style="enable-background:new 0 0 500 500;" xml:space="preserve">
<style type="text/css">
	.st0{fill-rule:evenodd;clip-rule:evenodd;fill:#FF6600;}
	.st1{fill-rule:evenodd;clip-rule:evenodd;fill:#B71685;}
	.st2{fill-rule:evenodd;clip-rule:evenodd;fill:#336699;}
	.st3{fill-rule:evenodd;clip-rule:evenodd;fill:#00AEEF;}
	.st4{fill-rule:evenodd;clip-rule:evenodd;fill:#A1DD0E;}
	.st5{fill-rule:evenodd;clip-rule:evenodd;fill:#F9CE19;}
</style>
<g>
	<path class="st0" d="M251.1,67.4c58.7,0,112,28.7,144.8,72.4L216.9,122l21.8-54.6C242.9,67.4,247,67.4,251.1,67.4L251.1,67.4z"/>
	<path class="st1" d="M401.3,147.9c19.1,28.7,30,62.8,30,101.1c0,24.6-5.5,49.2-15,71l-73.7-163.9L401.3,147.9z"/>
	<path class="st2" d="M413.6,328.2c-27.3,54.6-80.6,92.9-142,99.7l105.2-146.1L413.6,328.2z"/>
	<path class="st3" d="M262,429.3c-4.1,0-8.2,0-10.9,0c-60.1,0-113.3-28.7-146.1-72.4l178.9,17.8L262,429.3z"/>
	<path class="st4" d="M99.5,348.7c-19.1-28.7-30-62.8-30-99.7c0-25.9,5.5-50.5,15-72.4l73.7,163.9L99.5,348.7z"/>
	<path class="st5" d="M87.2,168.4c27.3-54.6,80.6-92.9,142-99.7L124.1,214.8L87.2,168.4z"/>
</g>
</svg>
