<?xml version="1.0" encoding="utf-8"?>
<!-- Generator: Adobe Illustrator 24.0.1, SVG Export Plug-In . SVG Version: 6.00 Build 0)  -->
<svg version="1.1" id="Layer_1" xmlns="http://www.w3.org/2000/svg" xmlns:xlink="http://www.w3.org/1999/xlink" x="0px" y="0px"
	 viewBox="0 0 500 500" style="enable-background:new 0 0 500 500;" xml:space="preserve">
<style type="text/css">
	.st0{fill:url(#SVGID_1_);}
	.st1{fill:#845700;}
	.st2{fill:url(#SVGID_2_);}
	.st3{fill:url(#SVGID_3_);}
	.st4{fill:url(#SVGID_4_);}
	.st5{fill:url(#SVGID_5_);}
	.st6{fill:url(#SVGID_6_);}
	.st7{fill:#984F03;}
	.st8{fill-rule:evenodd;clip-rule:evenodd;fill:#D5A72B;}
	.st9{fill-rule:evenodd;clip-rule:evenodd;fill:#C6A02B;}
	.st10{fill-rule:evenodd;clip-rule:evenodd;fill:#D5AF2B;}
	.st11{fill-rule:evenodd;clip-rule:evenodd;fill:#A0752B;}
	.st12{fill:url(#SVGID_7_);}
	.st13{fill:#D6D6D6;}
	.st14{fill-rule:evenodd;clip-rule:evenodd;fill:url(#SVGID_8_);}
	.st15{fill-rule:evenodd;clip-rule:evenodd;}
	.st16{fill-rule:evenodd;clip-rule:evenodd;fill:url(#SVGID_9_);}
	.st17{fill:url(#SVGID_10_);}
	.st18{fill:url(#SVGID_11_);}
	.st19{fill:url(#SVGID_12_);}
	.st20{fill:url(#SVGID_13_);}
	.st21{fill:url(#SVGID_14_);}
	.st22{fill:url(#SVGID_15_);}
	.st23{fill:#FFFFFF;}
	.st24{fill:url(#SVGID_16_);}
	.st25{fill:url(#SVGID_17_);}
	.st26{fill:url(#SVGID_18_);}
	.st27{fill:url(#SVGID_19_);}
	.st28{fill-rule:evenodd;clip-rule:evenodd;fill:url(#SVGID_20_);}
	.st29{fill-rule:evenodd;clip-rule:evenodd;fill:url(#SVGID_21_);}
	.st30{fill-rule:evenodd;clip-rule:evenodd;fill:url(#SVGID_22_);}
	.st31{fill-rule:evenodd;clip-rule:evenodd;fill:url(#SVGID_23_);}
	.st32{fill-rule:evenodd;clip-rule:evenodd;fill:url(#SVGID_24_);}
	.st33{fill-rule:evenodd;clip-rule:evenodd;fill:url(#SVGID_25_);}
	.st34{fill-rule:evenodd;clip-rule:evenodd;fill:url(#SVGID_26_);}
	.st35{fill-rule:evenodd;clip-rule:evenodd;fill:url(#SVGID_27_);}
	.st36{fill-rule:evenodd;clip-rule:evenodd;fill:url(#SVGID_28_);}
	.st37{fill-rule:evenodd;clip-rule:evenodd;fill:url(#SVGID_29_);}
	.st38{fill-rule:evenodd;clip-rule:evenodd;fill:#D82C09;}
	.st39{fill-rule:evenodd;clip-rule:evenodd;fill:url(#SVGID_30_);}
	.st40{fill-rule:evenodd;clip-rule:evenodd;fill:url(#SVGID_31_);}
	.st41{fill-rule:evenodd;clip-rule:evenodd;fill:url(#SVGID_32_);}
	.st42{fill-rule:evenodd;clip-rule:evenodd;fill:url(#SVGID_33_);}
	.st43{fill-rule:evenodd;clip-rule:evenodd;fill:url(#SVGID_34_);}
	.st44{fill-rule:evenodd;clip-rule:evenodd;fill:url(#SVGID_35_);}
	.st45{fill-rule:evenodd;clip-rule:evenodd;fill:url(#SVGID_36_);}
	.st46{fill-rule:evenodd;clip-rule:evenodd;fill:url(#SVGID_37_);}
	.st47{fill-rule:evenodd;clip-rule:evenodd;fill:url(#SVGID_38_);}
	.st48{fill-rule:evenodd;clip-rule:evenodd;fill:url(#SVGID_39_);}
	.st49{fill-rule:evenodd;clip-rule:evenodd;fill:#EFBE78;}
	.st50{fill:url(#SVGID_40_);}
	.st51{fill:url(#SVGID_41_);}
	.st52{fill:url(#SVGID_42_);}
	.st53{fill:#F2F2F2;}
	.st54{fill:#DFDFDF;}
	.st55{fill-rule:evenodd;clip-rule:evenodd;fill:#DCAD3D;}
	.st56{fill-rule:evenodd;clip-rule:evenodd;fill:url(#SVGID_43_);}
</style>
<g>
	<g>
		<linearGradient id="SVGID_1_" gradientUnits="userSpaceOnUse" x1="284.8975" y1="273.0321" x2="224.1483" y2="448.7122">
			<stop  offset="0" style="stop-color:#F9D02C"/>
			<stop  offset="0.2088" style="stop-color:#FBF4D1"/>
			<stop  offset="0.3956" style="stop-color:#FFCB0F"/>
			<stop  offset="0.6429" style="stop-color:#FAF1C3"/>
			<stop  offset="1" style="stop-color:#EAB42B"/>
		</linearGradient>
		<path class="st0" d="M383.5,432.5c0,5.6-4.6,10.2-10.2,10.2H134.5c-5.6,0-10.2-4.6-10.2-10.2V292.8c0-5.6,4.6-10.2,10.2-10.2
			h238.8c5.6,0,10.2,4.6,10.2,10.2V432.5z"/>
		<path class="st1" d="M360.5,334.6c0,6.7-5.4,12.1-12.1,12.1h-16.7c-6.7,0-12.1-5.4-12.1-12.1v-8.3c0-6.7,5.4-12.1,12.1-12.1h16.7
			c6.7,0,12.1,5.4,12.1,12.1V334.6z"/>
		
			<linearGradient id="SVGID_2_" gradientUnits="userSpaceOnUse" x1="319.8568" y1="329.6401" x2="360.845" y2="329.6401" gradientTransform="matrix(1 0 0 1 5.000000e-04 0)">
			<stop  offset="0" style="stop-color:#EFB203"/>
			<stop  offset="5.709774e-02" style="stop-color:#F0B60F"/>
			<stop  offset="0.1598" style="stop-color:#F2C22E"/>
			<stop  offset="0.2963" style="stop-color:#F7D561"/>
			<stop  offset="0.4595" style="stop-color:#FCEFA6"/>
			<stop  offset="0.533" style="stop-color:#FFFBC8"/>
			<stop  offset="0.6597" style="stop-color:#F7DF83"/>
			<stop  offset="0.7751" style="stop-color:#F0C94C"/>
			<stop  offset="0.8739" style="stop-color:#EBB924"/>
			<stop  offset="0.9521" style="stop-color:#E8B00C"/>
			<stop  offset="1" style="stop-color:#E7AC03"/>
		</linearGradient>
		<path class="st2" d="M360.8,333.8c0,6.7-5.4,12.1-12.1,12.1H332c-6.7,0-12.1-5.4-12.1-12.1v-8.3c0-6.7,5.4-12.1,12.1-12.1h16.7
			c6.7,0,12.1,5.4,12.1,12.1V333.8z"/>
		<path class="st1" d="M360.5,336.5h-8h-2.8v-2.8V325v-2.8h2.8h7.8c-0.1-0.5-0.3-1-0.5-1.4h-7.4h-2.8v-2.8v-4.6c-0.3,0-0.7,0-1,0
			h-0.4v4.6v2.8h-2.8h-12h-2.8v-2.8v-4.6c-0.5,0-1,0.1-1.4,0.2v4.3v2.8h-2.8h-5.7c-0.2,0.5-0.4,0.9-0.5,1.4h6.2h2.8v2.8v8.8v2.8
			h-2.8h-6.4c0.1,0.5,0.3,1,0.4,1.4h5.9h2.8v2.8v4.9c0.5,0.1,0.9,0.2,1.4,0.2v-5.2v-2.8h2.8h12h2.8v2.8v5.2h0.4c0.3,0,0.7,0,1-0.1
			v-5.2v-2.8h2.8h7.6C360.3,337.5,360.4,337,360.5,336.5z M348.3,325v8.8v2.8h-2.8h-12h-2.8v-2.8V325v-2.8h2.8h12h2.8V325z"/>
		<linearGradient id="SVGID_3_" gradientUnits="userSpaceOnUse" x1="271.4962" y1="269.0673" x2="212.3887" y2="452.1366">
			<stop  offset="0" style="stop-color:#EFC622"/>
			<stop  offset="0.2088" style="stop-color:#F1EAC7"/>
			<stop  offset="0.3956" style="stop-color:#F4C10A"/>
			<stop  offset="0.6429" style="stop-color:#F0E7B9"/>
			<stop  offset="1" style="stop-color:#E0AA21"/>
		</linearGradient>
		<path class="st3" d="M193.2,400.5c4.4,6.1,18.8,16.5,27,19.7c76.9,30.4,70.1-66.1,83-70.1c4.5-1.3,8-5.5,6.8-8
			c-2.1-4.4-14.5-13-18-13.3c-3.8-0.3-5.6,7.5-6.3,9.6c-8.5,36.3-24.5,82.4-65.3,53.4c-40.1-30.1-1.1-59.4,30.9-78.5
			c1.7-1.3,8.3-4.7,7.2-8.9c-1-3.8-13.3-12.4-18.1-13.2c-2.3-0.4-5.7,4.3-5.6,8.9C234.9,313.6,146.7,335.1,193.2,400.5z
			 M291.4,357.6c1.7,1.2,2,3.5,0.8,5.2c-1.2,1.7-3.5,2-5.2,0.8c-1.7-1.2-2-3.5-0.8-5.2C287.4,356.8,289.7,356.4,291.4,357.6z
			 M278.5,387.9c-1.7-1.2-2-3.5-0.8-5.2c1.2-1.7,3.5-2,5.2-0.8c1.7,1.2,2,3.5,0.8,5.2C282.5,388.7,280.2,389.1,278.5,387.9z
			 M270.5,404.8c-1.2,1.7-3.5,2-5.2,0.8c-1.7-1.2-2-3.5-0.8-5.2c1.2-1.7,3.5-2,5.2-0.8C271.3,400.8,271.7,403.1,270.5,404.8z
			 M252.9,401.2c18.5-7,28-35.6,33.5-58.2l0.4-1.6c0,0.3,0,2-0.1,2.6c-4.6,22.2-13,52.4-32,59c-7.2,2.5-15.5,1.4-24.6-3.2
			C238.4,403.3,246.1,403.8,252.9,401.2z M245.2,413.1c-1.2,1.7-3.5,2-5.2,0.8c-1.7-1.2-2-3.5-0.8-5.2c1.2-1.7,3.5-2,5.2-0.8
			C246.1,409.1,246.4,411.4,245.2,413.1z M245.1,313.5c0.4-0.2,2.4-0.9,2.7-1l-1.7,1c-19.9,12.2-44.2,29.9-45.3,49.7
			c-0.4,7.3,2.4,14.4,8.4,21.2c-7.2-7.3-10.7-14.8-10.5-22.4C199.1,341.8,225.3,324.6,245.1,313.5z M198.5,378.9
			c-1.2,1.7-3.5,2-5.2,0.8c-1.7-1.2-2-3.5-0.8-5.2c1.2-1.7,3.5-2,5.2-0.8C199.3,374.9,199.7,377.3,198.5,378.9z M232,318.9
			c-1.2,1.7-3.5,2-5.2,0.8c-1.7-1.2-2-3.5-0.8-5.2c1.2-1.7,3.5-2,5.2-0.8C232.8,314.9,233.2,317.2,232,318.9z M197.9,347.1
			c1.7,1.2,2,3.5,0.8,5.2c-1.2,1.7-3.5,2-5.2,0.8c-1.7-1.2-2-3.5-0.8-5.2C193.9,346.3,196.2,345.9,197.9,347.1z M205.5,330
			c1.2-1.7,3.5-2,5.2-0.8c1.7,1.2,2,3.5,0.8,5.2c-1.2,1.7-3.5,2-5.2,0.8C204.6,334,204.3,331.6,205.5,330z M236.1,304.9
			c-7.9,9-50,28.7-52,57.2c-0.8,11.2,3.4,23.4,13.9,36.4c1.7,2.1,4.8,5.1,8.4,8c0.3,0.2,0.5,0.4,0.8,0.6c5.4,3.9,11.4,7.5,15.1,9
			c15.5,6.2,28.3,6.6,38.6,2.5c26.2-10.2,31.6-55.6,37.7-65.7l3.5-3c-4,3.6-5,8.9-6.3,12.6c-0.6,1.5-1,2.9-0.9,2.8
			c-0.5,1.6-1,3.2-1.6,5c-5.3,17.3-12.7,40.9-31,49.6c-10.5,5-23.7,4.5-39.2-1.4c-1.1-0.4-2.5-1.1-4-1.9c-3-1.3-6.8-3.6-10.8-6.5
			c-5.3-3.9-10.5-8.6-13-11.7c-10.3-13.1-14.7-25.6-13-37.3c3-20.5,23.5-35.1,38.6-45.7c1.5-1.1,3-2.1,4.3-3.1
			c0,0.1,1.2-0.7,2.4-1.8c3.2-2.4,7.9-5.1,8.9-11L236.1,304.9z"/>
		<linearGradient id="SVGID_4_" gradientUnits="userSpaceOnUse" x1="271.4962" y1="269.0673" x2="212.3887" y2="452.1366">
			<stop  offset="0" style="stop-color:#EFC622"/>
			<stop  offset="0.2088" style="stop-color:#F1EAC7"/>
			<stop  offset="0.3956" style="stop-color:#F4C10A"/>
			<stop  offset="0.6429" style="stop-color:#F0E7B9"/>
			<stop  offset="1" style="stop-color:#E0AA21"/>
		</linearGradient>
		<path class="st4" d="M193.2,400.5c4.4,6.1,18.8,16.5,27,19.7c76.9,30.4,70.1-66.1,83-70.1c4.5-1.3,8-5.5,6.8-8
			c-2.1-4.4-14.5-13-18-13.3c-3.8-0.3-5.6,7.5-6.3,9.6c-8.5,36.3-24.5,82.4-65.3,53.4c-40.1-30.1-1.1-59.4,30.9-78.5
			c1.7-1.3,8.3-4.7,7.2-8.9c-1-3.8-13.3-12.4-18.1-13.2c-2.3-0.4-5.7,4.3-5.6,8.9C234.9,313.6,146.7,335.1,193.2,400.5z
			 M291.4,357.6c1.7,1.2,2,3.5,0.8,5.2c-1.2,1.7-3.5,2-5.2,0.8c-1.7-1.2-2-3.5-0.8-5.2C287.4,356.8,289.7,356.4,291.4,357.6z
			 M278.5,387.9c-1.7-1.2-2-3.5-0.8-5.2c1.2-1.7,3.5-2,5.2-0.8c1.7,1.2,2,3.5,0.8,5.2C282.5,388.7,280.2,389.1,278.5,387.9z
			 M270.5,404.8c-1.2,1.7-3.5,2-5.2,0.8c-1.7-1.2-2-3.5-0.8-5.2c1.2-1.7,3.5-2,5.2-0.8C271.3,400.8,271.7,403.1,270.5,404.8z
			 M252.9,401.2c18.5-7,28-35.6,33.5-58.2l0.4-1.6c0,0.3,0,2-0.1,2.6c-4.6,22.2-13,52.4-32,59c-7.2,2.5-15.5,1.4-24.6-3.2
			C238.4,403.3,246.1,403.8,252.9,401.2z M245.2,413.1c-1.2,1.7-3.5,2-5.2,0.8c-1.7-1.2-2-3.5-0.8-5.2c1.2-1.7,3.5-2,5.2-0.8
			C246.1,409.1,246.4,411.4,245.2,413.1z M245.1,313.5c0.4-0.2,2.4-0.9,2.7-1l-1.7,1c-19.9,12.2-44.2,29.9-45.3,49.7
			c-0.4,7.3,2.4,14.4,8.4,21.2c-7.2-7.3-10.7-14.8-10.5-22.4C199.1,341.8,225.3,324.6,245.1,313.5z M198.5,378.9
			c-1.2,1.7-3.5,2-5.2,0.8c-1.7-1.2-2-3.5-0.8-5.2c1.2-1.7,3.5-2,5.2-0.8C199.3,374.9,199.7,377.3,198.5,378.9z M232,318.9
			c-1.2,1.7-3.5,2-5.2,0.8c-1.7-1.2-2-3.5-0.8-5.2c1.2-1.7,3.5-2,5.2-0.8C232.8,314.9,233.2,317.2,232,318.9z M197.9,347.1
			c1.7,1.2,2,3.5,0.8,5.2c-1.2,1.7-3.5,2-5.2,0.8c-1.7-1.2-2-3.5-0.8-5.2C193.9,346.3,196.2,345.9,197.9,347.1z M205.5,330
			c1.2-1.7,3.5-2,5.2-0.8c1.7,1.2,2,3.5,0.8,5.2c-1.2,1.7-3.5,2-5.2,0.8C204.6,334,204.3,331.6,205.5,330z M236.1,304.9
			c-7.9,9-50,28.7-52,57.2c-0.8,11.2,3.4,23.4,13.9,36.4c1.7,2.1,4.8,5.1,8.4,8c0.3,0.2,0.5,0.4,0.8,0.6c5.4,3.9,11.4,7.5,15.1,9
			c15.5,6.2,28.3,6.6,38.6,2.5c26.2-10.2,31.6-55.6,37.7-65.7l3.5-3c-4,3.6-5,8.9-6.3,12.6c-0.6,1.5-1,2.9-0.9,2.8
			c-0.5,1.6-1,3.2-1.6,5c-5.3,17.3-12.7,40.9-31,49.6c-10.5,5-23.7,4.5-39.2-1.4c-1.1-0.4-2.5-1.1-4-1.9c-3-1.3-6.8-3.6-10.8-6.5
			c-5.3-3.9-10.5-8.6-13-11.7c-10.3-13.1-14.7-25.6-13-37.3c3-20.5,23.5-35.1,38.6-45.7c1.5-1.1,3-2.1,4.3-3.1
			c0,0.1,1.2-0.7,2.4-1.8c3.2-2.4,7.9-5.1,8.9-11L236.1,304.9z"/>
		<linearGradient id="SVGID_5_" gradientUnits="userSpaceOnUse" x1="271.4962" y1="269.0673" x2="212.3887" y2="452.1366">
			<stop  offset="0" style="stop-color:#EFC622"/>
			<stop  offset="0.2088" style="stop-color:#F1EAC7"/>
			<stop  offset="0.3956" style="stop-color:#F4C10A"/>
			<stop  offset="0.6429" style="stop-color:#F0E7B9"/>
			<stop  offset="1" style="stop-color:#E0AA21"/>
		</linearGradient>
		<path class="st5" d="M193.2,400.5c4.4,6.1,18.8,16.5,27,19.7c76.9,30.4,70.1-66.1,83-70.1c4.5-1.3,8-5.5,6.8-8
			c-2.1-4.4-14.5-13-18-13.3c-3.8-0.3-5.6,7.5-6.3,9.6c-8.5,36.3-24.5,82.4-65.3,53.4c-40.1-30.1-1.1-59.4,30.9-78.5
			c1.7-1.3,8.3-4.7,7.2-8.9c-1-3.8-13.3-12.4-18.1-13.2c-2.3-0.4-5.7,4.3-5.6,8.9C234.9,313.6,146.7,335.1,193.2,400.5z
			 M291.4,357.6c1.7,1.2,2,3.5,0.8,5.2c-1.2,1.7-3.5,2-5.2,0.8c-1.7-1.2-2-3.5-0.8-5.2C287.4,356.8,289.7,356.4,291.4,357.6z
			 M278.5,387.9c-1.7-1.2-2-3.5-0.8-5.2c1.2-1.7,3.5-2,5.2-0.8c1.7,1.2,2,3.5,0.8,5.2C282.5,388.7,280.2,389.1,278.5,387.9z
			 M270.5,404.8c-1.2,1.7-3.5,2-5.2,0.8c-1.7-1.2-2-3.5-0.8-5.2c1.2-1.7,3.5-2,5.2-0.8C271.3,400.8,271.7,403.1,270.5,404.8z
			 M252.9,401.2c18.5-7,28-35.6,33.5-58.2l0.4-1.6c0,0.3,0,2-0.1,2.6c-4.6,22.2-13,52.4-32,59c-7.2,2.5-15.5,1.4-24.6-3.2
			C238.4,403.3,246.1,403.8,252.9,401.2z M245.2,413.1c-1.2,1.7-3.5,2-5.2,0.8c-1.7-1.2-2-3.5-0.8-5.2c1.2-1.7,3.5-2,5.2-0.8
			C246.1,409.1,246.4,411.4,245.2,413.1z M245.1,313.5c0.4-0.2,2.4-0.9,2.7-1l-1.7,1c-19.9,12.2-44.2,29.9-45.3,49.7
			c-0.4,7.3,2.4,14.4,8.4,21.2c-7.2-7.3-10.7-14.8-10.5-22.4C199.1,341.8,225.3,324.6,245.1,313.5z M198.5,378.9
			c-1.2,1.7-3.5,2-5.2,0.8c-1.7-1.2-2-3.5-0.8-5.2c1.2-1.7,3.5-2,5.2-0.8C199.3,374.9,199.7,377.3,198.5,378.9z M232,318.9
			c-1.2,1.7-3.5,2-5.2,0.8c-1.7-1.2-2-3.5-0.8-5.2c1.2-1.7,3.5-2,5.2-0.8C232.8,314.9,233.2,317.2,232,318.9z M197.9,347.1
			c1.7,1.2,2,3.5,0.8,5.2c-1.2,1.7-3.5,2-5.2,0.8c-1.7-1.2-2-3.5-0.8-5.2C193.9,346.3,196.2,345.9,197.9,347.1z M205.5,330
			c1.2-1.7,3.5-2,5.2-0.8c1.7,1.2,2,3.5,0.8,5.2c-1.2,1.7-3.5,2-5.2,0.8C204.6,334,204.3,331.6,205.5,330z M236.1,304.9
			c-7.9,9-50,28.7-52,57.2c-0.8,11.2,3.4,23.4,13.9,36.4c1.7,2.1,4.8,5.1,8.4,8c0.3,0.2,0.5,0.4,0.8,0.6c5.4,3.9,11.4,7.5,15.1,9
			c15.5,6.2,28.3,6.6,38.6,2.5c26.2-10.2,31.6-55.6,37.7-65.7l3.5-3c-4,3.6-5,8.9-6.3,12.6c-0.6,1.5-1,2.9-0.9,2.8
			c-0.5,1.6-1,3.2-1.6,5c-5.3,17.3-12.7,40.9-31,49.6c-10.5,5-23.7,4.5-39.2-1.4c-1.1-0.4-2.5-1.1-4-1.9c-3-1.3-6.8-3.6-10.8-6.5
			c-5.3-3.9-10.5-8.6-13-11.7c-10.3-13.1-14.7-25.6-13-37.3c3-20.5,23.5-35.1,38.6-45.7c1.5-1.1,3-2.1,4.3-3.1
			c0,0.1,1.2-0.7,2.4-1.8c3.2-2.4,7.9-5.1,8.9-11L236.1,304.9z"/>
		<linearGradient id="SVGID_6_" gradientUnits="userSpaceOnUse" x1="299.5003" y1="268.6504" x2="237.9303" y2="458.2865">
			<stop  offset="5.494510e-03" style="stop-color:#FFEF81"/>
			<stop  offset="0.2033" style="stop-color:#FFF3BB"/>
			<stop  offset="0.3956" style="stop-color:#FFE578"/>
			<stop  offset="0.6374" style="stop-color:#FFF2BF"/>
			<stop  offset="1" style="stop-color:#FFEF90"/>
		</linearGradient>
		<path class="st6" d="M124.3,423h259.2v-0.6H124.3V423z M318.8,398.3c4.9-1.8,9.9-2.6,15-2.6c14.8,0,30.8,6.6,49.7,13.5v-1.6
			c-1.9-0.9-3.8-1.9-5.7-2.9c-2.7-1.5-5.1-3-7.5-4.5c-1.6-1.1-3.1-2.1-4.5-3.2c-13.6-10-21.8-19-36.5-19c-5.6,0-12,1.3-20.1,4.3
			c-20.3,7.7-31.8,25.4-46.7,25.4c-4.6,0-9.7-1.7-15.4-6c-0.7-0.7-1.5-1.5-2.3-2.2c-1.6-1.7-3.3-3.4-5-5.2c-1.9-2.1-3.8-4.3-5.7-6.5
			c-2.1-2.6-4.1-5.1-6.1-7.7c-2-2.9-4-5.8-5.9-8.6c-11.9-20.1-20-39.9-43.3-45.6c-2.5-0.6-4.8-0.9-7-0.9c-9.8,0-16.8,5.7-22.4,14.4
			c-9.6,14.6-15.6,37.6-25.3,55.7v2c4.2-6.8,7.8-14.3,11.4-21.6c10.5-21.7,20.3-42.4,38.2-42.4c2,0,4.1,0.3,6.4,0.8
			c19.7,4.8,30.1,20.8,41.5,38c0.1,0.2,0.3,0.4,0.4,0.6c-11.4-14.5-23.2-27.6-40.3-31.8c-2.1-0.5-4.1-0.7-6-0.7
			c-17.4,0-28.5,19.3-40.3,39.1c-3.6,6.1-7.3,12.3-11.3,18v1c4.1-5.9,8-12.3,11.8-18.7c11.8-19.9,22.9-38.9,39.8-38.8
			c1.9,0,3.8,0.2,5.9,0.7c18.4,4.4,30.7,19.5,43.1,35.6c0.4,0.7,0.8,1.3,1.3,2c-12.8-13.9-26.6-26.7-42.8-30.6
			c-1.9-0.5-3.8-0.7-5.6-0.7c-16.3,0-28.8,17.5-41.9,35.5c-3.8,5.3-7.7,10.6-11.6,15.6v0.9c4.2-5.1,8.2-10.7,12.1-16.2
			c13-18.1,25.6-35.3,41.4-35.3c1.8,0,3.6,0.2,5.4,0.7c17.1,4.1,31.6,18.4,45.1,33.4c0.6,0.9,1.3,1.8,1.9,2.7
			c-14-13.1-30.2-25.5-45.4-29.2c-1.7-0.4-3.4-0.6-5.1-0.6c-15.1,0-29.1,15.8-43.4,32c-4,4.5-8,9.1-12,13.4v0.9
			c4.2-4.4,8.3-9.2,12.4-13.8c14.3-16.3,28.3-31.8,43-31.8c1.6,0,3.3,0.2,5,0.6c16,3.9,33.2,17.5,47.7,31.5c0.8,1,1.7,2.1,2.6,3.1
			c-15.1-12.3-34.5-24.3-48.7-27.7c-1.5-0.4-3.1-0.5-4.6-0.5c-14,0-29.5,14-45,28.4c-4.1,3.8-8.3,7.7-12.4,11.4v0.8
			c4.2-3.8,8.5-7.8,12.8-11.7c15.5-14.4,30.9-28.3,44.6-28.3c1.5,0,3,0.2,4.5,0.5c15,3.6,35.9,17,51.4,30.1c1.1,1.2,2.2,2.3,3.3,3.4
			c-16-11.5-39.8-23.3-53.1-26.6c-1.3-0.3-2.7-0.5-4.2-0.5c-12.9,0-29.8,12.2-46.5,24.9c-4.3,3.2-8.6,6.5-12.8,9.6v0.7
			c4.3-3.2,8.7-6.5,13.1-9.8c16.8-12.6,33.6-24.8,46.2-24.7c1.4,0,2.8,0.2,4,0.5c14.6,3.5,42.2,17.6,57.7,30.2
			c0.4,0.4,0.8,0.7,1.2,1.1c0.3,0.3,0.6,0.6,0.9,0.9c-15.8-10.7-45.9-22.2-58.2-25.2c-1.2-0.3-2.4-0.4-3.7-0.4
			c-11.8,0-30.1,10.5-48.1,21.3c-4.4,2.7-8.8,5.3-13.1,7.9v0.7c4.4-2.6,8.9-5.4,13.4-8.1c18-10.8,36.3-21.2,47.8-21.2
			c1.3,0,2.5,0.1,3.6,0.4c13.4,3.2,48.2,16.9,62.1,28.1c0.3,0.3,0.7,0.6,1,0.9c0,0,0.1,0.1,0.1,0.1c-6.4-4-16.7-8.1-27.3-11.8
			c-13.9-4.9-28.2-8.9-34.3-10.4c-1-0.2-2.1-0.3-3.3-0.3c-10.7,0-30.4,8.7-49.7,17.7c-4.6,2.1-9.1,4.3-13.5,6.4v0.6
			c4.5-2.1,9.1-4.3,13.8-6.5c19.3-9,39-17.7,49.4-17.7c1.2,0,2.2,0.1,3.1,0.3c6.1,1.5,20.4,5.5,34.2,10.4
			c12.5,4.4,24.7,9.5,30.2,13.9c0.3,0.3,0.7,0.6,1,0.9c-6.1-3.4-17.6-6.9-29.4-10c-14.7-3.9-29.6-7.1-34.5-8.3
			c-0.8-0.2-1.7-0.3-2.8-0.3c-11.8,0-41,10.5-65.1,19.1v0.6c24.2-8.6,53.5-19.2,65.1-19.2c1,0,1.9,0.1,2.7,0.3
			c4.9,1.2,19.8,4.4,34.5,8.3c14.6,3.9,29,8.5,32.5,12.3c0.1,0.1,0.2,0.2,0.3,0.2c-2.2-1-5.5-2.1-9.5-3.1
			c-18.2-4.8-50.7-9.5-56.2-10.9c-0.6-0.1-1.4-0.2-2.3-0.2c-10.3,0-41.7,7.8-67,14.2v0.6c25.3-6.4,56.8-14.3,67-14.3
			c0.9,0,1.7,0.1,2.2,0.2c3.7,0.9,19.3,3.3,34.7,6.2c7.7,1.5,15.3,3,21.4,4.6c6.1,1.6,10.5,3.2,11.8,4.6c0.4,0.4,0.9,0.7,1.4,1.1
			c-0.7-0.3-1.5-0.5-2.6-0.8c-14.1-3.7-61-7.8-65.2-8.8c-0.4-0.1-1-0.1-1.9-0.1c-8.9,0-42.5,5.1-69,9.4v0.6
			c26.5-4.3,60.1-9.4,69-9.4c0.8,0,1.4,0,1.7,0.1c2.5,0.6,18.8,2.2,35,4.2c8.1,1,16.1,2,22.4,3.1c3.1,0.5,5.8,1.1,7.8,1.6
			c2,0.5,3.3,1.1,3.7,1.4c0.9,0.9,3,1.5,6,1.8c3,0.4,6.9,0.5,11.2,0.5c18.5,0,45.6-2.7,48.8-3.9c1.1-0.4,4.4-0.7,9.1-0.6
			c10.3,0,27.3,0.9,44.5,2.1v-0.6c-17.2-1.2-34.2-2.1-44.5-2.1c-4.7,0-8,0.2-9.3,0.7c-3,1.1-30.2,3.9-48.6,3.9
			c-4.3,0-8.2-0.2-11.1-0.5c-2.9-0.3-5-0.9-5.6-1.7c-0.1-0.1-0.3-0.2-0.5-0.4c3.4,1.4,8.9,1.9,15.6,1.9c18.2,0,43.9-4.1,48.6-5.9
			c1.8-0.7,5.3-1,10.1-1c10.9,0,28,1.5,45.4,3.5v-0.6c-17.3-1.9-34.5-3.5-45.4-3.5c-4.8,0-8.4,0.3-10.3,1
			c-4.6,1.7-30.3,5.8-48.4,5.8c-8.1,0-14.7-0.9-17.2-3c3.7,1.7,9.2,2.4,15.5,2.4c17.9,0,42.2-5.5,48.5-7.8c2.4-0.9,6.2-1.3,11.1-1.3
			c11.6,0,28.8,2.3,46.2,5v-0.6c-17.5-2.7-34.7-5-46.2-5c-4.9,0-8.8,0.4-11.3,1.3c-6.2,2.3-30.4,7.8-48.3,7.8c-7.3,0-13.6-1-17-3.3
			c4,2,9.4,2.8,15.3,2.8c17.6,0,40.5-6.8,48.3-9.8c3-1.1,7.1-1.6,12.1-1.6c12.3,0,29.4,3.1,47.1,6.7V412
			c-17.6-3.6-34.8-6.7-47.1-6.7c-4.9,0-9.1,0.5-12.3,1.7c-7.7,2.9-30.6,9.7-48.1,9.7c-6.6,0-12.4-1-16.4-3.4
			c4.2,2.1,9.2,2.9,14.7,2.9c17.4,0,38.8-8.2,48.1-11.7c3.7-1.4,8.1-2,13-2c13,0,30,4.1,48,8.7v-0.6c-17.9-4.6-34.9-8.7-48-8.7
			c-5,0-9.5,0.6-13.2,2c-9.3,3.5-30.7,11.7-47.9,11.7c-5.9,0-11.2-1-15.4-3.3c4.1,2,8.8,2.8,13.8,2.8c17.1,0,37.1-9.6,47.9-13.7
			c4.3-1.6,9-2.3,14-2.3c13.9,0,30.5,5.2,48.9,10.9v-0.6c-18.3-5.7-34.9-10.9-48.9-10.9c-5.1,0-9.9,0.7-14.2,2.3
			c-10.9,4.1-30.9,13.7-47.7,13.6c-5.2,0-10.1-0.9-14.3-3.1c4,1.8,8.2,2.6,12.6,2.6C287.8,413.9,306.4,402.9,318.8,398.3z
			 M180.4,333.3c-2.3-0.6-4.4-0.8-6.5-0.8c-18.5,0-28.2,21-38.7,42.7c-2.9,5.9-5.8,11.9-9,17.5c3.4-6.8,6.3-14,9.2-21.2
			c4.6-11.7,9-23.2,14.7-31.8c5.6-8.5,12.4-14.1,22-14.1c2.1,0,4.4,0.3,6.8,0.9c20.2,4.9,28.8,20.6,38.7,37.9
			C207.7,350,197.6,337.5,180.4,333.3z M255.4,406.9c2.5,0.9,4.9,1.3,7.2,1.3c15.3,0,26.8-17.8,46.9-25.4c8-3,14.4-4.3,19.9-4.3
			c12.5,0,20.2,6.7,31,15.1c-10.2-6.9-18.6-12.2-30.1-12.2c-5.5,0-11.7,1.2-19.1,4c-18.7,7.1-31.7,23.4-46.9,23.4
			C261.5,408.8,258.5,408.2,255.4,406.9z M264.3,409.3c15.6,0,28.5-16.5,47.1-23.4c7.4-2.8,13.5-4,18.9-4c13.3,0,22.3,7.2,35.2,15.8
			c-12.2-7.1-21.9-12.9-34.4-12.9c-5.4,0-11.3,1.1-18.1,3.7c-17.2,6.5-31.5,21.5-47.1,21.5c-3.2,0-6.5-0.6-9.9-2.1
			C259,408.9,261.7,409.3,264.3,409.3z M266,410.5c15.9,0,30.2-15.1,47.3-21.5c6.8-2.5,12.6-3.6,17.9-3.6c14.1,0,24.7,7.6,39.8,16.2
			c-14.3-7.2-25.7-13.3-38.9-13.3c-5.3,0-10.9,1-17.1,3.3c-15.6,5.9-31.4,19.5-47.2,19.5c-3.6,0-7.1-0.7-10.7-2.3
			C260,410,263,410.5,266,410.5z M267.7,411.6c16.2,0,31.9-13.7,47.4-19.5c6.1-2.3,11.7-3.3,16.9-3.3c14.8,0,27.5,7.9,44.8,16.3
			c-16.5-7.1-29.9-13.4-43.9-13.5c-5.3,0-10.6,0.9-16.2,3c-14,5.3-31.2,17.6-47.4,17.6c-4,0-8-0.8-11.9-2.6
			C260.9,411,264.3,411.6,267.7,411.6z M258,410.5c3.7,1.6,7.5,2.3,11.4,2.3c16.5,0,33.7-12.3,47.6-17.6c5.5-2.1,10.8-3,16-3
			c15.5,0,30.4,7.9,49.7,16c0,0,0,0,0.1,0c-18.5-6.8-34.3-13.2-48.9-13.2c-5.2,0-10.2,0.8-15.2,2.7c-12.5,4.7-31,15.6-47.6,15.6
			C266.5,413.3,262.1,412.5,258,410.5z M331.6,419.4c-0.3,0.1-2.4,0.3-5.6,0.5c-9.5,0.6-29.1,1.4-43.2,1.4c-4.4,0-8.3-0.1-11.1-0.3
			c-1.4-0.1-2.6-0.2-3.5-0.3c-0.8-0.1-1.4-0.3-1.5-0.4c-0.2-0.2-0.6-0.3-1.2-0.5c-4.4-1-21-2-36.9-2.9c-15.8-0.9-30.9-1.6-32-1.9
			c-0.3-0.1-0.7-0.1-1.4-0.1c-7.6,0-43.2,2.5-70.9,4.7v0.6c27.8-2.1,63.4-4.7,70.9-4.7c0.7,0,1.1,0,1.3,0.1
			c1.3,0.3,18.3,1.1,35.2,2.1c8.5,0.5,16.9,1,23.4,1.5c3.2,0.3,5.9,0.5,7.9,0.8c1,0.1,1.8,0.3,2.3,0.4c0.6,0.1,0.9,0.3,0.9,0.3
			c0.3,0.3,0.9,0.4,1.8,0.6c2.7,0.4,8.1,0.6,14.7,0.6c9.4,0,21.2-0.3,30.9-0.8c4.8-0.2,9.1-0.4,12.3-0.7c3.2-0.2,5.2-0.4,5.7-0.6
			c0.5-0.2,3.5-0.3,8.2-0.3c9.7,0,26.5,0.4,43.6,1V420c-17.1-0.6-33.9-1-43.6-1C335.2,419,332.3,419.1,331.6,419.4z"/>
		<path class="st7" d="M159,422.8c-0.2-0.4-0.6-0.4-1.3-0.4h-3.7c-0.3,0-0.6,0-0.9,0l-0.3,0l-0.2,0c0.6-0.7,2.1-2.1,3.4-3.7
			c1.2-1.6,1.8-2.9,1.7-4.3c-0.1-1.4-0.9-2.3-2.2-2.3c-0.9,0-1.7,0.5-2.3,1.4l-0.2-0.1c0.5-0.9,1.5-2.4,3.6-2.4c1.7,0,3.1,1.3,3.1,3
			c0,1.5-0.8,2.9-2.5,4.5c-0.6,0.5-1.1,1-1.5,1.3c-0.3,0.3-0.6,0.5-0.8,0.7l-0.4,0.3l0.5,0.1h3c1.3,0,1.8-0.8,2.1-1.4L159,422.8
			L159,422.8L159,422.8z M367,422.7c-2.9,0-3.7-3.3-3.7-5.3c0-3.9,1.4-6.3,3.7-6.3c2.4,0,3.6,1.9,3.6,5.7
			C370.6,419.5,369.9,422.7,367,422.7L367,422.7z M367.1,411.3c-0.6,0-1.1,0.5-1.3,1.3c-0.3,1.4-0.5,3.1-0.5,4.5
			c0,1.8,0.1,3,0.3,3.7c0.3,0.9,0.6,1.5,1.4,1.5c0.7,0,1.1-0.4,1.3-1.3c0.2-0.9,0.2-2.2,0.2-4.7
			C368.6,412.9,368.1,411.3,367.1,411.3L367.1,411.3z M348.4,422.7c-2,0-2.5-0.7-2.5-1.1c0-0.4,0.3-0.7,0.5-0.7c0.5,0,0.8,0.4,1,0.8
			c0.2,0.5,0.7,0.7,1.3,0.7c1.3,0,2.2-1.1,2.2-2.6c0-1.7-0.9-2.7-2.6-3.1c-0.2,0-0.2-0.1-0.3-0.1l0.1-0.2c1.5-0.3,2.4-1.2,2.4-2.5
			c0-0.9-0.6-1.9-1.8-1.9c-0.9,0-1.7,0.6-2.1,1.8l-0.3,0c0.3-1,1.2-2.7,3.3-2.7c1.9,0,2.8,1.1,2.8,2.2c0,1.1-0.7,1.9-2.1,2.7
			l-0.5,0.3l0.6,0.1c1.3,0.2,2.6,1.3,2.6,2.7C353.1,421.1,351,422.7,348.4,422.7L348.4,422.7z M340.8,422.7c-1.1,0-1.8-0.3-2.4-1.1
			c-0.9-1.2-1-2.3-1-3.3c0-2.7,1.5-4.6,2.2-5.2c1-1,2-1.6,3.3-2c0.3-0.1,0.6-0.2,0.7-0.2c0.1,0.1,0.1,0.1-0.2,0.2
			c-1.4,0.5-3.4,2.6-3.8,4.8l-0.1,0.6l0.6-0.4c0.3-0.3,1-0.6,1.8-0.6c1.9,0,2.8,1.5,2.8,3c0,1.3-0.4,2.3-1.1,2.9
			C342.8,422.3,342.1,422.7,340.8,422.7L340.8,422.7z M340.9,416.4c-0.4,0-0.9,0-1.2,0.4c-0.4,0.4-0.4,1.2-0.4,2.4
			c0,0.6,0.1,3.3,1.6,3.3c1.1,0,1.6-0.9,1.6-2.9C342.6,417.6,342,416.4,340.9,416.4L340.9,416.4z M291.1,422.7
			c-2.9,0-3.7-3.3-3.7-5.3c0-3.9,1.4-6.3,3.7-6.3c2.4,0,3.6,1.9,3.6,5.7C294.7,419.5,294,422.7,291.1,422.7L291.1,422.7z
			 M291.2,411.3c-0.6,0-1.1,0.5-1.3,1.3c-0.3,1.3-0.5,3.1-0.5,4.5c0,1.8,0.1,3,0.3,3.7c0.2,0.9,0.6,1.5,1.4,1.5
			c0.7,0,1.1-0.4,1.3-1.3c0.2-0.9,0.2-2.2,0.2-4.7C292.7,412.9,292.2,411.3,291.2,411.3L291.2,411.3z M280.1,422.7L280.1,422.7
			c-0.1-0.1,0-0.1,0-0.2c1.5-0.6,3.2-2.4,3.6-5l0.1-0.5l-0.5,0.3c-0.1,0.1-0.7,0.5-1.8,0.5c-1.9,0-2.7-1.7-2.7-2.9
			c0-1.3,0.6-2.5,1.2-3c0.7-0.6,1.5-0.9,2.3-0.9c1.3,0,2.1,0.3,2.7,1.2c0.9,1.2,0.9,2.4,0.9,2.6c0,2.5-1,4.9-2.7,6.3
			c-0.9,0.8-1.6,1.2-2.7,1.5C280.4,422.6,280.2,422.7,280.1,422.7L280.1,422.7z M282.4,411.3c-1.1,0-1.7,1-1.7,2.8
			c0,1.8,0.8,3.2,1.8,3.2c0.5,0,0.9-0.1,1.1-0.4c0.3-0.3,0.3-1.2,0.3-2.2C283.9,413.7,283.9,411.3,282.4,411.3L282.4,411.3z
			 M273.7,422.7c-2.4,0-3.2-1.2-3.2-2.2c0-1.2,0.6-2.2,2.1-3.1l0.3-0.2l-0.3-0.2c-1.4-1-2.1-1.5-2.1-2.9c0-1.2,1.2-3.1,3.7-3.1
			c1.8,0,2.9,1.1,2.9,2.2c0,1.3-0.5,2-2.1,2.9l-0.3,0.2l0.3,0.2c1.4,0.8,2.3,1.6,2.3,3.3C277.3,421.1,275.9,422.7,273.7,422.7
			L273.7,422.7z M273,417.4l-0.1,0.1c-0.8,0.6-1.2,1.6-1.2,2.6c0,1.6,1.2,2.3,2,2.3c1.2,0,1.9-0.8,1.9-2.2c0-1.2-0.8-1.9-2.4-2.7
			L273,417.4L273,417.4z M274,411.4c-1.2,0-1.8,1.2-1.8,2.3c0,1,0.5,1.5,2.1,2.4l0.1,0.1l0.1-0.1c0.8-0.6,1.3-1.4,1.3-2.4
			C275.8,412.3,275.1,411.4,274,411.4L274,411.4L274,411.4z M223.3,422.7c-1.1,0-1.8-0.3-2.4-1.1c-0.9-1.2-1-2.3-1-3.3
			c0-2.7,1.5-4.6,2.2-5.2c1-1,2-1.6,3.3-2c0.4-0.1,0.6-0.2,0.7-0.2c0.1,0.1,0.1,0.1-0.2,0.2c-1.4,0.5-3.4,2.6-3.8,4.8l-0.1,0.6
			l0.6-0.4c0.3-0.3,1-0.6,1.8-0.6c1.9,0,2.8,1.5,2.8,3c0,1.3-0.4,2.3-1.1,2.9C225.4,422.3,224.7,422.7,223.3,422.7L223.3,422.7z
			 M223.5,416.4c-0.4,0-0.9,0-1.2,0.4c-0.4,0.4-0.4,1.2-0.4,2.4c0,0.6,0.1,3.3,1.6,3.3c1.1,0,1.6-0.9,1.6-2.9
			C225.2,417.6,224.5,416.4,223.5,416.4L223.5,416.4z M213.7,422.7c-2,0-2.5-0.7-2.5-1.1c0-0.4,0.2-0.7,0.5-0.7
			c0.5,0,0.7,0.4,0.9,0.8c0.2,0.5,0.7,0.7,1.3,0.7c1.3,0,2.2-1.1,2.2-2.6c0-1.7-0.9-2.7-2.6-3.1c-0.2,0-0.2-0.1-0.2-0.1l0.1-0.2
			c1.5-0.3,2.4-1.2,2.4-2.5c0-0.9-0.6-1.9-1.8-1.9c-0.9,0-1.7,0.6-2.1,1.8l-0.3,0c0.3-1,1.2-2.7,3.3-2.7c1.9,0,2.8,1.1,2.8,2.2
			c0,1-0.7,2-2.1,2.7l-0.5,0.3l0.6,0.1c1.3,0.2,2.6,1.3,2.6,2.7C218.4,421.1,216.3,422.7,213.7,422.7L213.7,422.7z M146,422.7
			c-1.2,0-1.9-0.4-1.9-0.8c0-0.2,0.1-0.4,0.2-0.4c0.3,0,0.6,0.2,0.9,0.4c0.3,0.2,0.8,0.3,1.2,0.3c1.3,0,2.5-0.8,2.5-2.6
			c0-1-0.5-1.9-1.4-2.3c-0.7-0.4-1.7-0.5-2.4-0.5l0.6-5.4l3.9-0.1c0.7,0,0.9-0.4,1.2-0.9l-0.5,2.3c-0.1,0.2-0.1,0.2-0.5,0.2h-3.6
			h-0.2l0,0.2l-0.3,1.9l0,0.2h0.3c0.4,0,1.6,0.1,2.4,0.4c0.8,0.3,2.1,1.1,2.1,3.1C150.6,420.9,148.5,422.7,146,422.7L146,422.7z
			 M355.6,422.5l0.1-0.4l0.5,0.1c0.9,0,1.4-0.1,1.5-1.1c0-0.6,0-1.9,0-2.7v-0.5V414c0-0.9-0.4-1-0.6-1c-0.2,0-0.4,0-0.8,0.1
			l-0.9,0.2l-0.1-0.3l4.2-2l0.2-0.1l0,0.4c0,0.8-0.1,2.9-0.1,4.7v0.7c0,0.6,0,2.2,0,3.2l0,0.9c0,1,0.2,1.2,1.1,1.2h0.6l0,0.3l-0.9,0
			c-0.7,0-1.7,0-1.9,0c-0.4,0-1.7,0-2.4,0L355.6,422.5L355.6,422.5z M296.9,422.5l0.1-0.4l0.5,0.1c0.9,0,1.4-0.1,1.4-1.1
			c0-0.6,0-1.9,0-2.7v-0.5V414c0-0.9-0.4-1-0.6-1c-0.2,0-0.4,0-0.8,0.1l-0.9,0.2l-0.1-0.3l4.2-2l0.2-0.1l0,0.4
			c0,0.8-0.1,2.9-0.1,4.7v0.7l0,3.2l0,0.9c0,1,0.1,1.2,1.2,1.2h0.6l0,0.3l-0.9,0c-0.7,0-1.7,0-1.9,0c-0.4,0-1.7,0-2.5,0L296.9,422.5
			L296.9,422.5z M162.5,422.5l0.1-0.4l0.5,0.1c1,0,1.4-0.1,1.4-1.1c0-0.6,0-1.9,0-2.7v-0.5V414c0-0.9-0.4-1-0.6-1
			c-0.2,0-0.4,0-0.8,0.1l-0.8,0.2l-0.1-0.3l4.2-2l0.2-0.1l0,0.4c0,0.8-0.1,2.9-0.1,4.7v0.7l0,3.2l0,0.9c0,1,0.2,1.2,1.2,1.2h0.6
			l0,0.3l-0.9,0c-0.7,0-1.7,0-1.9,0c-0.3,0-1.7,0-2.5,0L162.5,422.5L162.5,422.5z M234.8,422.4H233v-2.5v-0.2h-0.2h-4.5
			c-0.2,0-0.3,0-0.3-0.1c0-0.2,0.1-0.4,0.3-0.6l6.2-7.8c0.1-0.1,0.2-0.2,0.3-0.2c0,0,0,0.1,0,0.4v6.9v0.2h0.2h1.1v1.2l-1.1,0h-0.2
			v0.2L234.8,422.4L234.8,422.4L234.8,422.4z M232.7,414.1c-0.1,0-0.3,0.1-0.4,0.2l-2.8,3.5c-0.2,0.2-0.1,0.4-0.1,0.5
			c0,0.1,0.1,0.2,0.4,0.2h3h0.2v-0.2v-3.8C233.1,414.2,232.9,414.1,232.7,414.1L232.7,414.1z M208.9,422.4h-1.8v-2.5v-0.2h-0.2h-4.4
			c-0.2,0-0.3,0-0.3-0.1c0-0.2,0.1-0.4,0.3-0.6l6.2-7.8c0.1-0.1,0.2-0.2,0.3-0.2c0,0,0,0.1,0,0.4v6.9v0.2h0.2h1.1l0,1.2l-1.1,0h-0.2
			v0.2L208.9,422.4L208.9,422.4L208.9,422.4z M206.8,414.1c-0.1,0-0.3,0.1-0.4,0.2l-2.8,3.5c-0.2,0.2-0.1,0.4-0.1,0.5
			c0,0.1,0.1,0.2,0.4,0.2h3h0.2v-0.2v-3.8C207.1,414.2,207,414.1,206.8,414.1L206.8,414.1z M141.9,422.4h-1.8v-2.5v-0.2h-0.2h-4.5
			c-0.1,0-0.3,0-0.3-0.1c0-0.2,0.1-0.4,0.3-0.6l6.2-7.8c0.1-0.1,0.2-0.2,0.3-0.2c0,0,0,0.1,0,0.4v6.9v0.2h0.2h1.1v1.2l-1.1,0h-0.2
			v0.2L141.9,422.4L141.9,422.4L141.9,422.4z M139.8,414.1c-0.1,0-0.3,0.1-0.4,0.2l-2.8,3.5c-0.2,0.2-0.1,0.4-0.1,0.5
			c0,0.1,0.1,0.2,0.4,0.2h3h0.2v-0.2v-3.8C140.2,414.2,140,414.1,139.8,414.1L139.8,414.1z"/>
		<path class="st8" d="M228.1,317.1C228.1,317.1,228.1,317.1,228.1,317.1c0.1-6,8.2-19.3,18.8-34.6h-51c5,7.2,9.5,13.9,12.7,19.7
			c0.1,0.2,0.2,0.3,0.3,0.5c0.3,0.6,0.7,1.2,1,1.8c0.1,0.2,0.2,0.4,0.3,0.6c0.3,0.6,0.6,1.1,0.9,1.7c0.1,0.2,0.2,0.3,0.2,0.5
			c0.3,0.6,0.5,1.1,0.8,1.6c0.1,0.1,0.1,0.2,0.2,0.4c0.2,0.6,0.5,1.1,0.7,1.6c0,0.1,0.1,0.1,0.1,0.2c0.9,2.4,1.5,4.4,1.5,6
			c0,0,0,0,0,0c0,0,0,0,0,0c0,0,0,0,0,0c0,0.2,0,0.5,0,0.7c1.7,25.2,2.4,59.8,0.3,100.1c-0.1,1.6-0.3,5.4-0.3,5.5
			c-1,5.8-7.1,13.1-15.7,15.6h-23.9c-2.2,0-4.1,1.6-4.1,3.6h101.1c0-2-1.8-3.6-4.1-3.6h-23.7c-8-2.3-15.1-8.9-16-15.6
			c0-0.1-0.3-3.9-0.4-5.5c-2.9-40.5-1.3-75.1,0.4-100.1C228.1,317.6,228.1,317.4,228.1,317.1z"/>
		<path class="st9" d="M222.2,416c1.9,0.7,3.7,1.4,5.5,2c0,0,0-0.1,0-0.1c-0.5-7.6-0.9-15-1.2-22.2c-2-1.1-4.1-2.4-6.2-3.9
			c-1.6-1.2-3-2.4-4.3-3.5c-0.2,7.7-0.4,15.8-0.8,24.1C217.8,414,220.4,415.3,222.2,416z M240.3,291.2c-2.3-0.4-5.7,4.3-5.6,8.9
			c0.1,4.4-9.2,9.6-20.2,16.9c0,0,0,0.1,0,0.1c0,0,0,0,0,0c0,0,0,0,0,0c0,0,0,0,0,0c0,0.2,0,0.5,0,0.7c0,0.7,0.1,1.5,0.1,2.2
			c2.1-1.5,4.2-3,6.2-4.4c1.5-1.1,3-2.1,4.3-3.1c0,0.1,1.2-0.7,2.4-1.8c1-0.8,2.2-1.6,3.3-2.5c2.3-4.7,5.7-10.5,9.9-16.8
			C240.7,291.3,240.5,291.2,240.3,291.2z M215.5,333.6c3.8-3.3,7.9-6.5,12.2-9.4c0.1-1.3,0.2-2.6,0.2-3.9c-0.4-0.1-0.8-0.3-1.1-0.5
			c-1.7-1.2-2-3.5-0.8-5.2c0.7-1,1.8-1.5,3-1.5c0.3-0.9,0.7-2,1.2-3.1c-4.1,3-9.6,6.7-15.4,11C215,324.9,215.3,329.1,215.5,333.6z
			 M223,418.6c-1.1-0.4-2.5-1.1-4-1.9c-1.2-0.5-2.6-1.3-4-2.1c0,1-0.1,2-0.1,3c1.9,1.1,3.8,2,5.4,2.6c2.7,1.1,5.3,2,7.8,2.7
			c0-0.6-0.1-1.6-0.2-2.7C226.3,419.8,224.7,419.2,223,418.6z M227.4,329.3c0.1-1.1,0.1-2.3,0.2-3.4c-4.3,3.2-8.4,6.7-12,10.3
			c0,1.2,0.1,2.3,0.1,3.5C219.1,336.2,223.1,332.7,227.4,329.3z"/>
		<path class="st10" d="M226.2,384c-3.3-2.4-6.7-4.7-10.1-6.9c0,0.2,0,0.5,0,0.7c3.4,2.2,6.8,4.5,10.1,6.9
			C226.2,384.5,226.2,384.2,226.2,384z M226.6,396.8c0-0.2,0-0.4,0-0.6c-0.5-0.2-1-0.4-1.5-0.5c-3.1-1.1-6.2-2.1-9.2-3.1
			c0,0.2,0,0.4,0,0.6c3,1,6,2,9,3C225.4,396.4,226,396.6,226.6,396.8z M227,406.1c-3.9-0.7-7.8-1.4-11.5-2.1c0,0.2,0,0.4,0,0.6
			c3.7,0.6,7.6,1.3,11.5,2.1C227,406.5,227,406.3,227,406.1z M216.2,373.3c3.4,2.7,6.7,5.5,10,8.4c0-0.3,0-0.5,0-0.8
			c-3.2-2.9-6.6-5.7-10-8.4C216.2,372.8,216.2,373.1,216.2,373.3z M228,422.4h-13.4c0,0.2,0,0.4,0,0.6h13.5
			C228.1,422.8,228,422.6,228,422.4z M226.8,401.6c0-0.2,0-0.4,0-0.6c0,0,0,0,0,0c-3.7-1-7.4-1.9-11-2.8c0,0.2,0,0.4,0,0.6
			c3.6,0.9,7.2,1.8,10.9,2.8C226.6,401.6,226.7,401.6,226.8,401.6z M216.2,368.5c0,0.3,0,0.5,0,0.8c3.4,3.3,6.7,6.7,10,10.3
			c0-0.3,0-0.6,0-0.9C222.9,375.3,219.6,371.8,216.2,368.5z M227.3,411.4c-4.1-0.5-8.2-1-12-1.4c0,0.2,0,0.4,0,0.6
			c3.8,0.4,7.9,0.9,12.1,1.4C227.3,411.8,227.3,411.6,227.3,411.4z M227.6,416.8c-4.4-0.2-8.7-0.5-12.7-0.7c0,0.2,0,0.4,0,0.6
			c4,0.2,8.3,0.4,12.8,0.7C227.7,417.2,227.6,417,227.6,416.8z M226.3,387.6c-3.3-1.9-6.8-3.8-10.2-5.6c0,0.2,0,0.4,0,0.6
			c3.4,1.8,6.9,3.7,10.2,5.6C226.3,388,226.3,387.8,226.3,387.6z M217.5,364.4c-0.4-0.7-0.9-1.3-1.4-2c0,0.3,0,0.7,0,1
			c1.9,2.7,3.8,5.6,5.7,8.4c0.1,0.2,0.3,0.4,0.4,0.6c-2-2.5-4-5-6-7.4c0,0.3,0,0.6,0,0.9c2.9,3.5,5.8,7.2,8.7,10.9
			c0.4,0.6,0.8,1.3,1.2,1.9c0-0.5,0-1.1,0-1.6c-1.3-1.9-2.6-3.8-3.8-5.7c-2.1-3.6-4.1-7.2-6.1-10.7c0,0.4,0,0.8,0,1.2
			C216.6,362.8,217.1,363.6,217.5,364.4z M226.4,391.7c-3.4-1.6-6.9-3.1-10.4-4.5c0,0.2,0,0.4,0,0.6c3.5,1.4,7,3,10.4,4.6
			C226.4,392.1,226.4,391.9,226.4,391.7z"/>
		<path class="st11" d="M215.7,416.3l-0.6-0.1l0.5-0.3c1.4-0.7,2.1-1.7,2.1-2.7c0-1-0.9-2-2.6-2.1c0,0.4,0,0.8-0.1,1.3
			c0.5,0.4,0.7,0.9,0.7,1.5c0,0.8-0.3,1.4-0.9,1.9c0,0.5,0,1-0.1,1.5c0.9,0.5,1.3,1.4,1.3,2.6c0,1.2-0.7,2.2-1.6,2.5
			c0,0.1,0,0.3,0,0.4c2.2-0.3,3.8-1.8,3.8-3.5C218.4,417.6,217,416.5,215.7,416.3z M224.3,415.7c-0.7,0-1.4,0.3-1.8,0.6l-0.6,0.4
			l0.1-0.6c0.5-2.2,2.4-4.3,3.8-4.8c0.3-0.1,0.3-0.2,0.2-0.2c-0.1,0-0.3,0-0.7,0.2c-1.3,0.4-2.3,1-3.3,2c-0.7,0.7-2.2,2.5-2.2,5.2
			c0,1,0.1,2.1,1,3.3c0.6,0.7,1.3,1.1,2.4,1.1c1.3,0,2-0.4,2.7-1.1c0.7-0.6,1.1-1.6,1.1-2.9C227.1,417.2,226.3,415.7,224.3,415.7z
			 M223.5,422.4c-1.5,0-1.6-2.7-1.6-3.3c0-1.3,0-2,0.4-2.4c0.3-0.3,0.7-0.4,1.2-0.4c1,0,1.7,1.2,1.7,3.2
			C225.2,421.5,224.6,422.4,223.5,422.4z"/>
	</g>
	<g>
		<linearGradient id="SVGID_7_" gradientUnits="userSpaceOnUse" x1="184.9861" y1="344.2046" x2="203.3629" y2="344.2046">
			<stop  offset="0" style="stop-color:#CFCFCF"/>
			<stop  offset="0.1423" style="stop-color:#BCBCBC"/>
			<stop  offset="0.4303" style="stop-color:#8B8B8B"/>
			<stop  offset="0.8339" style="stop-color:#3E3E3E"/>
			<stop  offset="1" style="stop-color:#1C1C1C"/>
		</linearGradient>
		<path class="st12" d="M227,436.4c-11.7-2.6-22.3-12-23.6-21.6c0-0.1-0.4-5.2-0.5-7.5c-3.9-54.7-1.7-101.5,0.5-135.3
			c0.3-4.4-3.7-20.1-8.3-20.1h-1.7c-4.5,0-8.6,15.7-8.3,20.1c2.4,34.1,3.3,80.8,0.4,135.3c-0.1,2.2-0.4,7.3-0.5,7.5
			c-1.5,8.3-10.5,18.8-23.2,21.6H227z"/>
		<path class="st13" d="M294,120h-4.3c0.5,0.2,1.1,0.3,1.5,0.5c-8.3,3-43,6.7-96.9,6.7c-53.9,0-88.6-3.6-96.9-6.7
			c0.4-0.2,0.9-0.3,1.5-0.5h-4.6c-0.1,0.3-0.3,0.7-0.5,1c3.1,4.8,46.9,8.5,100.5,8.5c53.3,0,96.9-3.7,100.4-8.5
			C294.4,120.7,294.1,120.4,294,120z"/>
		
			<radialGradient id="SVGID_8_" cx="258.9039" cy="100.6988" r="75.5028" gradientTransform="matrix(0.9946 -0.1034 0.1034 0.9946 -12.4967 2.7075)" gradientUnits="userSpaceOnUse">
			<stop  offset="0" style="stop-color:#F1EA95"/>
			<stop  offset="6.272975e-02" style="stop-color:#E4DF7A"/>
			<stop  offset="0.1751" style="stop-color:#CFCD50"/>
			<stop  offset="0.2844" style="stop-color:#BFBE2E"/>
			<stop  offset="0.3884" style="stop-color:#B3B416"/>
			<stop  offset="0.4847" style="stop-color:#ACAE08"/>
			<stop  offset="0.5659" style="stop-color:#AAAC03"/>
			<stop  offset="1" style="stop-color:#000503"/>
		</radialGradient>
		<path class="st14" d="M287.5,128.3c-8.8,8.3-22.1,8.5-29.7,0.4c-7.6-8.1-6.6-21.3,2.2-29.6c8.8-8.3,22.1-8.5,29.7-0.4
			C297.3,106.7,296.3,120,287.5,128.3z"/>
		<path class="st15" d="M285.8,97c1.7,1.1,2.7,2.5,2.3,3.2c-0.4,0.7-2.2,0.3-3.9-0.8c-1.7-1.1-2.7-2.5-2.3-3.2
			C282.3,95.5,284,95.9,285.8,97z"/>
		
			<linearGradient id="SVGID_9_" gradientUnits="userSpaceOnUse" x1="212.0636" y1="-90.2976" x2="216.2708" y2="-90.2976" gradientTransform="matrix(0.7867 0.6174 -0.6174 0.7867 84.2389 8.0995)">
			<stop  offset="0" style="stop-color:#D0B269"/>
			<stop  offset="3.660311e-02" style="stop-color:#D2B56F"/>
			<stop  offset="8.386255e-02" style="stop-color:#D7BD7F"/>
			<stop  offset="0.137" style="stop-color:#DFCB99"/>
			<stop  offset="0.1943" style="stop-color:#EBDEBE"/>
			<stop  offset="0.2545" style="stop-color:#F9F6ED"/>
			<stop  offset="0.2747" style="stop-color:#FFFFFF"/>
			<stop  offset="0.2894" style="stop-color:#FAF9F6"/>
			<stop  offset="0.4038" style="stop-color:#D9CCB9"/>
			<stop  offset="0.5171" style="stop-color:#BCA583"/>
			<stop  offset="0.6268" style="stop-color:#A48658"/>
			<stop  offset="0.7321" style="stop-color:#926D36"/>
			<stop  offset="0.8317" style="stop-color:#855B1E"/>
			<stop  offset="0.9235" style="stop-color:#7D510F"/>
			<stop  offset="1" style="stop-color:#7A4D0A"/>
		</linearGradient>
		<path class="st16" d="M286.3,99.9c0.1,0,0.2,0,0.3,0c26.8-35.1,45.5-60.6,45.5-60.6l-0.3-0.2c0,0-17.6,20.8-48.2,59.1
			C283.7,98.5,285.7,100,286.3,99.9z"/>
		<g>
			<linearGradient id="SVGID_10_" gradientUnits="userSpaceOnUse" x1="177.9031" y1="345.9629" x2="208.5331" y2="345.9629">
				<stop  offset="0" style="stop-color:#FFFFFF"/>
				<stop  offset="1" style="stop-color:#252525"/>
			</linearGradient>
			<path class="st17" d="M205.7,436.4c-5.5-4.6-8.1-21.9-8.1-25.5V263.2c0-4.2-1.4-7.7-3.1-7.7h-0.6c-1.7,0-3.1,3.5-3.1,7.7v147.7
				c0,3.7-3.8,21-9.9,25.5H205.7z"/>
			<linearGradient id="SVGID_11_" gradientUnits="userSpaceOnUse" x1="180.3653" y1="346.4717" x2="206.3971" y2="346.4717">
				<stop  offset="0" style="stop-color:#FFFFFF"/>
				<stop  offset="1" style="stop-color:#6A6A6B"/>
			</linearGradient>
			<path class="st18" d="M194.5,256.5c0,0-0.6,0-0.6,0c-0.5,0.1-1,0.5-1.4,1.1c-0.8,1.1-1.3,4.3-1.3,6.6v146.4
				c0,3.1-3.1,21.9-8.2,25.7H204c-4.6-3.8-6.8-22.7-6.8-25.8V263.3C197.2,259.6,196,256.5,194.5,256.5z"/>
			<linearGradient id="SVGID_12_" gradientUnits="userSpaceOnUse" x1="182.8274" y1="346.9805" x2="204.2611" y2="346.9805">
				<stop  offset="0" style="stop-color:#FFFFFF"/>
				<stop  offset="1" style="stop-color:#888889"/>
			</linearGradient>
			<path class="st19" d="M194.4,257.6c-0.1,0-0.6,0-0.6,0.1c-0.5,0.1-0.9,0.6-1.3,1.2c-0.6,0.9-1,4.7-1,6.6v145.1
				c0,2.4-2.5,22.8-6.6,25.8h17.4c-3.7-3-5.4-23.6-5.4-26V263.3C196.9,260.1,195.8,257.6,194.4,257.6z"/>
			<linearGradient id="SVGID_13_" gradientUnits="userSpaceOnUse" x1="185.2896" y1="347.4892" x2="202.1251" y2="347.4892">
				<stop  offset="0" style="stop-color:#FFFFFF"/>
				<stop  offset="1" style="stop-color:#A5A5A6"/>
			</linearGradient>
			<path class="st20" d="M194.4,258.6c-0.1,0-0.5,0-0.6,0.1c-0.5,0.2-0.9,0.7-1.1,1.4c-0.5,0.7-0.8,5.2-0.8,6.6v143.8
				c0,1.8-1.9,23.7-4.9,26h13.6c-2.7-2.3-4.1-24.4-4.1-26.2V263.4C196.5,260.7,195.6,258.6,194.4,258.6z"/>
			<linearGradient id="SVGID_14_" gradientUnits="userSpaceOnUse" x1="187.7517" y1="347.998" x2="199.9891" y2="347.998">
				<stop  offset="0" style="stop-color:#FFFFFF"/>
				<stop  offset="1" style="stop-color:#C3C3C4"/>
			</linearGradient>
			<path class="st21" d="M194.3,259.6c-0.1,0-0.5,0-0.6,0.1c-0.5,0.2-0.8,0.8-1,1.5c-0.3,0.4-0.5,5.6-0.5,6.6v142.5
				c0,1.2-1.3,24.6-3.3,26.1h9.9c-1.8-1.5-2.7-25.2-2.7-26.4V263.4C196.2,261.3,195.3,259.6,194.3,259.6z"/>
			<linearGradient id="SVGID_15_" gradientUnits="userSpaceOnUse" x1="190.2139" y1="348.5068" x2="197.8531" y2="348.5068">
				<stop  offset="0" style="stop-color:#FFFFFF"/>
				<stop  offset="1" style="stop-color:#E1E1E1"/>
			</linearGradient>
			<path class="st22" d="M194.3,260.6c-0.2,0-0.4,0.1-0.6,0.2c-0.4,0.3-0.8,0.9-0.8,1.6c-0.2,0.2-0.3,6.1-0.3,6.5v141.2
				c0,0.6-0.6,25.5-1.6,26.3h6.2c-0.9-0.8-1.4-26.1-1.4-26.7V263.5C195.8,261.9,195.1,260.6,194.3,260.6z"/>
			<path class="st23" d="M195.4,436.4V263.5c0-1-0.6-1.9-1.2-1.9c-0.7,0-1.2,0.8-1.2,1.9v172.9H195.4z"/>
		</g>
		<linearGradient id="SVGID_16_" gradientUnits="userSpaceOnUse" x1="93.1308" y1="191.2509" x2="295.2913" y2="191.2509">
			<stop  offset="0" style="stop-color:#C2C2C2"/>
			<stop  offset="0.1232" style="stop-color:#AAAAAA"/>
			<stop  offset="0.2467" style="stop-color:#9A9A9A"/>
			<stop  offset="0.3407" style="stop-color:#949494"/>
			<stop  offset="0.4697" style="stop-color:#A8A8A8"/>
			<stop  offset="0.6267" style="stop-color:#B9B9B9"/>
			<stop  offset="0.7418" style="stop-color:#BFBFBF"/>
			<stop  offset="0.8852" style="stop-color:#686868"/>
			<stop  offset="1" style="stop-color:#1F1F1F"/>
		</linearGradient>
		<path class="st24" d="M287.4,117.1c-47.2-7-137.6-8.5-186.2,0c-8.7,1.5-9.2,3.3-6.9,10.8c7.5,24.9,90.9,120,90.9,143.4
			c6-4.5,11.7-5,18.2,0c0-23,85.9-121.8,90.9-143.4C296.1,120.3,296.2,118.4,287.4,117.1z M292,127.3c-2.1,9.1-21.1,35-39.5,60.1
			c-23.1,31.5-46.9,64-50.9,79.8c-2.4-1.3-4.8-1.9-7.3-1.9c-2.4,0-4.9,0.6-7.3,1.9c-3.9-15.8-27.4-47.9-50.2-78.9
			c-19.1-26-37.1-50.5-40.3-61.1c-0.5-1.5-1.4-4.7-0.9-5.7c0.7-1.1,4.6-1.8,5.9-2c21.3-3.7,52.7-5.8,88.2-5.8
			c36.4,0,72.7,2.2,97.2,5.8c3.3,0.5,5.2,1.1,5.6,1.7C293.2,122.1,292.5,125.1,292,127.3z"/>
		<linearGradient id="SVGID_17_" gradientUnits="userSpaceOnUse" x1="194.2109" y1="147.7007" x2="194.2109" y2="271.2281">
			<stop  offset="0" style="stop-color:#D3BD8E"/>
			<stop  offset="8.241760e-02" style="stop-color:#D3BD8E"/>
			<stop  offset="8.762252e-02" style="stop-color:#D1B986"/>
			<stop  offset="0.1102" style="stop-color:#C9AC68"/>
			<stop  offset="0.1342" style="stop-color:#C3A151"/>
			<stop  offset="0.1599" style="stop-color:#BF9A41"/>
			<stop  offset="0.1883" style="stop-color:#BD9537"/>
			<stop  offset="0.2253" style="stop-color:#BC9434"/>
			<stop  offset="0.263" style="stop-color:#B88E30"/>
			<stop  offset="0.311" style="stop-color:#AC7F26"/>
			<stop  offset="0.3644" style="stop-color:#986516"/>
			<stop  offset="0.4066" style="stop-color:#844B05"/>
			<stop  offset="0.5383" style="stop-color:#7B2403"/>
			<stop  offset="0.6154" style="stop-color:#771302"/>
			<stop  offset="0.7473" style="stop-color:#420906"/>
			<stop  offset="0.8736" style="stop-color:#1C0909"/>
			<stop  offset="0.9114" style="stop-color:#471109"/>
			<stop  offset="0.9965" style="stop-color:#B32408"/>
			<stop  offset="1" style="stop-color:#B82508"/>
		</linearGradient>
		<path class="st25" d="M276.9,157.4c-26.5,38-73.7,96.7-73.7,113.8c-6.5-5-12.3-4.5-18.2,0c0-17.5-46.9-75.4-73.5-113.7
			C102.6,144.7,286.2,144.2,276.9,157.4z"/>
		<radialGradient id="SVGID_18_" cx="194.3757" cy="247.7407" r="35.2022" gradientUnits="userSpaceOnUse">
			<stop  offset="0" style="stop-color:#3C1414"/>
			<stop  offset="0.3667" style="stop-color:#3D1616"/>
			<stop  offset="0.5478" style="stop-color:#421E1E"/>
			<stop  offset="0.6883" style="stop-color:#492B2B"/>
			<stop  offset="0.8078" style="stop-color:#543E3E"/>
			<stop  offset="0.9129" style="stop-color:#615656"/>
			<stop  offset="1" style="stop-color:#707070"/>
		</radialGradient>
		<path class="st26" d="M176.4,249.9c5.3,9.2,8.7,16.7,8.7,21.4c3.8,4.5,12.2,4.9,18.2,0c0-4.6,3.4-12.1,8.8-21.4H176.4z"/>
		<linearGradient id="SVGID_19_" gradientUnits="userSpaceOnUse" x1="194.2099" y1="147.8863" x2="194.2099" y2="265.4008">
			<stop  offset="0" style="stop-color:#F3DAA4"/>
			<stop  offset="8.241760e-02" style="stop-color:#F3DAA4"/>
			<stop  offset="9.484036e-02" style="stop-color:#EED18F"/>
			<stop  offset="0.1163" style="stop-color:#E8C471"/>
			<stop  offset="0.139" style="stop-color:#E3BA5A"/>
			<stop  offset="0.1633" style="stop-color:#DFB34A"/>
			<stop  offset="0.1903" style="stop-color:#DDAE40"/>
			<stop  offset="0.2253" style="stop-color:#DCAD3D"/>
			<stop  offset="0.261" style="stop-color:#D8A739"/>
			<stop  offset="0.3064" style="stop-color:#CD982E"/>
			<stop  offset="0.3568" style="stop-color:#BB7E1D"/>
			<stop  offset="0.4066" style="stop-color:#A45D06"/>
			<stop  offset="0.4228" style="stop-color:#A35706"/>
			<stop  offset="0.5509" style="stop-color:#9A2904"/>
			<stop  offset="0.6154" style="stop-color:#961803"/>
			<stop  offset="0.7473" style="stop-color:#620D09"/>
			<stop  offset="0.8736" style="stop-color:#3C1414"/>
			<stop  offset="0.9114" style="stop-color:#671B11"/>
			<stop  offset="0.9965" style="stop-color:#D32B09"/>
			<stop  offset="1" style="stop-color:#D82C09"/>
		</linearGradient>
		<path class="st27" d="M183.8,260.5c-7.9-18.3-27.9-45.7-47.3-72.2c-8.3-11.3-17.4-23.7-24.1-33.3c5-3.3,37.2-7.2,83.2-7.2
			c44.3,0,75.6,3.9,80.3,7.2c-6.5,9.4-15.7,21.4-23.8,32.4c-19,26-39.9,54.4-47.3,72.2C200.6,267.2,186.7,267.2,183.8,260.5z"/>
		<g>
			<linearGradient id="SVGID_20_" gradientUnits="userSpaceOnUse" x1="205.2485" y1="160.3589" x2="205.2485" y2="260.5835">
				<stop  offset="0" style="stop-color:#F3DAA4"/>
				<stop  offset="8.241760e-02" style="stop-color:#F3DAA4"/>
				<stop  offset="9.484036e-02" style="stop-color:#EED18F"/>
				<stop  offset="0.1163" style="stop-color:#E8C471"/>
				<stop  offset="0.139" style="stop-color:#E3BA5A"/>
				<stop  offset="0.1633" style="stop-color:#DFB34A"/>
				<stop  offset="0.1903" style="stop-color:#DDAE40"/>
				<stop  offset="0.2253" style="stop-color:#DCAD3D"/>
				<stop  offset="0.261" style="stop-color:#D8A739"/>
				<stop  offset="0.3064" style="stop-color:#CD982E"/>
				<stop  offset="0.3568" style="stop-color:#BB7E1D"/>
				<stop  offset="0.4066" style="stop-color:#A45D06"/>
				<stop  offset="0.4228" style="stop-color:#A35706"/>
				<stop  offset="0.5509" style="stop-color:#9A2904"/>
				<stop  offset="0.6154" style="stop-color:#961803"/>
				<stop  offset="0.7473" style="stop-color:#620D09"/>
				<stop  offset="0.8736" style="stop-color:#3C1414"/>
				<stop  offset="0.9114" style="stop-color:#671B11"/>
				<stop  offset="0.9965" style="stop-color:#D32B09"/>
				<stop  offset="1" style="stop-color:#D82C09"/>
			</linearGradient>
			<path class="st28" d="M208.3,230c-4.2,0-8-2.6-10.2-4.4c-4.8-1.9-5.9-5.1-5.9-7.5c0-3.9,2.7-6.6,7.8-8c1.8-0.5,3.6-0.8,5.4-0.8
				c5.7,0,10.2,2.4,12,6.5c0.4,0.9,0.9,2.4,0.8,4.3c-0.1,1.9-0.8,4.3-2.9,6.7C213.5,228.9,211,230,208.3,230L208.3,230z"/>
			<linearGradient id="SVGID_21_" gradientUnits="userSpaceOnUse" x1="205.3642" y1="164.2897" x2="205.3642" y2="257.8388">
				<stop  offset="0" style="stop-color:#F0C994"/>
				<stop  offset="8.241760e-02" style="stop-color:#F0C994"/>
				<stop  offset="8.883464e-02" style="stop-color:#EEC58A"/>
				<stop  offset="0.1112" style="stop-color:#E7B76C"/>
				<stop  offset="0.135" style="stop-color:#E2AD55"/>
				<stop  offset="0.1604" style="stop-color:#DFA645"/>
				<stop  offset="0.1887" style="stop-color:#DDA13B"/>
				<stop  offset="0.2253" style="stop-color:#DCA038"/>
				<stop  offset="0.2633" style="stop-color:#D89A34"/>
				<stop  offset="0.3118" style="stop-color:#CD8B29"/>
				<stop  offset="0.3655" style="stop-color:#BB7117"/>
				<stop  offset="0.4066" style="stop-color:#A95806"/>
				<stop  offset="0.5447" style="stop-color:#A02B05"/>
				<stop  offset="0.6154" style="stop-color:#9D1A04"/>
				<stop  offset="0.7473" style="stop-color:#6E1009"/>
				<stop  offset="0.8736" style="stop-color:#4C1613"/>
				<stop  offset="0.9155" style="stop-color:#771D10"/>
				<stop  offset="1" style="stop-color:#D82C09"/>
			</linearGradient>
			<path class="st29" d="M200.2,210.7c1.7-0.5,3.4-0.7,5.1-0.7c5.3,0,9.5,2.2,11.4,5.9c0.4,0.8,1,2.3,0.9,4.1
				c-0.1,1.8-0.8,4.1-2.8,6.4c-1.7,1.9-4.1,2.9-6.7,2.9c-3.9,0-7.4-2.4-9.4-4.1c-4.4-1.8-5.5-4.7-5.5-6.9
				C192.9,214.7,195.2,212.1,200.2,210.7z"/>
			<linearGradient id="SVGID_22_" gradientUnits="userSpaceOnUse" x1="205.4462" y1="168.2039" x2="205.4462" y2="255.1107">
				<stop  offset="0" style="stop-color:#EEB785"/>
				<stop  offset="8.241760e-02" style="stop-color:#EEB785"/>
				<stop  offset="8.253614e-02" style="stop-color:#EEB785"/>
				<stop  offset="0.106" style="stop-color:#E7AA67"/>
				<stop  offset="0.1308" style="stop-color:#E2A050"/>
				<stop  offset="0.1574" style="stop-color:#DE9940"/>
				<stop  offset="0.1869" style="stop-color:#DC9436"/>
				<stop  offset="0.2253" style="stop-color:#DB9333"/>
				<stop  offset="0.2662" style="stop-color:#D78D2F"/>
				<stop  offset="0.3182" style="stop-color:#CC7E24"/>
				<stop  offset="0.376" style="stop-color:#BA6413"/>
				<stop  offset="0.4066" style="stop-color:#AE5307"/>
				<stop  offset="0.5371" style="stop-color:#A62D05"/>
				<stop  offset="0.6154" style="stop-color:#A31C04"/>
				<stop  offset="0.7473" style="stop-color:#7A1309"/>
				<stop  offset="0.8736" style="stop-color:#5B1912"/>
				<stop  offset="0.9201" style="stop-color:#86200F"/>
				<stop  offset="1" style="stop-color:#D82C09"/>
			</linearGradient>
			<path class="st30" d="M200.4,211.4c1.6-0.4,3.2-0.7,4.7-0.7c5,0,8.9,2,10.8,5.4c0.5,0.8,1,2.2,1,3.9s-0.7,3.8-2.6,6
				c-1.6,1.8-3.9,2.7-6.4,2.6c-3.5-0.1-6.8-2.2-8.6-3.8c-4-1.7-5-4.3-5.1-6.3C193.4,215.1,195.5,212.7,200.4,211.4z"/>
			<linearGradient id="SVGID_23_" gradientUnits="userSpaceOnUse" x1="205.498" y1="172.0988" x2="205.498" y2="252.4018">
				<stop  offset="0" style="stop-color:#EBA675"/>
				<stop  offset="8.241760e-02" style="stop-color:#EBA675"/>
				<stop  offset="9.964538e-02" style="stop-color:#E79D61"/>
				<stop  offset="0.1257" style="stop-color:#E1934A"/>
				<stop  offset="0.1537" style="stop-color:#DE8C3A"/>
				<stop  offset="0.1849" style="stop-color:#DC8730"/>
				<stop  offset="0.2253" style="stop-color:#DB862D"/>
				<stop  offset="0.2696" style="stop-color:#D78029"/>
				<stop  offset="0.326" style="stop-color:#CC711F"/>
				<stop  offset="0.3887" style="stop-color:#BA570D"/>
				<stop  offset="0.4066" style="stop-color:#B44E07"/>
				<stop  offset="0.5274" style="stop-color:#AE2F06"/>
				<stop  offset="0.6154" style="stop-color:#AA1E05"/>
				<stop  offset="0.7473" style="stop-color:#851609"/>
				<stop  offset="0.8736" style="stop-color:#6B1B11"/>
				<stop  offset="0.9265" style="stop-color:#96220E"/>
				<stop  offset="1" style="stop-color:#D82C09"/>
			</linearGradient>
			<path class="st31" d="M200.6,212c1.5-0.4,2.9-0.6,4.4-0.7c4.7-0.1,8.3,1.8,10.2,4.8c0.5,0.8,1.1,2.1,1.1,3.7
				c0,1.6-0.7,3.6-2.5,5.7c-1.5,1.7-3.7,2.5-6.1,2.3c-3.2-0.1-6.1-2-7.9-3.5c-3.6-1.5-4.6-3.9-4.7-5.8
				C194,215.6,195.8,213.4,200.6,212z"/>
			<linearGradient id="SVGID_24_" gradientUnits="userSpaceOnUse" x1="205.5229" y1="175.9711" x2="205.5229" y2="249.7151">
				<stop  offset="0" style="stop-color:#E89466"/>
				<stop  offset="8.241760e-02" style="stop-color:#E89466"/>
				<stop  offset="9.188567e-02" style="stop-color:#E6905C"/>
				<stop  offset="0.1196" style="stop-color:#E18645"/>
				<stop  offset="0.1493" style="stop-color:#DD7F35"/>
				<stop  offset="0.1824" style="stop-color:#DB7A2B"/>
				<stop  offset="0.2253" style="stop-color:#DA7928"/>
				<stop  offset="0.274" style="stop-color:#D67324"/>
				<stop  offset="0.3359" style="stop-color:#CB6419"/>
				<stop  offset="0.4047" style="stop-color:#BA4A08"/>
				<stop  offset="0.4066" style="stop-color:#B94907"/>
				<stop  offset="0.5148" style="stop-color:#B43106"/>
				<stop  offset="0.6154" style="stop-color:#B02005"/>
				<stop  offset="0.7473" style="stop-color:#911909"/>
				<stop  offset="0.8736" style="stop-color:#7A1E10"/>
				<stop  offset="0.9343" style="stop-color:#A5240D"/>
				<stop  offset="1" style="stop-color:#D82C09"/>
			</linearGradient>
			<path class="st32" d="M200.8,212.6c1.4-0.4,2.7-0.6,4.1-0.6c4.3-0.1,7.7,1.6,9.5,4.3c0.5,0.8,1.2,2,1.2,3.5
				c0,1.5-0.6,3.4-2.3,5.3c-1.4,1.6-3.5,2.3-5.8,2c-2.9-0.1-5.5-1.9-7.1-3.2c-3.2-1.4-4.1-3.5-4.4-5.2
				C194.6,216,196.1,214,200.8,212.6z"/>
			<linearGradient id="SVGID_25_" gradientUnits="userSpaceOnUse" x1="205.5237" y1="179.8171" x2="205.5237" y2="247.0541">
				<stop  offset="0" style="stop-color:#E58357"/>
				<stop  offset="8.241760e-02" style="stop-color:#E58357"/>
				<stop  offset="0.112" style="stop-color:#E07940"/>
				<stop  offset="0.1438" style="stop-color:#DD7230"/>
				<stop  offset="0.1793" style="stop-color:#DB6E26"/>
				<stop  offset="0.2253" style="stop-color:#DA6D23"/>
				<stop  offset="0.2797" style="stop-color:#D6671F"/>
				<stop  offset="0.3487" style="stop-color:#CB5815"/>
				<stop  offset="0.4066" style="stop-color:#BE4508"/>
				<stop  offset="0.5004" style="stop-color:#BA3307"/>
				<stop  offset="0.6154" style="stop-color:#B72206"/>
				<stop  offset="0.7473" style="stop-color:#9D1C09"/>
				<stop  offset="0.8736" style="stop-color:#8A200F"/>
				<stop  offset="0.9456" style="stop-color:#B5270C"/>
				<stop  offset="1" style="stop-color:#D82C09"/>
			</linearGradient>
			<path class="st33" d="M200.9,213.3c1.3-0.4,2.5-0.6,3.8-0.6c4-0.1,7.1,1.4,8.9,3.7c0.6,0.8,1.2,1.9,1.2,3.3s-0.5,3.1-2.1,5
				c-1.4,1.6-3.4,2.1-5.6,1.8c-2.5-0.2-4.9-1.7-6.4-2.9c-2.8-1.2-3.7-3.1-4-4.6C195.1,216.5,196.4,214.6,200.9,213.3z"/>
			<linearGradient id="SVGID_26_" gradientUnits="userSpaceOnUse" x1="205.5029" y1="183.6324" x2="205.5029" y2="244.4226">
				<stop  offset="0" style="stop-color:#E37247"/>
				<stop  offset="8.241760e-02" style="stop-color:#E37247"/>
				<stop  offset="0.1006" style="stop-color:#E06D3B"/>
				<stop  offset="0.1357" style="stop-color:#DD662B"/>
				<stop  offset="0.1747" style="stop-color:#DB6121"/>
				<stop  offset="0.2253" style="stop-color:#DA601E"/>
				<stop  offset="0.2876" style="stop-color:#D65A1A"/>
				<stop  offset="0.3666" style="stop-color:#CB4B0F"/>
				<stop  offset="0.4066" style="stop-color:#C34008"/>
				<stop  offset="0.4762" style="stop-color:#C13508"/>
				<stop  offset="0.6154" style="stop-color:#BE2407"/>
				<stop  offset="0.7473" style="stop-color:#A92009"/>
				<stop  offset="0.8736" style="stop-color:#9A220D"/>
				<stop  offset="0.9629" style="stop-color:#C5290A"/>
				<stop  offset="1" style="stop-color:#D82C09"/>
			</linearGradient>
			<path class="st34" d="M201.1,213.9c1.2-0.3,2.3-0.5,3.5-0.6c3.6-0.1,6.5,1.2,8.3,3.2c0.7,0.7,1.3,1.8,1.3,3.1
				c0,1.3-0.5,2.9-2,4.6c-1.3,1.5-3.2,1.9-5.3,1.5c-2.2-0.2-4.2-1.5-5.6-2.6c-2.4-1.1-3.2-2.7-3.6-4
				C195.7,216.9,196.7,215.2,201.1,213.9z"/>
			<linearGradient id="SVGID_27_" gradientUnits="userSpaceOnUse" x1="205.4629" y1="187.4117" x2="205.4629" y2="241.8249">
				<stop  offset="0" style="stop-color:#E06038"/>
				<stop  offset="8.241760e-02" style="stop-color:#E06038"/>
				<stop  offset="8.590574e-02" style="stop-color:#E05F36"/>
				<stop  offset="0.1251" style="stop-color:#DC5826"/>
				<stop  offset="0.1687" style="stop-color:#DA541C"/>
				<stop  offset="0.2253" style="stop-color:#D95319"/>
				<stop  offset="0.2995" style="stop-color:#D54D15"/>
				<stop  offset="0.3937" style="stop-color:#CA3E0A"/>
				<stop  offset="0.4066" style="stop-color:#C83B08"/>
				<stop  offset="0.4373" style="stop-color:#C73708"/>
				<stop  offset="0.6154" style="stop-color:#C42607"/>
				<stop  offset="0.7473" style="stop-color:#B52309"/>
				<stop  offset="0.8736" style="stop-color:#A9250C"/>
				<stop  offset="0.9895" style="stop-color:#D42B09"/>
				<stop  offset="1" style="stop-color:#D82C09"/>
			</linearGradient>
			<path class="st35" d="M201.3,214.5c1.1-0.3,2.1-0.5,3.2-0.5c3.3-0.2,6,1,7.7,2.6c0.7,0.7,1.4,1.6,1.4,2.9
				c0.1,1.2-0.4,2.7-1.8,4.3c-1.2,1.4-3,1.7-5,1.2c-1.9-0.2-3.6-1.4-4.8-2.3c-2-0.9-2.8-2.3-3.2-3.4
				C196.3,217.4,197,215.8,201.3,214.5z"/>
			<linearGradient id="SVGID_28_" gradientUnits="userSpaceOnUse" x1="205.4057" y1="191.1474" x2="205.4057" y2="239.2661">
				<stop  offset="0" style="stop-color:#DD4F28"/>
				<stop  offset="8.241760e-02" style="stop-color:#DD4F28"/>
				<stop  offset="0.1082" style="stop-color:#DB4B20"/>
				<stop  offset="0.1591" style="stop-color:#DA4716"/>
				<stop  offset="0.2253" style="stop-color:#D94613"/>
				<stop  offset="0.3202" style="stop-color:#D5400F"/>
				<stop  offset="0.4066" style="stop-color:#CE3608"/>
				<stop  offset="0.6154" style="stop-color:#CB2808"/>
				<stop  offset="0.7473" style="stop-color:#C02609"/>
				<stop  offset="0.8736" style="stop-color:#B9270B"/>
				<stop  offset="1" style="stop-color:#D82C09"/>
			</linearGradient>
			<path class="st36" d="M201.5,215.2c1-0.3,1.9-0.4,2.9-0.5c3-0.2,5.5,0.7,7.1,2.1c0.8,0.7,1.4,1.5,1.5,2.7s-0.4,2.5-1.6,3.9
				c-1.1,1.3-2.8,1.5-4.7,0.9c-1.5-0.3-3-1.2-4.1-2c-1.6-0.8-2.3-1.9-2.8-2.9C196.8,217.8,197.3,216.4,201.5,215.2z"/>
			<linearGradient id="SVGID_29_" gradientUnits="userSpaceOnUse" x1="205.3333" y1="194.8273" x2="205.3333" y2="236.7533">
				<stop  offset="0" style="stop-color:#DB3D19"/>
				<stop  offset="8.241760e-02" style="stop-color:#DB3D19"/>
				<stop  offset="0.1395" style="stop-color:#D93A11"/>
				<stop  offset="0.2253" style="stop-color:#D8390E"/>
				<stop  offset="0.3699" style="stop-color:#D5330B"/>
				<stop  offset="0.4066" style="stop-color:#D33109"/>
				<stop  offset="0.6154" style="stop-color:#D12A08"/>
				<stop  offset="0.7473" style="stop-color:#CC2909"/>
				<stop  offset="0.8736" style="stop-color:#C82A0A"/>
				<stop  offset="1" style="stop-color:#D82C09"/>
			</linearGradient>
			<path class="st37" d="M201.7,215.8c0.8-0.2,1.7-0.4,2.6-0.5c2.6-0.2,5,0.4,6.5,1.5c0.9,0.6,1.5,1.4,1.6,2.5
				c0.1,1-0.3,2.2-1.5,3.6c-1,1.2-2.7,1.2-4.4,0.7c-1.2-0.3-2.4-1-3.3-1.7c-1.2-0.7-1.9-1.5-2.5-2.3
				C197.4,218.3,197.6,217,201.7,215.8z"/>
			<path class="st38" d="M210.3,222.5c-1,1.1-2.5,1-4.1,0.4c-1.6-0.6-3.3-1.9-4.6-3.1c-3.6-1.1-3.6-2.2,0.3-3.3
				c3.1-0.9,6.2-0.6,8.1,0.6c0.9,0.6,1.5,1.3,1.7,2.3S211.3,221.3,210.3,222.5z"/>
		</g>
		<g>
			<linearGradient id="SVGID_30_" gradientUnits="userSpaceOnUse" x1="178.8026" y1="147.0717" x2="178.8026" y2="266.2509">
				<stop  offset="0" style="stop-color:#F3DAA4"/>
				<stop  offset="8.241760e-02" style="stop-color:#F3DAA4"/>
				<stop  offset="9.484036e-02" style="stop-color:#EED18F"/>
				<stop  offset="0.1163" style="stop-color:#E8C471"/>
				<stop  offset="0.139" style="stop-color:#E3BA5A"/>
				<stop  offset="0.1633" style="stop-color:#DFB34A"/>
				<stop  offset="0.1903" style="stop-color:#DDAE40"/>
				<stop  offset="0.2253" style="stop-color:#DCAD3D"/>
				<stop  offset="0.261" style="stop-color:#D8A739"/>
				<stop  offset="0.3064" style="stop-color:#CD982E"/>
				<stop  offset="0.3568" style="stop-color:#BB7E1D"/>
				<stop  offset="0.4066" style="stop-color:#A45D06"/>
				<stop  offset="0.4228" style="stop-color:#A35706"/>
				<stop  offset="0.5509" style="stop-color:#9A2904"/>
				<stop  offset="0.6154" style="stop-color:#961803"/>
				<stop  offset="0.7473" style="stop-color:#620D09"/>
				<stop  offset="0.8736" style="stop-color:#3C1414"/>
				<stop  offset="0.9114" style="stop-color:#671B11"/>
				<stop  offset="0.9965" style="stop-color:#D32B09"/>
				<stop  offset="1" style="stop-color:#D82C09"/>
			</linearGradient>
			<path class="st39" d="M181.8,191.5c-4.2,0-8-2.6-10.2-4.4c-4.8-1.9-5.9-5.1-5.9-7.5c0-3.9,2.7-6.6,7.8-8c1.8-0.5,3.6-0.8,5.4-0.8
				c5.7,0,10.2,2.4,12,6.5c0.4,0.9,0.9,2.4,0.8,4.3s-0.8,4.3-2.9,6.7C187.1,190.4,184.6,191.5,181.8,191.5L181.8,191.5z"/>
			<linearGradient id="SVGID_31_" gradientUnits="userSpaceOnUse" x1="178.9183" y1="149.3231" x2="178.9183" y2="260.5644">
				<stop  offset="0" style="stop-color:#F3D7A0"/>
				<stop  offset="8.241760e-02" style="stop-color:#F3D7A0"/>
				<stop  offset="8.941069e-02" style="stop-color:#F1D295"/>
				<stop  offset="0.1117" style="stop-color:#EAC677"/>
				<stop  offset="0.1354" style="stop-color:#E5BC60"/>
				<stop  offset="0.1607" style="stop-color:#E1B550"/>
				<stop  offset="0.1888" style="stop-color:#DFB046"/>
				<stop  offset="0.2253" style="stop-color:#DEAF43"/>
				<stop  offset="0.2633" style="stop-color:#DAA93F"/>
				<stop  offset="0.3118" style="stop-color:#CF9A34"/>
				<stop  offset="0.3655" style="stop-color:#BD8022"/>
				<stop  offset="0.4066" style="stop-color:#AC6711"/>
				<stop  offset="0.5447" style="stop-color:#A33A10"/>
				<stop  offset="0.6154" style="stop-color:#9F290F"/>
				<stop  offset="0.7473" style="stop-color:#701F14"/>
				<stop  offset="0.8736" style="stop-color:#4E251E"/>
				<stop  offset="0.9155" style="stop-color:#792C1B"/>
				<stop  offset="1" style="stop-color:#DA3B14"/>
			</linearGradient>
			<path class="st40" d="M173.8,172.2c1.7-0.5,3.4-0.7,5.1-0.7c5.3,0,9.5,2.2,11.4,5.9c0.4,0.8,1,2.3,0.9,4.1
				c-0.1,1.8-0.8,4-2.8,6.4c-1.7,1.9-4.1,2.9-6.7,2.9c-3.9,0-7.4-2.4-9.4-4.1c-4.4-1.8-5.4-4.7-5.5-6.9
				C166.4,176.2,168.8,173.6,173.8,172.2z"/>
			<linearGradient id="SVGID_32_" gradientUnits="userSpaceOnUse" x1="179.0004" y1="151.5662" x2="179.0004" y2="254.909">
				<stop  offset="0" style="stop-color:#F2D49B"/>
				<stop  offset="8.241760e-02" style="stop-color:#F2D49B"/>
				<stop  offset="8.253614e-02" style="stop-color:#F2D49B"/>
				<stop  offset="0.106" style="stop-color:#EBC77D"/>
				<stop  offset="0.1308" style="stop-color:#E6BD66"/>
				<stop  offset="0.1574" style="stop-color:#E3B656"/>
				<stop  offset="0.1869" style="stop-color:#E1B14C"/>
				<stop  offset="0.2253" style="stop-color:#E0B049"/>
				<stop  offset="0.2662" style="stop-color:#DCAA45"/>
				<stop  offset="0.3182" style="stop-color:#D19B3A"/>
				<stop  offset="0.376" style="stop-color:#BF8129"/>
				<stop  offset="0.4066" style="stop-color:#B3701D"/>
				<stop  offset="0.5371" style="stop-color:#AB4A1B"/>
				<stop  offset="0.6154" style="stop-color:#A8391A"/>
				<stop  offset="0.7473" style="stop-color:#7E301F"/>
				<stop  offset="0.8736" style="stop-color:#603628"/>
				<stop  offset="0.9201" style="stop-color:#8B3D25"/>
				<stop  offset="1" style="stop-color:#DD491F"/>
			</linearGradient>
			<path class="st41" d="M174,172.9c1.6-0.4,3.2-0.7,4.7-0.7c5,0,8.9,2,10.8,5.4c0.5,0.8,1,2.2,1,3.9s-0.7,3.8-2.6,6
				c-1.6,1.8-3.9,2.7-6.4,2.6c-3.5-0.1-6.8-2.2-8.6-3.8c-4-1.7-5-4.3-5.1-6.3C167,176.6,169.1,174.2,174,172.9z"/>
			<linearGradient id="SVGID_33_" gradientUnits="userSpaceOnUse" x1="179.0524" y1="153.7997" x2="179.0524" y2="249.2897">
				<stop  offset="0" style="stop-color:#F2D297"/>
				<stop  offset="8.241760e-02" style="stop-color:#F2D297"/>
				<stop  offset="9.964538e-02" style="stop-color:#EEC983"/>
				<stop  offset="0.1257" style="stop-color:#E8BF6C"/>
				<stop  offset="0.1537" style="stop-color:#E5B85C"/>
				<stop  offset="0.1849" style="stop-color:#E3B352"/>
				<stop  offset="0.2253" style="stop-color:#E2B24F"/>
				<stop  offset="0.2696" style="stop-color:#DEAC4B"/>
				<stop  offset="0.326" style="stop-color:#D39D40"/>
				<stop  offset="0.3887" style="stop-color:#C1832E"/>
				<stop  offset="0.4066" style="stop-color:#BB7A28"/>
				<stop  offset="0.5274" style="stop-color:#B55B27"/>
				<stop  offset="0.6154" style="stop-color:#B14A26"/>
				<stop  offset="0.7473" style="stop-color:#8C422A"/>
				<stop  offset="0.8736" style="stop-color:#724732"/>
				<stop  offset="0.9265" style="stop-color:#9D4E2F"/>
				<stop  offset="1" style="stop-color:#DF582A"/>
			</linearGradient>
			<path class="st42" d="M174.1,173.5c1.5-0.4,2.9-0.6,4.4-0.7c4.7-0.1,8.3,1.8,10.2,4.8c0.5,0.8,1.1,2.1,1.1,3.7
				c0,1.6-0.7,3.6-2.4,5.7c-1.5,1.7-3.7,2.5-6.1,2.3c-3.2-0.1-6.1-2-7.9-3.5c-3.6-1.5-4.6-3.9-4.7-5.8
				C167.5,177.1,169.4,174.9,174.1,173.5z"/>
			<linearGradient id="SVGID_34_" gradientUnits="userSpaceOnUse" x1="179.0775" y1="156.0219" x2="179.0775" y2="243.7123">
				<stop  offset="0" style="stop-color:#F1CF92"/>
				<stop  offset="8.241760e-02" style="stop-color:#F1CF92"/>
				<stop  offset="9.101312e-02" style="stop-color:#EFCB89"/>
				<stop  offset="0.1189" style="stop-color:#EAC172"/>
				<stop  offset="0.1488" style="stop-color:#E7BA62"/>
				<stop  offset="0.1821" style="stop-color:#E5B558"/>
				<stop  offset="0.2253" style="stop-color:#E4B455"/>
				<stop  offset="0.274" style="stop-color:#E0AE51"/>
				<stop  offset="0.3359" style="stop-color:#D59F46"/>
				<stop  offset="0.4047" style="stop-color:#C38535"/>
				<stop  offset="0.4066" style="stop-color:#C28434"/>
				<stop  offset="0.5168" style="stop-color:#BD6B33"/>
				<stop  offset="0.6154" style="stop-color:#BA5A32"/>
				<stop  offset="0.7473" style="stop-color:#9A5435"/>
				<stop  offset="0.8736" style="stop-color:#84583C"/>
				<stop  offset="0.9349" style="stop-color:#AF5E39"/>
				<stop  offset="1" style="stop-color:#E16635"/>
			</linearGradient>
			<path class="st43" d="M174.3,174.1c1.4-0.4,2.7-0.6,4.1-0.6c4.3-0.1,7.7,1.6,9.5,4.3c0.6,0.8,1.2,2,1.2,3.5s-0.6,3.4-2.3,5.3
				c-1.4,1.6-3.5,2.3-5.8,2c-2.9-0.1-5.5-1.9-7.1-3.2c-3.2-1.4-4.1-3.5-4.4-5.2C168.1,177.5,169.7,175.5,174.3,174.1z"/>
			<linearGradient id="SVGID_35_" gradientUnits="userSpaceOnUse" x1="179.0784" y1="158.2309" x2="179.0784" y2="238.1834">
				<stop  offset="0" style="stop-color:#F1CC8E"/>
				<stop  offset="8.241760e-02" style="stop-color:#F1CC8E"/>
				<stop  offset="0.1111" style="stop-color:#ECC378"/>
				<stop  offset="0.1431" style="stop-color:#E9BC68"/>
				<stop  offset="0.1789" style="stop-color:#E7B75E"/>
				<stop  offset="0.2253" style="stop-color:#E6B65B"/>
				<stop  offset="0.2797" style="stop-color:#E2B057"/>
				<stop  offset="0.3487" style="stop-color:#D7A14C"/>
				<stop  offset="0.4066" style="stop-color:#CA8E3F"/>
				<stop  offset="0.5004" style="stop-color:#C67C3E"/>
				<stop  offset="0.6154" style="stop-color:#C36B3E"/>
				<stop  offset="0.7473" style="stop-color:#A96641"/>
				<stop  offset="0.8736" style="stop-color:#966946"/>
				<stop  offset="0.9464" style="stop-color:#C17043"/>
				<stop  offset="1" style="stop-color:#E37541"/>
			</linearGradient>
			<path class="st44" d="M174.5,174.8c1.3-0.4,2.5-0.6,3.8-0.6c4-0.1,7.1,1.4,8.9,3.7c0.6,0.8,1.2,1.9,1.2,3.3c0,1.4-0.5,3.1-2.1,5
				c-1.4,1.6-3.4,2.1-5.6,1.8c-2.5-0.2-4.9-1.7-6.4-2.9c-2.8-1.2-3.7-3.1-4-4.6C168.7,178,170,176.1,174.5,174.8z"/>
			<linearGradient id="SVGID_36_" gradientUnits="userSpaceOnUse" x1="179.0578" y1="160.4243" x2="179.0578" y2="232.7106">
				<stop  offset="0" style="stop-color:#F1C98A"/>
				<stop  offset="8.241760e-02" style="stop-color:#F1C98A"/>
				<stop  offset="0.1018" style="stop-color:#EEC37D"/>
				<stop  offset="0.1365" style="stop-color:#EABC6D"/>
				<stop  offset="0.1751" style="stop-color:#E8B863"/>
				<stop  offset="0.2253" style="stop-color:#E7B760"/>
				<stop  offset="0.2876" style="stop-color:#E3B15C"/>
				<stop  offset="0.3666" style="stop-color:#D8A251"/>
				<stop  offset="0.4066" style="stop-color:#D1974A"/>
				<stop  offset="0.4718" style="stop-color:#CF8D4A"/>
				<stop  offset="0.6154" style="stop-color:#CB7C49"/>
				<stop  offset="0.7473" style="stop-color:#B7774C"/>
				<stop  offset="0.8736" style="stop-color:#A77A50"/>
				<stop  offset="0.9616" style="stop-color:#D2814D"/>
				<stop  offset="1" style="stop-color:#E6844C"/>
			</linearGradient>
			<path class="st45" d="M174.7,175.4c1.2-0.3,2.3-0.5,3.5-0.6c3.6-0.1,6.5,1.2,8.3,3.2c0.7,0.7,1.3,1.8,1.3,3.1
				c0,1.3-0.5,2.9-2,4.6c-1.3,1.5-3.2,1.9-5.3,1.5c-2.2-0.2-4.2-1.5-5.6-2.6c-2.4-1.1-3.2-2.7-3.6-4
				C169.3,178.4,170.3,176.7,174.7,175.4z"/>
			<linearGradient id="SVGID_37_" gradientUnits="userSpaceOnUse" x1="179.0179" y1="162.5993" x2="179.0179" y2="227.3025">
				<stop  offset="0" style="stop-color:#F0C685"/>
				<stop  offset="8.241760e-02" style="stop-color:#F0C685"/>
				<stop  offset="8.590574e-02" style="stop-color:#F0C583"/>
				<stop  offset="0.1251" style="stop-color:#ECBE73"/>
				<stop  offset="0.1687" style="stop-color:#EABA69"/>
				<stop  offset="0.2253" style="stop-color:#E9B966"/>
				<stop  offset="0.2995" style="stop-color:#E5B362"/>
				<stop  offset="0.3937" style="stop-color:#DAA458"/>
				<stop  offset="0.4066" style="stop-color:#D8A156"/>
				<stop  offset="0.4373" style="stop-color:#D79D56"/>
				<stop  offset="0.6154" style="stop-color:#D48C55"/>
				<stop  offset="0.7473" style="stop-color:#C58957"/>
				<stop  offset="0.8736" style="stop-color:#B98B5A"/>
				<stop  offset="0.9895" style="stop-color:#E49157"/>
				<stop  offset="1" style="stop-color:#E89257"/>
			</linearGradient>
			<path class="st46" d="M174.9,176c1.1-0.3,2.1-0.5,3.2-0.5c3.3-0.2,6,1,7.7,2.6c0.7,0.7,1.4,1.6,1.4,2.9c0.1,1.2-0.4,2.7-1.8,4.3
				c-1.2,1.4-3,1.7-5,1.2c-1.9-0.2-3.6-1.4-4.8-2.3c-2-0.9-2.8-2.3-3.2-3.4C169.8,178.9,170.6,177.3,174.9,176z"/>
			<linearGradient id="SVGID_38_" gradientUnits="userSpaceOnUse" x1="178.9609" y1="164.7514" x2="178.9609" y2="221.9697">
				<stop  offset="0" style="stop-color:#F0C481"/>
				<stop  offset="8.241760e-02" style="stop-color:#F0C481"/>
				<stop  offset="0.1082" style="stop-color:#EEC079"/>
				<stop  offset="0.1591" style="stop-color:#ECBC6F"/>
				<stop  offset="0.2253" style="stop-color:#EBBB6C"/>
				<stop  offset="0.3202" style="stop-color:#E7B568"/>
				<stop  offset="0.4066" style="stop-color:#E0AB61"/>
				<stop  offset="0.6154" style="stop-color:#DD9D61"/>
				<stop  offset="0.7473" style="stop-color:#D39B62"/>
				<stop  offset="0.8736" style="stop-color:#CB9C64"/>
				<stop  offset="1" style="stop-color:#EAA162"/>
			</linearGradient>
			<path class="st47" d="M175,176.7c0.9-0.3,1.9-0.4,2.9-0.5c3-0.2,5.5,0.7,7.1,2.1c0.8,0.7,1.4,1.5,1.5,2.7
				c0.1,1.1-0.4,2.5-1.6,3.9c-1.1,1.3-2.8,1.5-4.7,0.9c-1.5-0.3-3-1.2-4.1-2c-1.6-0.8-2.3-1.9-2.8-2.9
				C170.4,179.3,170.9,177.9,175,176.7z"/>
			<linearGradient id="SVGID_39_" gradientUnits="userSpaceOnUse" x1="178.8886" y1="166.8733" x2="178.8886" y2="216.728">
				<stop  offset="0" style="stop-color:#EFC17C"/>
				<stop  offset="8.241760e-02" style="stop-color:#EFC17C"/>
				<stop  offset="0.1362" style="stop-color:#EEBE75"/>
				<stop  offset="0.2253" style="stop-color:#EDBC72"/>
				<stop  offset="0.3699" style="stop-color:#E9B66F"/>
				<stop  offset="0.4066" style="stop-color:#E7B46D"/>
				<stop  offset="0.6154" style="stop-color:#E6AD6C"/>
				<stop  offset="0.7473" style="stop-color:#E1AC6D"/>
				<stop  offset="0.8736" style="stop-color:#DDAD6E"/>
				<stop  offset="1" style="stop-color:#EDAF6D"/>
			</linearGradient>
			<path class="st48" d="M175.2,177.3c0.8-0.2,1.7-0.4,2.6-0.5c2.6-0.2,5,0.4,6.5,1.5c0.9,0.6,1.5,1.4,1.6,2.5
				c0.1,1-0.3,2.2-1.5,3.6c-1,1.2-2.7,1.2-4.4,0.7c-1.2-0.3-2.4-1-3.3-1.7c-1.2-0.7-1.9-1.5-2.5-2.3
				C171,179.8,171.2,178.5,175.2,177.3z"/>
			<path class="st49" d="M183.9,184c-1,1.1-2.5,1-4.1,0.4s-3.3-1.9-4.6-3.1c-3.6-1.1-3.6-2.2,0.3-3.3c3.1-0.9,6.2-0.6,8.1,0.6
				c0.9,0.6,1.5,1.3,1.7,2.3C185.3,181.7,184.9,182.8,183.9,184z"/>
		</g>
		<linearGradient id="SVGID_40_" gradientUnits="userSpaceOnUse" x1="125.9021" y1="440.8609" x2="262.5193" y2="440.8609">
			<stop  offset="0" style="stop-color:#000000"/>
			<stop  offset="0.3956" style="stop-color:#CCCCCC"/>
			<stop  offset="0.5824" style="stop-color:#131313"/>
			<stop  offset="0.6158" style="stop-color:#181818"/>
			<stop  offset="0.6576" style="stop-color:#282828"/>
			<stop  offset="0.7038" style="stop-color:#414141"/>
			<stop  offset="0.7529" style="stop-color:#656565"/>
			<stop  offset="0.7692" style="stop-color:#727272"/>
			<stop  offset="0.8059" style="stop-color:#6C6C6C"/>
			<stop  offset="0.8525" style="stop-color:#5D5D5D"/>
			<stop  offset="0.9044" style="stop-color:#434343"/>
			<stop  offset="0.9598" style="stop-color:#1F1F1F"/>
			<stop  offset="1" style="stop-color:#000000"/>
		</linearGradient>
		<path class="st50" d="M262.5,440.9c0,2.7-2.5,5-5.5,5H131.4c-3.1,0-5.5-2.2-5.5-5l0,0c0-2.7,2.5-5,5.5-5H257
			C260,435.9,262.5,438.1,262.5,440.9L262.5,440.9z"/>
		<linearGradient id="SVGID_41_" gradientUnits="userSpaceOnUse" x1="127.4411" y1="440.8618" x2="260.9783" y2="440.8618">
			<stop  offset="1.098900e-02" style="stop-color:#0F0F0F"/>
			<stop  offset="0.3956" style="stop-color:#FFFFFF"/>
			<stop  offset="0.5824" style="stop-color:#262626"/>
			<stop  offset="0.6083" style="stop-color:#2C2C2C"/>
			<stop  offset="0.6407" style="stop-color:#3B3B3B"/>
			<stop  offset="0.6765" style="stop-color:#555555"/>
			<stop  offset="0.7149" style="stop-color:#787878"/>
			<stop  offset="0.7548" style="stop-color:#A5A5A5"/>
			<stop  offset="0.7692" style="stop-color:#B8B8B8"/>
			<stop  offset="0.7979" style="stop-color:#B2B2B2"/>
			<stop  offset="0.8344" style="stop-color:#A2A2A2"/>
			<stop  offset="0.8751" style="stop-color:#888888"/>
			<stop  offset="0.9188" style="stop-color:#646464"/>
			<stop  offset="0.9644" style="stop-color:#363636"/>
			<stop  offset="1" style="stop-color:#0D0D0D"/>
		</linearGradient>
		<path class="st51" d="M257,444.3H131.4c-2.2,0-4-1.5-4-3.4c0-1.9,1.8-3.4,4-3.4H257c2.2,0,4,1.5,4,3.4
			C261,442.8,259.2,444.3,257,444.3L257,444.3z"/>
		<linearGradient id="SVGID_42_" gradientUnits="userSpaceOnUse" x1="149.5588" y1="148.9127" x2="149.5588" y2="262.9055">
			<stop  offset="0" style="stop-color:#FFE4AB"/>
			<stop  offset="8.241760e-02" style="stop-color:#FFE4AB"/>
			<stop  offset="9.536518e-02" style="stop-color:#FCDC95"/>
			<stop  offset="0.1167" style="stop-color:#F8D177"/>
			<stop  offset="0.1393" style="stop-color:#F5C860"/>
			<stop  offset="0.1635" style="stop-color:#F3C250"/>
			<stop  offset="0.1904" style="stop-color:#F1BE46"/>
			<stop  offset="0.2253" style="stop-color:#F1BD43"/>
			<stop  offset="0.2637" style="stop-color:#EFB73E"/>
			<stop  offset="0.3125" style="stop-color:#E7A831"/>
			<stop  offset="0.3667" style="stop-color:#DC8E1C"/>
			<stop  offset="0.4066" style="stop-color:#D17608"/>
			<stop  offset="0.4559" style="stop-color:#CF5F07"/>
			<stop  offset="0.5619" style="stop-color:#CB3105"/>
			<stop  offset="0.6154" style="stop-color:#C92004"/>
			<stop  offset="0.7473" style="stop-color:#AB1710"/>
			<stop  offset="0.8736" style="stop-color:#953232"/>
			<stop  offset="0.9279" style="stop-color:#C05B58"/>
			<stop  offset="1" style="stop-color:#FF9890"/>
		</linearGradient>
		<path class="st52" d="M185.5,270.9C185.5,270.9,185.5,270.9,185.5,270.9c-1.6-36.4-21.9-86-34.6-122c-19.4,1.3-32.1,3.1-37.3,5.3
			C139.6,192.9,184.7,248.4,185.5,270.9z"/>
		<path class="st53" d="M95.9,120c0.1,0.8,0.2,1.6,0.4,2.6c6.5,2.5,24.1,4.5,47.7,5.8c-0.2-0.8-0.5-1.7-0.7-2.5
			c-24.8-1.3-40.8-3.5-46-5.4c0.4-0.2,0.9-0.3,1.5-0.5H95.9z"/>
		<path class="st54" d="M101.2,117.1c-2.3,0.4-4,0.8-5.3,1.4c-0.1,0.2-0.1,0.3-0.1,0.5c0,0.7,0.1,1.4,0.2,2.2
			c1.1-0.9,4.4-1.5,5.6-1.7c10.8-1.9,24.2-3.4,39.4-4.3c-0.1-0.8-0.2-1.6-0.3-2.4C126,113.7,112.5,115.1,101.2,117.1z M184.5,260.1
			c-4.4-10-13-23.4-23.4-38.3c13.6,20.3,24,38.4,24.3,49.1c0,0,0,0,0,0C185.3,267.5,185,263.9,184.5,260.1z"/>
		<path class="st55" d="M266.5,152.3c-8.8-1.5-22.7-3-40.2-3.7c0.1,4.7,1.7,9.2,5.1,12.7c7.5,8,20.7,7.8,29.4-0.4
			C263.4,158.4,265.3,155.4,266.5,152.3z"/>
		<radialGradient id="SVGID_43_" cx="238.666" cy="130.8121" r="28.3186" gradientUnits="userSpaceOnUse">
			<stop  offset="0" style="stop-color:#B7B9B4"/>
			<stop  offset="0.7308" style="stop-color:#4F4703"/>
			<stop  offset="1" style="stop-color:#360A17"/>
		</radialGradient>
		<path class="st56" d="M257.8,128.7c-0.4-0.5-0.7-1-1.1-1.5c-9.9-4.9-22.2-0.2-27.7,10.5c-2.6,5.1-3.1,10.6-2,15.5
			c1.3,5.5,36,6,37.8,2.6c4.2-7.9,3.1-17.1-1.7-23.3C261.2,131.5,259.4,130.3,257.8,128.7z"/>
		<path class="st15" d="M257.8,128.7c-0.1-0.1-0.1-0.2-0.2-0.3c0,0-0.1,0-0.2,0.1c-0.4,0.7,0.6,2.1,2.3,3.2c1.5,1,3,1.3,3.6,0.9
			C261.4,131.7,259.5,130.4,257.8,128.7z"/>
	</g>
</g>
</svg>
